<?xml version="1.0" encoding="utf-8"?>
<!-- Generator: Adobe Illustrator 16.0.0, SVG Export Plug-In . SVG Version: 6.00 Build 0)  -->
<!DOCTYPE svg PUBLIC "-//W3C//DTD SVG 1.1//EN" "http://www.w3.org/Graphics/SVG/1.1/DTD/svg11.dtd">
<svg version="1.1" id="Layer_1" xmlns="http://www.w3.org/2000/svg" xmlns:xlink="http://www.w3.org/1999/xlink" x="0px" y="0px"
	 width="700px" height="1000px" viewBox="0 0 700 1000" enable-background="new 0 0 700 1000" xml:space="preserve">
<g>
	<g>
		<path fill-rule="evenodd" clip-rule="evenodd" fill="none" d="M339.349,906.574c0,34.439,0.001,68.88-0.028,103.319
			c0,0.239-0.424,0.687-0.651,0.687c-20.1,0.032-40.199,0.032-60.299,0.002c-0.213,0-0.613-0.418-0.613-0.642
			c-0.027-68.909-0.027-137.818,0.004-206.727c0-0.225,0.452-0.645,0.693-0.646c20.07-0.03,40.141-0.03,60.211,0.002
			c0.228,0,0.655,0.446,0.655,0.684C339.351,837.694,339.349,872.134,339.349,906.574z M299.061,1002.317
			c0.277,0.302,0.753,1.276,1.253,1.29c3.115,0.079,6.245,0.07,9.352-0.151c5.212-0.37,10.413-0.907,15.613-1.434
			c0.298-0.03,0.796-0.609,0.773-0.898c-0.289-3.588-0.422-7.213-1.074-10.74c-0.613-3.318-2.029-6.487-2.678-9.803
			c-1.312-6.703-2.58-13.433-3.434-20.205c-1.223-9.691-2.06-19.432-3.058-29.151c-0.357-3.483-0.789-6.963-1.033-10.454
			c-0.354-5.059-0.554-10.127-0.844-15.189c-0.555-9.705-1.29-19.404-1.619-29.116c-0.159-4.676,0.425-9.377,0.689-14.066
			c0.186-3.312,0.273-6.636,0.631-9.93c0.473-4.341,0.894-8.719,1.845-12.968c0.92-4.114,2.372-8.125,3.794-12.108
			c1.759-4.924,3.802-9.747,5.525-14.683c0.241-0.689-0.642-1.772-1.004-2.673c-0.661,0.422-1.604,0.689-1.936,1.293
			c-1.854,3.379-3.466,6.892-5.354,10.252c-1.127,2.007-2.889,3.683-3.868,5.743c-1.998,4.202-3.602,8.59-5.496,12.845
			c-0.569,1.277-1.562,2.366-2.36,3.542c-0.538-1.051-1.217-2.055-1.584-3.162c-0.781-2.357-1.132-4.891-2.145-7.132
			c-1.822-4.033-3.937-7.941-6.091-11.812c-0.372-0.668-1.513-1.057-2.366-1.218c-0.264-0.05-1.022,1.06-1.07,1.676
			c-0.066,0.84,0.332,1.716,0.531,2.575c1.257,5.42,2.593,10.823,3.747,16.264c0.881,4.152,1.647,8.337,2.25,12.537
			c0.558,3.891,0.82,7.822,1.235,11.734c0.229,2.157,0.63,4.303,0.742,6.465c0.504,9.777,0.831,19.564,1.416,29.336
			c0.571,9.555,1.67,19.084,1.99,28.644c0.27,8.035-0.153,16.101-0.454,24.146c-0.149,4.005-0.763,7.991-1.073,11.994
			c-0.292,3.771-0.393,7.559-0.696,11.33C300.55,985.326,299.813,993.558,299.061,1002.317z"/>
		<path fill-rule="evenodd" clip-rule="evenodd" d="M299.061,1002.317c0.752-8.76,1.489-16.991,2.152-25.228
			c0.303-3.771,0.405-7.559,0.696-11.33c0.31-4.003,0.923-7.989,1.073-11.994c0.301-8.046,0.724-16.111,0.454-24.146
			c-0.32-9.56-1.419-19.089-1.99-28.644c-0.585-9.771-0.912-19.559-1.416-29.336c-0.111-2.162-0.512-4.308-0.742-6.465
			c-0.416-3.912-0.677-7.844-1.235-11.734c-0.603-4.2-1.37-8.385-2.25-12.537c-1.154-5.44-2.49-10.844-3.747-16.264
			c-0.2-0.859-0.597-1.735-0.531-2.575c0.048-0.616,0.806-1.726,1.07-1.676c0.853,0.161,1.994,0.55,2.366,1.218
			c2.154,3.87,4.269,7.778,6.091,11.812c1.013,2.241,1.364,4.774,2.145,7.132c0.367,1.107,1.046,2.111,1.584,3.162
			c0.798-1.176,1.791-2.265,2.36-3.542c1.895-4.255,3.498-8.643,5.496-12.845c0.979-2.061,2.741-3.736,3.868-5.743
			c1.887-3.36,3.5-6.873,5.354-10.252c0.332-0.604,1.275-0.871,1.936-1.293c0.363,0.9,1.245,1.983,1.004,2.673
			c-1.723,4.936-3.767,9.759-5.525,14.683c-1.423,3.983-2.874,7.994-3.794,12.108c-0.951,4.249-1.373,8.627-1.845,12.968
			c-0.358,3.294-0.445,6.618-0.631,9.93c-0.264,4.689-0.848,9.391-0.689,14.066c0.33,9.712,1.064,19.411,1.619,29.116
			c0.29,5.063,0.49,10.131,0.844,15.189c0.244,3.491,0.676,6.971,1.033,10.454c0.998,9.72,1.835,19.46,3.058,29.151
			c0.854,6.772,2.122,13.502,3.434,20.205c0.649,3.315,2.064,6.484,2.678,9.803c0.651,3.527,0.785,7.152,1.074,10.74
			c0.023,0.289-0.475,0.868-0.773,0.898c-5.2,0.526-10.401,1.063-15.613,1.434c-3.107,0.222-6.237,0.23-9.352,0.151
			C299.813,1003.594,299.338,1002.619,299.061,1002.317z"/>
	</g>
</g>
</svg>
