<?xml version="1.0" encoding="utf-8"?>
<!-- Generator: Adobe Illustrator 16.0.0, SVG Export Plug-In . SVG Version: 6.00 Build 0)  -->
<!DOCTYPE svg PUBLIC "-//W3C//DTD SVG 1.1//EN" "http://www.w3.org/Graphics/SVG/1.1/DTD/svg11.dtd">
<svg version="1.1" id="Layer_1" xmlns="http://www.w3.org/2000/svg" xmlns:xlink="http://www.w3.org/1999/xlink" x="0px" y="0px"
	 width="700px" height="1000px" viewBox="0 0 700 1000" enable-background="new 0 0 700 1000" xml:space="preserve">
<g>
	<g>
		<path fill-rule="evenodd" clip-rule="evenodd" fill="none" d="M296.368,949.887c0-18.213-0.002-36.425,0.026-54.637
			c0-0.204,0.394-0.585,0.605-0.586c8.036-0.03,16.071-0.029,24.106-0.002c0.182,0,0.52,0.352,0.52,0.539
			c0.023,36.471,0.023,72.94-0.001,109.411c0,0.182-0.352,0.52-0.54,0.52c-8.059,0.026-16.117,0.026-24.175,0
			c-0.182-0.001-0.52-0.352-0.52-0.54C296.367,986.356,296.368,968.121,296.368,949.887z M303.088,999.612
			c0.432,0.653,0.93,2.142,1.527,2.183c2.667,0.186,5.363-0.043,8.048-0.122c1.222-0.036,2.866,0.649,2.497-1.774
			c-0.622-4.077-1.168-8.166-1.655-12.261c-0.209-1.761-0.143-3.552-0.283-5.322c-0.262-3.317-0.693-6.625-0.847-9.945
			c-0.142-3.052-0.104-6.12,0.018-9.175c0.266-6.651,0.75-13.295,0.914-19.948c0.082-3.332-0.348-6.677-0.542-10.016
			c-0.082-1.407,0.027-2.854-0.263-4.216c-0.771-3.624-2.156-7.172-2.483-10.823c-0.533-5.954-0.407-11.967-0.604-17.953
			c-0.015-0.459-0.385-0.907-0.59-1.361c-0.279,0.346-0.762,0.668-0.805,1.04c-0.299,2.632-0.569,5.27-0.729,7.912
			c-0.197,3.263-0.495,6.542-0.354,9.796c0.162,3.739,0.863,7.451,1.135,11.188c0.342,4.718,0.605,9.447,0.676,14.175
			c0.048,3.205-0.242,6.419-0.477,9.622c-0.23,3.152-0.603,6.294-0.872,9.443c-0.313,3.674-0.496,7.36-0.902,11.022
			c-0.247,2.227-0.935,4.402-1.202,6.627c-0.411,3.41-0.578,6.85-0.946,10.267C304.021,993.024,303.559,996.063,303.088,999.612z"/>
		<path fill-rule="evenodd" clip-rule="evenodd" d="M303.088,999.612c0.471-3.549,0.934-6.588,1.263-9.642
			c0.369-3.417,0.536-6.856,0.946-10.267c0.268-2.225,0.955-4.4,1.202-6.627c0.406-3.662,0.588-7.349,0.902-11.022
			c0.269-3.149,0.642-6.291,0.872-9.443c0.234-3.203,0.524-6.417,0.477-9.622c-0.071-4.728-0.334-9.457-0.676-14.175
			c-0.271-3.737-0.973-7.449-1.135-11.188c-0.141-3.254,0.156-6.533,0.354-9.796c0.16-2.643,0.43-5.28,0.729-7.912
			c0.042-0.372,0.526-0.694,0.805-1.04c0.205,0.454,0.575,0.902,0.59,1.361c0.197,5.986,0.071,11.999,0.604,17.953
			c0.327,3.651,1.712,7.199,2.483,10.823c0.29,1.362,0.181,2.809,0.263,4.216c0.194,3.339,0.624,6.684,0.542,10.016
			c-0.163,6.653-0.648,13.297-0.914,19.948c-0.122,3.055-0.16,6.123-0.018,9.175c0.154,3.32,0.585,6.628,0.847,9.945
			c0.14,1.771,0.074,3.562,0.283,5.322c0.487,4.095,1.033,8.184,1.655,12.261c0.37,2.424-1.274,1.738-2.497,1.774
			c-2.685,0.079-5.381,0.308-8.048,0.122C304.018,1001.754,303.52,1000.266,303.088,999.612z"/>
	</g>
</g>
</svg>
