<?xml version="1.0" encoding="utf-8"?>
<!-- Generator: Adobe Illustrator 16.0.0, SVG Export Plug-In . SVG Version: 6.00 Build 0)  -->
<!DOCTYPE svg PUBLIC "-//W3C//DTD SVG 1.1//EN" "http://www.w3.org/Graphics/SVG/1.1/DTD/svg11.dtd">
<svg version="1.1" id="Layer_1" xmlns="http://www.w3.org/2000/svg" xmlns:xlink="http://www.w3.org/1999/xlink" x="0px" y="0px"
	 width="700px" height="1000px" viewBox="0 0 700 1000" enable-background="new 0 0 700 1000" xml:space="preserve">
<g>
	<path fill-rule="evenodd" clip-rule="evenodd" fill="none" d="M200.078,670.194c0-114.421-0.002-228.841,0.065-343.262
		c0-0.507,0.991-1.457,1.519-1.457c97.558-0.065,195.115-0.065,292.674,0.002c0.507,0,1.456,0.991,1.456,1.519
		c0.064,228.841,0.064,457.684-0.002,686.526c0,0.506-0.991,1.456-1.52,1.456c-97.558,0.065-195.115,0.065-292.673-0.002
		c-0.507-0.001-1.456-0.991-1.457-1.52C200.076,899.036,200.078,784.615,200.078,670.194z M328.263,1007.385
		c1.887-0.14,3.586-0.24,5.279-0.408c0.377-0.037,1.064-0.359,1.048-0.463c-0.542-3.481,2.102-1.349,3.145-1.63
		c1.445-0.388,3.073-0.069,4.619-0.13c0.426-0.017,0.854-0.284,1.246-0.5c0.064-0.035,0.023-0.486-0.103-0.604
		c-0.995-0.945-2.248-0.774-2.003-3.484c0.472-5.229-1.189-10.649-1.967-15.991c-0.601-4.12-1.513-8.223-1.741-12.364
		c-0.472-8.608-0.552-17.238-0.853-25.857c-0.153-4.396-0.815-8.808-0.578-13.175c0.45-8.262,1.606-16.486,2.031-24.748
		c0.252-4.911-0.436-9.863-0.507-14.799c-0.057-3.959,0.199-7.921,0.277-11.883c0.145-7.358,0.42-14.719,0.352-22.076
		c-0.1-10.883-0.58-21.762-0.648-32.645c-0.042-6.643,0.439-13.287,0.571-19.933c0.047-2.381-0.489-4.784-0.337-7.15
		c0.866-13.566,2.242-27.113,2.68-40.691c0.306-9.507-0.747-19.051-0.929-28.583c-0.107-5.613,0.229-11.239,0.489-16.854
		c0.594-12.819,1.079-25.647,1.98-38.446c0.44-6.248,1.422-12.498,2.705-18.633c0.974-4.659,2.718-9.17,4.291-13.688
		c1.229-3.53,2.431-7.121,4.154-10.418c3.101-5.932,6.451-11.744,9.951-17.451c2.404-3.921,4.871-7.917,7.973-11.266
		c3.528-3.809,7.998-6.727,11.691-10.401c5.896-5.864,11.409-12.11,17.228-18.055c8.548-8.732,15.418-18.626,21.228-29.343
		c2.01-3.706,4.633-7.079,6.966-10.611c0.196-0.297,0.325-0.641,0.459-0.973c0.013-0.031-0.192-0.219-0.26-0.2
		c-0.238,0.067-0.461,0.191-0.689,0.294c0.259-0.615,0.413-1.307,0.795-1.832c2.255-3.094,5.491-5.832,6.665-9.28
		c2.683-7.876,4.801-16.013,6.315-24.198c1.232-6.658,0.991-13.576,1.897-20.313c0.777-5.78,1.884-11.575,3.529-17.162
		c1.599-5.432,4.135-10.581,6.141-15.899c3.938-10.444,7.495-21.043,11.776-31.343c3.481-8.378,7.723-16.446,11.752-24.59
		c3.529-7.132,7.249-14.17,10.829-21.277c0.28-0.555,0.13-1.327,0.18-1.998c-0.564,0.307-1.353,0.469-1.659,0.942
		c-2.735,4.223-5.351,8.523-8.068,12.757c-3.774,5.879-7.608,11.72-11.414,17.579c-2.55,3.926-5.191,7.797-7.612,11.802
		c-1.98,3.275-3.791,6.663-5.503,10.087c-1.956,3.915-3.722,7.926-5.568,11.895c-0.15,0.323-0.295,0.648-0.442,0.973
		c-0.069-0.332-0.23-0.674-0.194-0.993c0.748-6.471,1.167-13.005,2.37-19.391c1.611-8.557,3.667-17.042,5.852-25.475
		c1.482-5.718,3.074-11.486,5.423-16.88c2.409-5.53,5.832-10.614,8.709-15.948c0.286-0.531-0.134-1.442-0.226-2.177
		c-0.679,0.142-1.695,0.05-1.981,0.464c-1.788,2.583-3.398,5.289-5.105,7.929c-0.268,0.415-0.724,0.709-1.092,1.059
		c-0.006-0.511-0.137-1.06,0.006-1.525c0.579-1.886,1.34-3.719,1.852-5.621c0.788-2.931,1.528-5.883,2.063-8.867
		c0.154-0.856-0.467-1.852-0.732-2.784c-0.763,0.357-1.836,0.514-2.222,1.114c-0.809,1.254-1.459,2.691-1.814,4.141
		c-1.873,7.621-3.632,15.27-5.438,22.906c-0.054,0.229-0.195,0.438-0.297,0.657c-0.052-0.271-0.16-0.544-0.148-0.813
		c0.224-4.932,0.651-9.862,0.65-14.793c-0.002-6.181-0.307-12.364-0.62-18.539c-0.033-0.641-1.018-1.234-1.56-1.85
		c-0.438,0.687-1.249,1.371-1.253,2.06c-0.027,4.576,0.204,9.153,0.19,13.729c-0.04,13.025-4.164,25.265-7.443,37.653
		c-2.04,7.708-4.642,15.275-6.479,23.027c-1.776,7.487-3.133,15.095-4.237,22.713c-1.08,7.442-0.936,15.111-2.53,22.418
		c-2.717,12.447-7.027,24.562-9.432,37.054c-1.936,10.058-7.39,18.104-12.216,26.57c-2.723,4.777-6.33,9.051-9.549,13.543
		c-0.873,1.218-1.784,2.406-2.679,3.608c0.441-1.414,0.487-3.189,1.393-4.179c3.515-3.845,4.257-8.481,4.495-13.358
		c0.364-7.479-0.014-15.098,1.322-22.402c1.623-8.872,4.421-17.569,7.268-26.158c1.346-4.062,3.754-7.846,6.111-11.476
		c2.245-3.456,5.091-6.518,7.566-9.832c0.343-0.458,0.075-1.373,0.091-2.076c-0.57,0.089-1.366-0.033-1.675,0.298
		c-2.813,3.031-5.936,5.876-8.206,9.284c-4.104,6.161-7.688,12.668-11.469,19.042c-0.245,0.412-0.326,0.921-0.483,1.385
		c-0.159-0.518-0.425-1.029-0.461-1.556c-0.323-4.815-0.729-9.629-0.863-14.45c-0.103-3.655,0.215-7.32,0.238-10.981
		c0.032-5.109-0.172-10.223-0.017-15.327c0.128-4.236,0.465-8.482,1-12.686c0.925-7.271,1.523-14.653,3.307-21.724
		c1.42-5.629,5.272-10.681,6.465-16.323c1.412-6.686,1.147-13.729,1.538-20.622c0.021-0.388-0.611-0.813-0.938-1.22
		c-0.23,0.604-0.686,1.222-0.649,1.81c0.11,1.826,0.884,3.738,0.536,5.44c-0.798,3.909,0.477,7.991-3.367,11.707
		c-2.627,2.541-2.759,7.784-3.737,11.882c-1.986,8.315-3.787,16.675-5.681,25.013c-0.101,0.441-0.354,0.847-0.536,1.269
		c-0.159-0.397-0.314-0.796-0.478-1.192c-0.445-1.08-0.894-2.158-1.341-3.237c-0.26,1.387-0.724,2.771-0.742,4.162
		c-0.066,4.742,0.036,9.487,0.031,14.231c0,0.388-0.321,0.776-0.493,1.164c-0.158-0.42-0.407-0.829-0.458-1.262
		c-0.577-4.859-1.133-9.721-1.676-14.584c-1.209-10.819-2.478-21.633-3.586-32.463c-0.689-6.731-1.085-13.493-1.759-20.226
		c-0.067-0.671-1.15-1.242-1.762-1.859c-0.525,0.577-1.493,1.143-1.507,1.731c-0.118,5.043-0.272,10.101-0.02,15.135
		c0.607,12.075,1.216,24.157,2.242,36.201c0.677,7.952,2.086,15.842,3.139,23.764c0.055,0.418-0.156,0.872-0.244,1.309
		c-0.239-0.125-0.564-0.188-0.707-0.384c-3.424-4.705-6.807-9.439-10.267-14.118c-0.399-0.54-1.209-0.775-1.829-1.152
		c-0.444,0.827-1.101,1.615-1.263,2.494c-0.114,0.615,0.288,1.492,0.739,2.008c0.931,1.066,2.088,1.931,3.063,2.962
		c0.284,0.3,0.271,0.882,0.395,1.335c-0.434-0.243-0.953-0.402-1.287-0.743c-3.949-4.028-7.729-8.232-11.834-12.093
		c-4.814-4.528-10.117-8.547-14.822-13.179c-6.692-6.586-13.281-13.373-14.592-23.392c-0.025-0.192-0.77-0.272-1.166-0.436
		c-0.772-0.319-2.02-0.479-2.225-1.022c-1.534-4.083-2.833-8.255-4.287-12.37c-0.206-0.582-0.853-1.007-1.295-1.505
		c-0.387,0.507-1.077,0.997-1.107,1.525c-0.107,1.895-0.365,3.903,0.116,5.684c1.113,4.125,2.688,8.122,3.951,12.209
		c0.759,2.458,1.872,5.016,1.753,7.478c-0.12,2.513-2.054,4.91-2.321,7.449c-1.111,10.557-5.997,19.911-8.93,29.868
		c-2.423,8.227-3.166,16.948-4.664,25.448c-0.093,0.527-0.279,1.038-0.422,1.557c-0.193-0.496-0.405-0.985-0.575-1.489
		c-0.317-0.937-0.658-1.871-0.907-2.827c-1.266-4.865-2.65-9.705-3.722-14.613c-1.607-7.356-3.071-14.748-4.423-22.156
		c-0.496-2.718-0.427-5.536-0.805-8.281c-0.057-0.415-1.19-1.001-1.75-0.929c-0.492,0.063-1.222,0.92-1.254,1.462
		c-0.186,3.153-0.265,6.318-0.25,9.478c0.021,4.287-0.346,8.658,0.348,12.844c1.734,10.464,3.872,20.867,6.036,31.254
		c2.378,11.415,5.044,22.769,7.416,34.185c0.636,3.062,1.626,6.572,0.723,9.304c-1.231,3.723-4.119,6.898-6.307,10.302
		c-0.126,0.195-0.35,0.329-0.528,0.491c-0.008-0.251-0.103-0.541-0.011-0.748c1.178-2.65,2.424-5.271,3.549-7.944
		c0.27-0.639,0.16-1.438,0.224-2.164c-0.749,0.092-1.971-0.069-2.174,0.312c-2.315,4.354-4.492,8.781-6.664,13.21
		c-0.461,0.941-0.751,1.966-1.121,2.951c0.198-1.091,0.554-2.183,0.549-3.273c-0.004-1.07-0.375-2.14-0.585-3.209
		c-0.75,0.823-1.578,1.591-2.216,2.493c-0.292,0.413-0.178,1.098-0.306,1.646c-1.311,5.614-2.627,11.228-3.967,16.836
		c-0.074,0.312-0.359,0.573-0.545,0.857c-0.045-0.379-0.187-0.776-0.12-1.135c0.786-4.226,2.484-8.496,2.242-12.655
		c-0.669-11.468-2.007-22.906-3.436-34.311c-0.26-2.075-2.204-3.939-3.37-5.9c0.033,1.874-0.136,3.778,0.134,5.617
		c0.928,6.314,2.03,12.604,2.99,18.915c0.072,0.472-0.447,1.033-0.692,1.553c-0.339-0.365-0.747-0.688-1.006-1.103
		c-1-1.601-1.888-3.276-2.966-4.82c-0.295-0.424-1.108-0.486-1.683-0.714c0.046,0.644-0.052,1.339,0.162,1.921
		c1.575,4.277,3.825,8.417,4.659,12.827c0.84,4.441,0.577,9.163,0.284,13.729c-0.395,6.153-0.797,12.378-2.074,18.386
		c-1.714,8.066-4.256,15.957-6.488,23.911c-0.125,0.446-0.605,0.886-1.034,1.104c-0.151,0.076-0.829-0.457-0.952-0.819
		c-1.013-2.967-2.035-5.935-2.897-8.947c-2.058-7.19-4.146-14.376-5.997-21.622c-1.183-4.631-2.271-9.326-2.857-14.061
		c-0.889-7.18-1.985-14.448-1.67-21.62c0.193-4.392,2.607-8.788,4.479-12.979c2.572-5.764,5.61-11.318,8.352-17.009
		c0.377-0.783,0.194-1.835,0.271-2.762c-4.23,0.438-1.207-2.468-1.44-3.625c-0.268-1.329,0.944-2.895,0.912-4.345
		c-0.13-5.837-0.472-11.671-0.81-17.501c-0.027-0.461-0.618-0.889-0.947-1.333c-0.481,0.481-1.335,0.926-1.387,1.45
		c-0.755,7.537-0.942,15.163-2.222,22.603c-0.997,5.792-3.32,11.356-5.063,17.019c-0.069,0.224-0.234,0.418-0.355,0.626
		c-0.053-0.272-0.186-0.556-0.148-0.815c0.521-3.533,1.097-7.058,1.573-10.596c0.082-0.612-0.239-1.279-0.374-1.92
		c-0.47,0.12-1.167,0.09-1.365,0.39c-0.526,0.792-1.03,1.692-1.201,2.613c-0.978,5.251-1.563,10.596-2.865,15.761
		c-0.956,3.792-2.857,7.34-4.237,11.033c-0.572,1.533-0.883,3.163-1.313,4.749c-0.732-1.892-1.5-3.77-2.17-5.683
		c-0.179-0.509,0.157-1.294-0.125-1.648c-0.382-0.479-1.125-0.68-1.727-0.972c-0.629-0.306-1.725-0.455-1.842-0.885
		c-1.16-4.237-2.161-8.518-3.199-12.789c-0.282-1.162-1.077-2.551-0.709-3.461c2.021-5.001,4.139-9.981,6.583-14.787
		c3.756-7.386,7.907-14.571,11.695-21.942c3.087-6.005,5.981-12.115,8.788-18.257c2.635-5.767,4.351-11.732,2.415-18.134
		c-0.148-0.49-0.572-0.897-0.867-1.342c-0.178,0.601-0.466,1.194-0.514,1.806c-0.286,3.619,0.397,7.636-0.96,10.779
		c-2.663,6.17-6.444,11.859-9.776,17.74c-2.354,4.158-3.915,9.201-7.277,12.256c-5.876,5.34-7.817,12.395-10.817,19.077
		c-0.458,1.021-0.979,2.015-1.47,3.021c-0.216-0.991-0.425-1.984-0.65-2.973c-0.182-0.804-0.46-1.595-0.563-2.408
		c-1.63-12.998-3.831-25.959-4.688-39.009c-0.877-13.378-0.39-26.844-0.639-40.27c-0.024-1.313-1.025-2.609-1.573-3.913
		c-0.491,0.928-1.045,1.829-1.451,2.792c-0.274,0.65-0.468,1.387-0.477,2.087c-0.14,11.085-0.578,22.182-0.247,33.254
		c0.252,8.46,1.491,16.89,2.279,25.333c0.034,0.363-0.045,0.737-0.072,1.106c-0.11-0.334-0.269-0.662-0.325-1.006
		c-0.518-3.171-0.971-6.354-1.552-9.515c-0.179-0.97-0.696-1.877-1.058-2.814c-0.063,1.039-0.334,2.115-0.155,3.109
		c1.954,10.86,4.121,21.684,5.92,32.569c0.803,4.856,1.266,9.558-1.631,14.445c-3.103,5.235-4.305,11.401-2.954,17.7
		c0.222,1.036,0.205,2.124,0.298,3.188c-1.012-0.668-2.435-1.105-2.963-2.045c-1.989-3.539-3.804-7.188-5.468-10.894
		c-3.468-7.723-6.827-15.495-10.169-23.274c-1.126-2.621-2.532-5.246-2.976-8.003c-0.61-3.783-0.295-7.705-0.612-11.548
		c-0.521-6.317-1.53-12.608-1.755-18.931c-0.146-4.112,1.065-8.259,1.076-12.393c0.02-7.607-0.372-15.216-0.646-22.823
		c-0.101-2.804,0.728-6.905-0.756-8.136c-3.23-2.678-1.894-5.632-1.985-8.403c-0.189-5.74,0.141-11.496,0.201-17.245
		c0.004-0.337-0.486-0.68-0.747-1.02c-0.244,0.285-0.642,0.538-0.708,0.86c-0.634,3.079-1.168,6.179-1.821,9.254
		c-0.444,2.092-1.456,4.152-1.46,6.228c-0.008,3.608,0.805,7.22,0.769,10.824c-0.013,1.296-2.089,2.543-2.166,3.874
		c-0.186,3.22,0.28,6.475,0.428,9.718c0.191,4.178,0.405,8.358,0.458,12.539c0.03,2.399,0.019,4.852-0.438,7.19
		c-0.571,2.916-2.283,5.73-2.321,8.604c-0.073,5.486,0.77,10.98,1.073,16.479c0.143,2.599-0.557,5.312-0.06,7.811
		c2.036,10.235,4.292,20.429,6.655,30.594c1.51,6.496,3.18,12.967,5.125,19.343c0.76,2.493,2.679,4.611,3.676,7.061
		c0.771,1.895,0.454,4.313,1.439,6.028c5.575,9.704,11.453,19.234,17.116,28.889c3.792,6.465,7.551,12.959,11.048,19.585
		c3.296,6.245,6.233,12.681,9.323,19.035c3.212,6.607,6.737,13.086,9.55,19.859c3.942,9.491,7.347,19.204,10.996,28.817
		c0.925,2.437,2.145,4.788,2.807,7.291c1.499,5.667,2.988,11.357,4.016,17.122c1.363,7.641,2.639,15.329,3.304,23.053
		c0.913,10.606,1.093,21.275,1.819,31.901c0.776,11.352,2.188,22.67,2.631,34.03c0.33,8.449-0.21,16.958-0.778,25.412
		c-0.826,12.3-2.171,24.564-3.019,36.864c-0.648,9.396-1.082,18.819-1.227,28.236c-0.184,11.916-0.15,23.843,0.116,35.757
		c0.202,9.025,1.173,18.034,1.334,27.06c0.202,11.269,0.022,22.548-0.177,33.818c-0.174,9.779-0.472,19.56-0.967,29.327
		c-0.385,7.578-1.347,15.13-1.661,22.709c-0.114,2.747-3.121,6.681,2.219,8.13c0.364,0.099,0.448,1.032,0.782,1.489
		c0.345,0.472,0.819,1.172,1.268,1.195c5.645,0.302,11.295,0.478,16.942,0.729C319.273,1006.893,323.857,1007.156,328.263,1007.385z
		 M295.271,1007.632c0.358-0.412,0.803-0.78,0.748-0.884c-0.288-0.543-0.703-1.018-1.074-1.517
		c-0.407,0.367-0.814,0.735-1.222,1.103C294.184,1006.721,294.646,1007.107,295.271,1007.632z"/>
	<path fill-rule="evenodd" clip-rule="evenodd" d="M328.263,1007.385c-4.406-0.229-8.99-0.492-13.577-0.697
		c-5.647-0.252-11.298-0.428-16.942-0.729c-0.449-0.023-0.923-0.724-1.268-1.195c-0.334-0.457-0.418-1.391-0.782-1.489
		c-5.34-1.449-2.333-5.383-2.219-8.13c0.314-7.579,1.276-15.131,1.661-22.709c0.496-9.768,0.793-19.548,0.967-29.327
		c0.2-11.271,0.379-22.55,0.177-33.818c-0.161-9.025-1.132-18.034-1.334-27.06c-0.266-11.914-0.3-23.841-0.116-35.757
		c0.145-9.417,0.579-18.84,1.227-28.236c0.848-12.3,2.192-24.564,3.019-36.864c0.568-8.454,1.108-16.963,0.778-25.412
		c-0.443-11.36-1.855-22.679-2.631-34.03c-0.727-10.626-0.906-21.295-1.819-31.901c-0.665-7.724-1.941-15.412-3.304-23.053
		c-1.028-5.765-2.517-11.455-4.016-17.122c-0.662-2.503-1.882-4.854-2.807-7.291c-3.648-9.613-7.053-19.326-10.996-28.817
		c-2.813-6.773-6.338-13.252-9.55-19.859c-3.089-6.354-6.026-12.79-9.323-19.035c-3.497-6.626-7.256-13.12-11.048-19.585
		c-5.664-9.654-11.541-19.185-17.116-28.889c-0.985-1.716-0.668-4.134-1.439-6.028c-0.997-2.449-2.916-4.567-3.676-7.061
		c-1.945-6.376-3.615-12.847-5.125-19.343c-2.363-10.166-4.619-20.359-6.655-30.594c-0.497-2.499,0.203-5.212,0.06-7.811
		c-0.303-5.499-1.146-10.993-1.073-16.479c0.038-2.874,1.75-5.688,2.321-8.604c0.457-2.338,0.468-4.791,0.438-7.19
		c-0.053-4.181-0.268-8.361-0.458-12.539c-0.148-3.243-0.614-6.498-0.428-9.718c0.077-1.331,2.153-2.577,2.166-3.874
		c0.036-3.604-0.777-7.216-0.769-10.824c0.005-2.076,1.017-4.136,1.46-6.228c0.653-3.075,1.188-6.175,1.821-9.254
		c0.066-0.322,0.464-0.575,0.708-0.86c0.26,0.34,0.75,0.682,0.747,1.02c-0.061,5.75-0.391,11.505-0.201,17.245
		c0.092,2.771-1.245,5.725,1.985,8.403c1.484,1.231,0.655,5.332,0.756,8.136c0.273,7.606,0.666,15.216,0.646,22.823
		c-0.01,4.133-1.222,8.281-1.076,12.393c0.226,6.323,1.234,12.614,1.755,18.931c0.317,3.843,0.002,7.765,0.612,11.548
		c0.444,2.757,1.85,5.383,2.976,8.003c3.342,7.779,6.701,15.551,10.169,23.274c1.664,3.705,3.479,7.354,5.468,10.894
		c0.528,0.939,1.951,1.377,2.963,2.045c-0.093-1.063-0.076-2.151-0.298-3.188c-1.352-6.299-0.149-12.465,2.954-17.7
		c2.897-4.888,2.434-9.589,1.631-14.445c-1.8-10.885-3.966-21.709-5.92-32.569c-0.179-0.995,0.093-2.071,0.155-3.109
		c0.362,0.937,0.879,1.844,1.058,2.814c0.582,3.16,1.034,6.343,1.552,9.515c0.056,0.344,0.214,0.671,0.325,1.006
		c0.027-0.369,0.106-0.743,0.072-1.106c-0.789-8.444-2.027-16.874-2.279-25.333c-0.331-11.073,0.107-22.169,0.247-33.254
		c0.009-0.701,0.203-1.438,0.477-2.087c0.406-0.963,0.96-1.864,1.451-2.792c0.548,1.304,1.548,2.6,1.573,3.913
		c0.25,13.425-0.238,26.891,0.639,40.27c0.856,13.049,3.058,26.011,4.688,39.009c0.102,0.813,0.38,1.604,0.563,2.408
		c0.225,0.989,0.434,1.982,0.65,2.973c0.492-1.006,1.012-2,1.47-3.021c3-6.682,4.941-13.736,10.817-19.077
		c3.362-3.055,4.922-8.098,7.277-12.256c3.332-5.881,7.113-11.57,9.776-17.74c1.357-3.143,0.674-7.161,0.96-10.779
		c0.048-0.611,0.336-1.205,0.514-1.806c0.295,0.445,0.719,0.852,0.867,1.342c1.936,6.401,0.221,12.367-2.415,18.134
		c-2.807,6.142-5.701,12.251-8.788,18.257c-3.788,7.371-7.939,14.556-11.695,21.942c-2.444,4.805-4.562,9.786-6.583,14.787
		c-0.368,0.91,0.427,2.299,0.709,3.461c1.038,4.271,2.039,8.552,3.199,12.789c0.117,0.43,1.213,0.579,1.842,0.885
		c0.602,0.292,1.344,0.492,1.727,0.972c0.282,0.354-0.054,1.14,0.125,1.648c0.67,1.913,1.438,3.791,2.17,5.683
		c0.429-1.586,0.74-3.216,1.313-4.749c1.38-3.693,3.281-7.241,4.237-11.033c1.302-5.165,1.888-10.509,2.865-15.761
		c0.171-0.92,0.675-1.82,1.201-2.613c0.199-0.3,0.896-0.27,1.365-0.39c0.135,0.641,0.456,1.308,0.374,1.92
		c-0.476,3.539-1.052,7.063-1.573,10.596c-0.038,0.259,0.095,0.542,0.148,0.815c0.121-0.208,0.286-0.402,0.355-0.626
		c1.743-5.663,4.067-11.227,5.063-17.019c1.28-7.44,1.467-15.066,2.222-22.603c0.052-0.524,0.906-0.968,1.387-1.45
		c0.329,0.443,0.92,0.872,0.947,1.333c0.337,5.831,0.679,11.664,0.81,17.501c0.032,1.45-1.18,3.016-0.912,4.345
		c0.233,1.157-2.791,4.063,1.44,3.625c-0.076,0.927,0.106,1.979-0.271,2.762c-2.741,5.691-5.779,11.246-8.352,17.009
		c-1.871,4.191-4.285,8.588-4.479,12.979c-0.315,7.172,0.781,14.44,1.67,21.62c0.586,4.734,1.674,9.43,2.857,14.061
		c1.851,7.246,3.938,14.432,5.997,21.622c0.862,3.013,1.884,5.98,2.897,8.947c0.124,0.362,0.801,0.896,0.952,0.819
		c0.429-0.218,0.909-0.657,1.034-1.104c2.232-7.954,4.773-15.845,6.488-23.911c1.277-6.008,1.679-12.232,2.074-18.386
		c0.293-4.566,0.556-9.288-0.284-13.729c-0.834-4.41-3.083-8.55-4.659-12.827c-0.214-0.582-0.116-1.277-0.162-1.921
		c0.575,0.228,1.388,0.29,1.683,0.714c1.078,1.544,1.966,3.22,2.966,4.82c0.259,0.415,0.667,0.737,1.006,1.103
		c0.245-0.52,0.764-1.081,0.692-1.553c-0.96-6.311-2.063-12.601-2.99-18.915c-0.27-1.839-0.102-3.743-0.134-5.617
		c1.167,1.961,3.11,3.825,3.37,5.9c1.429,11.405,2.767,22.843,3.436,34.311c0.243,4.159-1.456,8.43-2.242,12.655
		c-0.066,0.358,0.075,0.756,0.12,1.135c0.187-0.284,0.471-0.546,0.545-0.857c1.339-5.608,2.656-11.222,3.967-16.836
		c0.128-0.548,0.014-1.232,0.306-1.646c0.638-0.902,1.466-1.67,2.216-2.493c0.21,1.069,0.581,2.139,0.585,3.209
		c0.004,1.091-0.351,2.183-0.549,3.273c0.369-0.985,0.659-2.01,1.121-2.951c2.171-4.429,4.348-8.856,6.664-13.21
		c0.203-0.381,1.425-0.22,2.174-0.312c-0.064,0.726,0.045,1.525-0.224,2.164c-1.125,2.673-2.372,5.294-3.549,7.944
		c-0.092,0.207,0.003,0.497,0.011,0.748c0.178-0.162,0.402-0.296,0.528-0.491c2.188-3.403,5.076-6.579,6.307-10.302
		c0.903-2.731-0.086-6.242-0.723-9.304c-2.371-11.416-5.037-22.771-7.416-34.185c-2.165-10.388-4.302-20.79-6.036-31.254
		c-0.694-4.187-0.327-8.557-0.348-12.844c-0.016-3.16,0.064-6.324,0.25-9.478c0.032-0.542,0.762-1.398,1.254-1.462
		c0.56-0.073,1.693,0.514,1.75,0.929c0.377,2.746,0.309,5.563,0.805,8.281c1.352,7.408,2.816,14.799,4.423,22.156
		c1.072,4.908,2.456,9.748,3.722,14.613c0.249,0.956,0.589,1.89,0.907,2.827c0.17,0.503,0.382,0.993,0.575,1.489
		c0.143-0.519,0.329-1.029,0.422-1.557c1.498-8.5,2.241-17.222,4.664-25.448c2.933-9.957,7.819-19.311,8.93-29.868
		c0.267-2.54,2.201-4.937,2.321-7.449c0.118-2.462-0.994-5.02-1.753-7.478c-1.263-4.087-2.837-8.085-3.951-12.209
		c-0.481-1.781-0.223-3.79-0.116-5.684c0.03-0.528,0.72-1.018,1.107-1.525c0.443,0.498,1.09,0.923,1.295,1.505
		c1.454,4.115,2.753,8.287,4.287,12.37c0.205,0.544,1.452,0.703,2.225,1.022c0.396,0.164,1.14,0.244,1.166,0.436
		c1.311,10.019,7.9,16.805,14.592,23.392c4.705,4.632,10.008,8.65,14.822,13.179c4.104,3.861,7.885,8.064,11.834,12.093
		c0.334,0.341,0.854,0.5,1.287,0.743c-0.123-0.453-0.11-1.035-0.395-1.335c-0.976-1.031-2.133-1.896-3.063-2.962
		c-0.451-0.516-0.854-1.394-0.739-2.008c0.162-0.879,0.818-1.667,1.263-2.494c0.62,0.376,1.43,0.612,1.829,1.152
		c3.46,4.678,6.843,9.413,10.267,14.118c0.143,0.196,0.468,0.259,0.707,0.384c0.088-0.437,0.299-0.891,0.244-1.309
		c-1.053-7.921-2.462-15.812-3.139-23.764c-1.026-12.044-1.635-24.126-2.242-36.201c-0.253-5.034-0.099-10.092,0.02-15.135
		c0.014-0.588,0.981-1.155,1.507-1.731c0.611,0.617,1.694,1.188,1.762,1.859c0.674,6.733,1.069,13.495,1.759,20.226
		c1.108,10.83,2.377,21.644,3.586,32.463c0.543,4.863,1.099,9.725,1.676,14.584c0.051,0.433,0.3,0.842,0.458,1.262
		c0.172-0.388,0.493-0.775,0.493-1.164c0.005-4.744-0.098-9.489-0.031-14.231c0.019-1.39,0.482-2.774,0.742-4.162
		c0.447,1.079,0.896,2.157,1.341,3.237c0.163,0.396,0.318,0.794,0.478,1.192c0.182-0.422,0.436-0.828,0.536-1.269
		c1.894-8.337,1.765-17.413,5.681-25.013c2.174-4.218,2.049-2.093,3.799-7.718c2.426-5.78,2.508-11.962,3.306-15.871
		c-0.118-1.566,0.18-2.928,0.069-4.754c-0.036-0.588-0.13-1.854,0.332-2.188c0.327,0.407,0.413,0.421,0.65,0.912
		c-0.391,6.893-0.126,13.936-1.538,20.622c-1.192,5.642-5.045,10.694-6.465,16.323c-1.783,7.071-2.382,14.453-3.307,21.724
		c-0.535,4.204-0.872,8.45-1,12.686c-0.155,5.104,0.049,10.218,0.017,15.327c-0.023,3.661-0.341,7.326-0.238,10.981
		c0.135,4.821,0.54,9.635,0.863,14.45c0.036,0.527,0.302,1.038,0.461,1.556c0.157-0.464,0.238-0.973,0.483-1.385
		c3.781-6.374,7.365-12.882,11.469-19.042c2.271-3.408,5.394-6.253,8.206-9.284c0.309-0.332,1.104-0.209,1.675-0.298
		c-0.016,0.703,0.252,1.617-0.091,2.076c-2.476,3.314-5.321,6.376-7.566,9.832c-2.357,3.63-4.766,7.414-6.111,11.476
		c-2.847,8.588-5.645,17.286-7.268,26.158c-1.336,7.304-0.958,14.922-1.322,22.402c-0.238,4.877-0.98,9.514-4.495,13.358
		c-0.905,0.989-0.951,2.765-1.393,4.179c0.895-1.202,1.806-2.391,2.679-3.608c3.219-4.492,6.826-8.766,9.549-13.543
		c4.826-8.467,10.28-16.513,12.216-26.57c2.404-12.492,6.715-24.607,9.432-37.054c1.595-7.307,1.45-14.976,2.53-22.418
		c1.104-7.618,2.461-15.227,4.237-22.713c1.838-7.752,4.439-15.319,6.479-23.027c3.279-12.388,7.403-24.628,7.443-37.653
		c0.014-4.576-0.218-9.153-0.19-13.729c0.004-0.689,0.815-1.373,1.253-2.06c0.542,0.615,1.526,1.208,1.56,1.85
		c0.313,6.175,0.618,12.358,0.62,18.539c0.001,4.931-0.427,9.861-0.65,14.793c-0.012,0.268,0.097,0.542,0.148,0.813
		c0.102-0.219,0.243-0.428,0.297-0.657c1.807-7.637,3.565-15.286,5.438-22.906c0.355-1.45,1.006-2.887,1.814-4.141
		c0.386-0.6,1.459-0.756,2.222-1.114c0.266,0.932,0.887,1.927,0.732,2.784c-0.535,2.984-1.275,5.937-2.063,8.867
		c-0.512,1.902-1.272,3.735-1.852,5.621c-0.143,0.465-0.012,1.014-0.006,1.525c0.368-0.35,0.824-0.644,1.092-1.059
		c1.707-2.641,3.317-5.346,5.105-7.929c0.286-0.414,1.303-0.322,1.981-0.464c0.092,0.734,0.512,1.646,0.226,2.177
		c-2.877,5.334-6.3,10.418-8.709,15.948c-2.349,5.394-3.94,11.162-5.423,16.88c-2.185,8.433-4.24,16.918-5.852,25.475
		c-1.203,6.386-1.622,12.92-2.37,19.391c-0.036,0.319,0.125,0.661,0.194,0.993c0.147-0.325,0.292-0.65,0.442-0.973
		c1.847-3.969,3.612-7.98,5.568-11.895c1.712-3.424,3.522-6.813,5.503-10.087c2.421-4.004,5.063-7.875,7.612-11.802
		c3.806-5.859,7.64-11.7,11.414-17.579c2.718-4.234,5.333-8.534,8.068-12.757c0.307-0.474,1.095-0.636,1.659-0.942
		c-0.05,0.671,0.101,1.443-0.18,1.998c-3.58,7.107-7.3,14.145-10.829,21.277c-4.029,8.144-8.271,16.212-11.752,24.59
		c-4.281,10.3-7.839,20.898-11.776,31.343c-2.006,5.318-4.542,10.468-6.141,15.899c-1.646,5.587-2.752,11.382-3.529,17.162
		c-0.906,6.736-0.665,13.654-1.897,20.313c-1.515,8.185-3.633,16.322-6.315,24.198c-1.174,3.448-4.41,6.187-6.665,9.28
		c-0.382,0.525-0.536,1.217-0.795,1.832c0.229-0.103,0.451-0.227,0.689-0.294c0.067-0.019,0.272,0.169,0.26,0.2
		c-0.134,0.332-0.263,0.676-0.459,0.973c-2.333,3.532-4.956,6.905-6.966,10.611c-5.81,10.717-12.68,20.61-21.228,29.343
		c-5.818,5.944-11.332,12.19-17.228,18.055c-3.693,3.675-8.163,6.593-11.691,10.401c-3.102,3.349-5.568,7.345-7.973,11.266
		c-3.5,5.707-6.851,11.52-9.951,17.451c-1.724,3.297-2.926,6.888-4.154,10.418c-1.572,4.518-3.317,9.028-4.291,13.688
		c-1.282,6.135-2.265,12.385-2.705,18.633c-0.902,12.799-1.387,25.627-1.98,38.446c-0.26,5.614-0.596,11.24-0.489,16.854
		c0.183,9.532,1.235,19.076,0.929,28.583c-0.438,13.578-1.813,27.125-2.68,40.691c-0.151,2.366,0.385,4.77,0.337,7.15
		c-0.132,6.646-0.613,13.29-0.571,19.933c0.069,10.883,0.549,21.762,0.648,32.645c0.068,7.357-0.207,14.718-0.352,22.076
		c-0.078,3.962-0.334,7.924-0.277,11.883c0.071,4.936,0.759,9.888,0.507,14.799c-0.424,8.262-1.581,16.486-2.031,24.748
		c-0.238,4.367,0.424,8.779,0.578,13.175c0.301,8.619,0.381,17.249,0.853,25.857c0.228,4.142,1.14,8.244,1.741,12.364
		c0.778,5.342,2.439,10.763,1.967,15.991c-0.245,2.71,1.008,2.539,2.003,3.484c0.125,0.118,0.167,0.569,0.103,0.604
		c-0.392,0.216-0.82,0.483-1.246,0.5c-1.546,0.061-3.174-0.258-4.619,0.13c-1.043,0.281-3.686-1.852-3.145,1.63
		c0.016,0.104-0.67,0.426-1.048,0.463C331.85,1007.145,330.15,1007.245,328.263,1007.385z M362.123,548.777
		c-0.32,0.263-0.863,0.481-0.926,0.795c-0.556,2.788-0.996,5.598-1.527,8.391c-0.965,5.066-1.974,10.124-2.947,15.188
		c-0.071,0.375-0.007,0.777-0.006,1.167c0.323-0.193,0.831-0.313,0.939-0.59c0.894-2.28,2.125-4.528,2.474-6.9
		c0.879-5.984,1.35-12.029,1.98-18.049c-0.031-0.406-0.118-0.817-0.083-1.218c0.075-0.859,0.316-1.717,0.284-2.567
		c-0.018-0.464-0.456-0.911-0.704-1.366c0.135,1.682,0.268,3.364,0.407,5.045C362.018,548.711,362.086,548.743,362.123,548.777z
		 M392.426,497.633c0.229-0.065,0.457-0.13,0.685-0.196c-2.303-11.768-4.808-23.5-6.86-35.311
		c-2.733-15.725-13.276-26.375-24.817-35.31c-9.205-7.126-17.108-14.695-22.758-24.74c-0.232-0.413-0.667-0.713-1.008-1.065
		c-0.269,0.368-0.684,0.7-0.782,1.108c-0.755,3.13-1.329,6.308-2.188,9.408c-1.425,5.146-2.832,10.312-4.583,15.353
		c-4.36,12.549-5.742,25.617-5.991,38.702c-0.157,8.268,1.489,16.583,2.524,24.852c0.366,2.921,1.288,5.776,2.036,8.641
		c0.106,0.41,0.659,0.703,1.006,1.05c2.26-3.3,5.158-6.345,6.612-9.968c1.62-4.037,1.862-8.615,2.869-12.919
		c0.174-0.743,1.165-1.294,1.778-1.935c0.454,0.504,1.205,0.954,1.309,1.521c0.378,2.075,1.201,4.382,0.656,6.251
		c-1.397,4.792-2.46,10.174-5.427,13.916c-6.072,7.659-7.187,12.792-2.178,21.042c0.225,0.37,0.636,0.626,0.959,0.936
		c0.138-0.403,0.366-0.799,0.399-1.211c0.346-4.362,0.61-8.731,1.034-13.086c0.07-0.718,0.798-1.374,1.229-2.054
		c0.421-0.664,0.923-1.288,1.263-1.99c0.649-1.338,1.179-2.735,1.852-4.061c0.065-0.128,1.076-0.039,1.151,0.148
		c0.275,0.688,0.509,1.473,0.45,2.196c-0.126,1.542-0.468,3.066-0.667,4.604c-0.045,0.351,0.135,0.73,0.212,1.097
		c0.19-0.347,0.421-0.679,0.566-1.044c2.087-5.27,3.942-10.645,6.295-15.792c3.217-7.035,5.356-13.995,1.645-21.522
		c-0.234-0.476,0.419-1.326,0.459-2.014c0.07-1.194,0.238-2.476-0.104-3.576c-0.377-1.218-1.446-2.214-1.873-3.427
		c-0.178-0.505,0.526-1.321,0.829-1.996c0.586,0.278,1.432,0.398,1.71,0.861c1.177,1.949,2.17,4.007,3.256,6.012
		c3.273,6.044,3.687,12.295,1.514,18.794c-0.424,1.265-0.465,2.658-0.682,3.992c0.736-1.25,1.346-2.602,2.248-3.717
		c0.756-0.935,1.854-1.593,2.801-2.374c-0.082,0.938,0.139,2.057-0.295,2.786c-3.218,5.414-6.785,10.63-9.813,16.144
		c-3.084,5.615-6.118,11.338-8.316,17.328c-1.281,3.49-0.063,7.917-1.41,11.36c-2.589,6.62-0.651,12.932,0.143,19.285
		c0.592,4.736,2.876,9.28,3.326,14.013c0.714,7.507,0.5,15.102,0.75,22.656c0.033,0.985,0.49,1.957,0.75,2.935
		c0.597-0.606,1.304-1.143,1.759-1.842c0.411-0.633,0.373-1.585,0.832-2.155c5.784-7.171,6.576-16.016,8.102-24.551
		c0.913-5.11,0.943-10.373,1.67-15.524c1.808-12.821,1.41-25.454-2.521-37.889c-0.196-0.621,0.483-1.52,0.756-2.289
		c0.484,0.19,1.259,0.254,1.407,0.593c1.284,2.921,2.817,5.803,3.568,8.87c0.95,3.877,1.229,7.918,1.819,11.886
		c0.05,0.332,0.274,0.639,0.418,0.957c0.145-0.279,0.365-0.544,0.421-0.84c0.421-2.234,0.96-4.461,1.181-6.717
		c0.716-7.315,1.179-14.598,5.649-20.996c1.718-2.458,2.293-5.697,3.544-8.512c0.26-0.583,1.205-0.862,1.835-1.282
		c0.004,0.548,0.133,1.131-0.008,1.64c-1.276,4.633-2.922,9.191-3.829,13.893c-1.202,6.231-1.577,12.622-2.781,18.852
		c-1.618,8.372-4.196,16.583-5.394,25.001c-0.837,5.884-0.093,11.999,0.041,18.009c0.03,1.355,0.46,2.702,0.706,4.054
		c1.054-0.817,2.469-1.425,3.092-2.494c1.489-2.558,2.285-5.554,3.945-7.971c2.967-4.32,6.688-8.14,9.479-12.557
		c2.156-3.412,3.521-7.361,4.978-11.172c2.744-7.185,3.687-14.541,2.302-22.242c-1.36-7.566-2.239-15.221-3.269-22.844
		c-0.055-0.403,0.46-0.882,0.709-1.326c0.43,0.417,1.153,0.779,1.241,1.258c0.651,3.534,1.136,7.097,1.755,10.637
		c0.305,1.743,0.782,3.455,1.181,5.182C391.862,501.177,392.144,499.405,392.426,497.633z M328.862,535.07
		c0.193-0.044,0.386-0.087,0.579-0.131c-0.912-3.429-1.686-6.901-2.785-10.268c-0.675-2.067-1.849-3.972-2.799-5.949
		c-1.486,1.311-2.975,2.619-4.456,3.936c-0.23,0.205-0.449,0.43-0.643,0.67c-3.418,4.22-7.42,8.121-9.988,12.809
		c-1.212,2.214-5.638,5.453-0.995,8.871c0.133,0.098,0.066,0.599-0.034,0.864c-1.437,3.81-2.903,7.607-4.345,11.415
		c-1.18,3.119-2.394,6.227-3.488,9.376c-1.493,4.298-3.069,8.579-4.268,12.961c-1.125,4.108-2.532,8.343-2.506,12.515
		c0.037,6.056,1.115,12.124,2.008,18.147c0.567,3.824,1.588,7.581,2.452,11.357c0.104,0.452,0.503,0.837,0.765,1.253
		c0.155-0.448,0.352-0.887,0.459-1.347c1.488-6.385,3.17-12.733,4.362-19.174c0.676-3.651,1.051-7.514,0.607-11.165
		c-0.338-2.782-2.338-5.328-3.25-8.095c-0.272-0.827,0.631-2.042,0.996-3.08c0.627,0.228,1.506,0.27,1.834,0.716
		c0.901,1.226,1.532,2.645,2.352,3.936c0.289,0.453,0.814,0.757,1.231,1.129c0.242-0.479,0.512-0.945,0.719-1.438
		c0.831-1.972,1.576-3.984,2.524-5.897c0.157-0.316,1.203-0.364,1.769-0.234c0.286,0.065,0.692,0.912,0.573,1.227
		c-1.109,2.922-2.515,5.749-3.384,8.734c-0.255,0.875,0.931,2.17,1.457,3.272c0.471-0.545,1.153-1.015,1.377-1.647
		c1.173-3.305,2.441-6.598,3.284-9.993c1.822-7.34,3.606-14.702,4.998-22.132c0.643-3.432,0.228-7.05,0.502-10.567
		c0.093-1.191,0.832-2.333,1.276-3.498c0.641,0.634,1.856,1.287,1.835,1.898c-0.277,8.074-0.052,16.254-1.351,24.178
		c-1.043,6.362-3.933,12.433-6.106,18.596c-1.614,4.575-3.755,8.739-1.649,14.093c1.932,4.91,2.289,10.437,3.426,15.673
		c0.051,0.237,1.334,0.5,1.387,0.4c1.162-2.177,1.85-4.721,3.385-6.564c5.686-6.824,7.487-14.984,8.698-23.409
		c0.048-0.338-0.052-0.696-0.084-1.046c-0.281,0.232-0.536,0.509-0.847,0.688c-0.82,0.473-1.649,0.944-2.521,1.302
		c-0.116,0.048-0.781-0.653-0.717-0.855c0.303-0.943,0.692-1.882,1.2-2.731c0.764-1.277,2.222-2.407,2.391-3.728
		c0.822-6.42,1.623-12.873,1.816-19.333c0.138-4.612-0.471-9.288-1.159-13.873C331.052,544.271,329.846,539.688,328.862,535.07z
		 M302.99,628.842c2.086,5.304,3.749,9.543,5.445,13.77c0.041,0.103,0.641,0.13,0.664,0.07c1.655-4.285,4.663-8.602,4.604-12.875
		c-0.11-7.987-1.962-15.956-3.221-23.911c-0.107-0.68-1.162-1.269-1.877-1.748c-0.168-0.112-0.968,0.299-1.104,0.625
		c-1.046,2.502-2.49,4.969-2.882,7.585C303.758,618.104,303.444,623.933,302.99,628.842z M252.401,530.428
		c-0.133,0.026-0.266,0.053-0.398,0.079c0.091,0.28,0.17,0.564,0.273,0.84c2.584,6.922,4.834,13.993,7.858,20.717
		c2.594,5.769,6.069,11.141,9.181,16.673c0.144,0.255,0.548,0.362,0.831,0.539c-0.028-0.297-0.001-0.611-0.092-0.887
		c-2.145-6.549-4.286-13.098-6.462-19.635c-2.707-8.133-5.613-16.203-8.116-24.396c-2.042-6.684-3.615-13.511-5.402-20.271
		c-0.071-0.27-0.212-0.52-0.32-0.779c-0.109,0.204-0.319,0.412-0.313,0.612c0.14,4.36,0.043,8.751,0.533,13.073
		C250.487,521.504,251.569,525.952,252.401,530.428z M250.59,498.769c1.662,6.503,3.394,13.332,5.184,20.146
		c0.094,0.357,0.672,0.588,1.025,0.878c0.239-0.66,0.781-1.379,0.667-1.972c-0.692-3.594-1.459-7.178-2.349-10.729
		c-0.773-3.089-1.719-6.137-2.648-9.185c-0.113-0.371-0.596-0.628-0.908-0.938C251.331,497.396,251.1,497.824,250.59,498.769z
		 M293.779,569.043c0.423,1.902,0.548,2.465,0.673,3.027c0.254-0.486,0.638-0.947,0.744-1.465c1.117-5.484,2.191-10.978,3.272-16.47
		c0.076-0.386,0.117-0.777,0.175-1.167c-0.238,0.328-0.592,0.623-0.695,0.988C296.438,559.346,294.961,564.743,293.779,569.043z
		 M215.691,423.354c-0.036,0-0.071,0-0.107,0c0,0.62-0.156,1.295,0.039,1.847c0.255,0.723,0.787,1.35,1.199,2.018
		c0.101-0.197,0.298-0.399,0.288-0.589c-0.217-4.013-0.449-8.025-0.708-12.035c-0.02-0.308-0.264-0.601-0.404-0.9
		c-0.102,0.322-0.29,0.645-0.292,0.968C215.682,417.558,215.691,420.456,215.691,423.354z M350.93,494.676
		c-0.212-0.771-0.379-1.379-0.546-1.988c-0.177,0.153-0.443,0.272-0.517,0.464c-0.667,1.765-1.309,3.539-1.933,5.319
		c-0.076,0.217-0.003,0.487,0.001,0.732c0.173-0.044,0.442-0.032,0.505-0.14C349.305,497.58,350.14,496.08,350.93,494.676z
		 M356.025,475.894c0.009,0,0.018-0.001,0.026-0.001c0.031,0.431,0.062,0.862,0.093,1.293c0.176-0.454,0.514-0.914,0.499-1.362
		c-0.044-1.418-0.175-2.839-0.364-4.247c-0.09-0.67-0.387-1.313-0.59-1.968c0.021,0.654,0.029,1.309,0.066,1.961
		C355.838,473.013,355.935,474.453,356.025,475.894z M361.924,539.67c0.075,0.011,0.15,0.021,0.226,0.03c0,0.539,0,1.079,0,1.619
		c0.148-1.382,0.307-2.763,0.436-4.146c0.016-0.17-0.124-0.354-0.191-0.532C362.237,537.65,362.08,538.66,361.924,539.67z"/>
	<path fill-rule="evenodd" clip-rule="evenodd" d="M295.271,1007.632c-0.625-0.524-1.086-0.911-1.548-1.298
		c0.407-0.367,0.814-0.735,1.222-1.103c0.371,0.499,0.786,0.974,1.074,1.517C296.073,1006.852,295.628,1007.22,295.271,1007.632z"/>
	<path fill-rule="evenodd" clip-rule="evenodd" fill="none" d="M392.426,497.633c-0.282,1.771-0.563,3.543-0.846,5.315
		c-0.398-1.727-0.876-3.439-1.181-5.182c-0.619-3.54-1.104-7.104-1.755-10.637c-0.088-0.479-0.812-0.842-1.241-1.258
		c-0.249,0.444-0.764,0.923-0.709,1.326c1.029,7.624,1.908,15.278,3.269,22.844c1.385,7.701,0.442,15.058-2.302,22.242
		c-1.456,3.811-2.821,7.76-4.978,11.172c-2.791,4.417-6.513,8.236-9.479,12.557c-1.66,2.417-2.456,5.413-3.945,7.971
		c-0.623,1.069-2.038,1.677-3.092,2.494c-0.246-1.352-0.676-2.698-0.706-4.054c-0.134-6.01-0.878-12.125-0.041-18.009
		c1.197-8.418,3.775-16.629,5.394-25.001c1.204-6.229,1.579-12.62,2.781-18.852c0.907-4.702,2.553-9.26,3.829-13.893
		c0.141-0.509,0.012-1.091,0.008-1.64c-0.63,0.419-1.575,0.698-1.835,1.282c-1.251,2.815-1.826,6.054-3.544,8.512
		c-4.471,6.398-4.934,13.68-5.649,20.996c-0.221,2.256-0.76,4.482-1.181,6.717c-0.056,0.296-0.276,0.561-0.421,0.84
		c-0.144-0.318-0.368-0.625-0.418-0.957c-0.591-3.968-0.869-8.009-1.819-11.886c-0.751-3.067-2.284-5.949-3.568-8.87
		c-0.148-0.339-0.923-0.402-1.407-0.593c-0.272,0.77-0.952,1.668-0.756,2.289c3.932,12.435,4.329,25.067,2.521,37.889
		c-0.727,5.151-0.757,10.414-1.67,15.524c-1.525,8.535-2.317,17.38-8.102,24.551c-0.459,0.57-0.421,1.522-0.832,2.155
		c-0.455,0.699-1.162,1.235-1.759,1.842c-0.261-0.978-0.718-1.949-0.75-2.935c-0.25-7.555-0.036-15.149-0.75-22.656
		c-0.45-4.732-2.734-9.276-3.326-14.013c-0.794-6.354-2.731-12.665-0.143-19.285c1.347-3.443,0.129-7.87,1.41-11.36
		c2.198-5.99,5.232-11.713,8.316-17.328c3.027-5.514,6.595-10.73,9.813-16.144c0.434-0.729,0.213-1.848,0.295-2.786
		c-0.947,0.781-2.045,1.439-2.801,2.374c-0.902,1.115-1.512,2.467-2.248,3.717c0.217-1.334,0.258-2.727,0.682-3.992
		c2.173-6.499,1.76-12.75-1.514-18.794c-1.086-2.004-2.079-4.063-3.256-6.012c-0.278-0.462-1.124-0.583-1.71-0.861
		c-0.303,0.674-1.007,1.49-0.829,1.996c0.427,1.213,1.496,2.209,1.873,3.427c0.342,1.1,0.174,2.382,0.104,3.576
		c-0.04,0.688-0.693,1.538-0.459,2.014c3.712,7.527,1.572,14.487-1.645,21.522c-2.354,5.147-4.208,10.522-6.295,15.792
		c-0.145,0.365-0.375,0.697-0.566,1.044c-0.077-0.366-0.257-0.746-0.212-1.097c0.198-1.538,0.541-3.062,0.667-4.604
		c0.059-0.724-0.175-1.509-0.45-2.196c-0.075-0.188-1.086-0.277-1.151-0.148c-0.673,1.325-1.203,2.722-1.852,4.061
		c-0.34,0.702-0.842,1.326-1.263,1.99c-0.431,0.68-1.159,1.336-1.229,2.054c-0.424,4.354-0.688,8.724-1.034,13.086
		c-0.033,0.412-0.261,0.808-0.399,1.211c-0.324-0.31-0.735-0.565-0.959-0.936c-5.009-8.25-3.895-13.384,2.178-21.042
		c2.967-3.742,4.03-9.123,5.427-13.916c0.545-1.87-0.278-4.177-0.656-6.251c-0.104-0.568-0.855-1.018-1.309-1.521
		c-0.613,0.64-1.604,1.192-1.778,1.935c-1.006,4.304-1.249,8.883-2.869,12.919c-1.454,3.624-4.352,6.668-6.612,9.968
		c-0.347-0.347-0.899-0.641-1.006-1.05c-0.748-2.865-1.67-5.72-2.036-8.641c-1.035-8.269-2.682-16.584-2.524-24.852
		c0.249-13.085,1.631-26.153,5.991-38.702c1.751-5.041,3.158-10.206,4.583-15.353c0.858-3.1,1.433-6.278,2.188-9.408
		c0.098-0.409,0.513-0.741,0.782-1.108c0.341,0.353,0.775,0.652,1.008,1.065c5.649,10.045,13.553,17.614,22.758,24.74
		c11.541,8.936,22.084,19.585,24.817,35.31c2.053,11.811,4.558,23.543,6.86,35.311C392.883,497.503,392.654,497.568,392.426,497.633
		z"/>
	<path fill-rule="evenodd" clip-rule="evenodd" fill="none" d="M328.862,535.07c0.984,4.617,2.189,9.201,2.889,13.86
		c0.688,4.585,1.297,9.261,1.159,13.873c-0.193,6.46-0.994,12.913-1.816,19.333c-0.169,1.32-1.627,2.45-2.391,3.728
		c-0.508,0.85-0.897,1.788-1.2,2.731c-0.064,0.202,0.601,0.903,0.717,0.855c0.872-0.357,1.7-0.829,2.521-1.302
		c0.311-0.18,0.566-0.456,0.847-0.688c0.032,0.35,0.132,0.708,0.084,1.046c-1.21,8.425-3.012,16.585-8.698,23.409
		c-1.536,1.844-2.224,4.388-3.385,6.564c-0.053,0.1-1.336-0.163-1.387-0.4c-1.137-5.236-1.494-10.763-3.426-15.673
		c-2.106-5.354,0.036-9.518,1.649-14.093c2.174-6.163,5.063-12.233,6.106-18.596c1.299-7.924,1.074-16.104,1.351-24.178
		c0.021-0.611-1.194-1.265-1.835-1.898c-0.444,1.165-1.183,2.307-1.276,3.498c-0.275,3.518,0.14,7.136-0.502,10.567
		c-1.392,7.43-3.175,14.792-4.998,22.132c-0.843,3.396-2.111,6.688-3.284,9.993c-0.225,0.633-0.907,1.103-1.377,1.647
		c-0.526-1.103-1.712-2.397-1.457-3.272c0.869-2.985,2.274-5.813,3.384-8.734c0.119-0.314-0.288-1.161-0.573-1.227
		c-0.566-0.13-1.612-0.082-1.769,0.234c-0.948,1.913-1.694,3.926-2.524,5.897c-0.208,0.492-0.478,0.959-0.719,1.438
		c-0.417-0.372-0.942-0.676-1.231-1.129c-0.82-1.291-1.451-2.71-2.352-3.936c-0.329-0.446-1.207-0.488-1.834-0.716
		c-0.365,1.038-1.269,2.253-0.996,3.08c0.912,2.767,2.912,5.313,3.25,8.095c0.443,3.651,0.068,7.514-0.607,11.165
		c-1.191,6.44-2.874,12.789-4.362,19.174c-0.107,0.46-0.304,0.898-0.459,1.347c-0.262-0.416-0.661-0.801-0.765-1.253
		c-0.864-3.776-1.885-7.533-2.452-11.357c-0.893-6.023-1.971-12.092-2.008-18.147c-0.025-4.172,1.382-8.406,2.506-12.515
		c1.199-4.382,2.775-8.663,4.268-12.961c1.094-3.149,2.308-6.257,3.488-9.376c1.441-3.808,2.908-7.605,4.345-11.415
		c0.1-0.266,0.167-0.767,0.034-0.864c-4.644-3.418-0.218-6.657,0.995-8.871c2.568-4.688,6.57-8.589,9.988-12.809
		c0.194-0.24,0.412-0.465,0.643-0.67c1.481-1.316,2.97-2.625,4.456-3.936c0.95,1.978,2.124,3.882,2.799,5.949
		c1.1,3.366,1.874,6.839,2.785,10.268C329.248,534.983,329.055,535.026,328.862,535.07z"/>
	<path fill-rule="evenodd" clip-rule="evenodd" fill="none" d="M302.99,628.842c0.455-4.909,0.769-10.737,1.629-16.484
		c0.392-2.616,1.836-5.083,2.882-7.585c0.137-0.326,0.937-0.737,1.104-0.625c0.715,0.479,1.77,1.068,1.877,1.748
		c1.259,7.955,3.111,15.924,3.221,23.911c0.059,4.273-2.949,8.59-4.604,12.875c-0.023,0.06-0.623,0.032-0.664-0.07
		C306.739,638.385,305.076,634.146,302.99,628.842z"/>
	<path fill-rule="evenodd" clip-rule="evenodd" fill="none" d="M252.401,530.428c-0.833-4.476-1.915-8.924-2.427-13.436
		c-0.49-4.322-0.394-8.713-0.533-13.073c-0.006-0.2,0.203-0.408,0.313-0.612c0.108,0.26,0.249,0.51,0.32,0.779
		c1.787,6.761,3.36,13.588,5.402,20.271c2.502,8.193,5.409,16.264,8.116,24.396c2.176,6.537,4.317,13.086,6.462,19.635
		c0.091,0.275,0.064,0.59,0.092,0.887c-0.283-0.177-0.688-0.284-0.831-0.539c-3.112-5.532-6.586-10.904-9.181-16.673
		c-3.024-6.724-5.274-13.795-7.858-20.717c-0.103-0.275-0.182-0.56-0.273-0.84C252.136,530.48,252.269,530.454,252.401,530.428z"/>
	<path fill-rule="evenodd" clip-rule="evenodd" fill="none" d="M250.59,498.769c0.51-0.945,0.741-1.372,0.971-1.8
		c0.312,0.31,0.795,0.568,0.908,0.938c0.929,3.048,1.875,6.096,2.648,9.185c0.889,3.551,1.657,7.135,2.349,10.729
		c0.114,0.593-0.428,1.312-0.667,1.972c-0.353-0.29-0.932-0.521-1.025-0.878C253.984,512.101,252.251,505.271,250.59,498.769z"/>
	<path fill-rule="evenodd" clip-rule="evenodd" fill="none" d="M362.114,548.779c-0.635,6.02-1.105,12.064-1.984,18.049
		c-0.349,2.372-1.58,4.62-2.474,6.9c-0.108,0.276-0.616,0.396-0.939,0.59c-0.001-0.39-0.065-0.792,0.006-1.167
		c0.974-5.064,1.982-10.122,2.947-15.188c0.531-2.793,0.972-5.603,1.527-8.391c0.063-0.313,0.605-0.532,0.926-0.795L362.114,548.779
		z"/>
	<path fill-rule="evenodd" clip-rule="evenodd" fill="none" d="M293.779,569.043c1.183-4.3,2.659-9.697,4.169-15.086
		c0.103-0.365,0.457-0.66,0.695-0.988c-0.058,0.39-0.099,0.781-0.175,1.167c-1.082,5.492-2.155,10.985-3.272,16.47
		c-0.105,0.518-0.489,0.979-0.744,1.465C294.327,571.508,294.202,570.945,293.779,569.043z"/>
	<path fill-rule="evenodd" clip-rule="evenodd" fill="none" d="M215.691,423.354c0-2.898-0.009-5.796,0.014-8.693
		c0.002-0.323,0.19-0.646,0.292-0.968c0.14,0.3,0.385,0.593,0.404,0.9c0.259,4.01,0.491,8.022,0.708,12.035
		c0.01,0.19-0.187,0.393-0.288,0.589c-0.413-0.668-0.944-1.294-1.199-2.018c-0.195-0.552-0.039-1.227-0.039-1.847
		C215.62,423.354,215.655,423.354,215.691,423.354z"/>
	<path fill-rule="evenodd" clip-rule="evenodd" fill="none" d="M350.93,494.676c-0.79,1.404-1.625,2.904-2.488,4.388
		c-0.063,0.108-0.332,0.096-0.505,0.14c-0.004-0.245-0.078-0.515-0.001-0.732c0.624-1.78,1.266-3.555,1.933-5.319
		c0.073-0.192,0.34-0.311,0.517-0.464C350.551,493.296,350.718,493.905,350.93,494.676z"/>
	<path fill-rule="evenodd" clip-rule="evenodd" fill="none" d="M356.025,475.894c-0.091-1.441-0.188-2.881-0.27-4.323
		c-0.037-0.653-0.045-1.308-0.066-1.961c0.203,0.655,0.5,1.298,0.59,1.968c0.189,1.408,0.32,2.828,0.364,4.247
		c0.015,0.448-0.323,0.908-0.499,1.362c-0.031-0.431-0.062-0.862-0.093-1.293C356.043,475.893,356.034,475.894,356.025,475.894z"/>
	<path fill-rule="evenodd" clip-rule="evenodd" fill="none" d="M362.123,548.777c-0.037-0.034-0.105-0.066-0.108-0.104
		c-0.14-1.681-0.272-3.363-0.407-5.045c0.248,0.455,0.687,0.902,0.704,1.366c0.032,0.851-0.209,1.708-0.284,2.567
		c-0.035,0.4,0.052,0.812,0.085,1.218C362.114,548.779,362.123,548.777,362.123,548.777z"/>
	<path fill-rule="evenodd" clip-rule="evenodd" fill="none" d="M361.924,539.67c0.156-1.01,0.313-2.02,0.47-3.029
		c0.067,0.178,0.207,0.362,0.191,0.532c-0.129,1.384-0.287,2.765-0.436,4.146c0-0.54,0-1.08,0-1.619
		C362.074,539.69,361.999,539.681,361.924,539.67z"/>
</g>
</svg>
