<?xml version="1.0" encoding="utf-8"?>
<!-- Generator: Adobe Illustrator 16.0.0, SVG Export Plug-In . SVG Version: 6.00 Build 0)  -->
<!DOCTYPE svg PUBLIC "-//W3C//DTD SVG 1.1//EN" "http://www.w3.org/Graphics/SVG/1.1/DTD/svg11.dtd">
<svg version="1.1" id="Layer_1" xmlns="http://www.w3.org/2000/svg" xmlns:xlink="http://www.w3.org/1999/xlink" x="0px" y="0px"
	 width="700px" height="1000px" viewBox="0 0 700 1000" enable-background="new 0 0 700 1000" xml:space="preserve">
<g>
	<g id="XMLID_1_">
		<g>
			<path d="M686.19,452.24c-0.23,0.33-0.36,0.51-0.49,0.68c-0.2-0.19-0.48-0.35-0.57-0.58c-0.05-0.11,0.25-0.51,0.4-0.51
				C685.73,451.82,685.94,452.07,686.19,452.24z"/>
			<path d="M426.52,410.17c4.471-3.55,9.551-6.73,12.29-11.31c3.301-5.53,7.561-9.12,12.33-12.84c3.13-2.45,5.511-5.85,8.221-8.82
				c-0.44-0.4-0.88-0.8-1.32-1.2c-0.17,0.39-0.3,0.81-0.54,1.16c-0.29,0.4-0.62,0.86-1.05,1.08c-0.74,0.4-1.57,0.63-2.37,0.93
				c0.29-0.82,0.38-1.81,0.91-2.44c8.569-10.2,8.279-21.96,6.229-34.38c-2.77,3.17-5.47,5.81-7.59,8.84
				c-1.72,2.48-2.689,5.47-4.12,8.17c-2.01,3.81-4.52,7.41-6.12,11.38c-2.89,7.15-5.01,14.62-7.93,21.75
				c-1.91,4.69-4.729,9-7.04,13.53C427.72,407.37,427.12,408.77,426.52,410.17z M426.51,410.18c-0.64,0.5-1.27,1.02-1.88,1.54
				c0.26,0.33,0.521,0.67,0.79,1.01C425.79,411.88,426.15,411.03,426.51,410.18z M340.53,80.65c0.98-1.28,2.11-2.48,2.89-3.86
				c6.35-11.47,8.62-24.36,12.61-36.65c0.27-0.83,0.6-1.65,0.899-2.48c0.33,0.06,0.66,0.12,0.99,0.17
				c-0.38,2.87-0.57,5.77-1.18,8.58c-1.33,6.16-2.59,12.37-4.471,18.38c-1.109,3.55-3.45,6.7-5.049,10.11
				c-3.17,6.75-6.25,13.53-9.31,20.33c-2.71,6.02-5.95,11.91-7.77,18.2c-0.8,2.77,1.26,6.42,2.21,9.62
				c0.44,1.46,1.43,2.76,2.01,4.19c3.8,9.52,2.6,19.95,5.12,29.55c2.56,9.79,0.21,19.37,1.33,28.97c0.12,1.08,0.4,2.16,0.43,3.24
				c0.04,1.15,0.16,2.43-0.26,3.44c-0.92,2.19-2.15,4.25-3.26,6.37c0.53,0.27,1.06,0.55,1.59,0.83c1.68-3.28,3.51-6.49,4.99-9.86
				c2.91-6.59,5.48-13.34,8.46-19.9c3.34-7.35,5.49-14.7,4.94-23.05c-0.811-12.4-0.58-24.88-0.78-37.33
				c-0.01-0.87,0.14-1.75,0.21-2.63c0.44,0.01,0.87,0.02,1.3,0.02c0,9.79,0,19.58,0,29.36c0.37,0.03,0.75,0.06,1.12,0.09
				c0.4-0.72,0.79-1.44,1.51-2.76c0,4.23,0,7.79,0,12.35c1.341-3.29,2.65-6.05,3.681-8.77l2.2,0.8c-0.061,0.14-0.11,0.29-0.16,0.43
				c1.09-0.75,1.79-1.24,2.479-1.72c-1,2.94-2.04,5.88-3.05,8.82c-1.03,2.99-2.03,5.99-2.94,9.01c-0.689,2.29-0.829,4.87-0.64,7.27
				c0.36,4.53,1.17,9.02,1.72,13.53c0.061,0.46-0.529,1.42-0.6,1.4c-3.74-1.09-1.6,1.7-1.5,2.56c0.24,2.23,0.77,4.44,1.39,6.61
				c0.61,2.1,1.66,1.99,3.141,0.53c5.27-5.24,9.6-11.08,12.229-18.08c1.931-5.13,3.63-10.35,5.71-15.41
				c0.92-2.22,2.66-4.09,3.78-6.25c2.11-4.06,3.04-8.08,2.05-12.96c-2.04-10-3.08-20.21-4.58-30.32c-0.29-1.99-0.89-3.93-1.17-5.91
				c-0.08-0.62,0.44-1.33,0.69-1.99c0.359,0.5,0.75,1,1.09,1.53c0.22,0.33,0.37,0.71,0.81,1.58c1.57-11.57-0.029-23.07,5.45-33.49
				c-3.88,22.12-1.92,44.11,1.33,66.21c1.12-3.57,2.49-7.08,3.311-10.71c2.02-8.87,5.06-17.3,9.989-24.95
				c1.57-2.44,3.9-4.38,5.69-6.7c1.17-1.52,1.92-3.35,3-4.95c0.39-0.56,1.2-0.83,1.82-1.24c0.13,0.76,0.63,1.73,0.329,2.24
				c-3.14,5.41-6.699,10.59-9.55,16.13c-1.859,3.63-2.75,7.75-4.069,11.65c-0.881,2.62-1.86,5.22-2.57,7.88
				c-0.561,2.07-0.51,4.31-1.19,6.32c-1.22,3.65-2.76,7.2-4.21,10.77c-2.25,5.58,0.16,10.95,0.74,16.39
				c0.56,5.17,1.33,10.31,2.06,15.45c0.12,0.85,0.54,1.65,0.82,2.47c0.29-0.76,0.62-1.5,0.86-2.27c1.16-3.75,2.43-7.46,3.399-11.25
				c1.24-4.82,2.181-9.72,3.32-14.56c0.5-2.13,1.2-4.21,1.811-6.31c0.35,0.09,0.71,0.17,1.06,0.26
				c-2.59,12.39-5.17,24.78-7.76,37.16c0.43,0.1,0.85,0.2,1.27,0.3c2.601-9.09,2.55-18.94,7.23-27.48
				c-7.84,31.5-6.04,63.06-0.57,94.76c0.41-1.87,1.05-3.73,1.2-5.62c0.41-5.18,0.609-10.37,0.899-15.56
				c0.021-0.5-0.14-1.21,0.12-1.46c5.261-5,4.24-12.32,6.82-18.3c0.95-2.23,1.93-4.49,2.46-6.84c2.6-11.75,5.3-23.48,7.47-35.31
				c1-5.48,1.08-11.16,1.181-16.76c0.12-6.47-0.021-12.96-0.351-19.42c-0.439-8.81-1.09-17.62-1.83-26.41
				c-0.22-2.66-1.08-5.27-1.51-7.92c-0.11-0.63,0.33-1.34,0.51-2.02c0.34,0.44,0.681,0.88,1.521,1.99c0-2.77,0.01-4.89,0-7.01
				c-0.01-5.43-0.061-10.86,0-16.29c0.01-0.67,0.55-1.33,0.84-2c0.43,0.63,1.22,1.26,1.22,1.89c-0.01,2.86-0.42,5.72-0.34,8.58
				c0.19,7.49,0.59,14.97,0.86,22.46c0.09,2.34,0.02,4.69,0.02,7.9c0.99-6.17,1.7-11.48,2.8-16.7c0.221-1.04-0.38-4.94,3.2-2.51
				c0.07,0.06,0.94-0.74,1.16-1.26c4.48-10.7,9.06-21.36,13.32-32.15c1.56-3.94,2.33-8.19,3.54-12.28
				c0.229-0.76,0.689-1.6,1.29-2.07c0.569-0.44,1.47-0.45,2.229-0.65c0.04,0.7,0.28,1.45,0.101,2.07
				c-2.44,8.39-4.98,16.73-7.391,25.12c-1.75,6.07-3.03,12.3-5.14,18.24c-1.04,2.94-3.93,5.19-5.19,8.1
				c-1.37,3.19-2.41,6.76-2.569,10.21c-0.591,12.69-0.631,25.41-1.12,38.11c-0.221,5.68-1.021,11.34-1.55,17
				c0.409,0.17,0.81,0.35,1.22,0.52c3.47-6.55,7.12-13.01,10.34-19.67c2.79-5.77,5.1-11.76,7.59-17.67
				c0.771-1.82,1.351-3.73,2.21-5.52c0.3-0.63,1.16-0.99,1.78-1.47c0.01,0.8,0.28,1.7,0,2.38c-1.43,3.43-3.12,6.75-4.43,10.22
				c-0.44,1.17,0.29,2.75-0.051,4c-0.43,1.6-1.38,3.08-2.149,4.59c-5.101,9.96-11.2,19.55-15.061,29.97
				c-4.319,11.69-10.54,22.87-11.72,35.65c-0.09,1.03-2.17,1.79-2.41,2.88c-1.8,8.28-3.46,16.59-4.96,24.93
				c-0.97,5.36-1.6,10.8-2.06,16.23c1.939-8.94,3.84-17.88,5.84-26.8c0.96-4.28,1.95-8.57,3.25-12.76
				c1.17-3.74,2.78-7.35,4.26-10.99c0.18-0.45,0.8-0.71,1.22-1.06c-0.029,0.49,0.04,1.02-0.1,1.48
				c-5.35,17.78-10.11,35.69-11.87,54.25c-0.17,1.73,0.04,3.5,0.19,5.25c0.02,0.19,0.989,0.59,1.189,0.44
				c5.851-4.36,9.66-9.94,10.53-17.38c0.4-3.4,0.97-6.81,1.84-10.12c0.74-2.84,2.4-5.46,2.94-8.32c0.819-4.35,1.01-8.81,1.489-13.23
				c0.301-2.74,0.601-5.48,1-8.21c0.061-0.4,0.69-0.71,1.061-1.06c0.68,0.73,2,1.49,1.96,2.18c-0.3,4.88-0.75,9.76-1.39,14.61
				c-0.99,7.48-2.181,14.94-3.29,22.4c-0.25,1.71-0.54,3.41-0.2,5.52c4.819-5.46,9.64-10.92,14.46-16.37
				c0.31,0.17,0.62,0.34,0.92,0.51c-0.55,1.22-0.87,2.62-1.68,3.62c-4.051,5.06-8.23,10.01-12.37,14.99
				c-0.32,0.39-0.69,0.93-1.11,1.01c-7.21,1.29-6.4,7.64-7.729,12.48c-0.86,3.11-0.771,6.48-1.5,9.64
				c-0.24,1.07-1.681,1.88-2.631,2.75c-0.619,0.57-1.71,0.89-1.97,1.56c-1.43,3.69-3.07,7.38-3.84,11.23
				c-0.46,2.3,0.51,4.9,0.92,7.35c0.33,1.96,0.78,3.9,1.94,5.78c-0.29-2.52-0.58-5.04-0.87-7.56c0.26-0.04,0.51-0.08,0.77-0.12
				c0.9,5.54,1.721,11.09,2.75,16.6c0.41,2.25,1.271,4.42,1.92,6.62c0.95-1.76,2.181-3.42,2.811-5.29
				c3.16-9.45,8.109-17.97,13.06-26.55c2.63-4.55,5.32-9.69,5.73-14.74c0.85-10.62,7.52-19.4,8.33-29.81
				c0.67-8.61,0.909-17.27,1.04-25.92c0.08-5.38-0.19-10.8-0.69-16.17c-0.45-4.94-1.46-9.83-2.13-14.76
				c-0.09-0.72,0.31-1.5,0.49-2.25c0.52,0.59,1.18,1.11,1.54,1.78c3.68,6.93,3.34,14.6,4.18,22.08c0.4,3.56,1.479,7.1,2.66,10.51
				c0.859,2.51,2.33,4.83,3.62,7.19c0.38,0.7,1.05,1.25,1.59,1.86c0.51-0.61,1.35-1.17,1.479-1.85c1.29-6.92,3.17-13.82,3.5-20.79
				c0.511-10.84,0.091-21.73-0.239-32.59c-0.261-8.68-1.11-17.34-1.44-26.02c-0.33-9.01-0.95-18.06-0.33-27.02
				c0.69-10.04,2.48-20.01,4.07-29.97c1-6.3,2.38-12.54,3.85-18.75c0.4-1.69,1.66-3.22,2.681-4.72c0.38-0.55,1.22-0.8,1.84-1.18
				c-0.11,0.78-0.181,1.57-0.33,2.35c-2.15,10.51-4.8,20.95-6.311,31.55c-1.319,9.31-1.609,18.78-1.88,28.19
				c-0.12,4.33,1.021,8.68,1.37,13.04c0.89,11.19,1.65,22.38,2.49,33.57c0.06,0.8,0.31,1.59,1.49,2.5
				c3.25-13.41,6.489-26.83,9.75-40.24c1.699-7.01,3.34-14.05,5.229-21.01c0.521-1.91,2.03-3.52,2.8-5.38
				c1.551-3.72,2.88-7.53,4.351-11.28c0.2-0.51,0.7-0.9,1.06-1.35c0.68,0.69,2.061,1.56,1.93,2.02
				c-1.439,5.24-3.239,10.38-4.68,15.62c-2.479,9-5.01,17.99-7.05,27.09c-2.021,9.01-2.76,18.35-5.37,27.15
				c-2.36,7.93-0.9,15.7-1.45,23.52c-0.46,6.69-1.63,13.32-2.35,19.99c-0.58,5.43-0.87,10.9-1.47,16.33
				c-0.141,1.32-1.091,2.52-1.471,3.84c-0.33,1.13-0.39,2.34-0.569,3.52c0.859-0.39,1.93-0.58,2.529-1.22
				c1.32-1.39,2.351-3.05,3.601-4.52c3.97-4.63,8.35-8.97,11.83-13.94c1.71-2.43,1.96-5.97,2.6-9.06
				c1.74-8.32,3.42-16.65,4.96-25.01c0.87-4.71,1.21-9.53,2.19-14.22c0.75-3.64,2.189-7.14,3.21-10.73
				c1.43-5.04,2.63-10.14,4.17-15.15c0.81-2.64,2.16-5.11,3.189-7.68c0.65-1.65,1.101-3.39,1.74-5.04c0.84-2.19,1.79-4.35,2.69-6.51
				c0.43,0.17,0.85,0.35,1.279,0.53c-1.159,2.89-2.68,5.69-3.409,8.68c-1.891,7.73-3.421,15.54-5.091,23.32
				c-0.26,1.22-0.529,2.44-0.659,3.68c-0.051,0.39,0.329,0.84,0.52,1.26c0.31-0.34,0.74-0.63,0.92-1.02
				c3.521-7.79,7.25-15.49,10.44-23.41c2.26-5.62,3.93-11.49,5.609-17.33c1.83-6.3,3.32-12.71,5.09-19.03
				c0.19-0.69,1.24-1.13,1.891-1.69c0.37,0.62,1.16,1.32,1.06,1.86c-1.2,6.5-2.479,12.98-3.84,19.45
				c-0.43,2.05-0.939,4.13-1.75,6.06c-1.55,3.71-3.22,7.38-5.05,10.97c-1.92,3.78-1.3,7.38,0.12,11.1
				c1.979,5.19,3.819,10.43,5.72,15.65c0.34-0.03,0.68-0.05,1.021-0.08c0.76-2.94,1.409-5.92,2.319-8.81
				c0.58-1.82,1.66-3.47,2.32-5.27c1.3-3.56,2.39-7.2,3.74-10.73c0.31-0.8,1.34-1.33,2.029-1.98c0.351,0.97,1.12,2.02,0.971,2.9
				c-0.66,3.85-1.561,7.67-2.44,11.48c-1.2,5.13-2.41,10.23-5.149,14.89c-0.921,1.55-1.021,3.87-0.811,5.76
				c0.1,0.93,0.22,1.85,0.36,2.78l-1.86,0.28c-0.61,1.57-0.28,3.33-0.92,4.6c-2.88,5.61-5.79,11.24-9.17,16.55
				c-1.95,3.05-4.98,5.39-7.24,8.27c-2.34,2.98-4.49,6.13-6.46,9.37c-3.02,4.94-5.82,10.02-8.7,15.05
				c-0.16,0.28-0.27,0.63-0.29,0.96c-0.39,4.86-1.08,9.73-1.069,14.6c0.029,8.44,0.47,16.88,0.779,25.32
				c0.16,4.52,0.42,9.03,0.67,14.34c0.79-1.23,1.271-1.73,1.461-2.31c2.619-7.98,4.8-16.13,7.88-23.91
				c3.859-9.75,7.689-19.6,14.01-28.17c0.72-0.97,0.899-2.34,1.25-3.55c0.41-1.38,0.62-2.82,1.1-4.16
				c1.681-4.65,4.08-9.18,5.24-13.91l1.85,0.33c-0.09,0.37-0.159,0.73-0.239,1.09c-0.351,1.73,0.069,3.61,0.13,5.43
				c0.49-0.02,1.319,0.12,1.43-0.09c4.91-10.05,9.351-20.36,14.74-30.15c0.52-0.93,0.99-1.88,1.43-2.84l2.061,0.95
				c-0.57,1.23-1.141,2.45-1.71,3.68c0.119,0.1,0.25,0.2,0.369,0.29c0.851-1.09,1.82-2.1,2.53-3.28c3.69-6.08,7.3-12.22,11-18.3
				c0.351-0.58,1.17-0.89,1.771-1.33c-0.09,0.67,0.02,1.46-0.301,2c-4.56,7.79-9.229,15.51-13.77,23.3
				c-2.98,5.1-5.7,10.34-8.69,15.43c-1.909,3.24-4.09,6.31-5.529,9.92c7.689-9.3,15.37-18.59,23.06-27.88
				c0.351,0.23,0.7,0.47,1.061,0.7c-1.12,1.86-2.051,3.86-3.381,5.56c-8.3,10.58-16.76,21.05-25.039,31.66
				c-3.461,4.44-6.04,9.71-10.011,13.59c-5.479,5.36-7.04,12.39-9.66,18.92c-2.899,7.25-4.939,14.86-7.04,22.4
				c-0.529,1.89,0.41,4.15,0.24,6.2c-0.149,1.92-0.89,3.79-1.39,5.77c5.189-1.84,7.27-6.05,8.899-10.64
				c0.48-1.34,0.98-2.73,1.771-3.88c0.4-0.59,1.979-1.18,2.18-0.97c2.23,2.37,2.601-0.16,3.221-1.25
				c4.25-7.41,8.39-14.88,12.609-22.31c1.84-3.24,3.63-6.53,5.75-9.58c1.521-2.18,3.38-4.18,5.36-5.96
				c3.979-3.58,4.06-8.75,5.8-13.24c0.39-1,1.07-1.89,1.61-2.83c0.42,1.04,0.83,2.08,1.17,2.9c2.41-5.58,4.75-11.52,7.52-17.25
				c4.141-8.57,8.58-17,12.92-25.48c0.21-0.41,0.62-0.72,0.94-1.07c0.09,0.58,0.43,1.26,0.24,1.73c-2.7,6.54-5.58,13.01-8.19,19.58
				c-3.65,9.21-7.18,18.48-10.64,27.77c-2.061,5.52-3.931,11.12-5.78,16.72c-0.42,1.25-0.27,2.68-0.58,3.98
				c-0.9,3.64-1.9,7.25-2.86,10.88c-0.109,0.4-0.279,0.83-0.26,1.23c0.07,1.23,0.21,2.45,0.32,3.67c0.83-0.88,1.689-1.72,2.45-2.65
				c0.88-1.07,0.97-3.43,3.37-1.89c0.149,0.1,0.96-0.59,1.29-1.04c3.369-4.63,6.8-9.22,10.029-13.95
				c3.45-5.06,6.811-10.18,9.98-15.4c2.22-3.67,4.63-7.38,5.88-11.41c1.22-3.91,0.97-8.27,1.56-12.41c0.851-6,2.38-11.95,2.71-17.98
				c0.431-7.71-0.1-15.47-0.09-23.2c0.01-3.28,0.08-6.61,0.601-9.83c1.18-7.36-4.58-12.61-5.54-19.31
				c-0.841-5.79-2.021-11.54-3.011-17.32c-0.04-0.23,0.301-0.52,0.591-1c0.529,3.19,1.02,6.1,1.5,9c0.27,0,0.54,0,0.81-0.01
				c0-7.62,0-15.25,0-22.87c0.12,0.01,0.24,0.03,0.36,0.04c1.229,13.03,2.46,26.06,3.689,39.09c0.29-0.02,0.58-0.04,0.87-0.06
				c0-5.52,0-11.03,0-16.55c0.34,0,0.68-0.01,1.01-0.02c0.71,16.18,1.42,32.36,2.13,48.55c0.171,0.04,0.341,0.08,0.511,0.12
				c0.25-0.95,0.55-1.89,0.72-2.85c0.24-1.41,0.25-2.89,0.65-4.24c0.189-0.63,1.079-1.05,1.649-1.56c0.15,0.7,0.521,1.45,0.4,2.11
				c-0.83,4.56-1.891,9.08-2.65,13.65c-1.55,9.32-2.95,18.65-3.77,28.22c2.739-5.69,6.27-11.15,8.08-17.13
				c4.369-14.35,7.13-29.22,12.119-43.33c2.921-8.25-0.1-15.95,1.08-23.85c0.92-6.16,0.94-12.44,1.49-18.66
				c0.07-0.73,0.95-1.38,1.45-2.07c0.18,0.76,0.53,1.52,0.52,2.27c-0.109,9.17-0.279,18.33-0.42,27.49
				c-0.02,0.79,0.12,1.57,0.21,2.69c0.42-1.07,0.69-1.77,0.96-2.46c0.181,0,0.36,0,0.54,0c0,4.14,0,8.29,0,12.43
				c0.261,0.06,0.521,0.13,0.78,0.2c1.51-2.52,3-5.06,4.53-7.56c1.37-2.22,3.149-4.27,4.12-6.65c1.91-4.69,3.16-9.66,5.1-14.34
				c2.87-6.96,6.101-13.77,9.18-20.64c0.771-1.71,1.551-3.42,3.08-4.82c-3.729,10.39-7.47,20.78-11.199,31.16
				c0.27,0.23,0.54,0.45,0.81,0.67c0.8-1.07,1.45-2.32,2.47-3.12c0.521-0.42,1.681-0.04,2.55-0.03c-0.25,0.58-0.35,1.35-0.779,1.71
				c-6.36,5.28-10.46,12.26-14.46,19.28c-2.07,3.62-4.32,7.28-5.561,11.21c-1.54,4.88-2.21,10.04-3.1,15.1
				c-0.44,2.48-0.47,5.03-0.851,7.53c-0.1,0.69-0.8,1.3-1.229,1.94c-0.38-0.59-1.12-1.21-1.09-1.78c0.359-5.53,0.83-11.04,1.3-16.55
				c0.15-1.85,0.39-3.7-0.16-5.64c-1.63,6.99-3.33,13.96-4.859,20.96c-1.82,8.36-3.49,16.76-5.25,25.13
				c-0.141,0.65-0.431,1.29-0.78,1.86c-0.431,0.7-0.99,1.31-1.5,1.96c-0.45-0.72-0.891-1.45-1.67-2.72
				c-3.33,6.7-6.74,13.1-9.71,19.71c-3.101,6.9-5.82,13.97-8.62,21.01c-1.3,3.25-2.061,6.76-3.72,9.8
				c-0.94,1.72-3.181,2.75-4.87,4.06c-1.28,0.99-2.91,1.68-3.86,2.91c-4.11,5.29-8.25,10.57-11.95,16.14
				c-2.52,3.81-4.729,7.94-6.37,12.2c-2.33,6.06-4.02,12.37-5.949,18.58c-0.521,1.71-0.91,3.46-1.671,6.35
				c1.931-2.54,3.23-4.19,4.471-5.88c2.069-2.82,4.229-5.6,6.14-8.53c2.79-4.27,5.36-8.68,8.1-12.98c0.511-0.79,1.41-1.33,2.07-2.04
				c1.28-1.37,2.69-2.68,3.74-4.21c3.08-4.47,6.01-9.05,9.04-13.56c0.22-0.34,0.77-0.46,1.17-0.69c0.14,0.39,0.42,0.8,0.37,1.16
				c-0.08,0.65-0.26,1.33-0.57,1.9c-2.37,4.23-4.74,8.45-7.17,12.64c-5.7,9.8-11.43,19.58-17.16,29.36
				c-2.27,3.89-4.5,7.8-6.92,11.58c-0.43,0.68-1.729,0.8-2.189,1c-2.381,3.72-4.53,7.77-7.33,11.31
				c-5.79,7.31-11.91,14.36-17.94,21.48c-4.09,4.82-8.229,9.59-12.37,14.36c-0.55,0.64-1.16,1.34-1.899,1.67
				c-6,2.64-7.021,8.41-8.86,13.72c-0.29,0.84-1.39,1.43-2.19,2.04c-0.899,0.68-2.25,1.02-2.77,1.89
				c-4.021,6.66-7.79,13.48-11.83,20.13c-2.06,3.37-4.55,6.48-6.75,9.77c-0.229,0.36,0.3,1.15,0.23,1.71
				c-0.11,0.92-0.11,2.17-0.69,2.66c-1.91,1.64-4.32,2.74-6.07,4.52c-3.39,3.46-6.51,7.2-9.649,10.9
				c-4.2,4.93-8.44,9.83-12.42,14.92c-4.141,5.29-7.95,10.84-11.99,16.21c-1.48,1.97-2.83,4.75-4.851,5.48
				c-9.18,3.32-13.409,11.66-19.17,18.3c-5.949,6.87-11.779,14.05-16.35,21.86c-7.18,12.271-13.77,24.94-19.65,37.87
				c-6.069,13.34-11.42,27.05-16.229,40.891c-2.93,8.42-4.79,17.329-6.14,26.159c-1.44,9.41-2.11,18.99-2.39,28.521
				c-0.33,11.77,0.1,23.56,0.19,35.35c0.09,11.42,0.52,22.851,0.17,34.25c-0.38,12.57-1.86,25.101-2.16,37.66
				c-0.38,16.29-0.2,32.61-0.01,48.91c0.1,8.86,1.02,17.72,1.04,26.58c0.01,8.53-0.99,17.07-0.87,25.59
				c0.07,4.32,1.85,8.58,2.45,12.92c0.6,4.4,1.11,8.89,0.93,13.32c-0.41,10.33-1.56,20.649-1.84,30.979
				c-0.29,10.681,1.35,21.54-0.13,32c-1.71,12.061,4.081,22.971,3.06,34.63c-0.11,1.24-1.38,2.36-1.98,3.591
				c-0.29,0.569-0.45,1.3-0.39,1.939c0.65,7.97,1.43,15.93,2.01,23.9c0.28,3.85-2.98,7.33-6.73,7.439
				c-10.88,0.32-21.78,0.42-32.65,0.96c-4.94,0.25-9.83,1.34-14.74,2.061c-0.31,0.04-0.73,0.1-0.9,0.31
				c-0.74,0.931-1.41,1.91-2.11,2.88c-1.59-1.91-3.89-3.58-4.62-5.77c-1.77-5.32-2.5-10.62-1.08-16.561
				c1.48-6.22,0.7-12.979,1.04-19.5c0.33-6.42,1.04-12.84,1.2-19.27c0.15-6.29-0.22-12.59-0.31-18.89
				c-0.07-5.051-0.14-10.11-0.1-15.171c0.07-6.96,0-13.949,0.42-20.89c0.59-9.62,1.02-19.3,2.55-28.78
				c1.99-12.35,0.03-24.6,0.31-36.88c0.22-9.34,0.7-18.689,0.84-28.029c0.1-5.841-0.23-11.681-0.34-17.511
				c-0.2-9.819-0.6-19.63-0.44-29.439c0.06-3.471,1.63-6.891,2.28-10.38c0.56-3.04,0.94-6.141,1.16-9.24
				c0.38-5.45,0.76-10.92,0.79-16.39c0.03-3.91-0.78-7.82-0.74-11.73c0.08-9.57,0.57-19.13,0.63-28.69
				c0.02-4.279-0.73-8.55-0.86-12.84c-0.28-8.779-0.29-17.58-0.57-26.359c-0.28-8.67-0.81-17.341-1.12-26.011
				c-0.19-5.13-0.3-10.26-0.25-15.39c0.12-14.06-2.89-27.7-6.54-41.08c-1.26-4.6-1.29-9.57-3.88-14.05
				c-2.63-4.53-3.73-9.92-5.69-14.85c-2.93-7.36-6.64-14.471-8.9-22.011c-2.76-9.19-10.33-15.36-13.7-24.08
				c-1.88-4.86-4.65-9.37-6.93-14.07c-1.98-4.09-3.41-8.52-5.85-12.29c-2.75-4.25-6.18-8.12-9.65-11.83
				c-7.07-7.55-15.41-14.16-21.24-22.54c-4.22-6.07-10.78-6.97-15.58-11.16c-6.35-5.53-12.71-11.05-19.31-16.27
				c-5.21-4.13-10.84-7.72-16.19-11.69c-2.4-1.78-4.32-4.29-6.87-5.78c-5.98-3.49-8.13-10.25-12.9-14.55
				c-8.59-7.75-13.72-17.68-18.79-27.64c-3.99-7.85-7.49-15.98-10.59-24.22c-3.13-8.33-5.97-16.83-8.07-25.47
				c-3.09-12.71-4.7-25.8-8.27-38.35c-3.03-10.68-0.54-21.37-2.11-31.94c-1.09-7.41-2.19-14.82-3.08-22.26
				c-0.39-3.27,0.09-6.65-0.44-9.88c-1.05-6.3-2.49-12.54-3.85-18.79c-1.42-6.58-3.64-13.07-4.21-19.71
				c-0.68-7.84-4.99-14.16-7.11-21.33c-1.99-6.72-3.62-13.55-5.61-20.28c-3.79-12.79-2.63-25.36,1.37-37.84
				c0.31-0.96,1.29-1.7,1.97-2.54c0.17,1.1,0.67,2.26,0.46,3.28c-1.01,4.75-2.88,9.43-3.18,14.21c-0.37,5.77-0.14,11.76,1.05,17.39
				c2.42,11.4,6,22.47,11.01,33.1c2.64,5.59,3.91,11.82,5.87,17.73c0.87,2.64,1.93,5.22,3.57,7.74c-0.17-2.27-0.53-4.54-0.49-6.81
				c0.18-11.52,0.42-23.04,0.74-34.56c0.14-5.05,0.37-10.11,0.83-15.15c0.19-2.12,1.12-4.16,1.61-6.26c2.01-8.67,3.94-17.35,6-26
				c0.44-1.86,1.26-3.63,2.04-5.39c0.22-0.5,0.92-0.79,1.4-1.18c0.05,0.62,0.27,1.28,0.11,1.83c-1.24,4.37-3,8.63-3.75,13.07
				c-1.21,7.2-1.81,14.51-2.61,21.77c-0.48,4.27-1.25,8.56-1.19,12.83c0.1,7.34,0.74,14.68,1.1,21.16
				c1.92-4.81,3.72-10.55,6.48-15.78c2.09-3.95,5.54-7.16,8.18-10.85c1.71-2.39,3.1-5.02,4.57-7.58c1.49-2.58,2.89-5.23,4.37-7.82
				c0.13-0.23,0.76-0.45,0.92-0.34c0.32,0.23,0.73,0.75,0.67,1.05c-0.23,1.06-0.49,2.18-1.02,3.11c-3.82,6.78-1.43,13.76-0.02,20.37
				c1.74,8.12,2.19,16.2,1.31,24.28c-0.7,6.52-2.56,12.9-3.9,19.35c0.39,0.09,0.78,0.19,1.17,0.28c1.08-3.31,2.04-6.66,3.25-9.92
				c4-10.79,8.1-21.55,12.19-32.32c0.09-0.26,0.46-0.4,0.72-0.6c-0.01,0.01-0.01,0.03-0.02,0.04c0.02-0.01,0.03-0.03,0.05-0.04
				c-1.65,4.78-3.3,9.56-4.92,14.36c-0.18,0.55-0.14,1.18-0.2,1.78c0.53-0.32,1.34-0.51,1.54-0.96c1.94-4.47,3.82-8.96,5.62-13.48
				c0.53-1.33,0.75-2.78,1.19-4.48c-1.35,1.15-2.29,1.97-3.23,2.78c0-0.01,0.01-0.02,0.01-0.03c-0.01,0.01-0.03,0.02-0.04,0.03
				c1.96-4.25,4-8.46,5.86-12.76c2.5-5.79,0.03-11.48-0.68-17.17c-0.42-3.42-1.49-6.76-2.15-10.16c-0.15-0.81-0.09-2.15,0.39-2.47
				c0.6-0.4,1.73,0,2.64,0.07c0.17,0.02,0.39,0.17,0.5,0.11c0.78-0.43,1.53-0.9,2.28-1.36c0.46,1.14,1.26,2.26,1.33,3.43
				c0.43,6.59,0.24,13.25,1.13,19.77c1.1,8.07,3.84,15.96,4.43,24.04c0.76,10.28,4.16,19.56,8.11,28.78
				c2.78,6.48,5.8,12.85,8.78,19.23c0.15,0.31,1.16,0.61,1.39,0.44c3.51-2.77,4.15-11.17,1.27-14.73c-0.41-0.52-0.43-1.4-0.52-2.13
				c-0.86-6.86-1.81-13.72-2.45-20.6c-0.14-1.55,1.3-3.23,1.22-4.8c-0.29-5.99-0.98-11.96-1.36-17.95c-0.09-1.55,0.4-3.14,0.62-4.72
				c0.23,1.41,0.53,2.82,0.68,4.23c1.16,10.63,2.24,21.27,3.46,31.9c0.69,5.97,1.55,11.92,2.43,17.86c0.14,0.99,0.75,1.91,1.14,2.87
				c0.92-1.34,2.64-2.69,2.63-4.01c-0.06-4.8-0.79-9.59-1.12-14.39c-1.25-18.74,0.5-37.26,4.42-55.6c0.19-0.89,0.21-1.83,0.41-2.72
				c0.16-0.69,0.48-1.34,0.95-1.98c-2.28,19.69-6.1,39.29-2.11,59.26c0.48-2.63,0.91-5.27,1.4-7.9l2.21,0.41
				c-0.24,1.7,0.33,3.64-0.03,5.21c0.86-2.29,1.71-4.58,2.67-7.11l2.06,0.77c-1.92,7.08-4.05,14.11-6.08,21.16
				c0.49,0.24,0.98,0.48,1.46,0.73c6.35-8,12.7-15.99,19.05-23.98c0.24,0.12,0.48,0.24,0.71,0.37c-1.15,2.06-2.21,4.18-3.46,6.18
				c-1.32,2.1-2.81,4.1-4.01,6.33c3.68-2.74,7.87-4.76,9.31-9.86c2.52-8.84,5.05-17.71,8.34-26.28c3.02-7.89,7.04-15.4,10.67-23.05
				c0.24-0.49,0.99-0.72,1.5-1.08c0.15,0.59,0.54,1.24,0.41,1.77c-0.27,1.16-0.73,2.28-1.14,3.41c-0.06,0.16-0.12,0.31-0.17,0.47
				c-0.01,0.01-0.02,0.01-0.03,0.02c-0.01,0.04-0.02,0.08-0.03,0.12c-0.97,2.22-1.95,4.44-2.93,6.65c0.51,0.15,1.01,0.29,1.51,0.44
				c0.47-2.36,0.95-4.73,1.42-7.09c0.02-0.04,0.04-0.08,0.06-0.12c0-0.01,0.01-0.02,0.01-0.03c0.51-0.35,1.04-0.66,1.5-1.07
				c0.76-0.67,1.46-1.4,2.19-2.1c-0.15,0.95-0.14,1.97-0.49,2.84c-3.02,7.77-6.17,15.48-9.16,23.26c-1.38,3.59-2.5,7.27-3.26,11.19
				c3.5-5.31,7.01-10.61,10.5-15.92c2.22-3.4,4.99-6.58,6.46-10.28c1.45-3.68,1.45-7.91,2.31-11.84c1.66-7.59,3.46-15.15,5.26-22.7
				c0.2-0.82,0.83-1.54,1.66-3.03c-2.15,12.91-4.17,24.94-6.18,36.97c0.24,0.08,0.48,0.16,0.72,0.24c0.46-1.04,0.85-2.14,1.42-3.12
				c0.33-0.57,0.96-0.97,1.46-1.44c0.06,0.62,0.31,1.29,0.17,1.86c-1.32,5.18-2.97,10.3-4,15.53c-0.22,1.11-0.39,2.23-0.53,3.36
				l-2.25-0.29c0.04-0.28,0.07-0.55,0.11-0.83c0.09-0.61-0.12-1.26-0.19-1.93c-2.98,3.28-5.44,6.96-8.78,9.45
				c-4.72,3.5-7.5,7.2-8.24,13.45c-0.74,6.29-3.91,12.27-5.74,18.47c-3.41,11.58-6.65,23.2-9.91,34.83
				c-0.63,2.27-1.01,4.61-1.5,6.92c4.03-4.93,7.71-9.9,10.52-15.33c5-9.66,9.55-19.56,14.14-29.42c0.91-1.94,1.86-3.89,2.77-5.84
				l1.4,0.6c-5.32,12.35-10.41,24.82-16.07,37.01c-2.17,4.68-4.06,9.58-8.63,13.14c-2.64,2.06-4.29,6.37-4.84,9.9
				c-0.88,5.72-0.43,11.63-0.65,17.46c-0.2,5.36,0.73,10.39,3.83,14.88c0.24,0.35,0.7,0.55,1.06,0.82c0.07-0.45,0.25-0.91,0.2-1.33
				c-0.38-2.67-1.07-5.32-1.17-8c-0.37-10.04,1.15-19.81,4.7-29.23c0.53-1.41,1.21-2.76,1.81-4.14c0.34,1.63,0.75,3.24,0.99,4.89
				c0.09,0.62-0.13,1.33-0.32,1.96c-2.67,8.7-2.79,17.61-1.97,26.53c0.46,5.04,1.51,10.02,2.35,15.02c0.14,0.81,0.41,1.65,0.85,2.34
				c0.4,0.64,1.11,1.09,1.68,1.62c0.3-0.67,0.71-1.32,0.9-2.02c1.21-4.48,2.29-9,3.61-13.45c0.23-0.76,1.39-1.25,2.12-1.87
				c0.11,0.94,0.5,1.97,0.27,2.82c-1.09,3.97-2.35,7.9-3.55,11.84c1.3-1.43,1.84-3.1,2.45-4.74c5.17-13.87,10.32-27.75,15.54-41.6
				c0.98-2.61,3.32-5.23,3.1-7.68c-0.33-3.86-1.05-7.7-1.87-11.52l2.74-0.36c0.31,1.4,0.63,2.8,0.95,4.2
				c0.1,0.42,0.7,0.72,1.06,1.07c0.24-0.67,0.77-1.39,0.69-2.03c-0.53-4.32-1.15-8.64-1.8-12.95c-0.57-3.81-1.27-7.6-1.82-11.41
				c-0.09-0.62,0.3-1.32,0.46-1.98c0.5,0.55,1.31,1.03,1.46,1.67c1.33,5.87,2.55,11.77,3.8,17.66c0.39,0.1,0.78,0.21,1.17,0.32
				c0.94-2.29,1.79-4.64,2.85-6.87c2.73-5.77,5.59-11.48,8.3-17.25c0.39-0.83,0.5-1.98,0.28-2.85c-0.9-3.47-2.13-6.86-2.92-10.35
				c-0.23-0.99,0.62-2.21,0.98-3.33c0.62,0.8,1.55,1.52,1.82,2.43c0.69,2.25,0.98,4.63,1.67,6.89c0.18,0.59,1.5,0.78,1.78,1.39
				c0.36,0.78,0.14,1.8,0.27,2.71c0.35,2.5,0.77,4.99,1.16,7.49c3.7-0.97,2.96,2.7,3.59,4.09c1.3,2.88,1.88,6.21,2.16,9.41
				c0.74,8.5,2.29,17.05-0.35,25.53c-0.29,0.92-0.04,2.01-0.04,3.02c0.36,0.05,0.73,0.1,1.09,0.15c0.91-4.36,1.95-8.7,2.69-13.08
				c1.13-6.57,2.71-13.15,2.88-19.75c0.23-8.41-0.82-16.84-1.17-25.27c-0.17-4.04-0.08-8.09,0.07-12.13
				c0.08-2.33-0.03-4.59-0.42-6.75l1.79-0.31c0.16,0.91,0.32,1.81,0.49,2.71c0.16,0.87,0.39,1.73,0.82,3.66
				c0.22-2.54,0.35-3.97,0.48-5.4c0.24,0.01,0.49,0.02,0.73,0.03c0.34,6.62,0.69,13.24,1.03,19.87c0.32,0.03,0.64,0.06,0.96,0.1
				c0.45-1.71,1.15-3.4,1.32-5.14c0.79-8.42,1.44-16.85,2.14-25.27c0.78-9.3,1.53-18.59,2.37-27.88c0.05-0.64,0.68-1.23,1.04-1.84
				c0.55,0.53,1.5,0.98,1.6,1.59c0.7,4.1,1.26,8.23,1.77,12.36c0.06,0.49-0.32,1.28-0.73,1.54c-0.92,0.55-2.84,0.83-2.85,1.25
				c-0.05,3.26-0.47,6.82,0.66,9.72c1.05,2.67,0.92,4.83,0.53,7.44c-0.77,5.04-0.99,10.16-1.61,15.22
				c-1.11,9.1-2.57,18.17-3.45,27.29c-0.66,6.97-0.62,14-0.99,21c-0.02,0.55-1.04,1.57-1.11,1.53c-2.33-1.39-2.14,0.57-2.36,1.79
				c-2.06,11.53-4.68,23.01-5.87,34.62c-0.52,5.12-1.17,10-2.44,14.96c-0.45,1.75,1.41,4.21,2.48,6.21
				c1.37,2.56,3.01,4.99,5.31,6.99c-0.47-0.81-1.06-1.58-1.38-2.45c-0.36-0.95-0.64-1.99-0.62-2.98c0.01-0.36,1.27-1.13,1.47-0.99
				c0.84,0.57,1.73,1.29,2.19,2.18c2.44,4.73,4.75,9.52,7.68,14.23c-1.03-10.26-2.06-20.52-3.1-30.81c-1.07,0.3-1.73,0.48-2.4,0.67
				c-0.02-0.72-0.18-1.47-0.06-2.16c0.91-4.97,2.14-9.9,2.75-14.9c0.54-4.51,0.13-9.13,0.65-13.65c0.91-7.91,2.21-15.78,3.37-23.67
				c0.29-1.93,0.81-3.84,0.98-5.79c0.42-4.82,0.62-9.65,1.12-14.46c0.1-0.93,1.33-1.68,1.7-2.65c0.41-1.05,0.46-2.24,0.62-3.38
				c0.74-5.22,1.29-10.48,2.25-15.65c0.69-3.71,1.95-7.32,2.93-10.98c0.91-3.4,1.93-6.79,2.66-10.23c1.63-7.6,3.08-15.23,4.65-22.84
				c0.22-1.05,0.67-2.06,1.02-3.08c1,0.35,2.01,0.71,3.82,1.36c0.97-2.6,2.16-5.98,3.5-9.3c1.33-3.28,2.68-6.57,4.35-9.69
				c0.44-0.82,2.07-1,3.16-1.48c0.04,1.06,0.34,2.18,0.08,3.15c-1.4,5.04-2.95,10.04-4.43,15.05c-3.62,12.36-7.21,24.74-10.88,37.08
				c-0.34,1.17-1.98,2.55-1.68,3.21c1.78,3.83-1.58,6.38-2.06,9.61c-0.51,3.47-1.48,6.88-2.12,10.34
				c-1.62,8.87-3.69,17.71-4.58,26.66c-0.62,6.29,0.65,12.74,0.63,19.11c-0.02,8.84-0.42,17.68-0.74,26.52
				c-0.23,6.12-0.65,12.24-0.86,18.37c-0.21,6.12-0.36,12.25-0.31,18.37c0.02,1.46,0.95,2.91,1.45,4.37
				c0.09,0.24,0.28,0.49,0.24,0.71c-0.64,4.03,2.33,7.36,2.19,11.31c-0.02,0.52,0.29,1.05,0.45,1.58c0.49-0.4,1.2-0.71,1.41-1.22
				c1.11-2.69,2.03-5.47,3.13-8.16c2.16-5.28,5.21-10.35,6.37-15.83c1.28-6.05,0.91-12.45,1.15-18.7
				c0.21-5.29,0.34-10.59,0.39-15.89c0.05-4.8-0.15-9.6-0.05-14.39c0.13-5.95-0.89-12.35,0.97-17.73
				c3.83-11.11,3.6-22.92,7.17-33.97c2.79-8.64,5.74-17.24,8.29-25.95c0.77-2.61,0.48-5.54,0.67-8.33c0.1-1.49,0.19-2.99,0.29-4.49
				c0.85,1.1,1.69,2.2,2.66,3.47c0.28-0.53,0.79-1.4,1.21-2.3c3.24-6.95,6.45-13.92,9.75-20.84c0.31-0.64,1.21-1,1.83-1.49
				C340.31,79.07,340.41,79.85,340.53,80.65z M340.53,80.66l-0.01,0.01c0,0.04-0.01,0.08-0.01,0.12c0.01-0.02,0.02-0.05,0.03-0.07
				c0,0,0,0,0-0.01C340.54,80.69,340.54,80.68,340.53,80.66z M385.38,228.15c1.44-7.3,2.98-15.37,4.66-23.4
				c0.21-1.01,1.13-1.88,1.729-2.81c0.391,1.33,1.32,2.77,1.091,3.99c-1.681,8.91-4.15,17.71-5.311,26.68
				c-1.92,14.99-3.26,30.07-4.43,45.14c-0.54,6.87-0.101,13.82-0.101,20.18c2.851-5.09,5.7-10.46,8.811-15.65
				c2.85-4.75,5.53-9.73,9.13-13.87c4.85-5.57,5.18-11.84,4.021-18.29c-1.53-8.57-4.061-16.95-5.61-25.51
				c-0.96-5.25-0.95-10.69-1.26-16.06c-0.08-1.4,0.27-2.83,0.409-4.25c0.19-1.99,0.58-3.99,0.471-5.97
				c-0.09-1.64-0.98-3.22-1.17-4.86c-0.601-5.26-1.03-10.53-1.54-15.8c-0.5-5.18-0.971-10.37-1.561-15.54
				c-0.46-4.08-1.06-8.14-1.609-12.21c-0.311-0.01-0.62-0.02-0.931-0.03c-1.189,4.37-2.09,8.85-3.66,13.07
				c-1.359,3.64-3.109,7.27-5.39,10.38c-2.56,3.46-6.149,6.15-8.87,9.51c-2.99,3.73-5.569,7.8-8.18,11.82
				c-0.63,0.96-1.12,2.38-0.94,3.46c1.061,6.36,0.48,12.88,4.061,19c2.12,3.64,2.189,8.78,2.24,13.26
				c0.079,7.49,1.149,14.49,5.949,20.5c0.391,0.48,0.96,0.83,1.5,1.13c0.08,0.04,0.67-0.5,0.74-0.83c0.89-4.35,1.76-8.7,2.561-13.06
				c0.71-3.84,1.319-7.7,1.97-11.54c0.229,0.01,0.45,0.03,0.68,0.04C385.09,227.34,385.34,228.04,385.38,228.15z M340.5,80.81
				c-3.32,6.94-6.64,13.87-9.97,20.79c0.38,0.18,0.77,0.35,1.15,0.52c2.82-6.16,5.67-12.31,8.42-18.5
				C340.47,82.79,340.41,81.76,340.5,80.81z M556.74,261.56c0.34-0.4,0.68-0.8,1.02-1.2c-0.14-0.13-0.29-0.26-0.43-0.39
				c-0.311,0.45-0.62,0.89-0.93,1.33C556.51,261.39,556.63,261.48,556.74,261.56z M557.85,177.52c-0.119-0.32-0.199-0.53-0.279-0.74
				c-0.25,0.19-0.601,0.34-0.7,0.59c-0.08,0.18,0.18,0.5,0.28,0.76C557.38,177.94,557.6,177.74,557.85,177.52z M555.59,226.22
				c-0.43-0.22-0.85-0.43-1.28-0.64c-1.119,1.9-2.26,3.8-3.359,5.71c-0.8,1.39-1.51,2.84-2.34,4.21
				c-2.891,4.76-5.841,9.5-8.71,14.28c-0.29,0.47-0.42,1.4-0.15,1.76c0.33,0.43,1.17,0.48,1.78,0.7c0.1-0.56,0.01-1.27,0.319-1.66
				c0.881-1.12,1.91-2.13,2.94-3.12c0.1-0.1,0.64,0.27,0.979,0.42c-0.439,0.92-0.729,1.98-1.359,2.74
				c-5.2,6.22-11.58,11.54-14.51,19.49c-0.69,1.86-2.07,3.45-2.95,5.24c-2.181,4.41-6.55,8.11-4.561,13.92
				c0.15,0.43-0.27,1.12-0.529,1.64c-0.71,1.34-1.69,2.57-2.181,3.98c-3.38,9.76-6.66,19.55-9.949,29.34
				c-0.181,0.54-0.101,1.17-0.15,1.76c1-1.12,1.52-2.35,2.06-3.57c2.511-5.65,4.71-11.48,7.63-16.92
				c3.551-6.61,7.78-12.85,11.601-19.33c6.87-11.64,6.51-10.94,15.09-17.94c2.46-2,4.03-5.82,4.75-9.09
				c1.25-5.73,1.42-11.69,2.25-17.53C553.69,236.46,554.7,231.35,555.59,226.22z M553.36,292.63c0.12-0.22,0.26-0.41,0.319-0.62
				c0-0.05-0.26-0.17-0.399-0.26c-0.101,0.21-0.21,0.41-0.271,0.63C553.01,292.42,553.21,292.52,553.36,292.63z M544.81,283.9
				c-1.18,1.57-2.369,3.26-3.68,4.86c-0.5,0.6-1.25,0.99-1.88,1.47c-0.19-0.67-0.37-1.34-0.67-2.45
				c-10.88,14.34-17.24,30.5-22.36,47.28C529.36,320.01,539.13,303.06,544.81,283.9z M539.7,313.13c0.399-0.8,0.8-1.6,1.21-2.4
				c-0.17-0.09-0.33-0.17-0.49-0.25c-0.43,0.78-0.87,1.56-1.3,2.35C539.31,312.93,539.5,313.03,539.7,313.13z M537.44,214.7
				c-0.351-0.21-0.641-0.44-0.69-0.4c-0.29,0.26-0.52,0.58-0.78,0.88c0.16,0.12,0.4,0.39,0.45,0.36
				C536.74,215.33,537.02,215.06,537.44,214.7z M534.75,163.69c1.15-2.64,1.05-6.24,0.41-9.16c-1.54-7.09-3.72-14.03-5.55-20.7
				c-4.42,8.98-9.49,18.22-11.021,29.15c-1.49,10.65-4.38,21.11-6.649,31.65c0.439,0.22,0.869,0.45,1.3,0.67
				c1.689-2.31,3.41-4.59,5.05-6.94c0.86-1.24,1.31-2.86,2.38-3.84C527.02,178.67,531.38,171.44,534.75,163.69z M517.11,283.23
				c-2.341,1.95-5.141,3.22-6.13,5.33c-1.971,4.19-2.95,8.85-4.29,13.34c-0.061,0.19,0.409,0.78,0.59,0.76
				c2.6-0.28,1.979,1.34,1.62,2.74c-0.46,1.77-1,3.52-1.5,5.28c0.239,0.1,0.479,0.21,0.72,0.32
				C511.11,301.78,514.09,292.56,517.11,283.23z M496.41,244.18c0.55-0.03,1.1-0.06,1.64-0.08c-0.56-3.88-1.1-7.76-1.729-11.63
				c-0.021-0.1-1.19-0.28-1.38-0.05c-3.021,3.57-6.19,7.06-8.86,10.89c-1.51,2.18-2.68,4.88-3.061,7.49
				c-0.439,3.01-0.079,6.21,0.381,9.26c1.229,8.34-0.5,16.38-2.21,24.4c-1.23,5.77-2.9,11.46-4.521,17.14
				c-1.12,3.95-2.5,7.82-3.71,11.74c-0.15,0.5,0.06,1.11,0.11,1.66c0.54-0.16,1.26-0.16,1.6-0.52c3.9-4.09,7.7-8.29,11.62-12.35
				c1.29-1.33,3.06-2.2,4.3-3.56c5.92-6.46,6.53-14.55,6.54-22.71c0-3.61-0.62-7.21-0.68-10.82
				C496.33,258.09,496.41,251.13,496.41,244.18z M490.05,320.28c0.16-4.9,1.15-9.78,1.76-14.65c-2.13,1.91-4.35,3.54-6.13,5.57
				c-3.47,3.96-6.72,8.12-10.029,12.22c-3.181,3.94-7.311,7.45-6.561,13.3c0.26,2.07,1.24,4.16,1.05,6.16
				c-0.409,4.6-1.199,9.19-2.13,13.72c-0.29,1.43-1.56,2.64-2.25,4.03c-0.84,1.68-1.529,3.44-2.359,5.33
				c1.13-0.75,1.779-1.19,2.439-1.63c0.28,0.8,0.91,1.66,0.78,2.37c-0.42,2.3-0.851,4.68-1.8,6.79c-1.58,3.52-3.561,6.85-5.38,10.27
				c5.069-3.35,9.46-7.39,14.279-10.84c2.9-2.07,5.061-4.22,5.681-7.81c0.33-1.96,1.09-3.85,1.46-5.81
				C483.33,346.16,489.62,333.94,490.05,320.28z M479.29,274.61c0.8-6.5,0.29-13.16,0.29-19.75c-0.42-0.05-0.84-0.09-1.26-0.13
				c-0.33,0.42-0.74,0.81-0.99,1.28c-3.25,6.1-6.47,12.22-9.771,18.3c-0.34,0.64-1.14,1.03-1.729,1.54
				c0.04-0.85-0.13-1.78,0.16-2.53c0.95-2.38,2.08-4.7,3.13-7.05c-2.48,2.58-4.46,5.41-5.89,8.5c-3.351,7.27-6.54,14.61-9.54,22.03
				c-0.58,1.41-0.53,3.54,0.13,4.91c2.58,5.36,5.51,10.56,8.33,15.81c0.369,0.69,0.819,1.33,1.239,1.99
				c0.62-0.66,1.341-1.24,1.841-1.98c4.5-6.75,9.229-13.35,10.72-21.65c0.899-5.05,2.729-9.97,3.25-15.05
				C479.4,278.87,479.02,276.85,479.29,274.61z M472.92,380.4c0.2-0.34,0.12-0.84,0.18-1.27c-0.47,0.1-1.04,0.06-1.399,0.31
				c-7.03,4.8-14.05,9.6-21.03,14.47c-6.84,4.78-13.18,10.11-18.24,16.86c-2.319,3.09-4.569,6.32-7.34,8.98
				c-6.52,6.26-11.37,13.58-14.25,22.06c-2.55,7.53-4.49,15.28-6.71,22.93c0.28,0.16,0.55,0.31,0.82,0.46
				c4.22-4.43,8.689-8.64,12.59-13.34c7.03-8.48,13.729-17.24,20.54-25.91c2.56-3.27,4.979-6.65,7.62-9.85
				c0.43-0.53,1.63-0.51,2.479-0.62c0.931-0.11,2.24,0.31,2.721-0.17c1.489-1.45,2.85-3.12,3.939-4.9
				C460.92,400.44,466.92,390.42,472.92,380.4z M466.54,226.35c0.75-1.93,1.58-4.36,1.05-6.17c-1.1-3.81-3.06-7.38-4.74-11.01
				c-0.25-0.55-0.85-0.93-1.29-1.38c-0.14,0.68-0.5,1.41-0.38,2.04c0.58,3.08,2.07,6.21,1.79,9.19c-0.54,5.83-1.91,11.6-3.18,17.33
				c-0.99,4.5-2.34,8.92-3.78,14.29c0.84-1.23,1.25-1.65,1.46-2.15C460.52,241.12,463.64,233.78,466.54,226.35z M456.79,329.93
				c1.43-1.21,2.91-4.04,2.45-5.55c-1.9-6.36-4.51-12.5-6.92-18.7c-0.29-0.75-0.891-1.38-1.351-2.06
				c-0.479,0.73-1.12,1.41-1.43,2.21c-2.06,5.42-4.18,10.82-6.021,16.32c-1.5,4.46-2.71,9.02-3.899,13.58
				c-0.41,1.59,2.43,5.03-2.42,3.86c-0.09,0-0.47,0.84-0.561,1.3c-1.79,9.35-3.569,18.71-5.34,28.07c0.29,0.07,0.58,0.15,0.87,0.23
				c3.15-5.44,6.38-10.82,9.42-16.32C446.04,344.82,449.45,336.14,456.79,329.93z M446.37,421.25c0.66-0.81,1.32-1.61,1.979-2.42
				c-0.189-0.15-0.38-0.3-0.569-0.46c-0.59,0.87-1.19,1.74-1.79,2.61C446.12,421.07,446.24,421.16,446.37,421.25z M435.26,334.09
				c0.15-0.15,0.29-0.31,0.53-0.56c-0.26-0.15-0.45-0.35-0.6-0.32c-0.15,0.03-0.36,0.3-0.351,0.45
				C434.86,333.82,435.11,333.95,435.26,334.09z M421.04,316.3c-0.021-0.16-0.021-0.32-0.07-0.46c-0.05-0.11-0.16-0.19-0.31-0.37
				c0.02,0.34,0.02,0.57,0.06,0.79C420.73,316.29,420.93,316.29,421.04,316.3z M420.04,345.03c0.19-6.86,1.13-13.56-1.38-20.65
				c-2.73-7.72-2.87-16.35-4.17-24.58c-0.061-0.4-0.34-0.96-0.66-1.09c-1.13-0.47-2.32-0.78-3.74-1.23c-0.1,0.18-0.51,0.81-0.83,1.5
				c-3.01,6.39-5.95,12.82-9.02,19.19c-1.221,2.55-2.13,5.99-4.221,7.18c-2.539,1.44-3.729,3.19-4.85,5.51
				c-1.86,3.87-3.46,7.91-2.27,12.14c2.319,8.28,5.069,16.44,7.68,24.63c0.13,0.41,0.57,0.71,0.87,1.06
				c0.21-0.42,0.54-0.82,0.59-1.26c0.55-4.77,0.1-9.49,1.95-14.33c1.87-4.9,1.609-10.59,2.42-15.92c0.149-0.97,0.97-1.84,1.479-2.76
				c0.42,0.87,0.851,1.73,1.23,2.52c1.36-4.51,2.76-9.25,4.24-13.97c0.17-0.56,0.729-1.01,1.109-1.51c0.17,0.4,0.55,0.83,0.48,1.18
				c-1.181,6.16-2.4,12.32-3.66,18.47c-0.24,1.19-0.84,2.32-1.021,3.52c-0.51,3.37-0.67,6.81-1.399,10.13
				c-0.51,2.33-2.48,4.49-2.51,6.75c-0.11,7.58,0.479,15.17,0.55,22.76c0.02,2.7-0.66,5.41-1.11,8.11
				c-0.359,2.19-1.29,4.37-1.2,6.53c0.12,2.79,1.101,5.53,1.521,8.32c0.33,2.26,0.37,4.56,0.54,6.84c0.54,0.08,1.09,0.15,1.64,0.22
				c0.74-3.56,1.521-7.12,2.19-10.69c0.47-2.49,0.49-5.08,1.2-7.48c1.819-6.18,3.569-12.41,5.979-18.36
				c2.67-6.57,3.33-13.45,4.35-20.3C418.64,353.3,419.92,349.19,420.04,345.03z M418,273.88c2.85-7.29,5.59-14.29,8.5-21.74
				C417.61,257.21,416.89,265.02,418,273.88z M416.77,251.23c0-0.15,0.011-0.31,0-0.47c0-0.02-0.079-0.05-0.119-0.07
				c-0.021,0.15-0.051,0.31-0.051,0.46C416.6,251.18,416.71,251.21,416.77,251.23z M411.57,283.34c0.149-0.67-1.521-1.6-1.801-2.57
				c-0.67-2.33-0.909-4.77-1.51-7.13c-0.5-1.98-1.26-3.9-1.91-5.85c-1.29,1.5-2.59,2.99-3.869,4.49c-0.221,0.25-0.44,0.52-0.61,0.81
				c-4.36,7.41-10.08,14.21-10.4,23.43c-0.069,2.11-0.26,4.24-0.71,6.29c-0.189,0.85-1.21,1.53-1.84,2.28
				c-0.37-0.81-0.92-1.59-1.06-2.44c-0.181-1.12-0.04-2.29-0.04-3.44c-0.221-0.01-0.431-0.03-0.641-0.05
				c-0.17,2.02-0.529,4.04-0.47,6.05c0.18,5.97,0.53,11.93,0.82,17.9c0.04,0.69,0.18,1.38,0.279,2.07c0.49-0.43,1.101-0.77,1.44-1.3
				c6.4-9.88,12.96-19.67,19.01-29.76C410.14,290.98,410.71,287,411.57,283.34z M409.86,249.5c0.02-0.2-0.08-0.42-0.141-0.72
				c-0.149,0.17-0.3,0.26-0.3,0.36c0,0.22,0.07,0.45,0.1,0.67C409.64,249.71,409.85,249.62,409.86,249.5z M405.14,235.12
				c0.101,0.03,0.42-0.33,0.41-0.5c-0.149-2.28-0.38-4.56-0.51-6.84c-0.06-1.14-0.1-2.29-0.13-3.44c-0.03-1.14-0.05-2.28-0.09-3.43
				c0.01,0.01,0.029,0.04,0.04,0.06c0.01,0.01,0.01,0.01,0.01,0.01v-0.01c0.02-0.06,0.03-0.13,0.04-0.19
				c0.09-0.12,0.18-0.24,0.26-0.36c0.11-0.14,0.21-0.28,0.311-0.41c-0.131-0.05-0.261-0.1-0.391-0.15c-0.06,0.3-0.109,0.59-0.18,0.9
				c-0.03,0.05-0.061,0.09-0.101,0.14c-0.579-0.76-1.529-1.5-1.579-2.28c-0.25-4.95-0.301-9.91-0.381-14.87
				c-0.04-2.32-0.01-4.64-0.01-6.96c-0.359,0.01-0.72,0.03-1.08,0.04c0,2.92,0.26,5.86-0.05,8.73c-0.95,8.79-0.72,17.47,1.7,26.02
				c0.29,1.03,0.55,2.08,0.92,3.08C404.41,234.89,404.84,235.05,405.14,235.12z M403.68,182.64c0.08-1.22,0.16-2.44,0.24-3.66
				c-0.21,0.02-0.41,0.03-0.62,0.05c-0.08,1.19-0.149,2.38-0.229,3.58C403.27,182.62,403.48,182.63,403.68,182.64z M403,188.03
				c0.01-0.21-0.08-0.41-0.13-0.62c-0.13,0.06-0.37,0.09-0.39,0.18c-0.04,0.19,0.02,0.4,0.029,0.65
				C402.75,188.14,403,188.09,403,188.03z M392.63,417.35c0.08-1.08,0.16-2.16,0.23-3.24c-0.28-0.02-0.561-0.05-0.841-0.07
				c0,1.1,0,2.19,0,3.29C392.22,417.34,392.43,417.34,392.63,417.35z M392.56,420.32c-0.199-0.32-0.319-0.51-0.439-0.7
				c-0.15,0.13-0.351,0.25-0.43,0.42c-0.04,0.09,0.109,0.36,0.22,0.39C392.06,420.48,392.26,420.38,392.56,420.32z M390.39,385.36
				c0-1.07,0-2.15,0-3.22c-0.09-0.01-0.189-0.01-0.279-0.02c-0.08,1.07-0.15,2.15-0.221,3.22
				C390.06,385.35,390.23,385.35,390.39,385.36z M385.63,443.93c4.32-10.36,3.92-21.08,3.67-31.73c-0.22-9-0.89-18-1.37-26.99
				c-0.31-5.62-0.16-11.31-1.109-16.82c-0.78-4.5-2.87-8.79-4.4-13.16c-0.21-0.6-0.59-1.14-0.88-1.71
				c-0.53,0.51-1.271,0.92-1.54,1.53c-2.57,5.79-9.04,8.76-10.9,15.05c-0.04,0.15-0.239,0.24-0.33,0.38
				c-1.729,2.49-3.569,4.93-5.289,7.43c-1.04,1.5-2.03,3.02-2.94,4.59c-2.33,4.04-3.92,8.49-6.03,12.66
				c-2.43,4.82-4.02,9.59-0.99,14.76c1.271,2.17,2.58,4.35,3.551,6.66c0.72,1.73,0.91,3.67,1.34,5.52c0.22-0.05,0.43-0.1,0.649-0.15
				c1.57-13.72,3.131-27.44,4.74-41.16c0.101-0.89,0.55-1.75,0.84-2.62c0.28,0.88,0.801,1.77,0.79,2.64
				c-0.06,5.04-0.26,10.08-0.39,15.11c-0.21,8.98-0.37,17.96-0.63,26.93c-0.05,1.76,0.18,4.06-0.79,5.15
				c-2.18,2.44-1.29,4.87-0.42,6.96c3.95,9.46,5.02,19.5,6.55,29.47c0.72,4.74,1.72,9.43,2.65,14.13
				c0.08,0.41,0.569,0.74,0.859,1.11c0.221-0.23,0.54-0.41,0.641-0.68c1.46-3.69,3.619-7.27,4.18-11.09
				c1.22-8.25,2.02-16.6,2.27-24.92c0.37-11.95,0.101-23.91,0.101-35.87C385.26,418.86,383.28,431.64,385.63,443.93z M388.6,445.28
				c0.19-0.56,0.381-1.13,0.58-1.69c-0.18-0.06-0.35-0.12-0.52-0.18c-0.21,0.56-0.41,1.12-0.62,1.67
				C388.23,445.15,388.41,445.22,388.6,445.28z M377.93,326.58c-0.38-1.62-0.75-3.24-1.13-4.86c-0.31,0.06-0.63,0.12-0.939,0.18
				c0.3,1.61,0.609,3.22,0.909,4.83C377.16,326.68,377.54,326.63,377.93,326.58z M377.63,527.92c0.061-0.18-0.07-0.43-0.11-0.64
				c-0.18,0.17-0.399,0.319-0.51,0.529c-0.08,0.171-0.01,0.421-0.01,0.82C377.32,528.28,377.55,528.13,377.63,527.92z
				 M377.28,268.08c0.7-5.04,3.17-10.25-0.91-14.89c-0.36,0.09-0.72,0.19-1.08,0.29c0.49,1.25,1.02,2.5,1.47,3.76
				c0.141,0.4,0.28,1.08,0.07,1.28C373.34,261.97,377.67,264.88,377.28,268.08z M376.46,283.43c0-3.61,0-6.68,0-9.75
				c-0.37,0.03-0.75,0.05-1.12,0.08C375.69,276.83,376.05,279.89,376.46,283.43z M375.65,343.47c3.05-2.94-0.091-5.77-0.58-8.71
				c-0.301,2.85-0.61,5.69-0.87,8.55c-0.021,0.31,0.34,0.65,0.53,0.98C375.04,344.02,375.36,343.75,375.65,343.47z M370.21,288.89
				c0.021-7.94,0.24-15.99-0.93-23.8c-1.32-8.8-4.061-17.39-6.261-26.05c-0.739-2.93-1.189-6.11-2.689-8.64
				c-3.35-5.65-7.311-10.95-10.95-16.44c-0.89-1.34-1.4-2.03-2.52-0.14c-4.31,7.28-9.46,14.12-11.03,22.75
				c-1.06,5.85-4.76,11.39-2.16,17.65c0.62,1.47,2.17,2.66,2.47,4.14c1.68,8.32,3.53,16.64,4.5,25.06
				c0.88,7.61,0.69,15.35,0.98,23.02c0.04,1,0.11,1.99,0.17,2.98c0.8-0.83,0.94-1.64,1.09-2.44c1.59-8.71,3.13-17.43,4.81-26.13
				c0.32-1.68,1.12-3.29,1.85-4.87c0.17-0.35,0.96-0.42,1.46-0.61c0.04,0.47,0.2,0.96,0.11,1.41c-0.67,3.09-1.53,6.15-2.061,9.27
				c-1.99,11.69-4.22,23.36-5.65,35.13c-0.78,6.46-0.14,13.08-0.14,19.63c2.26-3.06,3.61-6.16,5.07-9.2
				c0.41-0.87,1.38-2.36,1.71-2.26c2.8,0.82,3.22-1.63,4.36-2.97c2.01-2.36,3.85-4.87,5.869-7.22c0.471-0.53,1.41-0.65,2.141-0.96
				c0,0.74,0.27,1.65-0.061,2.18c-1.689,2.68-3.6,5.22-5.31,7.88c-3.63,5.67-8.32,10.75-9.23,17.88c-0.59,4.64-2.35,9.27-2.18,13.86
				c0.21,5.83,1.83,11.61,2.92,17.39c0.07,0.37,1.27,0.9,1.32,0.83c1.42-1.68,2.76-3.41,4.06-5.18c0.07-0.1-0.359-0.61-0.6-0.87
				c-0.54-0.59-1.67-1.28-1.57-1.68c0.26-1.05,0.94-2.07,1.67-2.9c0.78-0.89,2.23-1.35,2.681-2.33c1.8-3.88,3.58-7.82,4.899-11.88
				c1.641-5,2.95-10.12,4.15-15.25c1.14-4.94,2.96-10.02,2.67-14.93c-0.38-6.23-2.04-12.55-4.14-18.47
				c-3.75-10.55-6.521-21.19-6.671-32.43c-0.039-3.32-0.01-6.63-0.01-9.98c0.891,2.12,2.101,4.06,2.5,6.15
				c1.09,5.76,1.46,11.68,2.83,17.37c1.54,6.36,3.851,12.54,5.83,18.8C369.46,299.23,370.2,294.06,370.21,288.89z M367.97,236.3
				c-0.359-1.4-0.72-2.79-1.069-4.19c-0.28,0.22-0.82,0.44-0.811,0.64c0.05,1.27,0.23,2.53,0.37,3.8
				C366.96,236.46,367.46,236.38,367.97,236.3z M365.08,144.52c0.61-1.37,1.21-2.75,1.82-4.12c-0.29-0.11-0.57-0.23-0.851-0.34
				c-0.51,1.41-1.02,2.82-1.53,4.23C364.71,144.36,364.89,144.44,365.08,144.52z M360.72,216.38c1.181,0.62,2.36,1.24,3.57,1.87
				c-0.76-6.42-1.521-13.07-2.45-19.7c-0.05-0.34-2.22-0.92-2.51-0.59c-2.35,2.63-4.32,5.61-6.72,8.19
				c-2.23,2.38-0.17,3.34,1.12,4.62c0.92,0.92,2.199,1.58,2.899,2.63c1.601,2.41,2.94,4.98,4.71,8.04
				C361.07,219.25,360.9,217.82,360.72,216.38z M358.84,194.8c2.04-2.05,2.3-4.25,2.08-6.86c-0.54-6.45-0.95-12.92-1.43-19.38
				c-0.05-0.59-0.23-1.17-0.54-2.73c-2.25,6.38-4.17,11.78-6.13,17.33c1.399-1.51,2.62-2.84,3.85-4.16
				c0.19,0.22,0.37,0.45,0.561,0.67c-1.961,3.65-4.04,7.23-5.841,10.95c-1.74,3.62-3.31,7.34-4.689,11.12
				c-0.42,1.13,0.08,2.58,0.15,3.89c1.41-0.63,3.16-0.92,4.16-1.95C353.77,200.86,356.05,197.58,358.84,194.8z M348.13,481.69
				c0.14-6.11-0.06-12.48-1.68-18.29c-1.62-5.85,1.7-12.86-4.07-17.67c-0.12-0.1,0.02-0.49-0.02-0.73
				c-0.85-4.71-1.69-9.42-2.59-14.12c-0.09-0.46-0.58-0.85-0.87-1.27c-0.39,0.41-0.97,0.75-1.14,1.24
				c-1.47,4.19-2.92,8.39-4.28,12.62c-0.39,1.25-0.9,2.72-0.6,3.89c1.37,5.36,3.11,10.62,4.52,15.98c0.9,3.44,1.58,6.95,2.15,10.46
				c0.29,1.81-0.3,3.83,0.26,5.52c0.75,2.3,2.85,4.27,3.24,6.57c0.78,4.6,0.9,9.33,1.09,14.02c0.16,3.88,0.03,7.78,0.03,12.55
				c0.65-4.6,1.2-8.33,1.7-12.06C346.69,494.16,347.99,487.94,348.13,481.69z M346.27,677.3c0.06-0.55,0.11-1.109,0.17-1.66
				c-0.18-0.02-0.35-0.029-0.53-0.04c-0.03,0.561-0.07,1.12-0.1,1.681C345.97,677.28,346.12,677.29,346.27,677.3z M343.94,207.99
				c0.13-0.29-0.3-0.82-0.47-1.23c-0.28,0.12-0.74,0.18-0.8,0.36c-0.83,2.55-1.61,5.11-2.39,7.66c0.15,0.06,0.31,0.13,0.47,0.19
				C341.83,212.65,342.94,210.34,343.94,207.99z M341.67,381.3c0.15-4.46-0.38-8.71-1.28-12.88c-0.37-1.67-2.17-3.12-2.25-4.73
				c-0.24-4.63,0.06-9.28,0.14-13.92c0.24-13.55,0.5-27.1,0.7-40.65c0.1-6.32,0.31-12.55-0.81-18.94
				c-1.79-10.23-1.83-20.79-7.32-29.99c-0.01,0-0.2,0.27-0.23,0.55c-1,9.03-2.16,18.04-2.92,27.08c-0.74,8.75-1.25,17.52-1.54,26.3
				c-0.21,6.3-0.6,12.72,0.37,18.89c1.35,8.62,3.62,17.14,6.02,25.55c1.26,4.44,3.69,8.55,5.45,12.86
				C339.34,374.67,340.46,378,341.67,381.3z M338.82,505.4c0.63-1.431,1.76-2.87,1.75-4.301c-0.01-2.399-0.69-4.81-1.2-7.189
				c-2.39-11.06-4.83-22.1-7.48-34.2c-8.22,14.64-7.69,29.27-7.83,43.86c-0.05,5.739,5.64,39.01,8.11,43.399
				c0.43-1,0.86-1.8,1.13-2.66c1.09-3.439,2.19-6.88,3.17-10.35c0.6-2.14,1.29-4.33,1.38-6.52c0.29-6.96,0.31-13.94,0.47-20.91
				C338.33,506.15,338.65,505.78,338.82,505.4z M339.16,376.77c-0.2-0.42-0.41-0.84-0.62-1.26c-0.12,0.06-0.24,0.12-0.36,0.18
				c0.21,0.42,0.42,0.83,0.63,1.25C338.93,376.88,339.05,376.83,339.16,376.77z M336.45,177.82c0.1-9.66,1.25-19.58-3.26-28.93
				c-1.55-3.22-1.4-7.26-2.03-10.92c-1.03-5.99-2.05-11.97-3.11-17.96c-0.08-0.47-0.38-0.9-0.58-1.35c-0.41,0.35-0.93,0.63-1.2,1.06
				c-1.69,2.81-3.87,5.47-4.87,8.51c-1.82,5.54-2.93,11.31-4.34,16.98c0.26,0.08,0.52,0.17,0.78,0.25
				c2.73-6.58,5.47-13.15,8.2-19.72c0.36,0.1,0.73,0.21,1.1,0.32c-0.18,1.31-0.14,2.69-0.56,3.91
				c-3.47,10.03-7.23,19.98-10.46,30.08c-1.31,4.1-1.54,8.53-2.29,12.8c-0.86,4.84-1.76,9.66-2.64,14.49
				c1.7-2.44,2.96-4.88,4.07-7.38c3.38-7.58,6.66-15.2,10.11-22.75c0.3-0.67,1.5-0.94,2.28-1.4c-0.06,0.87,0.09,1.82-0.22,2.59
				c-2.4,6.01-7.19,11.05-7.06,18.1c0.03,1.6-0.49,3.38-1.26,4.8c-4.26,7.88-6.14,16.29-6.23,25.19c-0.08,8-0.57,16.01-0.35,24.01
				c0.08,3.17-1.64,7.19,2.47,9.48c0.19,0.11,0.26,0.63,0.22,0.94c-0.95,6.61-1.94,13.04-0.64,19.92
				c1.17,6.16,0.25,12.71,0.25,19.09c0.39,0.05,0.78,0.1,1.18,0.14c0.29-0.99,0.64-1.98,0.88-2.99c1.74-7.41,3.47-14.83,5.18-22.26
				c0.33-1.44,0.76-2.92,0.74-4.37c-0.04-2.51-0.99-5.14-0.5-7.49c0.92-4.36,2.76-8.53,3.93-12.85c1.41-5.2,2.62-10.46,3.73-15.73
				c0.41-1.93-0.55-4.48,2.86-4.51c0.26-0.01,0.67-1.1,0.73-1.71C334.62,198.05,336.34,187.94,336.45,177.82z M333.01,216.65
				c0.29-0.44,0.58-0.89,0.87-1.34c-0.11-0.08-0.23-0.16-0.34-0.25c-0.31,0.45-0.62,0.89-0.92,1.33
				C332.75,216.48,332.88,216.57,333.01,216.65z M332.36,400.82c0.22-0.36,0.46-0.57,0.43-0.72c-0.06-0.3-0.27-0.58-0.42-0.86
				c-0.19,0.19-0.54,0.39-0.54,0.59C331.84,400.1,332.11,400.38,332.36,400.82z M332.61,455.07c-0.32-0.45-0.65-0.89-0.98-1.34
				c-0.33-0.46-0.67-0.92-1.01-1.39c-0.28,0.67-0.66,1.31-0.79,2c-0.05,0.27,0.46,0.89,0.76,0.93
				C331.25,455.35,331.94,455.15,332.61,455.07z M332.12,396.59c0.01-0.24-0.2-0.49-0.53-1.22c-0.18,0.82-0.33,1.12-0.27,1.37
				c0.06,0.27,0.33,0.48,0.51,0.72C331.94,397.17,332.12,396.88,332.12,396.59z M330.76,409.62c0.21-0.64,0.36-1.44,0.18-2.06
				c-1.6-5.58-2.79-11.34-5.06-16.64c-2.53-5.91-6.05-11.4-9.17-17.05c-0.18-0.32-0.59-0.51-0.9-0.76
				c-0.18,0.34-0.48,0.66-0.53,1.02c-0.56,4.44-1.42,8.88-1.53,13.34c-0.1,4.26,0.68,8.54,0.89,12.82
				c0.21,4.28-0.13,8.62,0.34,12.87c0.57,5.29-1.73,10.94,1.84,15.89c0.21,0.3,0.15,0.83,0.1,1.25c-0.41,4.01-0.85,8.01-1.21,11.38
				c0.62,2.61,1.05,4.43,1.48,6.25c0.89-1.57,1.79-3.13,2.65-4.71c0.15-0.28,0.08-0.67,0.19-0.99
				C323.61,431.36,327.2,420.5,330.76,409.62z M330.56,104.83c-0.12-0.3-0.18-0.45-0.24-0.6c-0.2,0.25-0.43,0.49-0.6,0.77
				c-0.04,0.07,0.12,0.26,0.19,0.39C330.14,105.19,330.37,105,330.56,104.83z M327.92,461.68c0-0.67,0-1.34,0-2.02
				c-0.09,0-0.17,0-0.26,0.01c0,0.7,0,1.4,0,2.11C327.75,461.75,327.83,461.72,327.92,461.68z M326.47,466.71
				c0.15-0.51,0.3-1.02,0.45-1.54c-0.18-0.08-0.36-0.17-0.54-0.26c-0.11,0.57-0.22,1.13-0.33,1.7
				C326.19,466.65,326.33,466.68,326.47,466.71z M325.88,278.01c0.03-0.12-0.08-0.28-0.13-0.43c-0.17,0.1-0.43,0.17-0.49,0.32
				c-0.06,0.15,0.07,0.37,0.17,0.78C325.67,278.34,325.82,278.19,325.88,278.01z M325.13,470.76c0.12-0.19,0.23-0.38,0.42-0.68
				c-0.21-0.1-0.45-0.25-0.5-0.21c-0.16,0.16-0.3,0.37-0.35,0.58C324.68,470.51,324.98,470.66,325.13,470.76z M322.66,302.04
				c0.05-0.11,0.1-0.22,0.17-0.38c-0.06-0.15-0.13-0.34-0.2-0.52c-0.02,0.15-0.05,0.31-0.05,0.46
				C322.59,301.75,322.63,301.9,322.66,302.04z M312.07,370.45c0.26-2.3,0.96-4.86,0.26-6.89c-1-2.93-3.17-5.45-4.7-8.21
				c-1.44-2.59-2.85-5.21-3.99-7.93c-2.2-5.22-4.32-10.47-6.26-15.79c-3.21-8.79-10.01-16.42-8.59-26.72
				c0.2-1.47-0.27-3.02-0.42-4.53c-0.22-2.18-0.43-4.36-0.64-6.54c-2.95,6.84-5.63,13.6-7.4,20.59
				c-3.34,13.15-6.19,26.41-9.11,39.65c-0.15,0.71,0.16,1.52,0.49,2.34c0.15,0.39,0.31,0.79,0.41,1.17c0,0.01,0,0.01,0,0.02
				c0,0.01,0,0.03,0,0.04c-0.23,0.47-0.45,0.95-0.68,1.42c0.17,0.05,0.34,0.11,0.51,0.16c0.06-0.53,0.11-1.05,0.17-1.58
				c0-0.01,0.01-0.02,0.01-0.03h0.01c0-0.02-0.01-0.03-0.01-0.05c0.49-3.15,0.96-6.29,1.48-9.44c0.5-3.05,1.06-6.09,1.59-9.13
				c0.48,0.03,0.96,0.05,1.44,0.08c-4.16,14.36-3.81,28.24,3.8,41.68c1.18-3.56,2.11-6.88,3.44-10.03c0.4-0.94,1.94-1.39,2.95-2.07
				c-0.09,1.02,0.02,2.12-0.31,3.06c-1.28,3.65-2.7,7.24-4.07,10.85c1.17,0,1.58-0.35,1.76-0.78c2.26-5.61,4.17-11.38,6.83-16.79
				c1.97-4,0.67-7.57-0.17-11.24c-1.02-4.47-2.46-8.84-3.59-13.28c-0.09-0.35,0.87-1.41,1.12-1.34c2.74,0.77,2.01-0.98,1.87-2.39
				c-0.09-0.86-0.04-1.73-0.05-2.59c0.49,0.01,1.28-0.16,1.42,0.07c0.44,0.71,0.77,1.56,0.9,2.39c1.27,8.02,1.94,16.18,3.86,24.04
				c2.3,9.38,5.61,18.52,8.57,27.74c0.42,1.31,1.34,2.47,2.02,3.71c0.89-1.29,1.83-2.55,2.62-3.89c0.33-0.56,0.35-1.3,0.44-1.97
				C310.74,380.98,311.46,375.72,312.07,370.45z M311.06,441.92c0-1.06,0-2.12,0-3.18c-0.21,0-0.42-0.01-0.63-0.01
				c0,1.08,0,2.15,0,3.22C310.64,441.94,310.85,441.93,311.06,441.92z M308.62,311.39c0.52-3.97,1.59-7.95,1.56-11.91
				c-0.09-13.83-0.55-27.66-0.88-41.48c-0.15-5.91-0.34-11.81-0.52-17.72c-0.44-0.01-0.88-0.02-1.32-0.03
				c-2.65,6.53-4.56,13.49-8.1,19.5c-6.71,11.38-2.53,22.59-0.5,33.76c1.01,5.51,3.9,10.66,5.84,16.01
				c1.35,3.71,2.51,7.48,3.83,11.19c0.12,0.35,0.99,0.83,1.11,0.74c1.65-1.34,1.03-7.18-0.77-8.57
				C308.57,312.65,308.55,311.88,308.62,311.39z M309.29,395.62c-0.05-0.62-0.1-1.23-0.14-1.85c-0.25,0.01-0.5,0.02-0.75,0.04
				c0,0.55-0.04,1.11,0.04,1.66C308.45,395.56,308.99,395.57,309.29,395.62z M307.9,478.25c0.22-2.01,0.49-4.04,0.41-6.05
				c-0.32-8.2-0.75-16.39-1.2-24.58c-0.04-0.79-0.36-1.6-0.72-2.32c-0.47-0.97-1.39-1.78-1.63-2.78c-1.35-5.8-2.55-11.63-3.8-17.45
				c-2.65,8.49-4.57,16.8-6.17,25.17c-0.63,3.26-0.67,6.66-0.72,10c-0.05,3.18-0.63,6.73,0.54,9.46c3.2,7.49,7.2,14.63,10.89,21.91
				c0.26,0,0.52-0.01,0.78-0.01C306.82,487.15,307.4,482.7,307.9,478.25z M305.35,422.85c0.14-0.59,0.47-1.21,0.38-1.76
				c-0.39-2.61-0.87-5.21-1.4-7.79c-0.13-0.66-0.55-1.25-0.84-1.87c-0.36,0.6-0.83,1.17-1.05,1.82c-0.24,0.7-0.25,1.48-0.41,2.5
				c0.71,1.79,1.47,3.82,2.31,5.81C304.54,422.05,305.01,422.42,305.35,422.85z M299.36,408.46c0.23-1.24,0.87-2.58,0.61-3.71
				c-0.7-3.08-2.51-6.05-2.57-9.1c-0.19-9.32-0.98-18.45-4.95-27.97c-3.06,7.44-5.83,14.16-8.56,20.9
				c-0.24,0.59-0.44,1.46-0.18,1.96c2.6,5.05,5.3,10.05,8.02,15.04c0.16,0.3,1.11,0.56,1.16,0.48c1.98-2.95,2.55,0.26,3.68,0.84
				C297.52,407.38,298.43,407.94,299.36,408.46z M293.24,424.89c2.01-1.02,3.94-6.05,2.59-7.76c-2.06-2.59-4.66-4.77-6.59-7.44
				c-2.41-3.32-4.36-6.98-6.53-10.48c-0.38-0.62-0.86-1.19-1.29-1.79c-0.35,0.61-0.94,1.19-1.02,1.84
				c-0.83,6.17-1.9,12.33-2.23,18.53c-0.25,4.74,0.11,9.59,0.87,14.28c0.6,3.67,2.31,7.14,3.37,10.75
				c1.17,3.99,2.16,8.03,3.28,12.23c0.17-0.45,0.32-0.74,0.38-1.05c2-9.12,3.96-18.26,6-27.38
				C292.21,425.97,292.69,425.17,293.24,424.89z M290.2,313.47c0.06-0.2,0.2-0.43,0.15-0.61c-0.04-0.19-0.26-0.33-0.57-0.68
				c-0.02,0.42-0.1,0.64-0.03,0.8C289.84,313.17,290.05,313.31,290.2,313.47z M288.83,180.33c0.03-0.24,0.18-0.54,0.08-0.7
				c-0.18-0.29-0.5-0.49-0.76-0.73c0.08,0.51,0.16,1.03,0.24,1.54C288.54,180.41,288.68,180.37,288.83,180.33z M288.9,184.42
				c-0.05-0.67-0.11-1.33-0.17-2c-0.14,0.01-0.28,0.03-0.42,0.04c0.05,0.67,0.1,1.34,0.15,2.01
				C288.61,184.46,288.76,184.44,288.9,184.42z M282.26,297.64c2.11-5.91,5.46-11.68,3.59-18.24c-0.73-2.55,0.8-6.97-4.32-7.05
				c-0.12,0-0.31-0.92-0.32-1.43c-0.1-3.11,0.01-6.24-0.31-9.32c-0.15-1.46-1.02-2.89-1.74-4.24c-0.7-1.31-1.72-2.45-2.4-3.77
				c-0.6-1.16-0.69-2.61-1.39-3.69c-2.6-4-5.32-7.92-8.07-11.82c-0.65-0.92-1.57-1.66-2.36-2.48c-1.08,1.1-2.65,2-3.17,3.32
				c-3.78,9.45-7.6,18.89-10.85,28.53c-1.36,4.04-2.47,8.74-1.74,12.78c1.51,8.33,4.16,16.46,6.71,24.56c0.78,2.51,3.32,4.49,4.03,7
				c2.16,7.64,3.89,15.4,5.64,23.14c0.79,3.49,1.24,7.04,1.84,10.57c0.82-0.62,1-1.23,1.17-1.85c1.29-4.57,1.98-9.06,1.88-13.98
				c-0.19-9.65,1.92-19.18-0.72-28.99c-2.15-8-2.44-16.51-3.51-24.8c-0.06-0.48,0.31-1.02,0.48-1.53c0.29,0.41,0.74,0.79,0.85,1.25
				c0.74,3.15,1.41,6.32,2.1,9.48c0.26-0.05,0.52-0.1,0.78-0.15c-0.44-2.18-0.91-4.35-1.3-6.54c-0.1-0.53,0.06-1.11,0.1-1.66
				c0.56,0.26,1.39,0.38,1.62,0.82c0.42,0.78,0.61,1.75,0.7,2.66c0.68,6.95,1.47,13.88,1.91,20.84c0.28,4.28,0,8.59-0.02,12.89
				c-0.01,2.57,0,5.13,0,8.05C276.47,313.63,279.39,305.64,282.26,297.64z M275.76,402.05c0.93-1.82,2.02-3.75,1.9-5.6
				c-0.39-5.95-1.01-11.91-1.97-17.8c-0.6-3.66-1.97-7.19-3.08-11.06c-1.74,17.57-2.63,34.86,0.35,52.09
				c-0.14-6.94-0.57-13.87-0.77-20.8c-0.08-2.6,0.16-5.24,0.66-7.79c0.17-0.84,1.61-1.42,2.47-2.12c0.14,0.82,0.41,1.63,0.42,2.45
				C275.79,394.96,275.76,398.51,275.76,402.05z M276.16,141.17c0.08-0.22,0.24-0.45,0.21-0.65c-0.03-0.21-0.24-0.39-0.47-0.72
				c-0.06,0.4-0.15,0.65-0.11,0.88C275.83,140.86,276.03,141.01,276.16,141.17z M266.18,428.71c-0.1-0.61-0.19-1.23-0.29-1.84
				c-0.22,0.07-0.62,0.13-0.63,0.22c-0.06,0.55-0.03,1.11-0.03,1.67C265.55,428.74,265.86,428.73,266.18,428.71z M263.76,389.55
				c-0.73-13.19,2.8-26.3,0.56-39.51c-1.03-6.07-1.16-12.39-2.92-18.23c-2.25-7.45-5.76-14.51-8.67-21.76
				c-0.76-1.89-1.33-3.87-1.98-5.81c0.3-0.1,0.59-0.19,0.89-0.29c0.63,0.93,1.26,1.86,1.9,2.79c0.23-0.11,0.47-0.21,0.71-0.32
				c-2.53-6.91-5.05-13.82-7.7-21.06c-5.11,12.8-13.61,73.66-9.22,77.62c0.61-0.79,1.24-1.58,1.86-2.38
				c0.49,1.04,1.14,2.04,1.43,3.14c0.3,1.11,0.18,2.33,0.42,3.47c0.08,0.35,0.74,0.58,1.14,0.87c0.18-0.31,0.37-0.62,0.53-0.94
				c0.22-0.47,0.41-0.95,0.62-1.43c0.45,0.36,0.99,0.66,1.34,1.11c2.2,2.77,4.71,5.36,6.45,8.4c4.53,7.9,8.71,16,12.67,23.37
				C263.79,396.11,263.94,392.82,263.76,389.55z M263.33,423.01c0.55-0.77,0.65-1.37,0.53-1.92c-2.37-11.03-2.44-22.73-10.15-32.15
				c-3.4-4.16-6.15-8.84-9.23-13.26c-0.29-0.42-0.8-0.69-1.2-1.03c-0.1,0.52-0.36,1.08-0.25,1.56c0.78,3.56,1.42,7.18,2.52,10.66
				c1.79,5.68,3.82,11.3,5.89,16.89c0.68,1.85,1.77,3.55,2.68,5.31c0.23-0.13,0.46-0.26,0.69-0.39c-0.4-1.08-0.8-2.16-1.2-3.24
				c0.31-0.19,0.62-0.38,0.94-0.56C257.47,410.92,260.4,416.96,263.33,423.01z M263.35,182.25c0.14-4.72-1.05-9.46-1.4-14.21
				c-0.5-6.67-2.56-12.7-6.53-18.31c-0.46,0.75-0.86,1.29-1.14,1.89c-2.99,6.39-6.03,12.77-8.88,19.22
				c-0.89,2.01-2.02,4.34-1.76,6.36c0.89,6.89,1.89,13.84,3.72,20.52c1.72,6.27,4.47,12.27,6.99,18.29c0.43,1.04,1.98,1.61,3.02,2.4
				c0.52-1.08,1.08-2.13,1.54-3.23c0.36-0.85,0.61-1.75,0.89-2.63c1.15-3.47,2.28-6.94,3.42-10.41c-0.25-0.11-0.5-0.21-0.76-0.31
				c-0.28,0.85-0.47,1.74-0.87,2.53c-0.25,0.51-0.81,0.86-1.23,1.28c-0.08-0.51-0.26-1.03-0.21-1.52c0.26-2.66,0.49-5.33,0.91-7.97
				C261.81,191.51,263.21,186.9,263.35,182.25z M258.74,318.15c0.41-0.67,0.79-1.02,0.73-1.23c-0.36-1.04-0.82-2.04-1.25-3.05
				c-0.39,0.36-1.18,0.87-1.11,1.06C257.47,315.93,258.05,316.84,258.74,318.15z M256.58,228.41c0.35-0.74,0.22-2.04-0.21-2.77
				c-1.01-1.69-2.31-3.2-3.53-4.76c-0.43-0.55-0.94-1.05-1.42-1.57c-0.28,0.77-0.74,1.52-0.81,2.31c-0.41,4.7-0.65,9.41-1.09,14.1
				c-0.27,2.88-0.71,5.76-1.1,8.63c-0.05,0.32-0.09,0.65-0.14,0.97c-0.03,0.06-0.06,0.13-0.09,0.19c-0.02,0.09-0.04,0.18-0.06,0.27
				c-0.31,0.56-0.62,1.11-0.93,1.66c0.18,0.08,0.36,0.15,0.53,0.22c0.14-0.62,0.27-1.23,0.39-1.84c0.05-0.08,0.09-0.16,0.14-0.24
				c0.01-0.1,0.02-0.19,0.04-0.29C251.08,239.67,253.9,234.08,256.58,228.41z M256.52,413.8c-0.32-0.84-0.64-1.68-0.95-2.52
				c-0.22,0.08-0.44,0.16-0.65,0.24c0.3,0.78,0.61,1.57,0.92,2.35C256.06,413.85,256.29,413.82,256.52,413.8z M247.59,226.52
				c0.53-4.93,1.07-9.86,1.63-14.97c-3.89,4.72-4.8,9.61-2.76,14.85C246.84,226.44,247.21,226.48,247.59,226.52z M247.7,208.27
				c0.11-0.19,0.22-0.38,0.38-0.67c-0.27-0.19-0.5-0.35-0.72-0.5c-0.06,0.22-0.22,0.47-0.16,0.65
				C247.27,207.95,247.53,208.1,247.7,208.27z M242.62,422.97c0.26-0.39,0.46-0.56,0.45-0.71c-0.03-0.23-0.18-0.47-0.34-0.63
				c-0.05-0.05-0.49,0.15-0.48,0.19C242.31,422.12,242.43,422.41,242.62,422.97z M242.4,215.11c0.47-8.22,0.47-16.03-5.12-23.01
				c-1.12,2.74-2.65,5.45-3.3,8.37c-0.9,4-4.37,7.36-2.7,12.09c0.49,1.38-0.65,3.34-1.04,5.03c-0.53-0.81-1.06-1.62-1.89-2.89
				c-0.22,1.4-0.54,2.46-0.49,3.49c0.03,0.76,0.95,1.61,0.78,2.23c-1.19,4.23-2.49,8.45-3.91,12.62c-1.54,4.49-3.33,8.91-4.88,13.41
				c-1.03,2.99-3.2,6.45-2.45,9c1.46,5.03,2.6,10,3.41,15.19c1.39,9.01,3.71,17.87,5.57,26.8c0.79,3.8,1.39,7.64,2.18,12.09
				c1.71-6.92,3.31-13.26,4.82-19.63c0.45-1.92,0.5-3.93,0.97-5.85c0.85-3.52,2.13-6.95,2.73-10.51c0.28-1.69-1.18-3.71-0.83-5.36
				c0.88-4.12,2.46-8.08,3.54-12.16c1.02-3.86,2.39-7.76,2.52-11.68C242.62,234.61,241.85,224.82,242.4,215.11z M241.23,188.12
				c-0.15-1.1-0.29-2.21-0.44-3.31c-0.28,0-0.55,0-0.83,0c0.2,1.14,0.39,2.28,0.59,3.42C240.78,188.19,241,188.16,241.23,188.12z
				 M223.84,114.77c4.4-3.77,8.92-7.46,9.08-14.35C229.73,105.47,226.79,110.12,223.84,114.77z M225.94,406.23
				c-0.4-0.73-0.79-1.45-1.19-2.18c-0.16,0.09-0.33,0.17-0.5,0.26c0.38,0.73,0.76,1.47,1.14,2.2
				C225.57,406.42,225.75,406.32,225.94,406.23z M222.21,402.58c3.78,0.65,1.33-1.67,1.07-2.48c-0.72-2.32-1.68-4.57-2.59-6.84
				c-4.48-11.1-8.96-22.2-13.47-33.29c-0.33-0.8-0.89-1.51-1.34-2.26c-0.42,0.89-1.1,1.74-1.21,2.67
				c-0.73,6.32-1.66,12.64-1.91,18.98c-0.27,6.82,0.85,13.34,7.63,17.19c1.01,0.57,1.95,1.3,2.85,2.04c2.82,2.32,5.6,4.68,8.3,6.95
				C221.81,404.33,222.17,402.58,222.21,402.58z M222.77,345.12c0.03-5.69,0.02-11.39,0.02-17.22c-5.86,4.91-3.3,10.99-2.76,16.72
				c0.06,0.66,1.47,1.2,2.26,1.8C222.46,345.99,222.77,345.56,222.77,345.12z M216.14,333.5c6.47-7.59,7.25-16.28,6.54-25.27
				c-0.32-4.03-1.09-8.02-1.8-12.01c-1.42-7.97-2.83-15.94-4.51-23.86c-0.3-1.39-1.93-2.5-2.95-3.74c-0.26,1.2-0.56,2.38-0.78,3.58
				c-0.2,1.08-0.46,2.16-0.47,3.25c-0.04,9.98,0.06,19.96-0.08,29.94c-0.06,4.3-1.36,8.72-0.71,12.86
				C212.19,323.39,214.44,328.29,216.14,333.5z M210.67,140.64c1.12-3.26,2.23-6.51,3.34-9.77c-0.3-0.1-0.59-0.2-0.88-0.31
				c-1.16,3.23-2.31,6.46-3.46,9.68C210,140.38,210.34,140.51,210.67,140.64z M207.33,273.8c0.7-5.24,2.19-10.61,1.58-15.71
				c-0.57-4.76-3.45-9.24-5.76-14.99c-4.83,18.05,1.7,34.25,3.06,50.81c0.5-0.95,0.8-1.94,0.68-2.87c-0.31-2.43-1.24-4.86-1.13-7.25
				C205.92,280.45,206.89,277.15,207.33,273.8z M204.89,147.09c0.36-2.81,0.71-5.48,1.19-9.17c-6.44,4.89-12.34,8.56-17.17,13.31
				c-3.71,3.63-6.56,8.14-6.3,14.24c0.52,12.22,4.39,23.63,7.43,35.26c0.13,0.51,0.83,0.88,1.27,1.31c0.21-0.6,0.51-1.19,0.61-1.81
				c0.99-6.39,1.9-12.79,2.95-19.17c0.64-3.87,1.53-7.7,2.24-11.56c1.37-7.49,2.68-14.99,4.08-22.47c0.1-0.57,0.83-1.54,0.99-1.49
				C202.97,145.8,203.67,146.35,204.89,147.09z M203.88,354.58c2.08-5.85-0.06-10.64-2.49-15.07c-2.79-5.08-7.32-9.18-10.51-14.08
				c-2.39-3.68-4.7-7.41-6.93-11.19l2.55-1.54c1.52,2.54,3.13,5.03,4.82,7.48c2.05,2.96,4.49,5.65,6.75,8.46
				c0.31-0.2,0.61-0.41,0.92-0.61c-0.63-2.41-1.32-4.81-1.87-7.24c-1.15-5.07-2.36-10.13-3.29-15.24c-1-5.48-1.58-11.04-2.56-16.52
				c-1.27-7.18-2.86-14.31-4.12-21.49c-1.25-7.2-2.25-14.45-3.41-21.67c-0.09-0.55-0.52-1.08-0.9-1.54
				c-0.52-0.65-1.51-1.15-1.64-1.84c-0.18-1.01,0.33-2.14,0.33-3.21c0-0.64-0.41-1.28-0.64-1.92c-0.27,0.37-0.62,0.71-0.85,1.09
				l-2.78-0.86c1.79-3.1,3.16-6.33-0.08-10.31c-0.3,2.34-0.59,4.6-0.87,6.82l-1.77-0.15c0.56-4.44,0.82-8.93,0.94-13.4
				c0.03-1.04-1.09-2.11-1.68-3.17c-0.37,1-0.75,2-1.09,3.01c-0.34,1.02-0.87,2.04-0.93,3.09c-0.05,0.77-0.1,1.53-0.14,2.3
				l-1.37-0.08c0.07-1.27,0.13-2.53,0.17-3.8c0.16-4.72,2.35-9.61-0.68-14.3c-0.61-0.94-0.28-2.53-0.27-3.82
				c0.02-1.03,0.21-2.05,0.33-3.07c-1.67,4.14-2.37,8.41-3.2,12.64c-1.4,7.06-3.23,14.04-4.25,21.14
				c-1.44,10.06-2.21,20.22-3.46,30.31c-1.1,8.95-1.51,17.81,2.11,26.48c1.44-2.28,2.66-3.32,4.28-3.26l-0.11,2.44
				c-0.72,1.66-1.49,3.29-2.11,4.99c-0.21,0.58-0.12,1.33,0,1.98c1.17,6.01,2.21,12.05,3.6,18c1.26,5.41,2.9,10.73,4.41,16.08
				c0.12,0.43,0.52,0.78,0.79,1.16c0.17-0.33,0.56-0.73,0.47-0.98c-1.56-4.75-0.53-9.47,0-14.22c0.29-2.59,0.05-5.25,0.05-7.87
				c0.67,3.73,0.48,7.59,1.38,11.18c3.26,12.92,6.89,25.74,10.4,38.59c0.22,0.83,0.58,1.62,0.88,2.45c0.45-3.48,0.73-5.72,1.02-7.96
				c0.87,1.3,2.14,2.47,2.52,3.9c1.56,5.87,2.69,11.85,4.29,17.71c0.95,3.47,2.48,6.78,3.81,10.32c0.9-3.82,2.57-6.97,2.13-9.81
				C197.6,368.03,201.45,361.44,203.88,354.58z M201.22,241.77c-0.4-1.92-0.8-3.84-1.2-5.77c-0.32,0.08-0.63,0.17-0.94,0.25
				c0.29,1.92,0.59,3.84,0.88,5.77C200.38,241.94,200.8,241.86,201.22,241.77z M188.13,369.45c0.13-0.51,0.42-1.03,0.38-1.53
				c-0.14-1.56-0.37-3.12-0.62-4.67c-0.09-0.52-0.32-1.02-0.64-2.04c-0.42,0.83-0.75,1.18-0.72,1.49c0.18,1.91,0.4,3.82,0.72,5.71
				C187.31,368.79,187.82,369.1,188.13,369.45z M186.03,211.6c0.4-4.3-2.11-6.66-6.11-8.17c0.26,0.86,0.43,1.7,0.77,2.47
				c0.96,2.14,1.97,4.26,3,6.37c0.38,0.77,0.88,1.49,1.33,2.23C185.37,213.53,185.94,212.59,186.03,211.6z M183.21,200.5
				c0.24-0.09,0.48-0.18,0.73-0.28c-1.42-4.56-2.82-9.13-4.29-13.67c-0.27-0.85-0.84-1.61-1.27-2.42c-0.3,1.02-0.68,2.02-0.87,3.06
				c-0.08,0.45,0.18,0.99,0.38,1.45C179.65,192.6,181.43,196.55,183.21,200.5z M180.32,176.06c0.25-0.53,0.76-1.08,0.71-1.58
				c-0.24-2.31-0.64-4.62-1-7c-3.05,2.18-2.54,4.85-1.42,7.52C178.82,175.5,179.73,175.71,180.32,176.06z M176.71,162.58
				c0.79-1.2,1.57-2.4,2.36-3.6c-0.15-0.1-0.29-0.2-0.44-0.3c-0.82,1.15-1.64,2.31-2.46,3.47
				C176.35,162.29,176.53,162.44,176.71,162.58z M174.99,183.13c4.5-1.82,2.01-4.57,1.35-7.1
				C175.9,178.34,175.46,180.65,174.99,183.13z M165.96,370.16c4.23,5.01,10.31,8.45,15.57,12.59c-9.62-15.71-15.02-33-21.27-49.9
				c-2.52-6.83-4.17-14.02-5.79-21.14c-0.98-4.33-2.42-9.21-1.31-13.19c1.27-4.56,0.13-8.4-0.42-12.52
				c-0.94-7.1-2.4-14.16-2.93-21.29c-0.26-3.37,1.42-6.84,1.71-10.31c0.47-5.52,0.25-11.11,0.8-16.62c0.49-4.81,1.48-9.6,2.58-14.32
				c0.5-2.15,2.16-4.01,2.7-6.15c1.53-6.12,2.82-12.29,4.07-18.47c0.91-4.47,2.47-8.95,0.33-13.51c-0.24-0.52-0.48-1.05-0.72-1.57
				c-0.48,0.42-1.1,0.75-1.41,1.27c-2.69,4.54-5.63,8.97-7.92,13.7c-4.75,9.8-9.12,19.76-8.52,31.06c0.04,0.76-0.72,1.6-1.22,2.32
				c-0.68,0.98-1.97,1.81-2.12,2.83c-0.96,6.93-1.81,13.87-2.46,20.83c-0.94,9.93-2.48,19.9-2.25,29.81
				c0.21,9.09,2.22,18.16,3.81,27.18c0.96,5.46,2.05,11.02,4.09,16.14c2.84,7.11,6.6,13.87,10.04,20.74
				c0.43,0.86,1.45,1.41,1.93,2.25C158.79,358.02,161.48,364.84,165.96,370.16z M172.75,176.83c0-1.48,0-2.95,0-4.43
				c-0.15,0-0.29,0-0.43,0c-0.16,1.45-0.32,2.89-0.48,4.34C172.14,176.77,172.44,176.8,172.75,176.83z M164.8,198.74
				c0.2-0.03,0.4-0.07,0.59-0.1c-0.13-0.53-0.25-1.07-0.4-1.59c-0.02-0.04-0.26-0.01-0.53-0.01
				C164.58,197.64,164.69,198.19,164.8,198.74z M160.66,166.42c-0.07-0.21-0.19-0.45-0.36-0.58c-0.08-0.06-0.33,0.1-0.58,0.19
				c0.22,0.31,0.34,0.53,0.52,0.66C160.29,166.73,160.67,166.47,160.66,166.42z M159.99,156.06c-0.14-0.76-0.27-1.52-0.4-2.28
				c-0.68-1.27-1.36-2.54-2.04-3.81c-0.23,0.15-0.46,0.3-0.68,0.45c0.9,1.12,1.81,2.24,2.72,3.36c0,0.77,0,1.55,0,2.32
				C159.72,156.08,159.85,156.07,159.99,156.06z M156.84,182.66c0.46-0.74,1.06-1.78,0.87-2.49c-0.85-3.19-2.17-6.26-2.92-9.47
				c-1.2-5.22-2.04-10.52-3.15-15.76c-0.15-0.71-0.96-1.28-1.47-1.92c-0.68,0.75-1.79,1.4-1.97,2.25
				c-1.92,8.76-3.78,17.55-5.48,26.36c-0.93,4.83-1.54,9.73-2.29,14.6c0.32,0.1,0.64,0.2,0.96,0.31c1.51-4.19,3.03-8.38,4.64-12.83
				c-1.63,9.94-3.19,19.47-4.76,29c0.36,0.08,0.73,0.17,1.09,0.25c0.89-2.51,1.9-4.99,2.61-7.56c0.35-1.29-0.36-3.03,0.25-4.07
				C148.97,195.03,152.97,188.89,156.84,182.66z M147.06,152.31c0.81-3,1.56-5.55,0.62-8.7c-1.61-5.4-2.74-10.94-3.91-16.46
				c-0.21-1.01,0.38-2.19,0.54-3.29c0.2-1.31,0.63-2.66,0.42-3.91c-0.21-1.27-1.04-2.45-1.65-3.65c-0.63-1.25-1.3-2.47-1.96-3.7
				c-0.51,1.29-1.02,2.58-1.53,3.86c-2,5.05-3.8,10.18-6.09,15.09c-1.04,2.23-3.79,3.77-4.51,6.02c-2.87,8.96-5.52,18.01-7.74,27.15
				c-2.44,10.03-4.49,20.17-6.4,30.31c-1.26,6.67-2.2,13.43-2.87,20.18c-0.79,8.02-1.19,16.07-1.68,24.12
				c-0.37,6.02,3.58,11.89,0.65,18.04c-0.22,0.46,0.04,1.17,0.13,1.75c0.55,3.41,1.11,6.82,1.67,10.23
				c-0.2,0.04-0.41,0.08-0.61,0.12c0.64,3.03,1.03,6.14,1.97,9.08c3.58,11.17,7.34,22.29,11.06,33.41c0.13,0.41,0.66,0.68,1,1.02
				c0.2-0.5,0.56-1,0.57-1.5c0.11-3.71,0.16-7.43,0.2-11.14c0-0.38-0.1-0.78-0.25-1.13c-0.9-2.21-2.75-4.49-2.58-6.61
				c1.05-13.34,2.23-26.68,4.02-39.94c1.35-9.98,1.62-20.14,5.49-29.81c1.8-4.51,1.4-9.89,2.05-14.88
				c0.86-6.68,1.36-13.45,2.76-20.03C140.97,175.99,143.89,164.11,147.06,152.31z M144.16,108.62c0.18-0.04,0.34-0.98,0.27-1.47
				c-0.22-1.48-0.56-2.94-1.03-5.28c-0.63,2.24-1.09,3.74-1.47,5.27c-0.11,0.44-0.1,1.33,0.01,1.35
				C142.66,108.66,143.44,108.75,144.16,108.62z M141.72,214.9c0.07-0.15,0.17-0.29,0.18-0.43c0-0.1-0.14-0.21-0.22-0.32
				c-0.16,0.18-0.27,0.29-0.37,0.41C141.44,214.67,141.58,214.79,141.72,214.9z M116.78,145.28c2.79-12.68,1.17-25.25,0.21-37.86
				c-0.08-1.13-1.05-2.19-1.61-3.28c-0.35,0.23-0.74,0.41-1.04,0.69c-5.46,5.26-10.44,10.97-12.5,18.41
				c-1.59,5.75-2.83,11.68-3.44,17.61c-0.83,8.14-1.53,16.38-1.12,24.53c0.34,6.89,2.26,13.71,3.64,20.54
				c1.43,7.1,3.06,14.16,4.61,21.24c0.19,0,0.38-0.01,0.58-0.01c0.4-1.83,0.96-3.64,1.17-5.49c1.3-11.82,8.26-22.34,7.08-34.93
				C113.69,159.71,115.23,152.29,116.78,145.28z"/>
			<path d="M574.26,109.26c0.221,0.57,0.7,1.19,0.61,1.71c-0.74,4.05-1.59,8.09-2.41,12.13c0.45-0.11,0.89-0.22,1.34-0.33
				c0.351,0.88,1.16,1.9,0.96,2.63c-2.2,7.97-4.54,15.91-6.91,23.83c-0.27,0.92-0.939,1.73-0.819,2.95
				c1.72-3.27,3.45-6.55,5.17-9.82c0.35,0.17,0.7,0.34,1.05,0.51c-4.38,9.43-8.76,18.88-13.14,28.31l-2.061-0.95
				c3.07-6.68,4.431-13.8,6.391-20.77c1.579-5.66,2.18-11.58,3.489-17.32c1.65-7.21,3.57-14.36,5.41-21.53
				C573.47,110.11,573.95,109.71,574.26,109.26z"/>
			<path d="M542.03,163.13c0.85,5.82,2.229,11.64,2.08,17.43c-0.141,5.44-2.29,10.8-3.551,16.23l-1.85-0.33
				c0.17-0.68,0.31-1.36,0.42-2.04c1.271-7.81,1.17-15.85,1.51-23.79c0.101-2.4-0.3-4.81-0.47-7.22L542.03,163.13z"/>
			<path fill="#FFFFFF" d="M404.87,220.97v0.01c0,0,0,0-0.01-0.01H404.87z"/>
			<path d="M375.18,98.9c3.79,7.27,0.53,14.03-1.68,20.8c-1.97,5.99-4.26,11.88-6.56,18.26l-2.2-0.8c0.35-0.91,0.66-1.81,0.93-2.72
				c1.83-6.15,3.5-12.38,4.75-18.67c1.061-5.39,1.38-10.91,2.14-16.36c0.12-0.87,0.801-1.66,1.221-2.49
				C374.25,97.58,374.81,98.19,375.18,98.9z"/>
			<path d="M370.45,133.06c0.22,0.16,0.649,0.42,0.649,0.46c-0.529,0.94-1.09,1.85-1.649,2.78c-0.04,0.06-0.08,0.12-0.12,0.18
				c-0.08-0.13-0.18-0.26-0.14-0.34C369.59,135.1,370.02,134.08,370.45,133.06z"/>
			<path d="M369.45,136.3c-0.04,0.06-0.07,0.13-0.11,0.19l-0.01-0.01C369.37,136.42,369.41,136.36,369.45,136.3z"/>
			<path d="M369.34,136.49c0.01,0.03,0.03,0.06,0.05,0.09l-0.069-0.06C369.33,136.51,369.33,136.5,369.34,136.49z"/>
			<path d="M369.39,136.58c-0.04,0.03-0.08,0.06-0.12,0.08c0.021-0.05,0.03-0.09,0.051-0.14L369.39,136.58z"/>
			<path d="M369.26,136.67c0,0,0,0,0.01-0.01c-1,2.95-2.05,5.88-3.06,8.83C367.22,142.55,368.26,139.61,369.26,136.67z"/>
			<path d="M340.53,80.66c0.01,0.02,0.01,0.03,0.01,0.05c0,0-0.01-0.01-0.01-0.02C340.53,80.68,340.53,80.67,340.53,80.66z"/>
			<path fill="#FFFFFF" d="M340.53,80.69c0,0.01,0.01,0.02,0.01,0.02c0,0.01,0,0.01,0,0.01c-0.01,0.02-0.02,0.05-0.03,0.07
				c0-0.04,0.01-0.08,0.01-0.12C340.52,80.67,340.52,80.68,340.53,80.69z"/>
			<path fill="#FFFFFF" d="M340.53,80.66c0,0.01,0,0.02,0,0.03c-0.01-0.01-0.01-0.02-0.01-0.02L340.53,80.66z"/>
			<path fill="#FFFFFF" d="M272.13,357.57c0,0.02,0.01,0.03,0.01,0.05h-0.01v-0.01c0-0.01-0.01-0.01-0.01-0.02
				C272.12,357.58,272.13,357.58,272.13,357.57z"/>
			<path fill="#FFFFFF" d="M272.13,357.62c0,0.01-0.01,0.02-0.01,0.03c0-0.01,0-0.03,0-0.04L272.13,357.62z"/>
			<path fill="#FFFFFF" d="M272.12,357.59c0,0.01,0.01,0.01,0.01,0.02h-0.01C272.12,357.6,272.12,357.6,272.12,357.59z"/>
			<path d="M271.94,117.02l-1.79,0.31c-0.7-3.79-2.27-7.27-5.21-10.32c-0.18-0.18-0.4-0.38-0.45-0.6c-0.28-1.09-0.51-2.18-0.75-3.28
				c0.76,0.5,1.53,1,2.29,1.5c-1.41-2.81,0.36-7.02-4.06-8.67c-0.95-0.36-1.45-2.37-1.85-3.71c-1.84-6.27-3.6-12.57-5.31-18.88
				c-0.22-0.82,0.05-1.76,0.09-2.64c0.47,0.32,0.95,0.64,1.67,1.13c-0.98-5.79-1.95-11.34-2.82-16.89
				c-0.11-0.73,0.24-1.53,0.38-2.29c0.43,0.64,1.13,1.24,1.26,1.94c1.55,8.2,2.91,16.45,4.56,24.63c0.91,4.47,2.07,8.66,5.62,12.32
				c2.29,2.37,2.74,6.72,3.53,10.29C270.21,106.88,271.04,111.96,271.94,117.02z"/>
			<path d="M238.27,116.39c-0.41,2.09-0.36,3.11-0.79,3.85c-3.84,6.67-3.62,14.03-4.01,21.36c-0.6,11.51,1.54,22.63,4.02,33.7
				l-2.74,0.36c-0.5-2.29-1.03-4.58-1.55-6.86c-0.56-2.47-2.38-4.73-2.59-7.17c-0.45-5.15-0.19-10.37-0.27-15.56
				c-0.04-2.39-0.2-4.78-0.34-7.89c-0.75,1.22-1.17,1.75-1.43,2.35c-0.07,0.16-0.14,0.32-0.21,0.48l-1.4-0.6
				c1.53-3.27,2.94-6.57,3.82-9.99c1.64-6.43,2.12-13.16,3-19.78l2.25,0.29c-0.42,3.39-0.53,6.86-0.55,10.41
				C236.21,120.04,236.95,118.74,238.27,116.39z"/>
			<path d="M226.16,86.72c-0.05,0.16-0.11,0.31-0.16,0.46l-0.01,0.01C226.04,87.03,226.1,86.88,226.16,86.72z"/>
			<path fill="#FFFFFF" d="M225.99,87.21c-0.02,0.04-0.04,0.08-0.06,0.12c0.01-0.04,0.02-0.08,0.03-0.12c0,0,0.01,0,0.02,0H225.99z"
				/>
			<path fill="#FFFFFF" d="M225.99,87.19c-0.01,0.01-0.01,0.01-0.01,0.02c-0.01,0-0.02,0-0.02,0
				C225.97,87.2,225.98,87.2,225.99,87.19z"/>
			<path d="M200.38,81.04c1.09,6.57-2.88,12.2-2.44,18.57c0.78,11.41-5.7,20.93-8.54,31.41l-2.06-0.77
				c0.17-0.48,0.35-0.97,0.54-1.47c-2.23,0.75-2.98,1.98-3.18,3.37l-2.21-0.41c0.31-1.7,0.66-3.4,1.06-5.08
				c0.36-1.49-0.12-4.44,3.29-3.45c0.3,0.08,1.28-1.22,1.51-2.01c2.35-7.98,4.94-15.91,6.83-24c3.01-12.89,2.24-26.07,2.34-39.18
				c0.03-4.34,0.65-8.68,1.07-13.01c0.03-0.37,0.55-0.69,0.85-1.03c0.3,0.68,0.84,1.36,0.85,2.05c0.14,7.32,0.25,14.65,0.25,21.98
				C200.54,72.36,199.68,76.82,200.38,81.04z"/>
			<path d="M186.5,312.7l-2.55,1.54c-2.24-3.78-4.41-7.6-6.51-11.45c-1.84-3.37-2.75-7.27-4.08-10.92
				c-0.23,0.03-0.46,0.06-0.69,0.09c0,3.7,0,7.4,0,11.1c-0.81-0.55-1.15-1.18-1.08-1.75c0.39-2.84-0.3-5.3-2.39-7.29
				c-1.3-1.23-2.67-2.38-4.01-3.56l0.11-2.44c1.08,0.03,2.34,0.56,3.96,1.53c0.31,0.19,1.45-0.22,1.53-0.53
				c0.33-1.18,0.59-2.46,0.49-3.67c-0.88-10.59-2.46-21.17-2.59-31.77c-0.11-9.28,1.06-18.58,1.58-27.88l1.37,0.08
				c-0.37,6.01-0.7,12.04-0.96,18.07c-0.13,2.98-0.02,5.97-0.02,8.96c0.33,0.02,0.65,0.03,0.98,0.05c0.98-6.3,2.09-12.59,2.9-18.91
				l1.77,0.15c-0.28,2.22-0.56,4.4-0.84,6.59c0.54-1.03,1.19-2.06,1.79-3.1l2.78,0.86c-0.08,0.12-0.14,0.25-0.19,0.39
				c-0.5,1.52-0.75,3.13-1.31,4.62c-3.43,9.12-5.01,18.6-4.94,28.27c0.04,5.28,0.35,10.76,1.78,15.79
				C177.92,296.43,181.77,304.8,186.5,312.7z"/>
			<path d="M186.06,353.75c0.01,0.03,0.01,0.07,0.02,0.1h-0.01C186.07,353.82,186.06,353.78,186.06,353.75z"/>
			<path d="M186.08,353.85v0.01c-0.01,0-0.01-0.01-0.01-0.01H186.08z"/>
			<path d="M186.06,353.75c-0.43-2.45-0.87-4.9-1.31-7.35c0.25-0.04,0.5-0.07,0.75-0.1C185.69,348.78,185.87,351.26,186.06,353.75z"
				/>
			<path d="M183.78,335.57c0.41,2.18,0.82,4.36,1.23,6.55c-0.11,0.02-0.22,0.04-0.33,0.06c-0.55-2.15-1.1-4.3-1.64-6.45
				C183.29,335.67,183.53,335.62,183.78,335.57z"/>
			<path fill="#FFFFFF" d="M135.45,115.17c0,0.01-0.01,0.02-0.01,0.03c-0.02,0.01-0.03,0.03-0.05,0.04L135.45,115.17z"/>
			<path fill="#FFFFFF" d="M135.45,115.17l-0.06,0.07c0.01-0.01,0.01-0.03,0.02-0.04C135.42,115.19,135.44,115.18,135.45,115.17z"/>
		</g>
		<g>
		</g>
	</g>
</g>
</svg>
