<?xml version="1.0" encoding="utf-8"?>
<!-- Generator: Adobe Illustrator 16.0.0, SVG Export Plug-In . SVG Version: 6.00 Build 0)  -->
<!DOCTYPE svg PUBLIC "-//W3C//DTD SVG 1.1//EN" "http://www.w3.org/Graphics/SVG/1.1/DTD/svg11.dtd">
<svg version="1.1" id="Layer_1" xmlns="http://www.w3.org/2000/svg" xmlns:xlink="http://www.w3.org/1999/xlink" x="0px" y="0px"
	 width="700px" height="1000px" viewBox="0 0 700 1000" enable-background="new 0 0 700 1000" xml:space="preserve">
<g>
	<g>
		<path fill="none" d="M289.165,934.564c0-26.388-0.002-52.772,0.032-79.158c0-0.249,0.486-0.714,0.746-0.714
			c14.314-0.035,28.629-0.034,42.944-0.002c0.225,0,0.643,0.433,0.643,0.663c0.028,52.825,0.028,105.65-0.005,158.478
			c0,0.256-0.5,0.735-0.769,0.735c-14.288,0.035-28.576,0.035-42.864,0.003c-0.243-0.001-0.696-0.447-0.696-0.688
			C289.163,987.443,289.165,961.004,289.165,934.564z M315.837,1005.176c2.216,0.373,3.317-0.007,4.154-2.112
			c0.482-1.218,0.079-2.845-0.117-4.26c-0.312-2.238-1.063-4.448-1.116-6.684c-0.073-3.036,0.465-6.082,0.492-9.126
			c0.016-1.774-0.531-3.547-0.685-5.333c-0.227-2.626-0.201-5.277-0.512-7.892c-0.437-3.691-1.106-7.354-1.63-11.037
			c-0.583-4.102-1.024-8.225-1.691-12.311c-0.471-2.88-1.43-5.688-1.789-8.576c-0.678-5.447-1.41-10.924-1.52-16.398
			c-0.167-8.438,0.167-16.886,0.297-25.33c0.054-3.454,0.078-6.91,0.206-10.362c0.229-6.107,0.505-12.216,0.814-18.321
			c0.044-0.877,0.442-1.729,0.564-2.609c0.083-0.59,0.121-1.273-0.1-1.797c-0.261-0.62-0.762-1.479-1.271-1.563
			c-0.565-0.095-1.649,0.425-1.829,0.922c-1.019,2.813-1.975,5.666-2.677,8.572c-0.73,3.028-1.28,6.116-1.679,9.208
			c-0.735,5.7-1.33,11.419-1.93,17.136c-0.402,3.832-0.862,7.667-1.028,11.514c-0.232,5.371-0.26,10.753-0.277,16.13
			c-0.006,1.776,0.253,3.561,0.468,5.331c0.109,0.91,0.498,1.791,0.567,2.698c0.251,3.276,0.415,6.562,0.624,9.841
			c0.36,5.642,0.793,11.278,1.08,16.925c0.388,7.644-0.371,15.234-1.553,22.766c-0.687,4.375-1.842,8.678-2.829,13.003
			c-0.427,1.871-1.021,3.704-1.42,5.58c-0.164,0.771-0.325,1.831,0.06,2.367c0.849,1.185,1.693,2.246,3.762,1.829
			c1.911-0.386,4.054,0.581,6.095,0.58C311.527,1005.863,313.683,1005.424,315.837,1005.176z"/>
		<path d="M315.837,1005.176c-2.155,0.248-4.31,0.688-6.465,0.688c-2.041,0.001-4.184-0.966-6.095-0.58
			c-2.068,0.417-2.913-0.646-3.762-1.829c-0.384-0.536-0.223-1.597-0.06-2.367c0.399-1.876,0.993-3.709,1.42-5.58
			c0.987-4.325,2.142-8.628,2.829-13.003c1.182-7.53,1.941-15.122,1.553-22.766c-0.287-5.646-0.72-11.283-1.08-16.925
			c-0.209-3.279-0.373-6.563-0.624-9.841c-0.07-0.907-0.458-1.789-0.567-2.698c-0.214-1.771-0.474-3.555-0.468-5.331
			c0.017-5.377,0.045-10.759,0.277-16.13c0.166-3.847,0.626-7.682,1.028-11.514c0.6-5.717,1.194-11.436,1.93-17.136
			c0.398-3.092,0.948-6.18,1.679-9.208c0.702-2.906,1.658-5.759,2.677-8.572c0.18-0.497,1.263-1.017,1.83-0.922
			c0.508,0.084,1.009,0.943,1.27,1.563c0.221,0.522,0.183,1.207,0.1,1.797c-0.122,0.88-0.521,1.732-0.564,2.609
			c-0.311,6.105-0.587,12.214-0.814,18.321c-0.128,3.452-0.152,6.908-0.206,10.362c-0.13,8.443-0.464,16.892-0.297,25.33
			c0.109,5.476,0.842,10.95,1.52,16.398c0.358,2.889,1.317,5.696,1.789,8.576c0.667,4.086,1.109,8.209,1.691,12.31
			c0.523,3.684,1.193,7.347,1.63,11.037c0.311,2.614,0.285,5.267,0.512,7.893c0.152,1.786,0.7,3.559,0.685,5.333
			c-0.027,3.044-0.564,6.09-0.492,9.126c0.054,2.233,0.806,4.443,1.116,6.684c0.196,1.415,0.602,3.042,0.117,4.259
			C319.154,1005.169,318.054,1005.549,315.837,1005.176z"/>
	</g>
</g>
</svg>
