<?xml version="1.0" encoding="utf-8"?>
<!-- Generator: Adobe Illustrator 16.0.0, SVG Export Plug-In . SVG Version: 6.00 Build 0)  -->
<!DOCTYPE svg PUBLIC "-//W3C//DTD SVG 1.1//EN" "http://www.w3.org/Graphics/SVG/1.1/DTD/svg11.dtd">
<svg version="1.1" id="Layer_1" xmlns="http://www.w3.org/2000/svg" xmlns:xlink="http://www.w3.org/1999/xlink" x="0px" y="0px"
	 width="700px" height="1000px" viewBox="0 0 700 1000" enable-background="new 0 0 700 1000" xml:space="preserve">
<g>
	<g>
		<path fill-rule="evenodd" clip-rule="evenodd" fill="none" d="M374.124,819.709c0,63.024,0,126.049-0.027,189.073
			c0,0.22-0.412,0.632-0.632,0.632c-38.664,0.028-77.328,0.028-115.992,0c-0.22,0-0.632-0.412-0.632-0.632
			c-0.027-126.049-0.027-252.097,0-378.146c0-0.22,0.412-0.632,0.632-0.632c38.664-0.028,77.328-0.028,115.992,0
			c0.22,0,0.632,0.412,0.632,0.632C374.124,693.661,374.124,756.686,374.124,819.709z M351.126,700.438
			c0.186,0.057,0.371,0.114,0.556,0.172c-1.337,3.901-2.45,7.898-4.06,11.686c-3.185,7.493-6.64,14.872-10.001,22.291
			c-0.171,0.377-0.505,0.68-0.764,1.018c-0.15-0.455-0.431-0.912-0.424-1.364c0.021-1.353,0.175-2.702,0.238-4.055
			c0.19-4.083,0.708-8.19,0.435-12.244c-0.239-3.55-1.012-7.169-2.212-10.521c-1.318-3.684-3.358-7.114-5.193-10.598
			c-0.186-0.353-1.125-0.308-1.715-0.447c-0.023,0.491-0.186,1.025-0.048,1.466c1.365,4.375,3.432,8.65,4.002,13.12
			c0.608,4.762-0.065,9.71-0.405,14.562c-0.295,4.206-1.159,8.381-1.325,12.587c-0.377,9.561-5.21,17.273-9.762,25.192
			c-3.153,5.486-5.906,11.205-8.766,16.856c-0.457,0.902-0.537,1.995-0.792,3c-0.289-0.812-0.593-1.618-0.863-2.436
			c-1.196-3.623-2.693-7.184-3.476-10.894c-0.651-3.09-0.804-6.384-0.555-9.538c0.315-3.987,1.158-7.945,1.958-11.879
			c1.614-7.933,3.365-15.837,5.014-23.763c0.115-0.553-0.148-1.184-0.235-1.778c-0.524,0.284-1.322,0.438-1.529,0.872
			c-1.237,2.594-2.416,5.222-3.465,7.896c-1.664,4.242-3.347,8.486-4.751,12.817c-0.75,2.313-0.87,4.823-1.413,7.213
			c-0.138,0.608-0.807,1.096-1.232,1.639c-0.278-0.573-0.593-1.132-0.826-1.724c-0.431-1.096-0.691-2.275-1.236-3.308
			c-2.707-5.123-5.694-10.108-8.179-15.335c-2.683-5.643-4.925-11.494-7.346-17.261c-1.085-2.586-2.173-5.173-3.192-7.786
			c-1.332-3.416-2.613-6.853-3.886-10.291c-0.822-2.22-1.711-4.427-2.341-6.703c-0.409-1.479-0.123-3.177-0.65-4.59
			c-0.818-2.191-2.409-4.126-3.034-6.35c-0.638-2.271-0.569-4.757-0.699-7.154c-0.213-3.928-0.327-7.862-0.511-11.792
			c-0.02-0.428-0.232-0.847-0.355-1.27c-0.325,0.169-0.881,0.282-0.938,0.516c-0.416,1.712-1.009,3.444-1.025,5.175
			c-0.046,4.89-0.246,9.833,0.371,14.658c0.67,5.244,2.194,10.38,3.34,15.563c1.235,5.589,2.175,11.263,3.768,16.747
			c2.099,7.228,4.498,14.385,7.156,21.427c2.71,7.18,5.981,14.146,8.823,21.279c1.303,3.273,2.281,6.691,3.19,10.102
			c0.729,2.732,1.499,5.539,1.604,8.337c0.221,5.821,0.103,11.66-0.043,17.488c-0.125,5.005-0.541,10.002-0.714,15.007
			c-0.098,2.83-0.043,5.671,0.076,8.502c0.213,5.051,0.507,10.099,0.804,15.145c0.201,3.419,0.432,6.836,0.707,10.249
			c0.518,6.432,1.083,12.859,1.617,19.29c0.216,2.594,0.509,5.188,0.569,7.787c0.057,2.458-0.314,4.931-0.2,7.383
			c0.304,6.559,0.927,13.104,1.108,19.664c0.11,3.996-0.438,8.006-0.545,12.014c-0.051,1.908,0.34,3.826,0.34,5.739
			c0,2.314-0.372,4.636-0.273,6.941c0.124,2.896,0.669,5.772,0.836,8.669c0.209,3.632,0.208,7.275,0.319,10.913
			c0.157,5.185,0.381,10.367,0.476,15.552c0.042,2.258-0.092,4.527-0.279,6.779c-0.284,3.425-0.367,6.91-1.113,10.24
			c-1.015,4.53-2.799,8.888-3.835,13.415c-0.929,4.06-1.294,8.249-1.903,12.382c-0.187,1.266-0.721,3.554-0.473,3.643
			c2.599,0.936,5.292,1.734,8.023,2.131c2.123,0.309,4.336-0.055,6.509-0.031c3.315,0.035,6.634,0.081,9.944,0.251
			c1.949,0.101,3.889,0.425,5.824,0.709c0.366,0.055,0.689,0.396,1.032,0.604c0.049-0.509,0.106-1.018,0.145-1.528
			c0.019-0.248,0.002-0.499,0.001-0.748c0.272,0.116,0.536,0.26,0.817,0.347c1.117,0.346,3.093,1.159,3.223,0.932
			c0.859-1.512,1.972-3.321,1.793-4.896c-0.528-4.665-1.798-9.24-2.428-13.898c-0.517-3.827-0.504-7.724-0.789-11.585
			c-0.091-1.239-0.191-2.539-0.637-3.673c-0.443-1.127-1.838-2.041-1.922-3.117c-0.268-3.423-0.009-6.883-0.151-10.319
			c-0.441-10.627-0.946-21.251-1.479-31.873c-0.339-6.756-0.923-13.503-1.121-20.262c-0.236-8.058-0.322-16.125-0.204-24.185
			c0.118-8.107,0.601-16.209,0.86-24.315c0.201-6.295,0.289-12.593,0.459-18.889c0.06-2.193,0.273-4.384,0.321-6.578
			c0.063-2.989-0.002-5.98,0.053-8.971c0.116-6.286,0.482-12.576,0.366-18.857c-0.158-8.569,2.738-16.213,6.392-23.71
			c1.447-2.969,2.813-5.98,4.123-9.013c1.021-2.362,1.689-4.899,2.898-7.153c1.44-2.687,3.378-5.101,4.94-7.729
			c1.967-3.311,3.68-6.773,5.667-10.071c2.597-4.312,5.567-8.411,7.954-12.829c1.214-2.248,1.638-4.967,2.179-7.524
			c0.894-4.224,1.602-8.487,2.359-12.738c0.085-0.478-0.014-0.987-0.027-1.481c0.121,0.347,0.233,0.697,0.37,1.037
			c0.027,0.066,0.151,0.094,0.23,0.14c0.059-0.147,0.163-0.293,0.171-0.442c0.174-3.596,0.242-7.198,0.527-10.784
			c0.415-5.228,0.961-10.445,1.503-15.662c0.174-1.678,0.854-3.366,0.716-5.001c-0.803-9.532-1.659-19.064-2.761-28.565
			c-0.411-3.547-1.43-7.042-2.409-10.492c-0.233-0.823-1.422-1.375-2.171-2.052c-0.1,0.906-0.337,1.822-0.274,2.717
			c0.256,3.663,0.83,7.318,0.854,10.979c0.025,3.95-0.398,7.907-0.689,11.856c-0.212,2.881-0.521,5.754-0.8,8.63
			c-0.329,3.392-0.775,6.775-0.975,10.174c-0.136,2.303,0.354,4.664,0.052,6.931C352.801,692.716,351.88,696.565,351.126,700.438z
			 M321.974,830.494c0.098,1.537,0.064,1.912,0.159,2.25c0.108,0.383,0.331,0.734,0.504,1.1c-0.013-0.411,0.006-0.827-0.049-1.232
			C322.542,832.279,322.407,831.96,321.974,830.494z"/>
		<path fill-rule="evenodd" clip-rule="evenodd" d="M351.126,700.438c0.754-3.872,1.675-7.722,2.196-11.624
			c0.303-2.267-0.188-4.628-0.052-6.931c0.199-3.398,0.646-6.782,0.975-10.174c0.279-2.876,0.588-5.749,0.8-8.63
			c0.291-3.949,0.715-7.906,0.689-11.856c-0.024-3.661-0.599-7.316-0.854-10.979c-0.063-0.895,0.175-1.811,0.274-2.717
			c0.749,0.677,1.938,1.229,2.171,2.052c0.979,3.45,1.998,6.945,2.409,10.492c1.102,9.501,1.958,19.033,2.761,28.565
			c0.138,1.635-0.542,3.323-0.716,5.001c-0.542,5.217-1.088,10.435-1.503,15.662c-0.285,3.586-0.354,7.188-0.527,10.784
			c-0.008,0.149-0.112,0.295-0.171,0.442c-0.079-0.046-0.203-0.073-0.23-0.14c-0.137-0.34-0.249-0.69-0.37-1.037
			c0.014,0.494,0.112,1.004,0.027,1.481c-0.758,4.251-1.466,8.515-2.359,12.738c-0.541,2.558-0.965,5.276-2.179,7.524
			c-2.387,4.418-5.357,8.518-7.954,12.829c-1.987,3.298-3.701,6.761-5.667,10.071c-1.562,2.629-3.5,5.043-4.94,7.729
			c-1.208,2.254-1.876,4.791-2.898,7.153c-1.311,3.032-2.676,6.044-4.123,9.013c-3.654,7.497-6.55,15.141-6.392,23.71
			c0.116,6.281-0.25,12.571-0.366,18.857c-0.055,2.99,0.01,5.981-0.053,8.971c-0.047,2.194-0.261,4.385-0.321,6.578
			c-0.171,6.296-0.258,12.594-0.459,18.889c-0.259,8.106-0.742,16.208-0.86,24.315c-0.118,8.06-0.032,16.127,0.204,24.185
			c0.198,6.759,0.782,13.506,1.121,20.262c0.533,10.622,1.038,21.246,1.479,31.873c0.143,3.437-0.116,6.896,0.151,10.319
			c0.084,1.076,1.479,1.99,1.922,3.117c0.446,1.134,0.545,2.434,0.637,3.673c0.285,3.861,0.272,7.758,0.789,11.585
			c0.63,4.658,1.9,9.233,2.428,13.898c0.178,1.575-0.934,3.385-1.793,4.896c-0.13,0.228-2.105-0.586-3.223-0.932
			c-0.281-0.087-0.545-0.23-0.817-0.347c0.001,0.249,0.018,0.5-0.001,0.748c-0.038,0.511-0.095,1.02-0.145,1.528
			c-0.343-0.208-0.667-0.55-1.032-0.604c-1.935-0.284-3.875-0.608-5.824-0.709c-3.311-0.17-6.629-0.216-9.944-0.251
			c-2.172-0.023-4.386,0.34-6.509,0.031c-2.731-0.396-5.424-1.195-8.023-2.131c-0.248-0.089,0.286-2.377,0.473-3.643
			c0.608-4.133,0.974-8.322,1.903-12.382c1.036-4.527,2.82-8.885,3.835-13.415c0.746-3.33,0.829-6.815,1.113-10.24
			c0.187-2.252,0.32-4.521,0.279-6.779c-0.095-5.185-0.319-10.367-0.476-15.552c-0.11-3.638-0.109-7.281-0.319-10.913
			c-0.167-2.896-0.712-5.772-0.836-8.669c-0.099-2.306,0.273-4.627,0.273-6.941c0-1.913-0.392-3.831-0.34-5.739
			c0.108-4.008,0.655-8.018,0.545-12.014c-0.181-6.56-0.804-13.105-1.108-19.664c-0.114-2.452,0.257-4.925,0.2-7.383
			c-0.06-2.6-0.354-5.193-0.569-7.787c-0.534-6.431-1.099-12.858-1.617-19.29c-0.275-3.413-0.505-6.83-0.707-10.249
			c-0.297-5.046-0.591-10.094-0.804-15.145c-0.119-2.831-0.174-5.672-0.076-8.502c0.174-5.005,0.589-10.002,0.714-15.007
			c0.146-5.828,0.264-11.667,0.043-17.488c-0.106-2.798-0.875-5.604-1.604-8.337c-0.91-3.41-1.887-6.828-3.19-10.102
			c-2.841-7.134-6.113-14.1-8.823-21.279c-2.658-7.042-5.057-14.199-7.156-21.427c-1.593-5.484-2.532-11.158-3.768-16.747
			c-1.146-5.184-2.669-10.319-3.34-15.563c-0.617-4.825-0.417-9.769-0.371-14.658c0.016-1.73,0.61-3.463,1.025-5.175
			c0.057-0.233,0.613-0.347,0.938-0.516c0.124,0.423,0.335,0.842,0.355,1.27c0.185,3.93,0.298,7.864,0.511,11.792
			c0.13,2.397,0.061,4.883,0.699,7.154c0.625,2.224,2.216,4.158,3.034,6.35c0.527,1.413,0.241,3.111,0.65,4.59
			c0.629,2.276,1.519,4.483,2.341,6.703c1.273,3.438,2.554,6.875,3.886,10.291c1.019,2.613,2.107,5.2,3.192,7.786
			c2.42,5.767,4.663,11.618,7.346,17.261c2.485,5.227,5.472,10.212,8.179,15.335c0.545,1.032,0.805,2.212,1.236,3.308
			c0.232,0.592,0.548,1.15,0.826,1.724c0.425-0.543,1.094-1.03,1.232-1.639c0.543-2.39,0.664-4.899,1.413-7.213
			c1.404-4.331,3.087-8.575,4.751-12.817c1.049-2.675,2.229-5.303,3.465-7.896c0.208-0.435,1.005-0.588,1.529-0.872
			c0.087,0.595,0.351,1.226,0.235,1.778c-1.648,7.926-3.4,15.83-5.014,23.763c-0.8,3.934-1.643,7.892-1.958,11.879
			c-0.249,3.154-0.097,6.448,0.555,9.538c0.783,3.71,2.28,7.271,3.476,10.894c0.27,0.817,0.575,1.624,0.863,2.436
			c0.254-1.005,0.334-2.098,0.792-3c2.86-5.651,5.612-11.37,8.766-16.856c4.552-7.919,9.384-15.632,9.762-25.192
			c0.166-4.206,1.03-8.381,1.325-12.587c0.34-4.852,1.013-9.8,0.405-14.562c-0.57-4.47-2.637-8.745-4.002-13.12
			c-0.138-0.44,0.025-0.975,0.048-1.466c0.59,0.14,1.529,0.095,1.715,0.447c1.835,3.483,3.875,6.914,5.193,10.598
			c1.2,3.352,1.973,6.971,2.212,10.521c0.273,4.054-0.245,8.161-0.435,12.244c-0.063,1.353-0.218,2.702-0.238,4.055
			c-0.006,0.452,0.274,0.909,0.424,1.364c0.258-0.338,0.593-0.641,0.764-1.018c3.361-7.419,6.816-14.798,10.001-22.291
			c1.609-3.787,2.723-7.784,4.06-11.686C351.497,700.552,351.312,700.494,351.126,700.438z"/>
		<path fill-rule="evenodd" clip-rule="evenodd" d="M321.974,830.494c0.433,1.466,0.568,1.785,0.614,2.117
			c0.056,0.405,0.036,0.821,0.049,1.232c-0.173-0.365-0.396-0.717-0.504-1.1C322.038,832.406,322.072,832.031,321.974,830.494z"/>
	</g>
</g>
</svg>
