<?xml version="1.0" encoding="utf-8"?>
<!-- Generator: Adobe Illustrator 16.0.0, SVG Export Plug-In . SVG Version: 6.00 Build 0)  -->
<!DOCTYPE svg PUBLIC "-//W3C//DTD SVG 1.1//EN" "http://www.w3.org/Graphics/SVG/1.1/DTD/svg11.dtd">
<svg version="1.1" id="Layer_1" xmlns="http://www.w3.org/2000/svg" xmlns:xlink="http://www.w3.org/1999/xlink" x="0px" y="0px"
	 width="700px" height="1000px" viewBox="0 0 700 1000" enable-background="new 0 0 700 1000" xml:space="preserve">
<g>
	<path fill-rule="evenodd" clip-rule="evenodd" fill="none" d="M346.913,867.542c0,46.083,0.001,92.166-0.027,138.249
		c0,0.217-0.405,0.622-0.622,0.622c-24.243,0.028-48.485,0.028-72.729,0.003c-0.192,0-0.553-0.36-0.553-0.553
		c-0.024-92.214-0.024-184.428,0-276.643c0-0.192,0.36-0.553,0.553-0.553c24.243-0.025,48.486-0.025,72.729,0.003
		c0.217,0,0.622,0.405,0.622,0.622C346.914,775.376,346.913,821.459,346.913,867.542z M325.793,795.929
		c-0.203,1.478-0.139,1.986-0.342,2.345c-1.59,2.803-3.384,5.502-4.799,8.388c-0.855,1.744-0.909,3.877-1.739,5.639
		c-1.819,3.866-3.893,7.613-5.896,11.392c-0.167,0.315-0.566,0.543-0.907,0.707c-0.076,0.037-0.42-0.34-0.546-0.576
		c-0.688-1.287-1.348-2.59-2.015-3.888c-0.055-0.106-0.092-0.223-0.142-0.331c-1.098-2.381-2.07-4.83-3.326-7.125
		c-2.014-3.681-4.106-7.328-6.371-10.858c-2.047-3.191-4.364-6.209-6.571-9.298c-2.254-3.154-4.435-6.369-6.84-9.404
		c-0.586-0.739-1.905-0.972-2.939-1.219c-0.218-0.052-1.022,0.931-0.943,1.305c0.329,1.538,0.69,3.133,1.416,4.508
		c1.419,2.689,3.126,5.225,4.649,7.861c2.351,4.07,5.015,8.016,6.859,12.309c1.66,3.864,2.393,8.125,3.538,12.21
		c0.492,1.757,1.082,3.492,1.461,5.272c0.336,1.576,0.499,3.197,0.64,4.807c0.364,4.153,0.576,8.323,1.047,12.463
		c0.215,1.882,1.289,3.711,1.286,5.563c-0.005,3.159-0.755,6.313-0.817,9.477c-0.067,3.424,0.301,6.855,0.463,10.284
		c0.034,0.715,0.087,1.445-0.019,2.146c-0.392,2.588-1.122,5.158-1.2,7.75c-0.076,2.54,0.773,5.108,0.694,7.648
		c-0.088,2.835-0.975,5.639-1.138,8.478c-0.322,5.597-0.201,11.222-0.619,16.808c-0.272,3.636-1.188,7.222-1.786,10.835
		c-0.23,1.396-0.409,2.803-0.556,4.211c-0.191,1.833,0.077,5.079-0.557,5.261c-2.479,0.711-1.673,1.663-1.227,3.296
		c0.707,2.59,1.277,5.32,1.251,7.985c-0.044,4.393-0.6,8.78-0.982,13.166c-0.023,0.26-0.627,0.505-0.608,0.727
		c0.123,1.396,0.602,2.807,0.486,4.172c-0.334,3.942-1.045,7.855-1.327,11.801c-0.345,4.829-0.406,9.68-0.585,14.521
		c-0.044,1.181,0.178,2.44-0.158,3.528c-0.72,2.33-1.965,4.516-2.524,6.871c-0.345,1.452,0.009,3.159,0.433,4.642
		c0.104,0.361,1.718,0.306,2.641,0.413c1.666,0.192,3.341,0.564,5,0.504c3.671-0.132,7.331-0.565,11.001-0.715
		c1.857-0.075,3.751,0.422,5.585,0.235c1.124-0.114,3.08-1.029,3.083-1.593c0.012-2.206-0.715-4.403-0.968-6.626
		c-0.725-6.356-1.386-12.721-2.008-19.088c-0.485-4.966-0.913-9.938-1.297-14.913c-0.412-5.325-0.914-10.652-1.056-15.987
		c-0.117-4.393,0.142-8.803,0.414-13.193c0.142-2.29,0.942-4.551,0.98-6.832c0.18-10.926-0.133-21.87,0.374-32.778
		c0.501-10.772,1.815-21.506,2.677-32.265c0.179-2.232-0.262-4.517-0.065-6.746c0.291-3.302,0.815-6.59,1.387-9.857
		c0.686-3.916,1.121-7.945,2.418-11.663c1.201-3.443,3.538-6.474,5.104-9.813c1.241-2.646,2.107-5.473,3.075-8.241
		c1.22-3.49,2.403-6.994,3.546-10.51c0.743-2.285,1.362-4.609,2.081-6.902c0.538-1.716,1.42-3.372,1.658-5.121
		c0.312-2.296-0.09-4.688,0.224-6.983c0.817-5.961,2.159-11.862,2.714-17.842c0.428-4.607,0.053-9.3-0.105-13.949
		c-0.08-2.354-0.316-4.728-0.759-7.039c-0.724-3.782-1.603-7.541-2.593-11.263c-0.189-0.711-1.194-1.205-1.823-1.8
		c-0.494,0.567-1.418,1.142-1.411,1.701c0.051,3.575,0.315,7.146,0.493,10.72c0.221,4.431,0.69,8.869,0.556,13.289
		c-0.11,3.624-1.046,7.215-1.426,10.841c-0.264,2.517,0.042,5.108-0.362,7.593c-0.365,2.242-1.378,4.374-2.05,6.572
		c-0.725,2.372-1.163,4.858-2.13,7.122C328.324,791.615,326.729,794.177,325.793,795.929z"/>
	<path fill-rule="evenodd" clip-rule="evenodd" d="M296.822,955.341c0.382-4.386,0.938-8.773,0.982-13.166
		c0.026-2.665,0.653-4.71-0.054-7.3c-0.446-1.633,0,0,0.03-3.981c0.634-0.182,0.366-3.428,0.557-5.261
		c0.146-1.408,0.325-2.814,0.556-4.211c0.598-3.613,1.513-7.199,1.786-10.835c0.418-5.586,0.297-11.211,0.619-16.808
		c0.163-2.839,1.05-5.643,1.138-8.478c0.079-2.54-0.77-5.108-0.694-7.648c0.078-2.592,0.808-5.162,1.2-7.75
		c0.106-0.701,0.053-1.432,0.019-2.146c-0.163-3.429-0.531-6.86-0.463-10.284c0.063-3.163,0.812-6.317,0.817-9.477
		c0.003-1.852-1.071-3.681-1.286-5.563c-0.472-4.14-0.684-8.31-1.047-12.463c-0.141-1.609-0.303-3.23-0.64-4.807
		c-0.379-1.78-0.969-3.516-1.461-5.272c-1.145-4.085-1.878-8.346-3.538-12.21c-1.844-4.293-4.508-8.238-6.859-12.309
		c-1.523-2.637-3.229-5.172-4.649-7.861c-0.726-1.375-1.087-2.97-1.416-4.508c-0.08-0.374,0.725-1.356,0.943-1.305
		c1.034,0.247,2.353,0.479,2.939,1.219c2.405,3.035,4.585,6.25,6.84,9.404c2.207,3.089,4.524,6.106,6.571,9.298
		c2.265,3.53,4.357,7.178,6.371,10.858c1.255,2.295,2.228,4.744,3.326,7.125c0.05,0.108,0.087,0.225,0.142,0.331
		c0.667,1.298,1.326,2.601,2.015,3.888c0.126,0.236,0.47,0.613,0.546,0.576c0.341-0.164,0.74-0.392,0.907-0.707
		c2.003-3.778,4.077-7.525,5.896-11.392c0.83-1.762,0.884-3.895,1.739-5.639c1.415-2.886,3.209-5.585,4.799-8.388
		c0.203-0.358,0.14-0.867,0.342-2.345c0.937-1.752,2.531-4.313,3.702-7.056c0.967-2.264,1.405-4.75,2.13-7.122
		c0.672-2.198,1.686-4.33,2.05-6.572c0.404-2.484,0.098-5.076,0.362-7.593c0.38-3.626,1.316-7.217,1.426-10.841
		c0.134-4.42-0.335-8.858-0.556-13.289c-0.178-3.573-0.442-7.145-0.493-10.72c-0.008-0.56,0.917-1.134,1.411-1.701
		c0.629,0.595,1.634,1.089,1.823,1.8c0.99,3.722,1.869,7.48,2.593,11.263c0.443,2.312,0.679,4.686,0.759,7.039
		c0.159,4.649,0.534,9.342,0.105,13.949c-0.556,5.979-1.897,11.881-2.714,17.842c-0.314,2.295,0.088,4.688-0.224,6.983
		c-0.238,1.749-1.12,3.405-1.658,5.121c-0.719,2.293-1.337,4.617-2.081,6.902c-1.143,3.516-2.327,7.02-3.546,10.51
		c-0.968,2.769-1.834,5.595-3.075,8.241c-1.566,3.339-3.903,6.369-5.104,9.813c-1.297,3.718-1.732,7.747-2.418,11.663
		c-0.572,3.268-1.097,6.556-1.387,9.857c-0.196,2.229,0.244,4.514,0.065,6.746c-0.862,10.759-2.176,21.492-2.677,32.265
		c-0.507,10.908-0.194,21.853-0.374,32.778c-0.038,2.281-0.838,4.542-0.98,6.832c-0.272,4.391-0.531,8.801-0.414,13.193
		c0.142,5.335,0.645,10.662,1.056,15.987c0.384,4.975,0.812,9.947,1.297,14.913c0.622,6.367,1.283,12.731,2.008,19.088
		c0.253,2.223,0.98,4.42,0.968,6.626c-0.003,0.563-1.959,1.479-3.083,1.593c-1.834,0.187-3.728-0.311-5.585-0.235
		c-3.671,0.149-7.331,0.583-11.001,0.715c-1.659,0.061-3.334-0.312-5-0.504c-0.923-0.107-2.538-0.052-2.641-0.413
		c-0.424-1.482-0.777-3.189-0.433-4.642c0.56-2.355,1.805-4.541,2.524-6.871c0.336-1.088,0.114-2.348,0.158-3.528
		c0.179-4.842,0.241-9.692,0.585-14.521c0.282-3.945,0.993-7.858,1.327-11.801"/>
</g>
</svg>
