<?xml version="1.0" encoding="utf-8"?>
<!-- Generator: Adobe Illustrator 16.0.0, SVG Export Plug-In . SVG Version: 6.00 Build 0)  -->
<!DOCTYPE svg PUBLIC "-//W3C//DTD SVG 1.1//EN" "http://www.w3.org/Graphics/SVG/1.1/DTD/svg11.dtd">
<svg version="1.1" id="Layer_1" xmlns="http://www.w3.org/2000/svg" xmlns:xlink="http://www.w3.org/1999/xlink" x="0px" y="0px"
	 width="700px" height="1000px" viewBox="0 0 700 1000" enable-background="new 0 0 700 1000" xml:space="preserve">
<g>
	<g>
		<path fill-rule="evenodd" clip-rule="evenodd" fill="none" d="M152.477,612.623c0-140.515,0.007-281.029-0.06-421.544
			c-0.001-2.206,0.626-2.503,2.619-2.502c127.048,0.051,254.097,0.053,381.146-0.014c2.206-0.001,2.502,0.626,2.501,2.619
			c-0.048,280.938-0.05,561.874,0.027,842.812c0,2.497-0.69,2.786-2.91,2.785c-126.956-0.058-253.912-0.059-380.867,0.009
			c-2.206,0.001-2.503-0.626-2.502-2.619C152.481,893.653,152.477,753.139,152.477,612.623z M482.819,270.825
			c-0.17-0.009-0.34-0.019-0.51-0.029c0-1.856,0.057-3.715-0.037-5.567c-0.026-0.525-0.491-1.028-0.756-1.541
			c-0.239,0.459-0.566,0.894-0.705,1.382c-1.232,4.315,0.535,8.735-1.888,13.375c-2.146,4.108-1.27,9.746-1.948,14.678
			c-0.866,6.292-2.427,12.524-2.829,18.837c-0.529,8.31-5.065,15.62-4.627,24.336c0.334,6.626-2.151,13.42-3.563,20.101
			c-1.138,5.384-2.399,10.751-3.867,16.054c-2.016,7.281-4.258,14.501-6.47,21.726c-0.188,0.612-0.883,1.069-1.342,1.598
			c-0.345-0.624-0.979-1.244-0.988-1.873c-0.064-4.327-0.271-8.679,0.087-12.979c0.646-7.779,1.835-15.513,2.472-23.292
			c1.161-14.185,2.212-28.382,3.068-42.588c0.676-11.214,1.194-22.445,1.42-33.676c0.331-16.456-0.625-32.774-6.469-48.443
			c-2.57-6.892-4.825-13.902-7.336-20.817c-0.358-0.988-1.357-1.744-2.06-2.607c-0.308,1.107-1.09,2.331-0.85,3.302
			c2.386,9.661,4.84,19.308,7.476,28.903c2.578,9.38,2.444,18.775,0.72,28.236c-0.063,0.347-0.23,0.675-0.35,1.013
			c-0.167-0.348-0.439-0.683-0.484-1.045c-0.47-3.75-0.394-7.659-1.467-11.223c-1.563-5.191-3.909-10.151-5.999-15.178
			c-0.919-2.211-1.994-4.361-3.073-6.501c-0.532-1.056-1.234-2.026-1.859-3.036c-0.332,1.387-1.276,2.977-0.896,4.129
			c2.135,6.469,4.45,12.887,6.963,19.22c4.635,11.685,3.41,23.904,2.979,35.916c-0.315,8.805-3.255,17.542-3.328,26.323
			c-0.121,14.37-6.251,27.282-8.433,41.092c-0.044,0.278-0.791,0.446-1.21,0.665c-0.723-2.181-2.106-4.384-2.035-6.54
			c0.163-4.948,1.247-9.859,1.565-14.811c0.396-6.172,0.488-12.37,0.483-18.557c-0.001-1.002-1.182-2.003-1.817-3.004
			c-0.46,0.814-1.503,1.855-1.288,2.409c2.104,5.433,0.039,10.69-0.421,16.009c-0.208,2.399-0.206,4.823-0.563,7.195
			c-0.054,0.354-2.121,0.914-2.311,0.663c-2.353-3.112-4.662-6.275-6.729-9.583c-8.797-14.083-7.848-30.177-8.483-45.694
			c-0.346-8.421,1.885-17.038,3.61-25.431c2.025-9.852,4.811-19.545,7.148-29.335c0.372-1.556,0.125-3.259,0.164-4.894
			c-0.534,1.525-1.181,3.021-1.587,4.579c-3.281,12.597-6.56,25.194-9.737,37.818c-0.73,2.902-1.015,5.915-1.633,8.85
			c-0.12,0.568-0.84,1.009-1.283,1.509c-0.352-0.491-0.926-0.943-1.02-1.479c-0.601-3.438-1.283-6.878-1.587-10.349
			c-0.692-7.907-1.151-15.835-1.792-23.747c-0.074-0.919-0.691-1.794-1.057-2.69c-0.135,0.922-0.408,1.849-0.379,2.766
			c0.138,4.345,0.376,8.686,0.53,13.031c0.018,0.512-0.26,1.034-0.399,1.552c-0.247-0.337-0.489-0.678-0.741-1.012
			c-0.207-0.274-0.424-0.542-0.637-0.812c-0.16,0.373-0.456,0.746-0.457,1.119c-0.003,1.479-0.004,2.97,0.157,4.438
			c1.273,11.613,2.365,23.252,3.955,34.822c1.27,9.249,2.443,18.618,5.007,27.548c1.979,6.899,5.743,13.368,9.269,19.72
			c3.633,6.547,6.455,13.052,5.841,20.81c-0.326,4.125-3.644,6.094-5.226,9.227c-2.378,4.704-4.327,9.624-6.541,14.413
			c-0.305,0.661-1.185,1.641-1.623,1.558c-2.607-0.498-2.491-0.55-3.479,1.963c-2.061,5.243-4.211,10.45-6.395,15.642
			c-0.274,0.654-1.109,1.688-1.443,1.602c-2.307-0.591-2.135-0.655-2.444,2.202c-0.438,4.045-1.11,8.066-1.736,12.089
			c-0.058,0.371-0.502,0.682-0.766,1.021c-0.079-0.407-0.172-0.811-0.236-1.22c-0.4-2.539-0.802-5.078-1.188-7.619
			c-0.471-3.088-1.62-6.266-1.241-9.249c0.763-6.015,2.198-11.964,3.653-17.868c1.94-7.87,4.438-15.609,6.197-23.516
			c2.224-9.996,3.959-20.101,5.852-30.168c0.116-0.622-0.229-1.331-0.358-1.999c-0.397,0.422-1.008,0.779-1.161,1.276
			c-1.729,5.612-3.491,11.216-5.044,16.878c-3.121,11.379-6.111,22.794-9.186,34.186c-0.126,0.463-0.562,0.843-0.853,1.262
			c-0.14-0.469-0.453-0.962-0.393-1.404c1.133-8.227,2.109-16.483,3.544-24.659c1.069-6.092,2.794-12.067,4.087-18.124
			c0.163-0.765-0.521-1.711-0.813-2.573c-0.625,0.564-1.646,1.029-1.815,1.707c-2.204,8.797-4.3,17.622-6.385,26.448
			c-0.336,1.42-0.484,2.885-0.72,4.329c-0.198-1.508-0.39-3.017-0.597-4.523c-1.419-10.341-1.775-20.976-4.524-30.95
			c-3.659-13.271-3.947-26.5-2.988-39.906c0.823-11.503,2.013-22.994,3.493-34.431c0.737-5.698,2.603-11.241,3.749-16.897
			c1.024-5.056,1.8-10.165,2.574-15.267c0.086-0.563-0.555-1.237-0.858-1.86c-0.483,0.5-1.246,0.926-1.403,1.513
			c-0.714,2.667-1.135,5.415-1.888,8.068c-1.504,5.301-3.823,10.463-4.603,15.857c-1.416,9.805-1.947,19.738-2.876,29.614
			c-0.056,0.584-0.239,1.245-0.587,1.698c-1.343,1.749-3.604,3.247-4.023,5.167c-1.358,6.218-1.794,12.634-3.065,18.876
			c-1.86,9.136-4.129,18.189-6.265,27.268c-0.103,0.434-0.604,0.773-0.921,1.156c-0.127-0.496-0.412-1.012-0.353-1.484
			c0.233-1.827,0.612-3.636,0.864-5.462c0.119-0.866,0.074-1.755,0.104-2.634c-0.431,0.826-1.077,1.607-1.262,2.486
			c-3.368,16.021-6.681,32.055-10.014,48.085c-0.083,0.4-0.264,0.78-0.398,1.169c-0.07-0.352-0.114-0.711-0.217-1.052
			c-0.199-0.663-0.432-1.316-0.65-1.974c-0.24,0.658-0.602,1.299-0.7,1.978c-1,6.845-1.79,13.726-2.976,20.539
			c-1.085,6.227-3.333,12.333-3.73,18.577c-0.627,9.839-0.126,19.75-0.134,29.63c-0.001,0.475-0.305,0.95-0.467,1.425
			c-0.335-0.388-0.776-0.725-0.986-1.171c-1.602-3.414-3.211-6.826-4.721-10.281c-5.094-11.658-10.167-23.324-15.18-35.016
			c-0.425-0.99-0.818-2.426-0.418-3.273c6.32-13.379,12.683-26.739,19.222-40.012c4.776-9.694,8.481-19.666,9.907-30.456
			c0.751-5.687,1.655-11.405,3.153-16.93c1.842-6.797,4.38-13.405,6.606-20.099c0.67-2.013,1.401-4.012,1.937-6.062
			c2.397-9.193,4.573-18.447,7.153-27.588c1.532-5.426,3.69-10.674,5.505-16.023c0.244-0.722,0.122-1.568,0.17-2.357
			c-0.433,0.635-1.007,1.214-1.276,1.912c-2.367,6.134-4.669,12.292-7.027,18.43c-0.201,0.524-0.664,0.948-1.005,1.418
			c-0.03-0.603-0.201-1.238-0.068-1.802c1.207-5.135,2.488-10.252,3.688-15.388c0.168-0.718,0.019-1.511,0.016-2.27
			c-0.416,0.649-1.049,1.247-1.215,1.955c-3.378,14.393-6.7,28.799-10.047,43.2c-0.16,0.687-0.445,1.345-0.672,2.017
			c-0.377-0.559-0.954-1.069-1.102-1.683c-1.844-7.693-3.611-15.404-5.448-23.1c-0.171-0.712-0.679-1.344-1.029-2.013
			c-0.183,0.772-0.564,1.559-0.514,2.315c0.436,6.548,1.93,13.196,1.238,19.614c-1.48,13.755-3.648,27.475-6.361,41.044
			c-1.91,9.555-5.115,18.858-7.983,28.199c-0.208,0.678,0.179,4.47-2.971,2.212c-0.033-0.024-0.847,0.783-1.058,1.3
			c-3.181,7.788-6.308,15.599-9.494,23.384c-0.329,0.803-0.957,1.483-1.445,2.221c0.242-0.887,0.419-1.798,0.74-2.655
			c0.486-1.299,1.198-2.527,1.565-3.854c0.194-0.701-0.136-1.548-0.23-2.33c-0.669,0.49-1.644,0.835-1.956,1.494
			c-1.341,2.839-2.392,5.816-3.74,8.651c-0.836,1.758-2.016,3.352-3.042,5.019c-1.129-2.139-2.975-4.193-3.241-6.435
			c-0.601-5.061-0.227-10.236-2.499-15.035c-0.197-0.416,0.222-1.21,0.503-1.75c2.597-4.993,5.143-10.016,7.873-14.936
			c2.411-4.346,5.098-8.536,7.545-12.862c1.576-2.784,3.09-5.623,4.361-8.554c1.853-4.273,3.572-8.613,5.128-13.002
			c0.829-2.339,1.465-4.819,1.673-7.279c0.134-1.575-1.137-3.283-0.962-4.839c0.429-3.821,1.478-7.57,1.952-11.39
			c0.148-1.192-0.743-2.514-1.158-3.776c-0.598,1.041-1.48,2.017-1.739,3.136c-0.72,3.122-1.016,6.344-1.784,9.451
			c-1.036,4.188-2.445,8.282-3.534,12.458c-1.399,5.367-1.683,11.269-4.153,16.061c-4.786,9.286-10.761,17.958-16.257,26.877
			c-0.228,0.37-0.588,0.658-0.888,0.984c-0.301-0.406-0.745-0.773-0.872-1.228c-0.222-0.795-0.415-1.662-0.332-2.47
			c0.9-8.72,1.42-17.512,2.952-26.124c1.016-5.716,3.557-11.153,5.317-16.746c2.246-7.134,4.275-14.339,6.612-21.442
			c2.626-7.984,5.529-15.877,8.203-23.847c0.321-0.957-0.037-2.141-0.08-3.22c-2.892,0.408-1.175-1.604-0.944-2.21
			c1.771-4.651,3.758-9.218,5.587-13.848c1.18-2.986,2.226-6.025,3.294-9.054c2.671-7.573,5.33-15.15,7.959-22.738
			c0.147-0.425-0.012-0.958-0.029-1.44c-0.371,0.348-0.86,0.631-1.092,1.055c-0.662,1.21-1.142,2.523-1.831,3.715
			c-3.006,5.194-6.061,10.36-9.096,15.537c-0.335,0.57-0.659,1.146-0.987,1.719c0.149-0.604,0.348-1.2,0.436-1.813
			c0.104-0.731,0.113-1.476,0.163-2.215c-0.645,0.525-1.642,0.924-1.878,1.593c-2.053,5.815-3.903,11.702-5.94,17.523
			c-4.31,12.315-8.693,24.604-13.066,36.896c-0.104,0.291-0.449,0.496-0.682,0.741c-0.049-0.243-0.169-0.495-0.137-0.726
			c0.504-3.608,1.067-7.209,1.522-10.823c0.15-1.194,0.033-2.421,0.039-3.634c-0.562,0.976-1.151,1.936-1.667,2.935
			c-0.161,0.312-0.103,0.731-0.179,1.094c-1.597,7.706-3.18,15.415-4.831,23.109c-0.154,0.718-0.743,1.342-1.131,2.01
			c-2.962-1.961-2.24,1.143-2.407,2.028c-1.922,10.194-3.658,20.424-5.514,30.631c-0.246,1.353-0.885,2.634-1.341,3.948
			c-0.256-1.215-0.561-2.422-0.759-3.647c-1.171-7.208-3.424-14.451-3.224-21.624c0.329-11.755,0.355-23.446-0.614-35.151
			c-0.048-0.58-0.257-1.146-0.391-1.719c-0.308,0.543-0.857,1.073-0.886,1.63c-0.232,4.417-0.157,8.858-0.579,13.253
			c-0.589,6.137-1.943,12.223-2.202,18.364c-0.283,6.71-0.354,13.558,0.657,20.166c2.15,14.042,5.203,27.943,7.468,41.97
			c0.261,1.616-1.863,3.925-3.361,5.436c-1.638,1.652-2.617,1.481-3.803,0.779c-0.254-0.15-1.139,0.206-1.286,0.532
			c-0.656,1.448-0.847,3.195-1.759,4.423c-2.728,3.673-5.679,7.185-8.67,10.651c-0.245,0.284-1.989-0.064-2.126-0.447
			c-3.283-9.109-7.48-17.955-8.175-27.846c-0.049-0.698-1.552-1.293-2.379-1.937c-0.331,0.847-1.133,1.842-0.921,2.52
			c2.872,9.164,2.186,18.998,5.374,28.092c2.071,5.908,1.871,10.95-2.411,16.534c-3.999,5.214-5.897,12.062-8.597,18.245
			c-2.806,6.427-5.465,12.917-8.183,19.383c-0.212,0.504-0.38,1.027-0.568,1.542c-0.305-0.501-0.806-0.973-0.885-1.506
			c-1.145-7.744-2.881-15.475-3.142-23.253c-0.237-7.07,1.098-14.199,1.831-21.292c0.531-5.133,1.03-10.281,1.88-15.365
			c0.731-4.375,1.75-8.724,2.974-12.988c2.936-10.23,5.678-20.541,9.208-30.57c5.857-16.644,12.296-33.082,18.413-49.635
			c0.676-1.831,0.881-3.841,1.225-5.782c0.063-0.358-0.255-0.784-0.398-1.179c-0.289,0.312-0.673,0.576-0.852,0.941
			c-4.289,8.793-8.555,17.599-12.828,26.4c-3.051,6.285-6.099,12.572-9.179,18.843c-0.214,0.435-0.68,0.746-1.029,1.114
			c-0.074-0.438-0.243-0.883-0.207-1.312c0.178-2.118,0.685-4.244,0.578-6.342c-0.546-10.61-1.146-21.22-1.926-31.814
			c-0.543-7.367-2.719-14.868-1.852-22.028c1.695-13.998,5.022-27.796,7.622-41.687c0.148-0.79-0.175-1.667-0.278-2.504
			c-0.392,0.676-0.958,1.306-1.149,2.035c-2.166,8.226-4.262,16.47-6.417,24.699c-0.214,0.815-0.693,1.561-1.049,2.339
			c-0.332-0.744-0.604-1.522-1.013-2.221c-0.372-0.637-0.89-1.188-1.344-1.776c-0.199,0.739-0.601,1.488-0.563,2.215
			c0.35,6.744,0.829,13.481,1.16,20.226c0.218,4.451,0.071,8.924,0.411,13.362c0.639,8.338,1.949,16.648,2.149,24.99
			c0.155,6.44-0.528,12.983-1.602,19.352c-2.081,12.334-4.512,24.619-7.163,36.845c-1.799,8.299-4.349,16.434-6.315,24.701
			c-1.088,4.574-1.654,9.271-2.492,13.905c-0.094,0.521-0.426,0.998-0.648,1.495c-0.158-0.239-0.403-0.458-0.46-0.719
			c-1.824-8.355-4.528-16.646-5.177-25.093c-0.606-7.888,0.175-16.111,1.808-23.879c1.733-8.25,5.193-16.137,7.873-24.191
			c0.218-0.653,0.23-1.375,0.338-2.065c-0.495,0.382-1.001,0.751-1.48,1.152c-0.38,0.317-0.727,0.674-1.088,1.013
			c-0.008-0.521-0.169-1.099,0.002-1.552c0.62-1.64,1.321-3.251,2.044-4.85c2.054-4.539,4.166-9.053,6.165-13.616
			c0.252-0.576-0.029-1.385-0.064-2.087c-0.469,0.489-1.1,0.898-1.382,1.477c-7.175,14.704-13.397,29.746-16.215,45.988
			c-0.306,1.761-0.707,3.505-1.063,5.257c-0.362-1.538-0.705-3.081-1.094-4.612c-0.181-0.713-0.569-1.388-0.661-2.105
			c-1.2-9.39-2.441-18.775-3.502-28.18c-0.49-4.339-0.967-8.73-0.829-13.079c0.374-11.722,0.68-23.472,1.775-35.139
			c0.991-10.551,2.956-21.013,4.573-31.502c0.286-1.852,0.977-3.642,1.48-5.46c-1.112,1.676-2.226,3.351-3.333,5.03
			c-0.292,0.443-0.561,0.903-0.841,1.355c-0.128-0.577-0.386-1.158-0.364-1.729c0.213-5.558,0.508-11.112,0.68-16.671
			c0.022-0.729-0.51-1.475-0.785-2.213c-0.533,0.679-1.433,1.312-1.524,2.046c-0.217,1.733,0.057,3.521-0.054,5.275
			c-1.182,18.756-2.272,37.519-3.691,56.256c-0.395,5.211,2.043,10.517-0.842,15.687c-0.906,1.625-1.059,3.911-0.904,5.842
			c0.449,5.596,1.294,11.16,1.831,16.751c0.125,1.295-0.364,2.648-0.57,3.975c-0.352-1.111-0.776-2.206-1.044-3.337
			c-1.677-7.059-3.043-14.206-5.057-21.167c-1.649-5.7-4.028-11.192-6.155-16.75c-0.289-0.753-0.996-1.346-1.509-2.013
			c-0.324,0.81-1.067,1.718-0.904,2.413c1.163,4.935,2.514,9.826,3.799,14.732c0.112,0.427,0.188,0.863,0.282,1.295
			c-0.347-0.321-0.813-0.578-1.023-0.972c-4.333-8.156-7.625-16.715-9.593-25.743c-0.863-3.957-1.377-7.988-2.128-11.971
			c-0.101-0.535-0.667-0.981-1.019-1.469c-0.362,0.39-0.817,0.729-1.063,1.183c-0.301,0.554-0.426,1.203-0.628,1.811
			c-0.602-0.566-1.466-1.02-1.765-1.716c-2.359-5.494-5.132-10.889-6.729-16.607c-1.283-4.597-1.052-9.609-1.605-14.424
			c-0.117-1.018-0.725-1.979-1.106-2.965c-0.374,0.936-1.086,1.877-1.069,2.805c0.155,8.343,0.993,16.575,4.754,24.216
			c3.242,6.585,6.962,12.98,9.651,19.783c4.167,10.542,7.838,21.294,11.347,32.079c3.259,10.018,6.157,20.159,8.981,30.311
			c2.828,10.165,5.74,20.33,7.93,30.641c2.153,10.14,3.23,20.504,5.174,30.694c2.29,12.001,5.004,23.921,7.529,35.877
			c0.13,0.616,0.211,1.243,0.314,1.864c-0.464-0.557-1.117-1.041-1.365-1.682c-3.129-8.096-5.906-16.343-9.367-24.292
			c-3.479-7.99-7.521-15.743-11.522-23.493c-1.736-3.361-3.949-6.481-6.038-9.65c-0.366-0.554-1.192-0.805-1.806-1.196
			c-0.173,0.656-0.657,1.427-0.464,1.947c0.859,2.312,1.841,4.584,2.907,6.81c5.801,12.111,12.007,24.045,17.352,36.353
			c4.502,10.369,7.905,21.209,12.002,31.76c3.605,9.284,7.52,18.448,11.243,27.686c0.676,1.678,1.088,3.462,1.622,5.196
			c-1.085-1.407-2.112-2.866-3.286-4.195c-0.422-0.478-1.198-0.643-1.813-0.95c-0.134,0.757-0.639,1.737-0.339,2.231
			c1.389,2.293,2.972,4.472,4.539,6.652c6.305,8.779,11.872,18.241,19.143,26.132c8.652,9.392,15.168,19.748,19.758,31.476
			c3.733,9.539,8.358,18.695,10.164,29.014c1.473,8.414,5.521,16.472,6.32,24.888c1.303,13.71,1.418,27.597,1.048,41.382
			c-0.371,13.817-2.308,27.587-2.908,41.405c-0.786,18.107-1.111,36.242-1.282,54.368c-0.084,8.968,1.246,17.975,0.786,26.904
			c-0.411,7.985-2.479,15.878-3.659,23.836c-0.6,4.044-0.983,8.132-1.232,12.214c-0.53,8.651-1.054,17.309-1.297,25.971
			c-0.17,6.063,0.15,12.14,0.211,18.21c0.048,4.754,0.296,9.526-0.028,14.258c-0.304,4.425-1.47,8.786-1.853,13.21
			c-0.549,6.33-0.649,12.696-1.099,19.035c-0.287,4.05-0.927,8.073-1.266,12.12c-0.118,1.402,0.43,2.868,0.266,4.257
			c-0.475,4.025-1.56,8.019-1.644,12.041c-0.084,4.041,0.87,8.093,1.152,12.155c0.511,7.339,1.62,14.744,1.1,22.022
			c-0.764,10.68-2.763,21.271-4.131,31.912c-0.059,0.461,0.9,1.49,1.426,1.519c3.393,0.186,6.796,0.171,10.196,0.208
			c0.461,0.005,0.929-0.034,1.384-0.107c4.801-0.771,9.591-2.108,14.403-2.191c5.866-0.101,11.745,0.931,17.63,1.269
			c0.951,0.055,2.749-0.872,2.809-1.478c0.241-2.471,0.033-4.997-0.143-7.494c-0.675-9.579-1.374-19.157-2.116-28.732
			c-0.662-8.521-1.631-17.024-2.033-25.557c-0.505-10.725-0.938-21.478-0.723-32.204c0.204-10.145,1.437-20.264,1.943-30.408
			c0.477-9.57,0.76-19.156,0.821-28.738c0.043-6.893-0.515-13.788-0.621-20.686c-0.068-4.438-0.257-8.952,0.413-13.309
			c1.012-6.573,3.188-12.98,3.997-19.565c0.655-5.335-0.039-10.827-0.015-16.249c0.029-6.792,0.286-13.584,0.234-20.374
			c-0.024-3.224-0.955-6.47-0.752-9.659c0.59-9.238,1.446-18.463,2.381-27.674c1.614-15.9,2.37-31.978,5.376-47.617
			c2.384-12.406,7.517-24.296,11.577-36.365c2.767-8.226,5.729-16.387,8.715-24.536c2.348-6.407,4.339-13.02,7.433-19.057
			c3.977-7.761,9.063-14.944,13.373-22.545c5.896-10.398,11.485-20.971,17.268-31.435c1.117-2.021,2.716-3.785,3.747-5.842
			c4.353-8.681,8.35-17.547,12.933-26.102c2.603-4.858,6.111-9.229,9.141-13.866c0.322-0.494,0.158-1.307,0.22-1.971
			c-0.565,0.257-1.265,0.385-1.666,0.8c-0.766,0.789-1.326,1.771-2.041,2.616c-0.323,0.383-0.81,0.628-1.222,0.935
			c0.017-0.522-0.129-1.122,0.075-1.557c1.218-2.591,3.052-5.02,3.686-7.735c1.749-7.499,6.439-13.262,10.417-19.516
			c3.604-5.668,6.724-11.649,9.938-17.557c1.052-1.934,1.632-4.118,2.597-6.106c4.141-8.535,8.312-17.057,12.544-25.547
			c1.426-2.86,2.913-5.713,4.646-8.391c3.525-5.444,7.712-10.512,10.769-16.195c5.428-10.091,10.161-20.554,15.293-30.807
			c3.604-7.202,7.4-14.309,11.069-21.479c0.262-0.511,0.179-1.197,0.255-1.802c-0.424,0.428-0.938,0.798-1.261,1.292
			c-5.772,8.806-9.578,18.745-16.98,26.69c-4.073,4.373-6.083,10.632-9.213,15.929c-5.015,8.487-10.174,16.888-15.315,25.3
			c-0.44,0.721-1.203,1.245-1.816,1.861c0.036-0.817-0.069-1.671,0.131-2.445c1.475-5.709,3.246-11.356,4.41-17.126
			c0.465-2.308-0.904-4.968-0.507-7.309c0.976-5.738,2.58-11.365,3.773-17.07c2.238-10.705,4.611-21.39,6.477-32.162
			c2.432-14.042,4.456-28.154,6.542-42.253c0.158-1.068-0.56-2.279-0.923-3.406c-0.2-0.622-0.767-1.221-0.735-1.807
			C482.019,282.962,482.432,276.895,482.819,270.825z M310.526,1030.417c-0.595-0.296-0.944-0.544-1.33-0.631
			c-0.184-0.042-0.437,0.223-0.659,0.348c0.363,0.243,0.707,0.534,1.102,0.704C309.777,1030.897,310.044,1030.657,310.526,1030.417z
			 M508.631,337.409c-0.221,0.514-0.397,0.816-0.46,1.14c-0.017,0.089,0.312,0.243,0.481,0.368c0.168-0.29,0.388-0.565,0.479-0.877
			C509.164,337.926,508.892,337.724,508.631,337.409z"/>
		<path fill-rule="evenodd" clip-rule="evenodd" d="M482.819,270.825c-0.388,6.07-0.801,12.138-1.125,18.21
			c-0.031,0.586,0.535,1.186,0.735,1.807c0.363,1.127,1.081,2.338,0.923,3.406c-2.086,14.099-4.11,28.212-6.542,42.253
			c-1.865,10.772-4.238,21.458-6.477,32.162c-1.193,5.705-2.798,11.332-3.773,17.07c-0.397,2.341,0.972,5.001,0.507,7.309
			c-1.164,5.77-2.936,11.417-4.41,17.126c-0.2,0.774-0.095,1.628-0.131,2.445c0.613-0.616,1.376-1.141,1.816-1.861
			c5.142-8.412,10.301-16.813,15.315-25.3c3.13-5.297,5.14-11.557,9.213-15.929c7.402-7.945,11.208-17.884,16.98-26.69
			c0.323-0.494,0.837-0.865,1.261-1.292c-0.076,0.604,0.007,1.291-0.255,1.802c-3.669,7.17-7.465,14.276-11.069,21.479
			c-5.132,10.253-9.865,20.715-15.293,30.807c-3.057,5.683-7.243,10.751-10.769,16.195c-1.733,2.678-3.221,5.531-4.646,8.391
			c-4.232,8.49-8.403,17.012-12.544,25.547c-0.965,1.988-1.545,4.172-2.597,6.106c-3.214,5.908-6.333,11.889-9.938,17.557
			c-3.978,6.253-8.668,12.017-10.417,19.516c-0.634,2.715-2.468,5.145-3.686,7.735c-0.204,0.435-0.059,1.034-0.075,1.557
			c0.412-0.307,0.898-0.552,1.222-0.935c0.715-0.845,1.275-1.827,2.041-2.616c0.401-0.415,1.101-0.543,1.666-0.8
			c-0.062,0.664,0.103,1.477-0.22,1.971c-3.029,4.638-6.538,9.008-9.141,13.866c-4.583,8.555-8.58,17.421-12.933,26.102
			c-1.031,2.057-2.63,3.821-3.747,5.842c-5.782,10.464-11.372,21.036-17.268,31.435c-4.31,7.601-9.396,14.784-13.373,22.545
			c-3.094,6.037-5.085,12.649-7.433,19.057c-2.985,8.149-5.948,16.311-8.715,24.536c-4.061,12.069-9.193,23.959-11.577,36.365
			c-3.006,15.64-3.762,31.717-5.376,47.617c-0.935,9.211-1.791,18.436-2.381,27.674c-0.203,3.189,0.728,6.436,0.752,9.659
			c0.052,6.79-0.205,13.582-0.234,20.374c-0.024,5.422,0.67,10.914,0.015,16.249c-0.81,6.585-2.985,12.992-3.997,19.565
			c-0.67,4.356-0.481,8.87-0.413,13.309c0.106,6.897,0.664,13.793,0.621,20.686c-0.062,9.582-0.345,19.168-0.821,28.738
			c-0.507,10.145-1.739,20.264-1.943,30.408c-0.216,10.727,0.218,21.479,0.723,32.204c0.402,8.532,1.371,17.036,2.033,25.557
			c0.742,9.575,1.441,19.153,2.116,28.732c0.176,2.497,0.384,5.023,0.143,7.494c-0.06,0.605-1.857,1.532-2.809,1.478
			c-5.885-0.338-11.764-1.369-17.63-1.269c-4.812,0.083-9.602,1.421-14.403,2.191c-0.456,0.073-0.923,0.112-1.384,0.107
			c-3.4-0.037-6.804-0.022-10.196-0.208c-0.525-0.028-1.485-1.058-1.426-1.519c1.368-10.642,3.367-21.232,4.131-31.912
			c0.521-7.278-0.588-14.684-1.1-22.022c-0.283-4.063-1.236-8.114-1.152-12.155c0.083-4.022,1.169-8.016,1.644-12.041
			c0.164-1.389-0.384-2.854-0.266-4.257c0.339-4.047,0.979-8.07,1.266-12.12c0.45-6.339,0.55-12.705,1.099-19.035
			c0.383-4.424,1.549-8.785,1.853-13.21c0.325-4.731,0.076-9.504,0.028-14.258c-0.061-6.07-0.381-12.147-0.211-18.21
			c0.243-8.662,0.767-17.319,1.297-25.971c0.25-4.082,0.633-8.17,1.232-12.214c1.18-7.958,3.249-15.851,3.659-23.836
			c0.459-8.93-0.87-17.937-0.786-26.904c0.17-18.126,0.496-36.261,1.282-54.368c0.6-13.818,2.538-27.588,2.908-41.405
			c0.37-13.785,0.254-27.672-1.048-41.382c-0.8-8.416-4.848-16.474-6.32-24.888c-1.806-10.318-6.431-19.475-10.164-29.014
			c-4.59-11.728-11.106-22.084-19.758-31.476c-7.271-7.891-12.837-17.353-19.143-26.132c-1.566-2.181-3.149-4.359-4.539-6.652
			c-0.299-0.494,0.205-1.475,0.339-2.231c0.614,0.308,1.391,0.473,1.813,0.95c1.174,1.329,2.201,2.788,3.286,4.195
			c-0.534-1.734-0.946-3.519-1.622-5.196c-3.723-9.238-7.638-18.402-11.243-27.686c-4.097-10.551-7.5-21.391-12.002-31.76
			c-5.344-12.308-11.551-24.242-17.352-36.353c-1.066-2.226-2.048-4.498-2.907-6.81c-0.193-0.52,0.292-1.291,0.464-1.947
			c0.614,0.391,1.44,0.642,1.806,1.196c2.089,3.169,4.302,6.289,6.038,9.65c4.001,7.75,8.044,15.503,11.522,23.493
			c3.461,7.95,6.238,16.196,9.367,24.292c0.248,0.641,0.9,1.125,1.365,1.682c-0.104-0.622-0.184-1.248-0.314-1.864
			c-2.525-11.956-5.24-23.876-7.529-35.877c-1.944-10.19-3.021-20.554-5.174-30.694c-2.19-10.311-5.102-20.476-7.93-30.641
			c-2.824-10.152-5.722-20.293-8.981-30.311c-3.509-10.785-7.18-21.537-11.347-32.079c-2.689-6.803-6.41-13.198-9.651-19.783
			c-3.761-7.641-4.599-15.873-4.754-24.216c-0.017-0.928,0.695-1.87,1.069-2.805c0.381,0.987,0.989,1.948,1.106,2.965
			c0.553,4.815,0.323,9.827,1.605,14.424c1.596,5.719,4.37,11.113,6.729,16.607c0.299,0.696,1.163,1.15,1.765,1.716
			c0.202-0.608,0.327-1.257,0.628-1.811c0.246-0.453,0.701-0.792,1.063-1.183c0.351,0.488,0.917,0.935,1.019,1.469
			c0.751,3.983,1.266,8.015,2.128,11.971c1.969,9.028,5.26,17.587,9.593,25.743c0.209,0.394,0.676,0.651,1.023,0.972
			c-0.093-0.432-0.169-0.868-0.282-1.295c-1.286-4.906-2.636-9.797-3.799-14.732c-0.164-0.695,0.58-1.604,0.904-2.413
			c0.513,0.667,1.221,1.26,1.509,2.013c2.127,5.557,4.506,11.049,6.155,16.75c2.014,6.961,3.38,14.108,5.057,21.167
			c0.269,1.131,0.692,2.226,1.044,3.337c0.207-1.327,0.695-2.68,0.57-3.975c-0.536-5.591-1.382-11.155-1.831-16.751
			c-0.155-1.931-0.002-4.217,0.904-5.842c2.885-5.17,0.447-10.476,0.842-15.687c1.419-18.738,2.509-37.5,3.691-56.256
			c0.111-1.754-0.163-3.542,0.054-5.275c0.092-0.734,0.992-1.367,1.524-2.046c0.275,0.738,0.807,1.484,0.785,2.213
			c-0.172,5.559-0.467,11.114-0.68,16.671c-0.022,0.571,0.236,1.152,0.364,1.729c0.28-0.452,0.548-0.912,0.841-1.355
			c1.107-1.68,2.221-3.354,3.333-5.03c-0.503,1.819-1.194,3.608-1.48,5.46c-1.617,10.489-3.582,20.951-4.573,31.502
			c-1.095,11.667-1.401,23.417-1.775,35.139c-0.139,4.349,0.339,8.74,0.829,13.079c1.061,9.405,2.302,18.791,3.502,28.18
			c0.092,0.718,0.48,1.393,0.661,2.105c0.389,1.531,0.732,3.074,1.094,4.612c0.356-1.752,0.758-3.497,1.063-5.257
			c2.818-16.242,9.04-31.285,16.215-45.988c0.283-0.579,0.914-0.988,1.382-1.477c0.035,0.702,0.316,1.511,0.064,2.087
			c-2,4.563-4.111,9.077-6.165,13.616c-0.723,1.599-1.425,3.21-2.044,4.85c-0.171,0.453-0.01,1.031-0.002,1.552
			c0.361-0.339,0.708-0.696,1.088-1.013c0.479-0.401,0.986-0.77,1.48-1.152c-0.108,0.69-0.121,1.412-0.338,2.065
			c-2.679,8.054-6.14,15.941-7.873,24.191c-1.632,7.769-2.414,15.992-1.808,23.879c0.649,8.448,3.353,16.738,5.177,25.093
			c0.057,0.261,0.302,0.48,0.46,0.719c0.222-0.497,0.554-0.975,0.648-1.495c0.838-4.635,1.404-9.332,2.492-13.905
			c1.967-8.267,4.516-16.401,6.315-24.701c2.651-12.226,5.082-24.51,7.163-36.845c1.074-6.369,1.757-12.912,1.602-19.352
			c-0.2-8.342-1.51-16.651-2.149-24.99c-0.34-4.438-0.193-8.911-0.411-13.362c-0.331-6.745-0.811-13.482-1.16-20.226
			c-0.038-0.727,0.365-1.476,0.563-2.215c0.454,0.588,0.973,1.139,1.344,1.776c0.408,0.699,0.681,1.477,1.013,2.221
			c0.356-0.778,0.835-1.524,1.049-2.339c2.155-8.229,4.251-16.473,6.417-24.699c0.191-0.729,0.757-1.359,1.149-2.035
			c0.104,0.836,0.426,1.714,0.278,2.504c-2.599,13.891-5.926,27.689-7.622,41.687c-0.867,7.161,1.309,14.662,1.852,22.028
			c0.781,10.595,1.38,21.205,1.926,31.814c0.107,2.098-0.399,4.225-0.578,6.342c-0.036,0.428,0.132,0.874,0.207,1.312
			c0.349-0.369,0.815-0.68,1.029-1.114c3.08-6.271,6.127-12.558,9.179-18.843c4.273-8.801,8.539-17.606,12.828-26.4
			c0.178-0.365,0.563-0.63,0.852-0.941c0.143,0.395,0.461,0.82,0.398,1.179c-0.344,1.941-0.549,3.952-1.225,5.782
			c-6.117,16.553-12.556,32.991-18.413,49.635c-3.529,10.029-6.271,20.34-9.208,30.57c-1.224,4.265-2.243,8.614-2.974,12.988
			c-0.851,5.084-1.35,10.232-1.88,15.365c-0.733,7.094-2.068,14.223-1.831,21.292c0.261,7.778,1.998,15.509,3.142,23.253
			c0.079,0.534,0.58,1.005,0.885,1.506c0.188-0.515,0.356-1.038,0.568-1.542c2.718-6.465,5.377-12.956,8.183-19.383
			c2.699-6.183,4.598-13.03,8.597-18.245c4.282-5.584,4.482-10.626,2.411-16.534c-3.188-9.095-2.501-18.929-5.374-28.092
			c-0.212-0.677,0.59-1.672,0.921-2.52c0.827,0.643,2.33,1.239,2.379,1.937c0.694,9.891,4.892,18.737,8.175,27.846
			c0.138,0.382,1.881,0.73,2.126,0.447c2.991-3.466,5.942-6.978,8.67-10.651c0.912-1.228,1.103-2.975,1.759-4.423
			c0.147-0.326,1.032-0.682,1.286-0.532c1.187,0.702,2.165,0.873,3.803-0.779c1.499-1.511,3.622-3.82,3.361-5.436
			c-2.265-14.026-5.318-27.928-7.468-41.97c-1.012-6.608-0.94-13.456-0.657-20.166c0.259-6.141,1.613-12.227,2.202-18.364
			c0.421-4.396,0.347-8.837,0.579-13.253c0.029-0.557,0.578-1.087,0.886-1.63c0.134,0.572,0.343,1.139,0.391,1.719
			c0.969,11.706,0.943,23.396,0.614,35.151c-0.201,7.173,2.052,14.416,3.224,21.624c0.199,1.225,0.503,2.432,0.759,3.647
			c0.457-1.314,1.096-2.596,1.341-3.948c1.856-10.208,3.591-20.437,5.514-30.631c0.167-0.885-0.555-3.989,2.407-2.028
			c0.388-0.667,0.977-1.292,1.131-2.01c1.651-7.694,3.234-15.403,4.831-23.109c0.076-0.363,0.018-0.782,0.179-1.094
			c0.516-0.999,1.105-1.959,1.667-2.935c-0.005,1.212,0.112,2.44-0.039,3.634c-0.455,3.614-1.019,7.214-1.522,10.823
			c-0.032,0.231,0.088,0.483,0.137,0.726c0.232-0.245,0.578-0.45,0.682-0.741c4.374-12.292,8.757-24.581,13.066-36.896
			c2.037-5.821,3.887-11.708,5.94-17.523c0.236-0.669,1.233-1.068,1.878-1.593c-0.05,0.739-0.059,1.484-0.163,2.215
			c-0.088,0.612-0.286,1.209-0.436,1.813c0.328-0.573,0.652-1.149,0.987-1.719c3.035-5.177,6.09-10.342,9.096-15.537
			c0.689-1.192,1.169-2.505,1.831-3.715c0.231-0.424,0.721-0.707,1.092-1.055c0.018,0.482,0.177,1.015,0.029,1.44
			c-2.629,7.588-5.288,15.166-7.959,22.738c-1.068,3.029-2.114,6.068-3.294,9.054c-1.829,4.629-3.816,9.197-5.587,13.848
			c-0.231,0.606-1.948,2.618,0.944,2.21c0.043,1.079,0.401,2.263,0.08,3.22c-2.674,7.969-5.577,15.862-8.203,23.847
			c-2.337,7.104-4.367,14.308-6.612,21.442c-1.76,5.593-4.301,11.03-5.317,16.746c-1.532,8.611-2.051,17.403-2.952,26.124
			c-0.083,0.808,0.11,1.674,0.332,2.47c0.127,0.455,0.571,0.822,0.872,1.228c0.299-0.327,0.66-0.615,0.888-0.984
			c5.496-8.919,11.471-17.592,16.257-26.877c2.47-4.792,2.753-10.693,4.153-16.061c1.089-4.176,2.498-8.271,3.534-12.458
			c0.769-3.107,1.064-6.329,1.784-9.451c0.259-1.119,1.142-2.095,1.739-3.136c0.415,1.263,1.307,2.584,1.158,3.776
			c-0.475,3.819-1.523,7.569-1.952,11.39c-0.175,1.557,1.096,3.264,0.962,4.839c-0.208,2.46-0.844,4.94-1.673,7.279
			c-1.556,4.389-3.275,8.729-5.128,13.002c-1.271,2.932-2.785,5.77-4.361,8.554c-2.447,4.326-5.135,8.516-7.545,12.862
			c-2.729,4.92-5.275,9.943-7.873,14.936c-0.281,0.541-0.7,1.335-0.503,1.75c2.272,4.799,1.898,9.974,2.499,15.035
			c0.266,2.242,2.112,4.296,3.241,6.435c1.026-1.667,2.206-3.261,3.042-5.019c1.348-2.835,2.399-5.812,3.74-8.651
			c0.312-0.659,1.286-1.004,1.956-1.494c0.094,0.781,0.424,1.628,0.23,2.33c-0.368,1.327-1.079,2.555-1.565,3.854
			c-0.321,0.857-0.498,1.769-0.74,2.655c0.489-0.737,1.116-1.417,1.445-2.221c3.186-7.786,6.313-15.596,9.494-23.384
			c0.211-0.517,1.024-1.324,1.058-1.3c3.149,2.258,2.763-1.534,2.971-2.212c2.868-9.341,6.073-18.645,7.983-28.199
			c2.713-13.569,4.881-27.29,6.361-41.044c0.691-6.417-0.803-13.065-1.238-19.614c-0.051-0.757,0.331-1.543,0.514-2.315
			c0.351,0.669,0.858,1.3,1.029,2.013c1.837,7.695,3.604,15.407,5.448,23.1c0.147,0.614,0.725,1.125,1.102,1.683
			c0.227-0.671,0.512-1.33,0.672-2.017c3.347-14.401,6.669-28.807,10.047-43.2c0.166-0.708,0.799-1.306,1.215-1.955
			c0.003,0.758,0.152,1.551-0.016,2.27c-1.2,5.136-2.481,10.253-3.688,15.388c-0.133,0.564,0.038,1.2,0.068,1.802
			c0.341-0.47,0.804-0.894,1.005-1.418c2.358-6.137,4.66-12.296,7.027-18.43c0.27-0.697,0.844-1.277,1.276-1.912
			c-0.048,0.789,0.074,1.635-0.17,2.357c-1.814,5.349-3.973,10.597-5.505,16.023c-2.58,9.141-4.756,18.395-7.153,27.588
			c-0.535,2.05-1.267,4.049-1.937,6.062c-2.227,6.694-4.765,13.302-6.606,20.099c-1.498,5.525-2.402,11.243-3.153,16.93
			c-1.426,10.79-5.131,20.762-9.907,30.456c-6.539,13.273-12.902,26.633-19.222,40.012c-0.4,0.847-0.006,2.283,0.418,3.273
			c5.013,11.692,10.086,23.358,15.18,35.016c1.51,3.455,3.119,6.868,4.721,10.281c0.21,0.446,0.651,0.783,0.986,1.171
			c0.162-0.475,0.466-0.95,0.467-1.425c0.008-9.88-0.493-19.791,0.134-29.63c0.397-6.244,2.646-12.351,3.73-18.577
			c1.186-6.813,1.976-13.693,2.976-20.539c0.099-0.679,0.46-1.319,0.7-1.978c0.219,0.657,0.451,1.311,0.65,1.974
			c0.103,0.341,0.146,0.701,0.217,1.052c0.135-0.389,0.315-0.769,0.398-1.169c3.333-16.03,6.646-32.063,10.014-48.085
			c0.185-0.879,0.831-1.66,1.262-2.486c-0.029,0.878,0.016,1.768-0.104,2.634c-0.252,1.826-0.631,3.635-0.864,5.462
			c-0.06,0.472,0.226,0.988,0.353,1.484c0.316-0.383,0.818-0.723,0.921-1.156c2.136-9.079,4.404-18.132,6.265-27.268
			c1.271-6.242,1.707-12.658,3.065-18.876c0.42-1.919,2.681-3.417,4.023-5.167c0.348-0.453,0.531-1.113,0.587-1.698
			c0.929-9.876,1.46-19.81,2.876-29.614c0.779-5.394,3.099-10.556,4.603-15.857c0.753-2.654,1.174-5.401,1.888-8.068
			c0.157-0.587,0.92-1.013,1.403-1.513c0.304,0.623,0.944,1.296,0.858,1.86c-0.774,5.102-1.55,10.21-2.574,15.267
			c-1.146,5.656-3.012,11.199-3.749,16.897c-1.48,11.438-2.67,22.928-3.493,34.431c-0.959,13.406-0.671,26.635,2.988,39.906
			c2.749,9.975,3.105,20.609,4.524,30.95c0.207,1.507,0.398,3.016,0.597,4.523c0.235-1.444,0.384-2.908,0.72-4.329
			c2.085-8.826,4.181-17.65,6.385-26.448c0.17-0.678,1.19-1.143,1.815-1.707c0.292,0.862,0.977,1.808,0.813,2.573
			c-1.293,6.057-3.018,12.032-4.087,18.124c-1.435,8.175-2.411,16.432-3.544,24.659c-0.061,0.442,0.253,0.935,0.393,1.404
			c0.291-0.419,0.727-0.798,0.853-1.262c3.074-11.392,6.064-22.807,9.186-34.186c1.553-5.662,3.315-11.267,5.044-16.878
			c0.153-0.498,0.764-0.854,1.161-1.276c0.13,0.668,0.475,1.377,0.358,1.999c-1.893,10.068-3.628,20.173-5.852,30.168
			c-1.759,7.907-4.257,15.646-6.197,23.516c-1.455,5.903-2.891,11.853-3.653,17.868c-0.379,2.983,0.771,6.161,1.241,9.249
			c0.387,2.541,0.788,5.08,1.188,7.619c0.064,0.409,0.157,0.813,0.236,1.22c0.264-0.339,0.708-0.65,0.766-1.021
			c0.626-4.023,1.298-8.043,1.736-12.089c0.31-2.857,0.138-2.793,2.444-2.202c0.334,0.086,1.169-0.948,1.443-1.602
			c2.184-5.192,4.334-10.399,6.395-15.642c0.987-2.513,0.871-2.461,3.479-1.963c0.438,0.083,1.318-0.897,1.623-1.558
			c2.214-4.79,4.163-9.709,6.541-14.413c1.582-3.133,4.899-5.103,5.226-9.227c0.614-7.758-2.208-14.263-5.841-20.81
			c-3.525-6.353-7.289-12.821-9.269-19.72c-2.563-8.93-3.737-18.299-5.007-27.548c-1.59-11.57-2.682-23.209-3.955-34.822
			c-0.161-1.468-0.16-2.958-0.157-4.438c0.001-0.373,0.297-0.746,0.457-1.119c0.213,0.271,0.43,0.538,0.637,0.812
			c0.252,0.334,0.494,0.674,0.741,1.012c0.14-0.518,0.417-1.04,0.399-1.552c-0.154-4.345-0.393-8.686-0.53-13.031
			c-0.029-0.917,0.244-1.844,0.379-2.766c0.365,0.896,0.982,1.771,1.057,2.69c0.641,7.912,1.1,15.84,1.792,23.747
			c0.304,3.47,0.986,6.91,1.587,10.349c0.094,0.536,0.668,0.988,1.02,1.479c0.443-0.5,1.163-0.941,1.283-1.509
			c0.618-2.935,0.902-5.947,1.633-8.85c3.178-12.624,6.456-25.221,9.737-37.818c0.406-1.558,1.053-3.054,1.587-4.579
			c-0.039,1.635,0.208,3.338-0.164,4.894c-2.338,9.79-5.123,19.484-7.148,29.335c-1.726,8.393-3.956,17.009-3.61,25.431
			c0.636,15.517-0.313,31.611,8.483,45.694c2.067,3.308,4.377,6.471,6.729,9.583c0.189,0.251,2.257-0.308,2.311-0.663
			c0.357-2.373,0.355-4.796,0.563-7.195c0.46-5.319,2.524-10.576,0.421-16.009c-0.215-0.554,0.828-1.595,1.288-2.409
			c0.636,1.001,1.816,2.002,1.817,3.004c0.005,6.187-0.087,12.384-0.483,18.557c-0.318,4.952-1.402,9.863-1.565,14.811
			c-0.071,2.155,1.313,4.358,2.035,6.54c0.419-0.219,1.166-0.387,1.21-0.665c2.182-13.81,8.312-26.722,8.433-41.092
			c0.073-8.781,3.013-17.519,3.328-26.323c0.432-12.012,1.656-24.231-2.979-35.916c-2.513-6.333-4.828-12.751-6.963-19.22
			c-0.381-1.152,0.563-2.742,0.896-4.129c0.625,1.009,1.327,1.979,1.859,3.036c1.079,2.14,2.154,4.29,3.073,6.501
			c2.09,5.026,4.436,9.987,5.999,15.178c1.073,3.564,0.997,7.473,1.467,11.223c0.045,0.363,0.317,0.697,0.484,1.045
			c0.119-0.337,0.286-0.666,0.35-1.013c1.725-9.461,1.858-18.856-0.72-28.236c-2.636-9.596-5.09-19.242-7.476-28.903
			c-0.24-0.972,0.542-2.195,0.85-3.302c0.702,0.863,1.701,1.619,2.06,2.607c2.511,6.915,4.766,13.925,7.336,20.817
			c5.844,15.669,6.8,31.988,6.469,48.443c-0.226,11.231-0.744,22.462-1.42,33.676c-0.856,14.207-1.907,28.403-3.068,42.588
			c-0.637,7.779-1.825,15.514-2.472,23.292c-0.357,4.3-0.151,8.652-0.087,12.979c0.009,0.629,0.644,1.249,0.988,1.873
			c0.459-0.529,1.154-0.986,1.342-1.598c2.212-7.225,4.454-14.445,6.47-21.726c1.468-5.302,2.729-10.669,3.867-16.054
			c1.411-6.681,3.896-13.475,3.563-20.101c-0.438-8.716,4.098-16.026,4.627-24.336c0.402-6.313,1.963-12.544,2.829-18.837
			c0.679-4.932-0.197-10.57,1.948-14.678c2.423-4.64,0.655-9.06,1.888-13.375c0.139-0.488,0.466-0.922,0.705-1.382
			c0.265,0.513,0.729,1.016,0.756,1.541c0.094,1.852,0.037,3.711,0.037,5.567C482.479,270.806,482.649,270.815,482.819,270.825z
			 M359.557,507.993c0.081,2.268,0.153,4.535,0.254,6.801c0.011,0.225,0.19,0.441,0.292,0.661c0.147-0.314,0.455-0.65,0.417-0.941
			c-0.285-2.178-0.639-4.347-0.971-6.519c0.371-0.953,0.624-1.979,1.147-2.84c0.521-0.854,1.804-1.488,1.898-2.316
			c0.323-2.838,0.073-5.743,0.426-8.575c0.294-2.361,1.167-4.647,1.691-6.987c0.121-0.541-0.136-1.166-0.218-1.752
			c-0.524,0.421-1.23,0.739-1.539,1.283c-1.225,2.156-2.107,4.533-3.512,6.554C355.987,498.337,357.492,503.135,359.557,507.993z
			 M385.053,367.266c-0.959-8.517,1.354-17.417-4.286-25.487c-2.835-4.057-2.9-10.024-4.363-15.086
			c-0.289-1.002-1.242-1.813-1.89-2.712c-0.63,0.95-1.553,1.819-1.842,2.864c-1.631,5.89-3.088,11.827-4.644,17.738
			c-3.056,11.607-6.145,23.207-9.184,34.819c-0.108,0.414,0.033,1.238,0.283,1.345c1.533,0.656,1.558,0.606,1.167,1.761
			c-5.465,16.132-8.66,32.721-9.202,49.725c-0.231,7.242,0.526,14.527,1.051,21.778c0.642,8.849,1.494,17.683,2.308,26.518
			c0.072,0.784,0.525,1.533,0.802,2.298c0.505-0.586,1.146-1.1,1.493-1.768c4.087-7.875,8.237-15.722,12.113-23.701
			c1.099-2.262,2.098-4.997,1.884-7.403c-1.342-15.055-3.158-30.067-4.532-45.119c-0.332-3.639,0.25-7.397,0.757-11.053
			c0.153-1.105,1.469-2.05,2.251-3.068c0.093,1.109,0.228,2.216,0.263,3.326c0.021,0.643-0.232,1.302-0.169,1.934
			c0.976,9.656,1.986,19.308,2.981,28.961c0.519,5.026,1.008,10.056,1.558,15.079c0.054,0.495,0.441,0.953,0.675,1.429
			c0.268-0.364,0.596-0.698,0.792-1.097c5.812-11.8,11.419-23.69,13.582-36.819c0.333-2.024,0.007-4.195-0.257-6.267
			c-0.188-1.465-1.01-2.854-1.159-4.317C386.61,384.389,385.851,375.825,385.053,367.266z M297.136,500.673
			c0.527,15.049,3.626,29.487,9.413,43.347c0.621,1.488,1.663,2.821,2.642,4.128c0.315,0.421,1.055,0.525,1.601,0.774
			c0.151-0.508,0.359-1.007,0.442-1.525c0.401-2.483,0.907-4.959,1.123-7.46c0.967-11.173,5.125-22.115,2.786-33.519
			c-1.852-9.027-4.074-17.978-6.082-26.974c-0.57-2.554-1.081-5.136-1.353-7.732c-0.067-0.647,0.9-1.402,1.393-2.107
			c0.378,0.591,0.914,1.135,1.11,1.782c2.375,7.849,4.675,15.721,7.085,23.559c0.189,0.614,1.06,1.02,1.614,1.521
			c0.319-0.601,0.798-1.167,0.928-1.806c0.586-2.873,0.985-5.785,1.617-8.646c0.897-4.066,2.98-8.179,2.684-12.131
			c-0.488-6.503-2.556-12.878-3.794-19.338c-0.464-2.422-0.536-4.929-0.631-7.404c-0.017-0.425,0.749-0.879,1.153-1.321
			c0.266,0.396,0.639,0.758,0.782,1.195c1.634,4.999,3.112,10.053,4.893,14.998c0.927,2.574,3.091,4.869,3.425,7.454
			c0.578,4.482,0.219,9.093,0.16,13.648c-0.12,9.31-0.057,18.632-0.587,27.92c-0.194,3.403-1.875,6.716-2.822,10.086
			c-0.189,0.673-0.126,1.416-0.179,2.127c0.411-0.552,0.887-1.066,1.221-1.66c1.067-1.896,1.979-3.886,3.138-5.723
			c3.302-5.237,6.745-10.386,9.995-15.653c0.455-0.736,0.328-1.985,0.146-2.936c-1.371-7.163-2.734-14.33-4.271-21.458
			c-2.03-9.418-3.965-18.869-6.405-28.185c-2.567-9.802-5.667-19.464-8.583-29.173c-0.204-0.681-0.805-1.243-1.222-1.86
			c-0.483,0.601-1.152,1.129-1.422,1.814c-2.648,6.72-5.369,13.417-7.801,20.216c-4.365,12.207-9.357,24.275-12.509,36.798
			C296.802,483.478,297.602,492.234,297.136,500.673z M432.479,390.225c-0.771-4.821-1.47-9.656-2.355-14.456
			c-0.257-1.396-1.045-2.694-1.59-4.037c-0.003,1.155,0.274,2.397-0.056,3.45c-1.973,6.289-3.857,12.622-6.242,18.757
			c-1.256,3.232-3.05,6.457-5.322,9.053c-6.693,7.649-10.183,16.523-11.307,26.474c-0.084,0.748-0.006,1.513-0.003,2.271
			c0.582-0.649,1.162-1.3,1.746-1.948c0.391-0.433,0.787-0.86,1.182-1.291c0.088,0.59,0.294,1.192,0.232,1.766
			c-0.067,0.63-0.338,1.253-0.593,1.848c-4.438,10.319-8.113,20.726-7.735,32.302c0.237,7.251-0.728,14.541-1.101,21.815
			c-0.035,0.68,0.309,1.38,0.477,2.07c0.406-0.275,0.959-0.458,1.197-0.837c6.086-9.712,13.758-18.434,17.678-29.507
			c1.71-4.83,5.49-9.061,6.58-13.953C429.194,426.349,434.23,408.756,432.479,390.225z M282.811,444.461
			c0.261-0.087,0.522-0.173,0.784-0.26c-2.036-8.592-4.055-17.188-6.184-25.757c-0.067-0.272-1.729-0.559-1.874-0.337
			c-1.491,2.299-3.302,4.549-4.11,7.103c-2.437,7.697-5.125,15.408-6.512,23.325c-2.452,13.987-5.35,28.115-0.892,42.287
			c0.432,1.374,1.354,2.727,2.391,3.738c1.015,0.989,2.832,1.248,3.657,2.32c2.015,2.619,3.66,5.522,5.454,8.312
			c0.287,0.446,0.572,0.894,0.858,1.341c0.137-0.585,0.389-1.169,0.392-1.754c0.033-6.36-0.238-12.735,0.09-19.079
			c0.558-10.795,7.202-20.581,5.261-31.905C281.613,450.81,282.542,447.579,282.811,444.461z M385.773,492.631
			c-0.106-0.016-0.214-0.032-0.32-0.048c-0.072-1.571,0.064-3.185-0.25-4.706c-1.838-8.89-3.756-17.764-5.726-26.625
			c-0.22-0.987-0.938-1.864-1.426-2.792c-0.836,0.819-2.167,1.508-2.424,2.481c-1.195,4.522-2.396,9.083-3.012,13.708
			c-0.621,4.658,0.626,9.91-1.106,13.983c-1.924,4.525-1.891,8.803-2.048,13.304c-0.203,5.81-0.38,11.62-0.575,17.43
			c-0.226,6.694-0.509,13.387-0.625,20.083c-0.014,0.812,0.851,1.639,1.309,2.459c0.897-0.564,2.08-0.931,2.64-1.732
			c1.475-2.111,2.892-4.315,3.948-6.656c2.524-5.594,5.721-11.094,7.002-16.988C384.854,508.744,384.976,500.614,385.773,492.631z
			 M345.473,527.934c-0.216-1.924-0.326-3.402-0.57-4.858c-0.11-0.652-0.488-1.261-0.744-1.89c-0.444,0.55-0.973,1.052-1.319,1.658
			c-2.019,3.527-4.046,7.051-5.976,10.627c-6.189,11.469-13.011,22.741-13.215,36.353c-0.065,4.372-0.328,8.963,0.853,13.065
			c1.047,3.641,3.979,6.735,6.058,10.085c1.524,2.457,3.01,2.318,4.028-0.258c1.395-3.524,2.994-7.065,3.682-10.753
			c2.124-11.378,4.063-22.8,5.663-34.262C344.863,541.024,345.007,534.237,345.473,527.934z M301.005,386.165
			c-0.896,0.38-1.517,0.468-1.872,0.822c-4.801,4.789-9.829,9.387-14.249,14.509c-3.198,3.707-4.653,7.897-1.757,13.08
			c2.923,5.231,4.884,11.028,6.981,16.683c1.239,3.341,1.906,6.892,2.877,10.334c0.135,0.478,0.544,0.878,0.827,1.315
			c0.323-0.432,0.763-0.818,0.949-1.303c0.726-1.884,1.192-3.887,2.077-5.687c4.44-9.033,8.995-18.009,13.46-27.03
			c0.278-0.563,0.389-1.437,0.157-1.989c-2.676-6.363-5.42-12.697-8.188-19.021C301.99,387.244,301.433,386.733,301.005,386.165z
			 M393.494,449.746c-0.229-0.017-0.459-0.034-0.688-0.051c-0.319-5.262-0.551-10.532-0.993-15.783
			c-0.233-2.761-0.837-5.491-1.273-8.235c-1.126,2.992-2.212,6-3.387,8.973c-1.413,3.576-3.076,7.064-4.303,10.701
			c-1.005,2.981-2.641,6.351-2.069,9.155c2.093,10.254,4.989,20.344,7.594,30.493c0.159,0.619,0.407,1.215,0.614,1.821
			c0.271-0.645,0.716-1.271,0.788-1.937C391.043,473.173,392.264,461.458,393.494,449.746z M327.538,491.872
			c0-2.459,0.083-4.968-0.045-7.467c-0.044-0.853-0.617-1.679-0.948-2.517c-0.487,0.761-1.248,1.465-1.42,2.292
			c-1.892,9.031-3.671,18.085-5.523,27.125c-1.031,5.032-2.418,10.008-3.137,15.081c-0.75,5.28-0.89,10.646-1.29,15.976
			c-0.031,0.412-0.005,0.828-0.006,1.242c0.191-0.374,0.389-0.745,0.574-1.122c3.335-6.819,2.577-14.632,6.084-21.666
			C326.24,511.964,328.182,502.05,327.538,491.872z M249.315,382.769c0.301,1.512,0.384,1.933,0.468,2.354
			c0.345-0.348,0.898-0.644,1.001-1.052c0.663-2.635,1.15-5.316,1.839-7.944c1.912-7.301,3.901-14.583,5.837-21.878
			c0.126-0.475,0.063-1,0.087-1.501c-0.256,0.375-0.627,0.716-0.75,1.13C254.867,363.8,251.963,373.729,249.315,382.769z
			 M356.95,299.333c-0.493-2.836-0.831-4.83-1.196-6.819c-0.045-0.248-0.231-0.47-0.353-0.704c-0.16,0.262-0.426,0.51-0.466,0.79
			c-0.937,6.524-1.857,13.051-2.744,19.583c-0.054,0.399,0.201,0.839,0.313,1.26c0.196-0.157,0.517-0.279,0.573-0.476
			C354.447,308.212,355.787,303.448,356.95,299.333z M330.331,540.4c0.626-1.059,0.913-1.522,1.18-1.997
			c2.629-4.671,5.269-9.338,7.879-14.021c1.348-2.418,2.695-4.841,3.924-7.32c0.274-0.554,0.05-1.355,0.055-2.043
			c-0.393,0.446-0.86,0.847-1.163,1.347c-0.856,1.418-1.684,2.855-2.454,4.321c-3.154,5.991-6.289,11.992-9.401,18.005
			C330.201,538.98,330.331,539.414,330.331,540.4z M378.484,305.271c-0.134-0.001-0.268-0.001-0.402-0.002
			c0-2.777,0.013-5.554-0.014-8.331c-0.003-0.387-0.191-0.772-0.294-1.158c-0.137,0.331-0.358,0.651-0.398,0.993
			c-0.459,3.94-1.064,7.875-1.252,11.829c-0.088,1.848,0.611,3.743,1.033,5.598c0.087,0.382,0.528,0.683,0.807,1.021
			c0.174-0.461,0.489-0.919,0.497-1.383C378.507,310.983,378.484,308.127,378.484,305.271z M374.677,455.343
			c0.539-1.299,0.779-1.792,0.951-2.308c1.977-5.928,3.957-11.856,5.895-17.797c0.215-0.659,0.176-1.399,0.255-2.102
			c-0.373,0.63-0.791,1.239-1.109,1.897c-0.522,1.081-1.082,2.16-1.446,3.297c-1.591,4.976-3.127,9.969-4.649,14.966
			C374.459,453.668,374.604,454.119,374.677,455.343z M269.963,326.515c-0.037-0.172-0.073-0.345-0.109-0.517
			c-0.212,0.08-0.527,0.098-0.62,0.251c-1.189,1.953-2.392,3.901-3.469,5.916c-0.186,0.347,0.15,1.021,0.362,1.493
			c0.05,0.111,0.795,0.106,0.846-0.009C268.002,331.286,268.978,328.9,269.963,326.515z M219.734,355.389
			c0.341,1.341,0.836,3.285,1.331,5.229c0.002-1.899,0.004-3.797,0.003-5.696c0-0.092-0.006-0.19-0.038-0.275
			c-0.302-0.803-0.61-1.603-0.917-2.404C220.015,353.061,219.916,353.88,219.734,355.389z M416.377,400.503
			c-0.098-0.19-0.172-0.418-0.321-0.571c-0.045-0.045-0.37,0.077-0.457,0.199c-0.997,1.404-1.979,2.819-2.943,4.246
			c-0.076,0.111,0.008,0.331,0.019,0.5c0.235-0.015,0.6,0.062,0.688-0.06C414.373,403.422,415.342,401.999,416.377,400.503z
			 M319.182,305.015c-0.106-0.331-0.184-0.572-0.262-0.813c-0.517,1.199-1.052,2.391-1.53,3.605
			c-0.073,0.188,0.123,0.48,0.194,0.725C318.12,307.352,318.656,306.172,319.182,305.015z M329.447,273.947
			c0.505-1.188,0.808-1.807,1.027-2.454c0.108-0.318,0.063-0.688,0.087-1.034c-0.429,0.718-0.881,1.425-1.27,2.165
			C329.204,272.792,329.334,273.074,329.447,273.947z M309.911,310.46c-0.225,0.714-0.396,1.213-0.532,1.721
			c-0.025,0.096,0.087,0.229,0.136,0.345c0.179-0.399,0.394-0.788,0.521-1.204C310.094,311.13,309.98,310.886,309.911,310.46z
			 M264.988,339.528c-0.288-0.253-0.502-0.442-0.717-0.631c-0.251,0.475-0.557,0.932-0.721,1.436
			c-0.049,0.153,0.296,0.433,0.46,0.655C264.3,340.556,264.588,340.124,264.988,339.528z M419.723,395.38
			c0.563-0.99,0.872-1.42,1.046-1.899c0.067-0.184-0.172-0.479-0.272-0.724c-0.258,0.464-0.538,0.917-0.762,1.397
			C419.657,394.321,419.723,394.553,419.723,395.38z M485.966,377.292c-0.236-0.157-0.399-0.266-0.563-0.375
			c-0.155,0.311-0.373,0.608-0.44,0.937c-0.035,0.167,0.199,0.389,0.313,0.586C485.482,378.096,485.69,377.75,485.966,377.292z
			 M220.071,348.375c-0.286-0.46-0.542-0.873-0.799-1.285c-0.016,0.237-0.086,0.485-0.038,0.708c0.11,0.515,0.278,1.018,0.423,1.525
			C219.785,349.034,219.911,348.744,220.071,348.375z M323.308,275.664c0.323-0.369,0.565-0.529,0.617-0.737
			c0.055-0.218-0.072-0.482-0.119-0.726c-0.183,0.18-0.431,0.331-0.53,0.549C323.193,274.934,323.282,275.197,323.308,275.664z
			 M249.087,375.598c0.277-0.294,0.554-0.459,0.599-0.673c0.042-0.206-0.156-0.461-0.249-0.695
			c-0.164,0.152-0.422,0.279-0.469,0.461C248.91,374.92,249.023,375.194,249.087,375.598z"/>
		<path fill-rule="evenodd" clip-rule="evenodd" d="M310.526,1030.417c-0.482,0.24-0.749,0.48-0.887,0.421
			c-0.395-0.17-0.738-0.461-1.102-0.704c0.222-0.125,0.475-0.39,0.659-0.348C309.583,1029.873,309.932,1030.121,310.526,1030.417z"
			/>
		<path fill-rule="evenodd" clip-rule="evenodd" d="M508.631,337.409c0.261,0.315,0.533,0.517,0.5,0.63
			c-0.091,0.313-0.311,0.587-0.479,0.877c-0.17-0.125-0.498-0.279-0.481-0.368C508.233,338.225,508.41,337.923,508.631,337.409z"/>
		<path fill-rule="evenodd" clip-rule="evenodd" fill="none" d="M385.053,367.266c0.798,8.56,1.558,17.123,2.432,25.675
			c0.149,1.463,0.972,2.853,1.159,4.317c0.264,2.072,0.59,4.243,0.257,6.267c-2.163,13.129-7.771,25.019-13.582,36.819
			c-0.196,0.399-0.524,0.733-0.792,1.097c-0.233-0.476-0.621-0.934-0.675-1.429c-0.55-5.023-1.039-10.052-1.558-15.079
			c-0.995-9.654-2.006-19.306-2.981-28.961c-0.063-0.632,0.189-1.291,0.169-1.934c-0.035-1.11-0.17-2.217-0.263-3.326
			c-0.782,1.018-2.098,1.962-2.251,3.068c-0.507,3.656-1.089,7.415-0.757,11.053c1.374,15.052,3.19,30.064,4.532,45.119
			c0.214,2.406-0.785,5.141-1.884,7.403c-3.876,7.979-8.026,15.825-12.113,23.701c-0.347,0.667-0.988,1.182-1.493,1.768
			c-0.276-0.765-0.729-1.514-0.802-2.298c-0.813-8.835-1.666-17.669-2.308-26.518c-0.524-7.25-1.282-14.536-1.051-21.778
			c0.542-17.003,3.737-33.593,9.202-49.725c0.391-1.154,0.366-1.104-1.167-1.761c-0.25-0.107-0.392-0.931-0.283-1.345
			c3.039-11.612,6.128-23.211,9.184-34.819c1.556-5.911,3.013-11.848,4.644-17.738c0.289-1.044,1.212-1.914,1.842-2.864
			c0.647,0.899,1.601,1.71,1.89,2.712c1.463,5.062,1.528,11.03,4.363,15.086C386.407,349.849,384.094,358.749,385.053,367.266z"/>
		<path fill-rule="evenodd" clip-rule="evenodd" fill="none" d="M297.136,500.673c0.466-8.438-0.333-17.195,1.691-25.242
			c3.151-12.523,8.144-24.592,12.509-36.798c2.432-6.799,5.152-13.496,7.801-20.216c0.27-0.686,0.939-1.213,1.422-1.814
			c0.417,0.617,1.018,1.179,1.222,1.86c2.916,9.709,6.016,19.371,8.583,29.173c2.44,9.315,4.375,18.766,6.405,28.185
			c1.537,7.128,2.9,14.295,4.271,21.458c0.182,0.95,0.309,2.199-0.146,2.936c-3.25,5.268-6.693,10.416-9.995,15.653
			c-1.158,1.837-2.07,3.826-3.138,5.723c-0.334,0.594-0.811,1.108-1.221,1.66c0.053-0.711-0.01-1.454,0.179-2.127
			c0.947-3.37,2.628-6.683,2.822-10.086c0.53-9.288,0.467-18.611,0.587-27.92c0.059-4.556,0.417-9.167-0.16-13.648
			c-0.333-2.585-2.498-4.879-3.425-7.454c-1.781-4.945-3.258-10-4.893-14.998c-0.143-0.437-0.516-0.799-0.782-1.195
			c-0.404,0.441-1.17,0.896-1.153,1.321c0.095,2.475,0.167,4.981,0.631,7.404c1.239,6.46,3.306,12.835,3.794,19.338
			c0.296,3.952-1.787,8.064-2.684,12.131c-0.632,2.861-1.031,5.773-1.617,8.646c-0.13,0.639-0.609,1.205-0.928,1.806
			c-0.554-0.502-1.425-0.907-1.614-1.521c-2.411-7.837-4.71-15.709-7.085-23.559c-0.196-0.646-0.732-1.19-1.11-1.782
			c-0.493,0.705-1.46,1.46-1.393,2.107c0.271,2.597,0.783,5.178,1.353,7.732c2.007,8.996,4.229,17.946,6.082,26.974
			c2.339,11.403-1.819,22.346-2.786,33.519c-0.216,2.501-0.722,4.977-1.123,7.46c-0.083,0.519-0.292,1.018-0.442,1.525
			c-0.546-0.249-1.285-0.354-1.601-0.774c-0.979-1.307-2.021-2.64-2.642-4.128C300.762,530.16,297.663,515.722,297.136,500.673z"/>
		<path fill-rule="evenodd" clip-rule="evenodd" fill="none" d="M432.479,390.225c1.752,18.531-3.284,36.124-7.212,53.775
			c-1.09,4.892-4.87,9.123-6.58,13.953c-3.92,11.074-11.592,19.795-17.678,29.507c-0.238,0.38-0.791,0.563-1.197,0.837
			c-0.168-0.69-0.512-1.39-0.477-2.07c0.373-7.275,1.338-14.564,1.101-21.815c-0.378-11.576,3.297-21.983,7.735-32.302
			c0.255-0.594,0.525-1.217,0.593-1.848c0.062-0.574-0.145-1.176-0.232-1.766c-0.395,0.431-0.791,0.858-1.182,1.291
			c-0.584,0.647-1.164,1.298-1.746,1.948c-0.003-0.757-0.081-1.523,0.003-2.271c1.124-9.95,4.613-18.824,11.307-26.474
			c2.272-2.596,4.066-5.821,5.322-9.053c2.385-6.136,4.27-12.468,6.242-18.757c0.33-1.052,0.053-2.295,0.056-3.45
			c0.545,1.343,1.333,2.641,1.59,4.037C431.009,380.569,431.708,385.404,432.479,390.225z"/>
		<path fill-rule="evenodd" clip-rule="evenodd" fill="none" d="M282.811,444.461c-0.268,3.118-1.197,6.349-0.686,9.333
			c1.94,11.325-4.704,21.11-5.261,31.905c-0.328,6.344-0.057,12.718-0.09,19.079c-0.003,0.585-0.255,1.169-0.392,1.754
			c-0.286-0.447-0.571-0.895-0.858-1.341c-1.793-2.789-3.439-5.692-5.454-8.312c-0.825-1.072-2.643-1.331-3.657-2.32
			c-1.037-1.012-1.959-2.365-2.391-3.738c-4.458-14.172-1.56-28.3,0.892-42.287c1.388-7.917,4.075-15.627,6.512-23.325
			c0.809-2.553,2.619-4.804,4.11-7.103c0.145-0.222,1.807,0.065,1.874,0.337c2.129,8.569,4.148,17.166,6.184,25.757
			C283.333,444.288,283.072,444.374,282.811,444.461z"/>
		<path fill-rule="evenodd" clip-rule="evenodd" fill="none" d="M385.773,492.631c-0.798,7.983-0.92,16.113-2.613,23.901
			c-1.281,5.895-4.478,11.395-7.002,16.988c-1.057,2.341-2.474,4.545-3.948,6.656c-0.56,0.802-1.742,1.168-2.64,1.732
			c-0.458-0.82-1.322-1.647-1.309-2.459c0.116-6.696,0.399-13.389,0.625-20.083c0.195-5.81,0.372-11.62,0.575-17.43
			c0.157-4.501,0.124-8.779,2.048-13.304c1.732-4.073,0.485-9.325,1.106-13.983c0.616-4.625,1.816-9.186,3.012-13.708
			c0.257-0.973,1.588-1.662,2.424-2.481c0.487,0.928,1.206,1.804,1.426,2.792c1.97,8.862,3.888,17.735,5.726,26.625
			c0.314,1.521,0.178,3.135,0.25,4.706C385.56,492.6,385.667,492.616,385.773,492.631z"/>
		<path fill-rule="evenodd" clip-rule="evenodd" fill="none" d="M345.473,527.934c-0.466,6.304-0.609,13.091-1.541,19.768
			c-1.6,11.462-3.539,22.884-5.663,34.262c-0.688,3.688-2.287,7.229-3.682,10.753c-1.019,2.576-2.504,2.715-4.028,0.258
			c-2.078-3.35-5.011-6.444-6.058-10.085c-1.18-4.103-0.918-8.693-0.853-13.065c0.204-13.611,7.026-24.884,13.215-36.353
			c1.93-3.576,3.957-7.1,5.976-10.627c0.347-0.606,0.875-1.108,1.319-1.658c0.256,0.629,0.634,1.237,0.744,1.89
			C345.146,524.531,345.257,526.01,345.473,527.934z"/>
		<path fill-rule="evenodd" clip-rule="evenodd" fill="none" d="M301.005,386.165c0.428,0.568,0.985,1.08,1.262,1.714
			c2.769,6.323,5.513,12.658,8.188,19.021c0.232,0.552,0.121,1.427-0.157,1.989c-4.465,9.021-9.02,17.998-13.46,27.03
			c-0.885,1.8-1.351,3.803-2.077,5.687c-0.187,0.484-0.626,0.871-0.949,1.303c-0.282-0.437-0.692-0.837-0.827-1.315
			c-0.972-3.443-1.639-6.994-2.877-10.334c-2.097-5.655-4.058-11.452-6.981-16.683c-2.896-5.183-1.441-9.374,1.757-13.08
			c4.419-5.122,9.448-9.72,14.249-14.509C299.488,386.632,300.11,386.545,301.005,386.165z"/>
		<path fill-rule="evenodd" clip-rule="evenodd" fill="none" d="M393.494,449.746c-1.23,11.713-2.451,23.427-3.717,35.136
			c-0.072,0.667-0.517,1.292-0.788,1.937c-0.207-0.606-0.455-1.202-0.614-1.821c-2.604-10.149-5.501-20.239-7.594-30.493
			c-0.571-2.804,1.064-6.174,2.069-9.155c1.227-3.637,2.89-7.125,4.303-10.701c1.175-2.973,2.261-5.981,3.387-8.973
			c0.437,2.744,1.04,5.474,1.273,8.235c0.442,5.251,0.674,10.521,0.993,15.783C393.035,449.711,393.265,449.729,393.494,449.746z"/>
		<path fill-rule="evenodd" clip-rule="evenodd" fill="none" d="M327.538,491.872c0.644,10.178-1.298,20.092-5.711,28.943
			c-3.507,7.034-2.75,14.847-6.084,21.666c-0.185,0.377-0.382,0.748-0.574,1.122c0-0.414-0.025-0.83,0.006-1.242
			c0.399-5.329,0.54-10.695,1.29-15.976c0.719-5.073,2.106-10.049,3.137-15.081c1.852-9.039,3.631-18.093,5.523-27.125
			c0.173-0.827,0.933-1.531,1.42-2.292c0.331,0.838,0.904,1.664,0.948,2.517C327.621,486.904,327.538,489.413,327.538,491.872z"/>
		<path fill-rule="evenodd" clip-rule="evenodd" fill="none" d="M359.559,507.992c-2.066-4.857-3.571-9.655-0.115-14.63
			c1.404-2.021,2.287-4.398,3.512-6.554c0.309-0.544,1.015-0.861,1.539-1.283c0.082,0.586,0.339,1.211,0.218,1.752
			c-0.524,2.34-1.397,4.625-1.691,6.987c-0.353,2.832-0.103,5.737-0.426,8.575c-0.095,0.828-1.378,1.462-1.898,2.316
			c-0.523,0.861-0.776,1.887-1.147,2.84L359.559,507.992z"/>
		<path fill-rule="evenodd" clip-rule="evenodd" fill="none" d="M249.315,382.769c2.648-9.04,5.552-18.969,8.482-28.891
			c0.123-0.415,0.494-0.755,0.75-1.13c-0.024,0.501,0.039,1.027-0.087,1.501c-1.936,7.295-3.925,14.577-5.837,21.878
			c-0.689,2.628-1.176,5.309-1.839,7.944c-0.103,0.409-0.656,0.705-1.001,1.052C249.7,384.702,249.616,384.281,249.315,382.769z"/>
		<path fill-rule="evenodd" clip-rule="evenodd" fill="none" d="M356.95,299.333c-1.163,4.115-2.503,8.879-3.872,13.634
			c-0.057,0.197-0.377,0.319-0.573,0.476c-0.112-0.421-0.367-0.861-0.313-1.26c0.887-6.532,1.808-13.059,2.744-19.583
			c0.04-0.28,0.306-0.527,0.466-0.79c0.121,0.234,0.308,0.456,0.353,0.704C356.119,294.503,356.457,296.497,356.95,299.333z"/>
		<path fill-rule="evenodd" clip-rule="evenodd" fill="none" d="M330.331,540.4c0-0.986-0.13-1.42,0.02-1.708
			c3.112-6.013,6.247-12.014,9.401-18.005c0.771-1.466,1.598-2.903,2.454-4.321c0.303-0.5,0.771-0.9,1.163-1.347
			c-0.005,0.688,0.22,1.489-0.055,2.043c-1.229,2.479-2.576,4.902-3.924,7.32c-2.61,4.683-5.25,9.35-7.879,14.021
			C331.244,538.878,330.958,539.342,330.331,540.4z"/>
		<path fill-rule="evenodd" clip-rule="evenodd" fill="none" d="M378.484,305.271c0,2.856,0.022,5.712-0.023,8.567
			c-0.008,0.463-0.323,0.922-0.497,1.383c-0.278-0.338-0.72-0.639-0.807-1.021c-0.422-1.855-1.121-3.75-1.033-5.598
			c0.188-3.954,0.793-7.889,1.252-11.829c0.04-0.341,0.262-0.662,0.398-0.993c0.103,0.386,0.291,0.771,0.294,1.158
			c0.026,2.777,0.014,5.554,0.014,8.331C378.217,305.27,378.351,305.27,378.484,305.271z"/>
		<path fill-rule="evenodd" clip-rule="evenodd" fill="none" d="M374.677,455.343c-0.073-1.224-0.218-1.674-0.104-2.046
			c1.522-4.997,3.059-9.991,4.649-14.966c0.364-1.138,0.924-2.217,1.446-3.297c0.318-0.658,0.736-1.267,1.109-1.897
			c-0.079,0.703-0.04,1.443-0.255,2.102c-1.938,5.941-3.918,11.869-5.895,17.797C375.456,453.551,375.216,454.043,374.677,455.343z"
			/>
		<path fill-rule="evenodd" clip-rule="evenodd" fill="none" d="M269.963,326.517c-0.985,2.383-1.961,4.769-2.99,7.131
			c-0.05,0.115-0.796,0.12-0.846,0.009c-0.212-0.471-0.547-1.146-0.362-1.493c1.077-2.015,2.279-3.962,3.469-5.916
			c0.093-0.153,0.408-0.171,0.62-0.251C269.89,326.17,269.926,326.343,269.963,326.517z"/>
		<path fill-rule="evenodd" clip-rule="evenodd" fill="none" d="M219.734,355.389c0.182-1.509,0.28-2.328,0.378-3.146
			c0.307,0.801,0.615,1.602,0.917,2.404c0.032,0.084,0.038,0.183,0.038,0.275c0,1.899-0.001,3.797-0.003,5.696
			C220.57,358.674,220.076,356.73,219.734,355.389z"/>
		<path fill-rule="evenodd" clip-rule="evenodd" fill="none" d="M416.377,400.503c-1.035,1.496-2.004,2.919-3.015,4.313
			c-0.089,0.122-0.453,0.045-0.688,0.06c-0.011-0.169-0.095-0.389-0.019-0.5c0.964-1.427,1.946-2.841,2.943-4.246
			c0.087-0.123,0.412-0.244,0.457-0.199C416.205,400.084,416.279,400.313,416.377,400.503z"/>
		<path fill-rule="evenodd" clip-rule="evenodd" fill="none" d="M359.549,507.995c0.332,2.172,0.686,4.341,0.971,6.519
			c0.038,0.291-0.27,0.627-0.417,0.941c-0.102-0.22-0.281-0.437-0.292-0.661c-0.101-2.266-0.173-4.533-0.253-6.802
			C359.559,507.992,359.549,507.995,359.549,507.995z"/>
		<path fill-rule="evenodd" clip-rule="evenodd" fill="none" d="M319.182,305.015c-0.525,1.157-1.062,2.337-1.598,3.517
			c-0.071-0.245-0.267-0.538-0.194-0.725c0.478-1.214,1.013-2.406,1.53-3.605C318.998,304.443,319.075,304.685,319.182,305.015z"/>
		<path fill-rule="evenodd" clip-rule="evenodd" fill="none" d="M329.447,273.947c-0.113-0.873-0.243-1.155-0.155-1.323
			c0.389-0.74,0.841-1.446,1.27-2.165c-0.024,0.346,0.021,0.716-0.087,1.034C330.255,272.14,329.953,272.759,329.447,273.947z"/>
		<path fill-rule="evenodd" clip-rule="evenodd" fill="none" d="M309.911,310.46c0.069,0.425,0.183,0.67,0.125,0.862
			c-0.127,0.416-0.342,0.805-0.521,1.204c-0.049-0.116-0.161-0.249-0.136-0.345C309.515,311.674,309.686,311.175,309.911,310.46z"/>
		<path fill-rule="evenodd" clip-rule="evenodd" fill="none" d="M264.988,339.528c-0.399,0.596-0.688,1.027-0.977,1.459
			c-0.165-0.222-0.51-0.502-0.46-0.655c0.164-0.503,0.469-0.96,0.721-1.436C264.485,339.086,264.7,339.275,264.988,339.528z"/>
		<path fill-rule="evenodd" clip-rule="evenodd" fill="none" d="M419.723,395.38c0-0.828-0.065-1.06,0.012-1.226
			c0.224-0.479,0.504-0.933,0.762-1.397c0.101,0.245,0.34,0.541,0.272,0.724C420.595,393.96,420.285,394.39,419.723,395.38z"/>
		<path fill-rule="evenodd" clip-rule="evenodd" fill="none" d="M485.966,377.292c-0.275,0.458-0.483,0.803-0.691,1.148
			c-0.113-0.197-0.348-0.42-0.313-0.586c0.067-0.329,0.285-0.626,0.44-0.937C485.566,377.027,485.729,377.135,485.966,377.292z"/>
		<path fill-rule="evenodd" clip-rule="evenodd" fill="none" d="M220.071,348.375c-0.16,0.368-0.287,0.659-0.413,0.949
			c-0.145-0.508-0.313-1.011-0.423-1.525c-0.048-0.223,0.021-0.472,0.038-0.708C219.529,347.503,219.785,347.916,220.071,348.375z"
			/>
		<path fill-rule="evenodd" clip-rule="evenodd" fill="none" d="M323.308,275.664c-0.026-0.467-0.115-0.73-0.031-0.914
			c0.099-0.218,0.347-0.369,0.53-0.549c0.047,0.244,0.174,0.508,0.119,0.726C323.873,275.135,323.631,275.295,323.308,275.664z"/>
		<path fill-rule="evenodd" clip-rule="evenodd" fill="none" d="M249.087,375.598c-0.063-0.403-0.177-0.677-0.119-0.907
			c0.046-0.182,0.305-0.309,0.469-0.461c0.093,0.234,0.292,0.489,0.249,0.695C249.641,375.138,249.364,375.304,249.087,375.598z"/>
	</g>
</g>
</svg>
