<?xml version="1.0" encoding="utf-8"?>
<!-- Generator: Adobe Illustrator 16.0.0, SVG Export Plug-In . SVG Version: 6.00 Build 0)  -->
<!DOCTYPE svg PUBLIC "-//W3C//DTD SVG 1.1//EN" "http://www.w3.org/Graphics/SVG/1.1/DTD/svg11.dtd">
<svg version="1.1" id="Layer_1" xmlns="http://www.w3.org/2000/svg" xmlns:xlink="http://www.w3.org/1999/xlink" x="0px" y="0px"
	 width="700px" height="1000px" viewBox="0 0 700 1000" enable-background="new 0 0 700 1000" xml:space="preserve">
<g>
	<path fill-rule="evenodd" clip-rule="evenodd" fill="none" d="M130.875,570.761c0-161.454,0.004-322.908-0.048-484.362
		c-0.001-1.922,0.423-2.346,2.345-2.345c140.579,0.05,286.285,0.056,443.021,0c1.922-0.001,2.345,0.423,2.345,2.345
		c-0.054,345.751-0.046,668.112,0,968.724c0,1.922-0.423,2.346-2.345,2.346c-147.674-0.054-295.347-0.054-443.021,0
		c-1.922,0-2.346-0.424-2.345-2.346C130.879,893.669,130.875,732.215,130.875,570.761z M195.245,175.654
		c-1.239,0.287-3.371,0.277-3.579,0.905c-2.319,6.994-4.642,14.014-6.37,21.169c-2.324,9.622-2.987,19.407-1.052,29.235
		c0.068,0.343-0.097,0.732-0.153,1.1c-0.333-0.225-0.841-0.376-0.97-0.686c-0.744-1.787-1.496-3.581-2.064-5.429
		c-1.516-4.926-2.882-9.898-4.465-14.802c-0.217-0.671-1.336-1.051-2.037-1.565c-0.043,0.746-0.268,1.536-0.099,2.23
		c0.858,3.532,1.856,7.03,2.708,10.563c0.148,0.616-0.17,1.345-0.273,2.021c-0.507-0.389-1.266-0.671-1.483-1.183
		c-2.474-5.818-5.376-11.523-7.121-17.56c-1.498-5.185-1.838-10.742-2.352-16.167c-0.957-10.11-1.793-20.237-2.402-30.373
		c-0.179-2.983,1.215-6.116,0.789-9.019c-1.471-10.007-3.42-19.943-5.223-29.9c-0.089-0.492-0.504-0.925-0.768-1.386
		c-0.208,0.468-0.621,0.948-0.593,1.401c0.171,2.761,0.487,5.513,0.669,8.273c0.326,4.958,0.598,9.919,0.881,14.88
		c0.603,10.554,1.205,21.107,1.769,31.664c0.021,0.392-0.32,0.833-0.563,1.205c-0.647,0.985-2.017,2.04-1.898,2.901
		c1.228,8.877,2.268,17.817,4.237,26.542c1.417,6.28,3.868,12.385,6.396,18.34c2.59,6.104,5.768,11.964,8.821,17.863
		c1.805,3.486,4.22,6.692,5.723,10.29c1.813,4.341,2.936,8.968,4.382,13.464c1.886,5.864,4.422,11.604,5.525,17.61
		c1.171,6.382,0.905,13.02,1.424,19.533c0.876,10.991,1.364,22.047,2.973,32.935c1.524,10.322,4.127,20.498,6.534,30.672
		c2.182,9.224,4.573,18.408,7.232,27.504c0.769,2.631,3.401,4.731,4.115,7.363c2.728,10.062,6.687,19.61,12.17,28.386
		c5.847,9.356,12.547,18.174,18.619,27.396c4.431,6.728,8.284,13.836,12.709,20.567c2.627,3.996,5.714,7.721,8.862,11.334
		c5.765,6.619,10.708,13.702,13.263,22.189c2.553,8.479,4.949,17.006,7.348,25.531c0.334,1.188,0.152,2.519,0.445,3.726
		c1.624,6.674,3.914,13.249,4.835,20.014c1.026,7.533,0.675,15.245,1.233,22.855c0.256,3.491,1.533,6.902,1.839,10.395
		c0.328,3.733-0.421,7.592,0.129,11.271c2.627,17.563-1.102,35.373,3.031,53.028c2.235,9.548,1.181,19.931,1.093,29.933
		c-0.053,6.055-1.607,12.104-1.565,18.149c0.056,8.016,1.193,16.017,1.536,24.037c0.416,9.738,0.913,19.504,0.601,29.232
		c-0.381,11.892-1.667,23.751-2.369,35.636c-0.538,9.121-0.868,18.258-1.123,27.392c-0.303,10.83-0.461,21.665-0.614,32.499
		c-0.109,7.742,0.057,15.49-0.189,23.227c-0.456,14.365-1.338,28.72-1.64,43.086c-0.271,12.89,0.061,25.79,0.008,38.685
		c-0.046,11.1-0.254,22.198-0.422,33.297c-0.007,0.448-0.402,0.878-0.507,1.342c-0.332,1.46-1.165,3.084-0.809,4.369
		c1.079,3.896,0.988,7.468-1.135,10.997c-0.217,0.361,0.667,2.004,1.073,2.016c1.832,0.056,3.675-0.271,5.516-0.441
		c12.907-1.187,25.819-2.327,38.713-3.641c0.893-0.091,2.382-1.471,2.368-2.228c-0.183-9.639-0.487-19.278-0.997-28.905
		c-0.181-3.415-1.346-6.783-1.468-10.194c-0.48-13.41-0.781-26.827-1.038-40.244c-0.221-11.565-0.525-23.139-0.352-34.701
		c0.127-8.501,1.068-16.985,1.449-25.486c0.229-5.116,0.896-10.408-0.065-15.343c-2.113-10.853-2.558-21.643-1.09-32.536
		c0.437-3.238,1.866-6.398,1.948-9.618c0.167-6.602-0.568-13.229-0.375-19.829c0.185-6.311,1.458-12.594,1.578-18.901
		c0.275-14.452,0.014-28.914,0.208-43.369c0.16-11.895,0.722-23.784,0.989-35.679c0.21-9.356,0.418-18.72,0.301-28.076
		c-0.109-8.743-0.841-17.479-0.941-26.221c-0.088-7.733-0.56-15.619,0.709-23.174c1.889-11.247,5.033-22.296,7.914-33.357
		c0.971-3.725,3.01-7.161,4.126-10.86c1.383-4.585,2.033-9.396,3.5-13.948c2.522-7.827,4.973-15.735,8.329-23.216
		c2.475-5.514,2.09-12.868,9.023-15.92c0.205-0.091,0.206-0.615,0.329-0.928c3.295-8.417,6.163-17.034,9.996-25.198
		c5.33-11.353,11.064-22.547,17.256-33.452c3.325-5.857,7.938-10.988,12.021-16.409c2.368-3.144,4.79-6.25,7.27-9.306
		c3.451-4.251,7.21-8.272,10.419-12.694c4.544-6.263,8.501-12.954,13.084-19.186c5.885-8.002,12.2-15.687,18.205-23.603
		c2.063-2.719,3.748-5.725,5.597-8.627c0.148-0.287,0.285-0.581,0.446-0.86c0.755-1.308,1.517-2.611,2.276-3.917
		c-0.211-0.074-0.598-0.231-0.607-0.21c-0.712,1.51-1.398,3.032-2.07,4.561c-0.063,0.143-0.024,0.332-0.032,0.499
		c-0.742,0.312-1.705,0.425-2.191,0.966c-3.598,4.003-7.098,8.094-10.637,12.149c-0.28,0.321-0.622,0.588-0.936,0.881
		c0.102-0.388,0.111-0.837,0.321-1.154c2.065-3.115,4.194-6.188,6.246-9.311c2.715-4.131,5.349-8.315,8.072-12.44
		c1.729-2.619,3.49-5.223,5.372-7.733c1.134-1.514,2.688-2.722,3.771-4.265c2.905-4.143,5.651-8.397,8.483-12.592
		c0.259-0.385,0.675-0.664,1.019-0.992c-0.086,0.473-0.236,0.944-0.244,1.418c-0.019,1.017,0.037,2.034,0.063,3.051
		c1.123-0.685,2.647-1.114,3.278-2.111c1.021-1.615,1.422-3.615,2.143-5.429c2.112-5.312,4.247-10.614,6.395-15.912
		c0.185-0.456,0.522-0.849,0.789-1.271c0.257,0.337,0.448,0.85,0.783,0.972c0.586,0.214,1.677,0.458,1.829,0.221
		c0.949-1.474,1.694-3.08,2.512-4.639c1.053-2.004,0.55-5.118,4.15-5.33c0.77-0.045,1.755-1.376,2.128-2.318
		c1.598-4.038,2.808-8.237,4.53-12.217c2.278-5.265,4.645-10.526,7.469-15.509c2.006-3.537-3.351-5.201-1.005-8.56
		c2.133-3.055,3.834-6.428,6.104-9.37c4.916-6.372,0.154,1.087,5.186-5.195c0.245-0.306,0.197-0.845,0.285-1.276
		c-0.379,0.136-0.812,0.196-1.125,0.423c-0.547,0.397-0.984,0.947-1.536,1.336c-0.445,0.314-0.992,0.487-1.494,0.722
		c-0.005-0.494-0.165-1.054,0.011-1.472c1.074-2.553-2.479,2.379-1.057,0.027c1.868-3.089,4.195-5.898,6.235-8.888
		c0.383-0.562,0.347-1.409,0.504-2.125c-0.508,0.439-1.11,0.807-1.508,1.33c-1.486,1.954-2.871,3.985-4.372,5.927
		c-0.432,0.558-1.127,0.911-1.701,1.358c-0.06-0.7-0.362-1.491-0.14-2.084c2.437-6.499,4.969-12.96,7.433-19.449
		c0.332-0.875,0.43-1.84,0.637-2.764c-0.759,0.657-1.527,1.303-2.272,1.975c-0.29,0.261-0.527,0.579-0.789,0.87
		c-0.085-0.208-0.277-0.438-0.24-0.621c0.535-2.621,1.011-5.259,1.692-7.842c0.491-1.863,10.025-4.979,10.102-6.823
		c0.339-8.233,0.102-16.496,0.621-24.713c0.31-4.904,1.784-9.723,2.471-14.617c1.63-11.615,3.117-23.25,4.605-34.883
		c0.104-0.805-0.262-1.67-0.408-2.507c-0.593,0.63-1.54,1.174-1.719,1.906c-1.243,5.085-2.588,10.169-3.402,15.332
		c-1.397,8.847-2.427,17.751-3.627,26.629c-0.083,0.615-0.296,1.212-0.448,1.818c-0.116-0.625-0.361-1.258-0.329-1.876
		c0.527-10.324,9.229-37.636,9.751-47.96c0.029-0.573-0.291-1.164-0.449-1.746c-0.343,0.434-0.896,0.824-0.997,1.308
		c-1.031,4.967-10.32,26.911-11.048,31.926c-0.863,5.941-1.335,11.939-1.989,17.912c-0.045,0.409-0.192,0.807-0.292,1.209
		c-0.298-0.359-0.776-0.679-0.865-1.084c-0.828-3.773-1.466-7.592-2.394-11.34c-2.574-10.409-10.057-18.085-15.202-27.066
		c-3.559-6.21-6.836-12.581-10.24-18.878c-0.399-0.738-0.807-1.473-1.211-2.208c0.003,0.965-0.29,2.057,0.06,2.875
		c1.517,3.55,3.195,7.033,4.862,10.518c2.432,5.082,4.857,10.167,7.374,15.206c1.738,3.482,4.007,6.748,5.362,10.364
		c2.131,5.682,3.699,11.575,5.492,17.382c1.671,5.412,3.978,10.729,4.816,16.269c1.027,6.791,1.343,13.792,1.034,20.659
		c-0.592,13.186-4.063,23.391-9.034,35.843c-0.886,2.219-0.378,5.111-1.545,7.08c-3.495,5.897,0.602-5.518-3.169,0.219
		c-6.983,10.625-5.659,19.928-12.624,30.566c-0.433,0.661-0.902,1.298-1.354,1.947c0.03-0.892,0.053-1.784,0.096-2.675
		c0.009-0.164,0.114-0.32,0.155-0.484c2.125-8.615,4.233-17.234,6.38-25.844c0.799-3.202,0.971-6.857,2.703-9.456
		c2.42-3.63,6.041-6.458,9.13-9.647c0.319-0.331,0.514-0.782,0.767-1.178c-0.516,0.094-1.19,0.01-1.52,0.309
		c-2.266,2.054-4.453,4.195-6.684,6.288c-0.297,0.279-0.697,0.449-1.05,0.669c0.04-0.386-0.014-0.813,0.134-1.152
		c1.282-2.955,2.423-5.991,3.945-8.819c3.357-6.238,0.675-8.111,4.098-14.314c0.396-0.716,0.381-1.658,0.557-2.496
		c-0.629,0.629-1.381,1.177-1.863,1.904c-1.22,1.836-2.308,3.759-3.477,5.629c-0.211,0.338-0.561,0.59-0.847,0.882
		c-0.127-0.433-0.417-0.891-0.354-1.294c0.4-2.59,0.908-5.164,1.306-7.754c0.085-0.552-0.142-1.152-0.224-1.73
		c-0.378,0.505-0.927,0.957-1.105,1.524c-1.835,5.808,3.245,7.663,0.725,13.15c-4.117,8.958-6.375,18.859-12.928,26.634
		c-0.867,1.029-1.858,1.961-2.663,3.035c-9.944,13.276-19.86,26.574-29.794,39.858c-4.133,5.526-8.385,10.966-12.396,16.578
		c-2.116,2.959-3.82,6.212-5.74,9.314c-0.236,0.382-0.66,0.648-0.997,0.968c0.006-0.488-0.132-1.035,0.04-1.455
		c1.25-3.057,2.649-6.054,3.842-9.132c5.551-14.317,10.567-28.864,16.698-42.927c6.473-14.849,13.8-29.345,24.093-42.085
		c1.997-2.471,3.677-5.201,5.438-7.855c0.274-0.414,0.198-1.061,0.283-1.6c-0.588,0.201-1.36,0.231-1.729,0.632
		c-1.203,1.308-2.24,2.767-3.386,4.131c-0.273,0.326-0.719,0.506-1.086,0.753c0.184-0.445,0.269-0.974,0.564-1.323
		c3.162-3.713,6.355-7.379,6.953-12.542c0.111-0.967,0.791-1.86,1.152-2.809c0.99-2.597,2.271-5.135,2.863-7.822
		c2.118-9.609,3.807-19.252,3.06-29.221c-0.208-2.771,1.725-5.647,1.835-8.508c0.258-6.744,0.04-13.509-0.085-20.263
		c-0.011-0.59-0.75-1.168-1.15-1.751c-0.259,0.593-0.703,1.172-0.746,1.78c-0.34,4.785-0.259,9.627-0.966,14.354
		c-1.249,8.346-3.039,16.61-4.423,24.938c-0.295,1.775-1.678,4.368,1.803,5.005c0.1,0.019,0.131,0.901,0.046,1.353
		c-1.955,10.391-5.106,20.315-10.669,29.438c-2.306,3.781-4.934,6.993-8.075,10.195c-4.401,4.485-7.143,10.599-10.619,16
		c-0.246,0.382-0.699,0.631-1.057,0.941c0.029-0.468-0.015-0.956,0.103-1.401c0.45-1.708,1-3.391,1.41-5.107
		c0.15-0.63,0.015-1.329,0.009-1.997c-0.539,0.461-1.324,0.817-1.577,1.402c-1.547,3.579-3.013,7.195-4.432,10.828
		c-1.939,4.967-3.459,10.136-5.82,14.89c-2.099,4.224-5.109,7.993-7.699,11.974c-0.67,1.029-1.273,2.101-1.908,3.153
		c-0.02-1.235-0.156-2.481-0.04-3.703c0.837-8.827,1.734-17.648,2.576-26.474c0.06-0.631-0.168-1.291-0.262-1.937
		c-0.22,0.589-0.362,1.223-0.679,1.755c-0.371,0.625-0.894,1.161-1.351,1.735c-0.151-0.664-0.488-1.345-0.426-1.988
		c0.517-5.379,1.122-10.75,1.647-16.128c0.046-0.471-0.289-0.98-0.447-1.471c-0.29,0.446-0.763,0.864-0.837,1.344
		c-0.256,1.672-0.336,3.371-0.569,5.048c-0.064,0.463-0.399,0.904-0.686,1.302c-0.038,0.053-0.725-0.167-0.767-0.342
		c-0.441-1.851-1.489-3.89-1.068-5.546c1.077-4.239,1.98-8.308,4.761-12.327c4.717-6.819,7.523-14.969,11.026-22.607
		c0.565-1.233,0.583-2.717,0.854-4.084c-0.818,1.096-1.821,2.1-2.425,3.303c-3.642,7.265-7.174,14.583-10.798,21.857
		c-0.344,0.691-1.062,1.196-1.605,1.788c0.004-0.911-0.235-1.908,0.054-2.717c1.72-4.813,3.607-9.566,5.354-14.371
		c4.478-12.325,8.422-24.834,15.69-35.998c3.339-5.129,5.633-10.938,8.421-16.429c0.22-0.431,0.594-0.784,0.896-1.174
		c0.07,0.378,0.088,0.776,0.223,1.129c0.224,0.586,0.522,1.143,0.789,1.712c0.427-0.474,1.068-0.88,1.242-1.433
		c1.014-3.214,2.097-6.423,2.815-9.708c1.152-5.27,2.058-10.594,3.008-15.905c0.089-0.493-0.243-1.062-0.381-1.596
		c-0.494,0.368-1.183,0.636-1.438,1.128c-0.379,0.729-0.395,1.637-0.663,2.436c-1.978,5.892-3.507,11.995-6.117,17.593
		c-2.236,4.794-6.334,8.725-8.533,13.53c-6.671,14.573-12.819,29.386-19.181,44.102c-0.187,0.432-0.484,0.816-0.729,1.223
		c-0.076-0.532-0.291-1.088-0.206-1.593c0.873-5.184,1.822-10.354,2.674-15.541c0.12-0.727-0.167-1.52-0.266-2.283
		c-0.795,0.356-1.739,0.555-2.34,1.119c-0.495,0.464-0.73,1.342-0.829,2.071c-1.463,10.837-2.877,21.682-4.333,32.52
		c-0.112,0.844-0.451,1.658-0.685,2.485c-0.431-0.69-1.209-1.368-1.232-2.072c-0.12-3.584-0.063-7.174-0.034-10.763
		c0.034-4.326,0.079-8.652,0.16-12.977c0.166-8.901,0.354-17.797,3.41-26.33c2.442-6.822,4.838-13.662,7.227-20.503
		c0.181-0.516,0.14-1.109,0.201-1.667c-0.328,0.354-0.66,0.706-0.985,1.063c-0.424,0.464-0.843,0.933-1.264,1.4
		c0.012-0.65-0.084-1.326,0.056-1.947c0.521-2.316,1.051-4.634,1.701-6.916c1.508-5.295,3.162-10.551,4.578-15.87
		c0.305-1.146-0.147-2.493-0.251-3.747c-0.677,0.96-1.437,1.873-2.018,2.887c-3.214,5.615-4.456,11.987-7.57,17.828
		c-4.487,8.411-6.563,18.255-8.755,27.7c-1.899,8.181-2.52,16.658-3.738,25c-0.079,0.54-0.441,1.038-0.672,1.556
		c-0.397-0.48-0.949-0.899-1.17-1.45c-1.913-4.783-3.087-9.317-1.973-14.889c1.608-8.041,1.979-16.459,1.766-24.687
		c-0.139-5.329,0.286-11.165-3.415-15.955c-0.655-0.849-0.904-2.24-0.862-3.363c0.262-7.006,0.702-14.005,0.961-21.011
		c0.035-0.948-0.619-1.921-0.954-2.883c-0.587,0.885-1.599,1.726-1.694,2.662c-0.898,8.742-1.667,17.498-2.416,26.255
		c-0.458,5.37,0.35,10.536,2.892,15.346c0.219,0.412,1.03,0.991,1.132,0.915c2.268-1.707,1.55,0.615,1.491,1.234
		c-0.678,7.258-1.452,14.507-2.219,21.757c-0.026,0.253-0.241,0.487-0.369,0.73c-0.129-0.208-0.317-0.4-0.378-0.626
		c-0.869-3.254-1.871-6.482-2.543-9.778c-1.146-5.626-2.005-11.311-3.189-16.929c-0.172-0.814-1.475-1.39-2.254-2.077
		c-0.571,0.76-1.606,1.509-1.624,2.281c-0.044,1.97,0.204,3.985,0.625,5.919c0.937,4.294,2.069,8.546,3.066,12.828
		c0.122,0.522-0.092,1.123-0.15,1.686c-0.492-0.408-1.299-0.737-1.424-1.237c-0.545-2.175-0.924-4.395-1.306-6.608
		c-1.419-8.223-2.798-16.452-4.256-24.667c-0.107-0.605-0.721-1.121-1.1-1.678c-0.436,0.45-1.216,0.875-1.249,1.353
		c-0.175,2.48-0.067,4.979-0.231,7.46c-0.244,3.674-5.952-7.897-5.913-4.233c0.04,3.797,0.679,7.593,1.162,11.376
		c0.053,0.415,0.808,0.739,1.237,1.105c0.191-0.513,0.54-1.023,0.546-1.538c0.021-1.741-0.08-3.483-0.134-5.225
		c0.419,1.894,5.875,19.023,6.286,20.918c0.144,0.662,0.383,1.334,0.361,1.995c-0.27,8.24,2.114,15.818,5.475,23.219
		c0.95,2.094,1.97,4.63,1.628,6.749c-1.102,6.825-2.71,13.577-4.351,20.302c-0.942,3.859-1.977,7.77-3.613,11.363
		c-1.521,3.34,0.348,8.405-4.827,9.969c-0.105,0.032-0.18,0.487-0.119,0.704c1.036,3.703-1.715,5.71-3.719,7.898
		c-5.428,5.92-11.011,11.699-16.55,17.517c-0.32,0.337-0.803,0.521-1.21,0.776c-0.181-0.503-0.579-1.038-0.511-1.505
		c1.683-11.505,3.158-23.051,5.235-34.486c1.296-7.134,3.532-14.096,5.278-21.152c0.118-0.478-0.346-1.101-0.539-1.656
		c-0.575,0.315-1.338,0.497-1.678,0.979c-0.415,0.587-0.496,1.421-0.687,2.157c-2.306,8.956-4.733,17.884-6.872,26.88
		c-2.233,9.399-5.872,18.552-5.073,28.523c0.157,1.964-0.431,3.999-0.77,5.984c-0.075,0.436-0.554,0.802-0.846,1.201
		c-0.305-0.377-0.728-0.707-0.896-1.137c-2.081-5.275-5.002-10.426-5.874-15.9c-0.592-3.718,1.697-7.897,2.71-11.867
		c2.652-10.392,9.385-19.389,10.017-30.548c0.258-4.557,2.39-8.976,3.088-13.546c1.157-7.579,1.897-15.224,2.655-22.857
		c0.087-0.877-0.87-1.841-1.284-2.791c-0.269-0.617-0.685-1.318-0.594-1.915c0.262-1.71,0.91-3.368,1.094-5.08
		c0.161-1.491-0.284-3.044-0.15-4.542c0.698-7.828-0.737-15.324-3.635-22.526c-1.847-4.592-5.787-5.546-8.438-2.267
		c-1.646,2.035-3.148,4.197-4.581,6.391c-3.199,4.897-6.306,9.855-9.478,14.771c-0.254,0.394-0.722,0.651-1.09,0.971
		c-0.003-0.221-0.048-0.451-0.002-0.661c1.948-8.995,3.433-18.126,6.01-26.937c2.027-6.929,5.371-13.478,8.197-20.167
		c1.175-2.782,2.617-5.454,3.733-8.256c0.314-0.79-0.092-1.866-0.168-2.811c-0.942,0.609-2.244,0.997-2.773,1.859
		c-9.256,15.068-14.758,31.434-16.836,48.992c-0.398,3.363-1.25,6.677-2.009,9.987c-0.119,0.518-0.858,0.894-1.312,1.336
		c-0.077-0.351-0.278-0.725-0.214-1.047c1.094-5.484,2.059-11.001,3.375-16.432c2.076-8.557,4.057-17.086,2.794-25.997
		c-0.223-1.57-0.238-3.186-0.186-4.775c0.2-6.093,0.482-12.184,0.682-18.278c0.018-0.521-0.352-1.054-0.541-1.582
		c-0.346,0.499-0.937,0.969-0.999,1.501c-1.033,8.758-2.181,17.509-2.899,26.294c-0.333,4.065,1.121,8.432,0.164,12.262
		c-2.904,11.628-6.295,23.16-10.109,34.523c-1.681,5.006-4.833,9.519-7.345,14.242c-0.204,0.385-0.68,0.975-0.932,0.93
		c-1.68-0.304-1.64-0.338-2.322,1.249c-3.234,7.517-6.696,14.943-9.682,22.557c-4.219,10.757-8.088,21.652-12.123,32.482
		c-0.177,0.477-0.506,0.897-0.765,1.344c-0.104-0.482-0.349-0.984-0.288-1.444c0.309-2.336,0.772-4.654,1.02-6.995
		c0.099-0.936-0.217-1.915-0.344-2.875c-0.77,0.753-1.699,1.405-2.258,2.292c-0.421,0.668-0.5,1.634-0.504,2.469
		c-0.026,5.858-0.139,11.721,0.06,17.573c0.213,6.265,0.739,12.519,1.12,18.778c0.021,0.352-0.027,0.708-0.043,1.063
		c-0.186-0.269-0.409-0.518-0.551-0.808c-1.448-2.957-3.185-5.815-4.247-8.906c-1.493-4.339-3.028-8.59-1.518-13.553
		c1.939-6.371,2.974-13.021,4.316-19.568c0.355-1.732,0.297-3.548,0.625-5.289c1.435-7.628,2.832-15.266,4.469-22.852
		c0.836-3.877-0.917-8.75,3.985-11.23c0.279-0.142,0.424-0.726,0.471-1.123c1.717-14.665,6.166-28.426,13.498-41.258
		c0.528-0.924,0.622-2.096,0.918-3.153c-1.1,0.754-2.222,1.479-3.285,2.281c-0.315,0.238-0.457,0.703-0.688,1.057
		c-5.678,8.706-8.513,18.586-11.708,28.318c-0.267,0.811-0.696,1.568-1.05,2.351c-0.466-0.913-1.213-1.787-1.346-2.747
		c-0.479-3.443-0.687-6.924-1.163-10.369c-0.085-0.618-0.96-1.127-1.471-1.687c-0.305,0.527-0.941,1.108-0.866,1.574
		c1.504,9.314,1.274,18.453-1.099,27.701c-2.077,8.095-3.134,16.453-4.614,24.7c-0.943,5.258-1.74,10.545-2.835,15.771
		c-0.214,1.02-1.5,1.815-2.291,2.714c-0.306-0.683-0.547-1.405-0.938-2.035c-0.262-0.422-0.736-0.712-1.115-1.062
		c-0.36,0.583-0.749,1.151-1.07,1.755c-0.209,0.395-0.32,0.841-0.476,1.264c-0.205-0.333-0.549-0.648-0.594-1.001
		c-0.84-6.518-2.39-13.049-2.306-19.559c0.19-14.742,1.453-29.468,1.758-44.212c0.173-8.395,1.933-16.277,5.198-23.881
		c3.835-8.93,7.887-17.767,11.752-26.684c0.316-0.73-0.085-1.771-0.153-2.668c-0.771,0.49-1.917,0.799-2.256,1.499
		c-4.05,8.362-7.969,16.787-11.963,25.176c-0.33,0.694-0.954,1.248-1.442,1.868c-0.158-0.708-0.499-1.432-0.443-2.123
		c0.453-5.646,1.008-11.284,1.455-16.93c0.066-0.839-0.273-1.71-0.425-2.567c-0.506,0.282-1.058,0.506-1.503,0.864
		c-0.303,0.243-0.456,0.672-0.676,1.018c-0.096-0.446-0.247-0.887-0.28-1.338c-0.785-10.643-1.544-21.289-2.377-31.928
		c-0.039-0.493-0.726-0.935-1.11-1.401c-0.386,0.388-1.102,0.768-1.111,1.165c-0.189,8.146-0.659,16.308-0.32,24.436
		c0.331,7.936,2.226,15.844,2.143,23.751c-0.132,12.677-1.329,25.343-2.08,38.013c-0.018,0.305-0.083,0.606-0.126,0.909
		c-0.157-0.261-0.435-0.513-0.453-0.783c-0.141-2.103-0.112-4.226-0.399-6.307c-0.112-0.814-0.901-1.535-1.382-2.298
		c-0.41,0.746-1.163,1.485-1.179,2.239c-0.231,11.076-0.47,22.155-0.462,33.232c0.003,3.944,0.667,7.887,1.011,11.833
		c0.043,0.501-0.019,1.012-0.032,1.519c-0.275-0.389-0.649-0.74-0.81-1.171c-1.624-4.353-3.368-8.67-4.771-13.094
		c-1.603-5.057-3.566-10.125-1.022-15.558c0.556-1.186,0.344-2.816,0.179-4.206c-0.055-0.464-1.032-1.033-1.652-1.125
		c-0.314-0.047-0.982,0.8-1.132,1.341c-2.396,8.664-5.215,17.25-6.917,26.052c-1.126,5.825-5.818,9.146-7.895,14.191
		c-1.978,4.805-4.718,9.193-8.417,13.016c-1.438,1.485-1.833,3.961-2.775,5.951c-0.459,0.969-1.087,1.858-1.639,2.784
		c-0.251-1.097-0.819-2.229-0.706-3.287c1.046-9.735,2.181-19.461,3.372-29.18c0.167-1.369,0.595-2.776,1.223-4.001
		c0.782-1.526,2.918-3.066,2.699-4.281c-1.262-7.013,0.639-13.542,2.371-20.117c1.541-5.849,3.258-11.651,4.871-17.481
		c0.412-1.487,0.723-3.003,1.08-4.505c-1.25,1.148-2.958,2.067-3.667,3.486c-2.411,4.819-4.466,9.815-6.665,14.741
		c-0.164,0.366-0.386,0.707-0.582,1.059c-0.243-0.441-0.613-0.856-0.709-1.327c-0.542-2.66-0.852-5.379-1.57-7.988
		c-0.605-2.199,0.118-5.458-3.716-5.666c-0.144-0.008-0.329-1.131-0.324-1.733c0.045-5.519,1.936-10.287,4.448-15.286
		c4.079-8.114,6.849-16.906,9.886-25.512c0.939-2.661,1.011-5.642,1.335-8.492c0.057-0.496-0.608-1.074-0.94-1.614
		c-0.207,0.503-0.577,1.001-0.595,1.511c-0.27,7.509-5.225,13.091-8.023,19.556c-0.134,0.31-0.783,0.737-0.913,0.657
		c-2.889-1.785-3.354-1.651-4.015,1.754c-1.652,8.514-3.214,17.046-4.816,25.57c-0.092,0.486-0.221,0.965-0.332,1.448
		c-0.262-0.471-0.578-0.919-0.777-1.416c-3.557-8.845-6.7-17.883-10.744-26.498c-5.251-11.188-6.538-22.996-6.885-35.034
		c-0.219-7.596-0.061-15.203-0.157-22.804c-0.009-0.712-0.631-1.417-0.969-2.124c-0.359,0.601-0.997,1.185-1.033,1.804
		c-0.367,6.371-0.915,12.751-0.842,19.122c0.054,4.781,0.648,9.606,1.512,14.318c2.178,11.886,4.547,23.741,7.055,35.562
		c0.749,3.53,1.991,7.002,3.406,10.331c1.202,2.826,3.454,5.248,4.423,8.124c5.166,15.33,6.425,30.945,2.86,46.856
		c-0.85,3.794-1.616,7.676-1.75,11.541c-0.127,3.661,0.774,7.345,0.959,11.032c0.361,7.2,0.921,14.424,0.643,21.609
		c-0.157,4.052-1.458,8.181-2.893,12.034c-1.872,5.027-5.332,9.609-6.446,14.744c-3.279,15.111-7.042,30.22-7.157,45.819
		c-0.062,8.373,0.372,16.754,0.761,25.124c0.283,6.09,0.863,12.167,1.292,18.251c0.027,0.394-0.105,0.799-0.163,1.198
		c-0.188-0.105-0.501-0.175-0.543-0.322c-0.714-2.491-1.61-4.955-2.039-7.497c-1.025-6.071-1.639-12.215-2.772-18.264
		c-1.039-5.545-3.396-10.816-4.878-16.136c-2.858-10.264-3.409-21.162-5.029-31.78c-1.111-7.28,0.534-13.748,4.675-19.843
		c1.941-2.858,3.073-6.272,4.498-9.467c0.186-0.416-0.066-1.028-0.116-1.549c-0.317,0.352-0.698,0.664-0.939,1.061
		c-1.265,2.079-2.382,4.257-3.769,6.249c-1.274,1.83-2.825,3.466-4.253,5.188c-0.171-2.395-0.668-4.819-0.45-7.178
		c0.617-6.658,1.609-13.28,2.305-19.933c1.292-12.354,2.388-24.73,3.751-37.077c0.64-5.797,1.566-11.573,2.629-17.309
		c0.845-4.561,2.16-9.033,3.112-13.576c0.2-0.954-0.273-2.05-0.436-3.08c-1.362,0.378-3.419,0.352-3.929,1.226
		c-0.816,1.401-0.483,3.426-0.86,5.139c-0.59,2.681-1.291,5.345-2.112,7.964c-0.25,0.799-1.436,1.374-1.538,2.139
		c-1.35,10.119-2.575,20.254-3.868,30.381c-0.067,0.524-0.467,1.006-0.711,1.508c-0.2-0.531-0.528-1.051-0.576-1.595
		c-0.186-2.107-0.252-4.226-0.432-6.334c-0.043-0.507-0.35-0.992-0.535-1.486c-0.125,0.537-0.323,1.067-0.363,1.61
		c-0.368,4.974-0.69,9.951-1.078,14.923c-0.052,0.664-0.393,1.305-0.6,1.957c-0.239-0.705-0.636-1.398-0.693-2.118
		c-0.627-7.915-1.257-15.831-1.766-23.755c-0.261-4.064-0.862-8.232-0.269-12.197c0.882-5.895,2.694-11.65,4.084-17.471
		c0.086-0.363-0.054-0.78-0.089-1.171c-0.278,0.28-0.685,0.511-0.814,0.849c-1.337,3.473-2.62,6.966-3.947,10.442
		c-0.165,0.431-0.502,0.796-0.76,1.192c-0.152-0.441-0.389-0.873-0.441-1.325c-0.288-2.522-0.554-5.047-0.785-7.575
		c-0.949-10.369-1.842-20.743-2.843-31.107c-0.332-3.429-0.891-6.838-1.442-10.24c-0.07-0.432-0.726-0.769-1.111-1.15
		c-0.247,0.29-0.689,0.565-0.712,0.872c-0.345,4.59-0.591,9.188-0.971,13.776c-0.079,0.95-0.608,1.862-0.93,2.792
		c-0.121-0.833-0.213-1.671-0.37-2.497c-0.127-0.665-0.333-1.314-0.503-1.97c-0.288,0.655-0.868,1.332-0.819,1.961
		c0.698,9.107,1.177,18.247,2.345,27.297c0.835,6.474,2.733,12.804,3.952,19.237c1.499,7.917-3.08,14.765-4.191,22.235
		c-0.03,0.2-0.292,0.364-0.445,0.545c-0.228-0.304-0.574-0.576-0.665-0.916c-0.693-2.594-1.655-5.168-1.941-7.812
		c-1.24-11.46-2.396-22.933-3.311-34.422c-0.233-2.934,0.354-5.893,0.995-8.914c1.299-6.124-0.085-12.786-0.078-19.226
		c0.005-3.573-0.085-7.403,1.147-10.627c0.811-2.121,2.256-3.877,2.646-6.478c2.071-13.811,6.779-26.874,12.017-39.76
		c0.89-2.189,1.648-4.449,2.232-6.736c0.218-0.855-0.233-1.882-0.38-2.831c-0.503,0.634-1.15,1.2-1.485,1.914
		c-2.077,4.421-4.174,8.837-6.063,13.339c-0.655,1.561-0.493,3.458-1.119,5.037c-2.767,6.974-6.123,13.747-8.424,20.864
		c-2.293,7.093-4.206,14.433-5.126,21.809c-0.825,6.613-0.065,13.423-0.033,20.146c0.002,0.513-0.223,1.027-0.343,1.541
		c-0.31-0.388-0.757-0.729-0.91-1.172c-2.479-7.182-5.334-14.267-7.281-21.593c-3.637-13.688-5.749-27.643-5.469-41.879
		c0.011-0.553-0.429-1.115-0.659-1.672c-0.356,0.499-1.032,1.005-1.022,1.497c0.137,6.846,0.034,13.722,0.672,20.527
		c0.625,6.679,1.756,13.344,3.184,19.902c0.949,4.362,2.81,8.526,4.262,12.779L195.245,175.654z M211.017,163.836
		c0,1.107-0.077,1.631,0.019,2.12c0.128,0.656,0.39,1.287,0.594,1.929c0.166-0.607,0.418-1.206,0.481-1.824
		c0.194-1.92,0.385-3.845,0.434-5.772c0.021-0.811-0.318-1.63-0.493-2.445c-0.193,0.768-0.446,1.527-0.567,2.307
		C211.263,161.568,211.12,162.999,211.017,163.836z M464.78,245.375c0.311-0.766,0.514-1.025,0.488-1.26
		c-0.043-0.403-0.229-0.791-0.354-1.186c-0.168,0.261-0.449,0.512-0.475,0.787C464.405,244.073,464.574,244.448,464.78,245.375z"/>
	<path fill-rule="evenodd" clip-rule="evenodd" d="M468.91,362.578c-0.013,0.02-0.024,0.04-0.037,0.059
		c0.013-0.005,0.027-0.009,0.04-0.014L468.91,362.578z"/>
	<path fill-rule="evenodd" clip-rule="evenodd" d="M465.018,279.162c-0.093,0.187-0.187,0.374-0.279,0.561
		c0.012,0.046,0.028,0.093,0.043,0.14c0.006-0.018,0.012-0.036,0.018-0.054C464.872,279.593,464.944,279.377,465.018,279.162z"/>
	<path fill-rule="evenodd" clip-rule="evenodd" d="M545.625,210.5c-0.085-0.208-2.092,1.176-2.055,0.993
		c0.535-2.621,0.597-1.188,1.367-2.493c0.549-0.93,0.193-0.596,0.27-2.441c0.339-8.233,0.102-16.496,0.621-24.713
		c0.31-4.904,1.784-9.723,2.471-14.617c1.63-11.615,1.307-11.314,2.795-22.948c0.104-0.805,3.928-12.986,3.781-13.823
		c-0.593,0.63-3.904,6.087-4.083,6.819c-1.243,5.085-2.603,4.636-3.417,9.798c-1.397,8.847-2.427,17.751-3.627,26.629
		c-0.083,0.615-0.296,1.212-0.448,1.818c-0.116-0.625-0.361-1.258-0.329-1.876c0.527-10.324,9.229-37.636,9.751-47.96
		c0.029-0.573-0.291-1.164-0.449-1.746c-0.343,0.434-0.896,0.824-0.997,1.308c-1.031,4.967-10.32,26.911-11.048,31.926
		c-0.863,5.941-1.335,11.939-1.989,17.912c-0.045,0.409-0.192,0.807-0.292,1.209c-0.298-0.359-0.776-0.679-0.865-1.084
		c-0.828-3.773-1.466-7.592-2.394-11.34c-2.574-10.409-10.057-18.085-15.202-27.066c-3.559-6.21-6.836-12.581-10.24-18.878
		c-0.399-0.738-0.807-1.473-1.211-2.208c0.003,0.965-0.29,2.057,0.06,2.875c1.517,3.55,3.195,7.033,4.862,10.518
		c2.432,5.082,4.857,10.167,7.374,15.206c1.738,3.482,4.007,6.748,5.362,10.364c2.131,5.682,3.699,11.575,5.492,17.382
		c1.671,5.412,3.978,10.729,4.816,16.269c1.027,6.791,1.343,13.792,1.034,20.659c-0.592,13.186-4.063,23.391-9.034,35.843
		c-0.886,2.219-0.378,5.111-1.545,7.08c-3.495,5.897,0.602-5.518-3.169,0.219c-6.983,10.625-5.659,19.928-12.624,30.566
		c-0.433,0.661-0.902,1.298-1.354,1.947c0.03-0.892,0.053-1.784,0.096-2.675c0.009-0.164,0.114-0.32,0.155-0.484
		c2.125-8.615,4.233-17.234,6.38-25.844c0.799-3.202,0.971-6.857,2.703-9.456c2.42-3.63,6.041-6.458,9.13-9.647
		c0.319-0.331,0.514-0.782,0.767-1.178c-0.516,0.094-1.19,0.01-1.52,0.309c-2.266,2.054-4.453,4.195-6.684,6.288
		c-0.297,0.279-0.697,0.449-1.05,0.669c0.04-0.386-0.014-0.813,0.134-1.152c1.282-2.955,2.423-5.991,3.945-8.819
		c3.357-6.238,0.675-8.111,4.098-14.314c0.396-0.716,0.381-1.658,0.557-2.496c-0.629,0.629-1.381,1.177-1.863,1.904
		c-1.22,1.836,0.106-0.026-1.063,1.844c-0.211,0.338-0.32,0.52-0.606,0.812c-0.127-0.433-0.899-0.245-1.05-0.624
		c-0.297-0.75-1.051-1.979-0.653-4.569c0.085-0.552,1.508-12.045,0.591-12.087c-0.791,0.5-1.741,11.313-1.92,11.881
		c-1.835,5.808,3.245,7.663,0.725,13.15c-4.117,8.958-6.375,18.859-12.928,26.634c-0.867,1.029-1.858,1.961-2.663,3.035
		c-9.944,13.276-19.86,26.574-29.794,39.858c-4.133,5.526-8.385,10.966-12.396,16.578c-2.116,2.959-3.82,6.212-5.74,9.314
		c-0.236,0.382-0.66,0.648-0.997,0.968c0.006-0.488-0.132-1.035,0.04-1.455c1.25-3.057,2.649-6.054,3.842-9.132
		c5.551-14.317,10.567-28.864,16.698-42.927c6.473-14.849,13.8-29.345,24.093-42.085c1.997-2.471,3.677-5.201,5.438-7.855
		c0.274-0.414,0.198-1.061,0.283-1.6c-0.588,0.201-1.36,0.231-1.729,0.632c-1.203,1.308-2.24,2.767-3.386,4.131
		c-0.273,0.326-0.719,0.506-1.086,0.753c0.184-0.445,0.269-0.974,0.564-1.323c3.162-3.713,6.355-7.379,6.953-12.542
		c0.111-0.967,0.791-1.86,1.152-2.809c0.99-2.597,2.271-5.135,2.863-7.822c2.118-9.609,3.807-19.252,3.06-29.221
		c-0.208-2.771,1.725-5.647,1.835-8.508c0.258-6.744,0.04-13.509-0.085-20.263c-0.011-0.59-0.75-1.168-1.15-1.751
		c-0.259,0.593-0.703,1.172-0.746,1.78c-0.34,4.785-0.259,9.627-0.966,14.354c-1.249,8.346-3.039,16.61-4.423,24.938
		c-0.295,1.775-1.678,4.368,1.803,5.005c0.1,0.019,0.131,0.901,0.046,1.353c-1.955,10.391-5.106,20.315-10.669,29.438
		c-2.306,3.781-4.934,6.993-8.075,10.195c-4.401,4.485-7.143,10.599-10.619,16c-0.246,0.382-0.699,0.631-1.057,0.941
		c0.029-0.468-0.015-0.956,0.103-1.401c0.45-1.708,1-3.391,1.41-5.107c0.15-0.63,0.015-1.329,0.009-1.997
		c-0.539,0.461-1.324,0.817-1.577,1.402c-1.547,3.579-3.013,7.195-4.432,10.828c-1.939,4.967-3.459,10.136-5.82,14.89
		c-2.099,4.224-5.109,7.993-7.699,11.974c-0.67,1.029-1.273,2.101-1.908,3.153c-0.02-1.235-0.156-2.481-0.04-3.703
		c0.837-8.827,1.734-17.648,2.576-26.474c0.06-0.631-0.168-1.291-0.262-1.937c-0.22,0.589-0.362,1.223-0.679,1.755
		c-0.371,0.625-0.894,1.161-1.351,1.735c-0.151-0.664-0.488-1.345-0.426-1.988c0.517-5.379,1.122-10.75,1.647-16.128
		c0.046-0.471-0.289-0.98-0.447-1.471c-0.29,0.446-0.763,0.864-0.837,1.344c-0.256,1.672-0.336,3.371-0.569,5.048
		c-0.064,0.463-0.399,0.904-0.686,1.302c-0.038,0.053-0.725-0.167-0.767-0.342c-0.441-1.851-1.489-3.89-1.068-5.546
		c1.077-4.239,1.98-8.308,4.761-12.327c4.717-6.819,7.523-14.969,11.026-22.607c0.565-1.233,0.583-2.717,0.854-4.084
		c-0.818,1.096-1.821,2.1-2.425,3.303c-3.642,7.265-7.174,14.583-10.798,21.857c-0.344,0.691-1.062,1.196-1.605,1.788
		c0.004-0.911-0.235-1.908,0.054-2.717c1.72-4.813,3.607-9.566,5.354-14.371c4.478-12.325,8.422-24.834,15.69-35.998
		c3.339-5.129,5.633-10.938,8.421-16.429c0.22-0.431,0.594-0.784,0.896-1.174c0.07,0.378,0.088,0.776,0.223,1.129
		c0.224,0.586,0.522,1.143,0.789,1.712c0.427-0.474,1.068-0.88,1.242-1.433c1.014-3.214,2.097-6.423,2.815-9.708
		c1.152-5.27,2.058-10.594,3.008-15.905c0.089-0.493-0.243-1.062-0.381-1.596c-0.494,0.368-1.183,0.636-1.438,1.128
		c-0.379,0.729-0.395,1.637-0.663,2.436c-1.978,5.892-3.507,11.995-6.117,17.593c-2.236,4.794-6.334,8.725-8.533,13.53
		c-6.671,14.573-12.819,29.386-19.181,44.102c-0.187,0.432-0.484,0.816-0.729,1.223c-0.076-0.532-0.291-1.088-0.206-1.593
		c0.873-5.184,1.822-10.354,2.674-15.541c0.12-0.727-0.167-1.52-0.266-2.283c-0.795,0.356-1.739,0.555-2.34,1.119
		c-0.495,0.464-0.73,1.342-0.829,2.071c-1.463,10.837-2.877,21.682-4.333,32.52c-0.112,0.844-0.451,1.658-0.685,2.485
		c-0.431-0.69-1.209-1.368-1.232-2.072c-0.12-3.584-0.063-7.174-0.034-10.763c0.034-4.326,0.079-8.652,0.16-12.977
		c0.166-8.901,0.354-17.797,3.41-26.33c2.442-6.822,4.838-13.662,7.227-20.503c0.181-0.516,0.14-1.109,0.201-1.667
		c-0.328,0.354-0.66,0.706-0.985,1.063c-0.424,0.464-0.843,0.933-1.264,1.4c0.012-0.65-0.084-1.326,0.056-1.947
		c0.521-2.316,1.051-4.634,1.701-6.916c1.508-5.295,3.162-10.551,4.578-15.87c0.305-1.146-0.147-2.493-0.251-3.747
		c-0.677,0.96-1.437,1.873-2.018,2.887c-3.214,5.615-4.456,11.987-7.57,17.828c-4.487,8.411-6.563,18.255-8.755,27.7
		c-1.899,8.181-2.52,16.658-3.738,25c-0.079,0.54-0.441,1.038-0.672,1.556c-0.397-0.48-0.949-0.899-1.17-1.45
		c-1.913-4.783-3.087-9.317-1.973-14.889c1.608-8.041,1.979-16.459,1.766-24.687c-0.139-5.329,0.286-11.165-3.415-15.955
		c-0.655-0.849-0.904-2.24-0.862-3.363c0.262-7.006,0.702-14.005,0.961-21.011c0.035-0.948-0.619-1.921-0.954-2.883
		c-0.587,0.885-1.599,1.726-1.694,2.662c-0.898,8.742-1.667,17.498-2.416,26.255c-0.458,5.37,0.35,10.536,2.892,15.346
		c0.219,0.412,1.03,0.991,1.132,0.915c2.268-1.707,1.55,0.615,1.491,1.234c-0.678,7.258-1.452,14.507-2.219,21.757
		c-0.026,0.253-0.241,0.487-0.369,0.73c-0.129-0.208-0.317-0.4-0.378-0.626c-0.869-3.254-1.871-6.482-2.543-9.778
		c-1.146-5.626-2.005-11.311-3.189-16.929c-0.172-0.814-1.475-1.39-2.254-2.077c-0.571,0.76-1.606,1.509-1.624,2.281
		c-0.044,1.97,0.204,3.985,0.625,5.919c0.937,4.294,2.069,8.546,3.066,12.828c0.122,0.522-0.092,1.123-0.15,1.686
		c-0.492-0.408-1.299-0.737-1.424-1.237c-0.545-2.175-0.924-4.395-1.306-6.608c-1.419-8.223-2.798-16.452-4.256-24.667
		c-0.107-0.605-0.721-1.121-1.1-1.678c-0.436,0.45-1.216,0.875-1.249,1.353c-0.175,2.48-0.067,4.979-0.231,7.46
		c-0.244,3.674-1.526-0.566-2.076-4.189c-0.601-3.956-1.063-4.375-1.813-9.25c-0.063-0.413-0.5-15.438-1.708-16.125
		c-1.229,0.75-1.313,5.996-1.417,6.5c-0.5,2.438,3.966,26.291,3.912,24.549c0.419,1.894,5.875,19.023,6.286,20.918
		c0.144,0.662,0.383,1.334,0.361,1.995c-0.27,8.24,2.114,15.818,5.475,23.219c0.95,2.094,1.97,4.63,1.628,6.749
		c-1.102,6.825-2.71,13.577-4.351,20.302c-0.942,3.859-1.977,7.77-3.613,11.363c-1.521,3.34,0.348,8.405-4.827,9.969
		c-0.105,0.032-0.18,0.487-0.119,0.704c1.036,3.703-1.715,5.71-3.719,7.898c-5.428,5.92-11.011,11.699-16.55,17.517
		c-0.32,0.337-0.803,0.521-1.21,0.776c-0.181-0.503-0.579-1.038-0.511-1.505c1.683-11.505,3.158-23.051,5.235-34.486
		c1.296-7.134,3.532-14.096,5.278-21.152c0.118-0.478-0.346-1.101-0.539-1.656c-0.575,0.315-1.338,0.497-1.678,0.979
		c-0.415,0.587-0.496,1.421-0.687,2.157c-2.306,8.956-4.733,17.884-6.872,26.88c-2.233,9.399-5.872,18.552-5.073,28.523
		c0.157,1.964-0.431,3.999-0.77,5.984c-0.075,0.436-0.554,0.802-0.846,1.201c-0.305-0.377-0.728-0.707-0.896-1.137
		c-2.081-5.275-5.002-10.426-5.874-15.9c-0.592-3.718,1.697-7.897,2.71-11.867c2.652-10.392,9.385-19.389,10.017-30.548
		c0.258-4.557,2.39-8.976,3.088-13.546c1.157-7.579,1.897-15.224,2.655-22.857c0.087-0.877-0.87-1.841-1.284-2.791
		c-0.269-0.617-0.685-1.318-0.594-1.915c0.262-1.71,0.91-3.368,1.094-5.08c0.161-1.491-0.284-3.044-0.15-4.542
		c0.698-7.828-0.737-15.324-3.635-22.526c-1.317-3.276-0.864-2.643-1.833-3.299c-1.031,0.547-0.672,1.391-0.484,2.016
		c0.234,1.906,1.395,5.062,1.356,8.904c-0.11,11.131-0.108,22.266-0.44,33.391c-0.246,8.226-0.089,16.609-1.684,24.608
		c-1.607,8.065-5.053,15.78-7.894,23.575c-1.682,4.615-3.745,9.091-5.653,13.622c-0.153,0.363-0.422,0.955-0.654,0.964
		c-2.768,0.109-3.207,1.538-2.336,3.84c0.064,0.169-0.237,0.477-0.369,0.719c-0.207-0.349-0.494-0.673-0.608-1.051
		c-1.567-5.173-3.208-10.327-4.637-15.54c-2.211-8.068-4.271-16.177-6.401-24.267c-0.173-0.655-0.274-1.369-0.616-1.929
		c-0.36-0.592-0.969-1.033-1.47-1.54c-0.152,0.76-0.582,1.586-0.417,2.27c2.338,9.723,4.677,19.448,7.185,29.128
		c1.562,6.027,3.434,11.974,5.094,17.977c0.214,0.775,0.157,1.716-0.055,2.505c-3.058,11.343-6.58,22.581-9.124,34.036
		c-1.992,8.97-2.916,18.189-4.063,27.33c-0.695,5.544-1.063,11.142-1.284,16.728c-0.139,3.533,0.276,7.087,0.413,10.633
		c0.015,0.382-0.167,0.771-0.258,1.156c-0.225-0.381-0.525-0.737-0.663-1.147c-2.77-8.289-5.226-16.702-8.424-24.821
		c-1.251-3.175-1.069-5.556,0.36-8.334c1.536-2.985,2.899-6.063,4.224-9.15c0.247-0.576-0.044-1.383-0.087-2.084
		c-0.46,0.453-1.046,0.833-1.359,1.372c-1.447,2.489-2.782,5.043-4.241,7.525c-0.424,0.722-1.124,1.282-1.698,1.917
		c0.058-0.817-0.033-1.678,0.198-2.443c0.931-3.075,1.967-6.119,2.952-9.177c2.688-8.347,5.434-16.676,8.005-25.06
		c0.534-1.743,1.144-4.023,0.47-5.479c-2.966-6.41,0.252-12.6,0.196-18.875c-0.1-11.241,0.216-22.485,0.116-33.726
		c-0.036-4.015-0.733-8.028-1.235-12.029c-0.07-0.565-0.745-1.054-1.141-1.579c-0.314,0.796-0.908,1.597-0.895,2.387
		c0.052,2.931,0.334,5.856,0.424,8.788c0.008,0.246-0.782,0.5-1.181,0.779c-0.719,0.504-2.046,1.067-2.018,1.539
		c0.094,1.558,0.251,3.429,1.157,4.563c2.928,3.662,2.935,7.866,2.65,12.073c-0.696,10.294-1.596,20.575-2.444,30.859
		c-0.215,2.608-0.698,5.205-0.747,7.813c-0.019,1.003,0.887,2.002,1.261,3.042c0.197,0.548,0.365,1.25,0.195,1.767
		c-3.138,9.499-6.322,18.982-9.527,28.459c-0.149,0.443-0.577,0.792-0.875,1.185c-0.142-0.475-0.294-0.947-0.423-1.425
		c-3.411-12.705-6.888-25.392-10.167-38.13c-0.625-2.428-0.464-5.059-0.666-7.596c-0.227-0.029-0.454-0.059-0.681-0.088
		c0.663-7.872,0.625-15.888,2.209-23.57c1.296-6.283,4.457-12.196,6.96-18.203c0.484-1.163,1.998-1.867,2.614-3.011
		c2.179-4.043,4.138-8.203,6.248-12.284c2.461-4.759,4.75-9.629,7.54-14.19c7.844-12.824,15.881-25.529,23.902-38.243
		c1.765-2.797,3.725-5.478,5.739-8.101c0.231-0.301,2.873-4.117,1.361-5.142c-0.892,0.259-1.758,0.839-2.518,1.778
		c-1.646,2.035-3.148,4.197-4.581,6.391c-3.199,4.897-6.306,9.855-9.478,14.771c-0.254,0.394-0.722,0.651-1.09,0.971
		c-0.003-0.221-0.048-0.451-0.002-0.661c1.948-8.995,3.433-18.126,6.01-26.937c2.027-6.929,5.371-13.478,8.197-20.167
		c1.175-2.782,2.617-5.454,3.733-8.256c0.314-0.79-0.092-1.866-0.168-2.811c-0.942,0.609-2.244,0.997-2.773,1.859
		c-9.256,15.068-14.758,31.434-16.836,48.992c-0.398,3.363-1.25,6.677-2.009,9.987c-0.119,0.518-0.858,0.894-1.312,1.336
		c-0.077-0.351-0.278-0.725-0.214-1.047c1.094-5.484,2.059-11.001,3.375-16.432c2.076-8.557,4.057-17.086,2.794-25.997
		c-0.223-1.57-0.238-3.186-0.186-4.775c0.2-6.093,0.482-12.184,0.682-18.278c0.018-0.521-0.352-1.054-0.541-1.582
		c-0.346,0.499-0.937,0.969-0.999,1.501c-1.033,8.758-2.181,17.509-2.899,26.294c-0.333,4.065,1.121,8.432,0.164,12.262
		c-2.904,11.628-6.295,23.16-10.109,34.523c-1.681,5.006-4.833,9.519-7.345,14.242c-0.204,0.385-0.68,0.975-0.932,0.93
		c-1.68-0.304-1.64-0.338-2.322,1.249c-3.234,7.517-6.696,14.943-9.682,22.557c-4.219,10.757-8.088,21.652-12.123,32.482
		c-0.177,0.477-0.506,0.897-0.765,1.344c-0.104-0.482-0.349-0.984-0.288-1.444c0.309-2.336,0.772-4.654,1.02-6.995
		c0.099-0.936-0.217-1.915-0.344-2.875c-0.77,0.753-1.699,1.405-2.258,2.292c-0.421,0.668-0.5,1.634-0.504,2.469
		c-0.026,5.858-0.139,11.721,0.06,17.573c0.213,6.265,0.739,12.519,1.12,18.778c0.021,0.352-0.027,0.708-0.043,1.063
		c-0.186-0.269-0.409-0.518-0.551-0.808c-1.448-2.957-3.185-5.815-4.247-8.906c-1.493-4.339-3.028-8.59-1.518-13.553
		c1.939-6.371,2.974-13.021,4.316-19.568c0.355-1.732,0.297-3.548,0.625-5.289c1.435-7.628,2.832-15.266,4.469-22.852
		c0.836-3.877-0.917-8.75,3.985-11.23c0.279-0.142,0.424-0.726,0.471-1.123c1.717-14.665,6.166-28.426,13.498-41.258
		c0.528-0.924,0.622-2.096,0.918-3.153c-1.1,0.754-2.222,1.479-3.285,2.281c-0.315,0.238-0.457,0.703-0.688,1.057
		c-5.678,8.706-8.513,18.586-11.708,28.318c-0.267,0.811-0.696,1.568-1.05,2.351c-0.466-0.913-1.213-1.787-1.346-2.747
		c-0.479-3.443-0.687-6.924-1.163-10.369c-0.085-0.618-0.96-1.127-1.471-1.687c-0.305,0.527-0.941,1.108-0.866,1.574
		c1.504,9.314,1.274,18.453-1.099,27.701c-2.077,8.095-3.134,16.453-4.614,24.7c-0.943,5.258-1.74,10.545-2.835,15.771
		c-0.214,1.02-1.5,1.815-2.291,2.714c-0.306-0.683-0.547-1.405-0.938-2.035c-0.262-0.422-0.736-0.712-1.115-1.062
		c-0.36,0.583-0.749,1.151-1.07,1.755c-0.209,0.395-0.32,0.841-0.476,1.264c-0.205-0.333-0.549-0.648-0.594-1.001
		c-0.84-6.518-2.39-13.049-2.306-19.559c0.19-14.742,1.453-29.468,1.758-44.212c0.173-8.395,1.933-16.277,5.198-23.881
		c3.835-8.93,7.887-17.767,11.752-26.684c0.316-0.73-0.085-1.771-0.153-2.668c-0.771,0.49-1.917,0.799-2.256,1.499
		c-4.05,8.362-7.969,16.787-11.963,25.176c-0.33,0.694-0.954,1.248-1.442,1.868c-0.158-0.708-0.499-1.432-0.443-2.123
		c0.453-5.646,1.008-11.284,1.455-16.93c0.066-0.839-0.273-1.71-0.425-2.567c-0.506,0.282-1.058,0.506-1.503,0.864
		c-0.303,0.243-0.456,0.672-0.676,1.018c-0.096-0.446-0.247-0.887-0.28-1.338c-0.785-10.643-1.544-21.289-2.377-31.928
		c-0.039-0.493-0.726-0.935-1.11-1.401c-0.386,0.388-1.102,0.768-1.111,1.165c-0.189,8.146-0.659,16.308-0.32,24.436
		c0.331,7.936,2.226,15.844,2.143,23.751c-0.132,12.677-1.329,25.343-2.08,38.013c-0.018,0.305-0.083,0.606-0.126,0.909
		c-0.157-0.261-0.435-0.513-0.453-0.783c-0.141-2.103-0.112-4.226-0.399-6.307c-0.112-0.814-0.901-1.535-1.382-2.298
		c-0.41,0.746-1.163,1.485-1.179,2.239c-0.231,11.076-0.47,22.155-0.462,33.232c0.003,3.944,0.667,7.887,1.011,11.833
		c0.043,0.501-0.019,1.012-0.032,1.519c-0.275-0.389-0.649-0.74-0.81-1.171c-1.624-4.353-3.368-8.67-4.771-13.094
		c-1.603-5.057-3.566-10.125-1.022-15.558c0.556-1.186,0.344-2.816,0.179-4.206c-0.055-0.464-1.032-1.033-1.652-1.125
		c-0.314-0.047-0.982,0.8-1.132,1.341c-2.396,8.664-5.215,17.25-6.917,26.052c-1.126,5.825-5.818,9.146-7.895,14.191
		c-1.978,4.805-4.718,9.193-8.417,13.016c-1.438,1.485-1.833,3.961-2.775,5.951c-0.459,0.969-1.087,1.858-1.639,2.784
		c-0.251-1.097-0.819-2.229-0.706-3.287c1.046-9.735,2.181-19.461,3.372-29.18c0.167-1.369,0.595-2.776,1.223-4.001
		c0.782-1.526,2.918-3.066,2.699-4.281c-1.262-7.013,0.639-13.542,2.371-20.117c1.541-5.849,3.258-11.651,4.871-17.481
		c0.412-1.487,0.723-3.003,1.08-4.505c-1.25,1.148-2.958,2.067-3.667,3.486c-2.411,4.819-4.466,9.815-6.665,14.741
		c-0.164,0.366-0.386,0.707-0.582,1.059c-0.243-0.441-0.613-0.856-0.709-1.327c-0.542-2.66-0.852-5.379-1.57-7.988
		c-0.605-2.199,0.118-5.458-3.716-5.666c-0.144-0.008-0.329-1.131-0.324-1.733c0.045-5.519,1.936-10.287,4.448-15.286
		c4.079-8.114,6.849-16.906,9.886-25.512c0.939-2.661,1.011-5.642,1.335-8.492c0.057-0.496-0.608-1.074-0.94-1.614
		c-0.207,0.503-0.577,1.001-0.595,1.511c-0.27,7.509-5.225,13.091-8.023,19.556c-0.134,0.31-0.783,0.737-0.913,0.657
		c-2.889-1.785-3.354-1.651-4.015,1.754c-1.652,8.514-3.214,17.046-4.816,25.57c-0.092,0.486-0.221,0.965-0.332,1.448
		c-0.262-0.471-0.578-0.919-0.777-1.416c-3.557-8.845-6.7-17.883-10.744-26.498c-5.251-11.188-6.538-22.996-6.885-35.034
		c-0.219-7.596-0.061-15.203-0.157-22.804c-0.009-0.712-0.631-1.417-0.969-2.124c-0.359,0.601-0.997,1.185-1.033,1.804
		c-0.367,6.371-0.915,12.751-0.842,19.122c0.054,4.781,0.648,9.606,1.512,14.318c2.178,11.886,4.547,23.741,7.055,35.562
		c0.749,3.53,1.991,7.002,3.406,10.331c1.202,2.826,3.454,5.248,4.423,8.124c5.166,15.33,6.425,30.945,2.86,46.856
		c-0.85,3.794-1.616,7.676-1.75,11.541c-0.127,3.661,0.774,7.345,0.959,11.032c0.361,7.2,0.921,14.424,0.643,21.609
		c-0.157,4.052-1.458,8.181-2.893,12.034c-1.872,5.027-5.332,9.609-6.446,14.744c-3.279,15.111-7.042,30.22-7.157,45.819
		c-0.062,8.373,0.372,16.754,0.761,25.124c0.283,6.09,0.863,12.167,1.292,18.251c0.027,0.394-0.105,0.799-0.163,1.198
		c-0.188-0.105-0.501-0.175-0.543-0.322c-0.714-2.491-1.61-4.955-2.039-7.497c-1.025-6.071-1.639-12.215-2.772-18.264
		c-1.039-5.545-3.396-10.816-4.878-16.136c-2.858-10.264-3.409-21.162-5.029-31.78c-1.111-7.28,0.534-13.748,4.675-19.843
		c1.941-2.858,3.073-6.272,4.498-9.467c0.186-0.416-0.066-1.028-0.116-1.549c-0.317,0.352-0.698,0.664-0.939,1.061
		c-1.265,2.079-2.382,4.257-3.769,6.249c-1.274,1.83-2.825,3.466-4.253,5.188c-0.171-2.395-0.668-4.819-0.45-7.178
		c0.617-6.658,1.609-13.28,2.305-19.933c1.292-12.354,2.388-24.73,3.751-37.077c0.64-5.797,1.566-11.573,2.629-17.309
		c0.845-4.561,2.16-9.033,3.112-13.576c0.2-0.954-0.273-2.05-0.436-3.08c-1.362,0.378-3.419,0.352-3.929,1.226
		c-0.816,1.401-0.483,3.426-0.86,5.139c-0.59,2.681-1.291,5.345-2.112,7.964c-0.25,0.799-1.436,1.374-1.538,2.139
		c-1.35,10.119-2.575,20.254-3.868,30.381c-0.067,0.524-0.467,1.006-0.711,1.508c-0.2-0.531-0.528-1.051-0.576-1.595
		c-0.186-2.107-0.252-4.226-0.432-6.334c-0.043-0.507-0.35-0.992-0.535-1.486c-0.125,0.537-0.323,1.067-0.363,1.61
		c-0.368,4.974-0.69,9.951-1.078,14.923c-0.052,0.664-0.393,1.305-0.6,1.957c-0.239-0.705-0.636-1.398-0.693-2.118
		c-0.627-7.915-1.257-15.831-1.766-23.755c-0.261-4.064-0.862-8.232-0.269-12.197c0.882-5.895,2.694-11.65,4.084-17.471
		c0.086-0.363-0.054-0.78-0.089-1.171c-0.278,0.28-0.685,0.511-0.814,0.849c-1.337,3.473-2.62,6.966-3.947,10.442
		c-0.165,0.431-0.502,0.796-0.76,1.192c-0.152-0.441-0.389-0.873-0.441-1.325c-0.288-2.522-0.554-5.047-0.785-7.575
		c-0.949-10.369-1.842-20.743-2.843-31.107c-0.332-3.429-0.891-6.838-1.442-10.24c-0.07-0.432-0.726-0.769-1.111-1.15
		c-0.247,0.29-0.689,0.565-0.712,0.872c-0.345,4.59-0.591,9.188-0.971,13.776c-0.079,0.95-0.608,1.862-0.93,2.792
		c-0.121-0.833-0.213-1.671-0.37-2.497c-0.127-0.665-0.333-1.314-0.503-1.97c-0.288,0.655-0.868,1.332-0.819,1.961
		c0.698,9.107,1.177,18.247,2.345,27.297c0.835,6.474,2.733,12.804,3.952,19.237c1.499,7.917-3.08,14.765-4.191,22.235
		c-0.03,0.2-0.292,0.364-0.445,0.545c-0.228-0.304-0.574-0.576-0.665-0.916c-0.693-2.594-1.655-5.168-1.941-7.812
		c-1.24-11.46-2.396-22.933-3.311-34.422c-0.233-2.934,0.354-5.893,0.995-8.914c1.299-6.124-0.085-12.786-0.078-19.226
		c0.005-3.573-0.085-7.403,1.147-10.627c0.811-2.121,2.256-3.877,2.646-6.478c2.071-13.811,6.779-26.874,12.017-39.76
		c0.89-2.189,1.648-4.449,2.232-6.736c0.218-0.855-0.233-1.882-0.38-2.831c-0.503,0.634-1.15,1.2-1.485,1.914
		c-2.077,4.421-4.174,8.837-6.063,13.339c-0.655,1.561-0.493,3.458-1.119,5.037c-2.767,6.974-6.123,13.747-8.424,20.864
		c-2.293,7.093-4.206,14.433-5.126,21.809c-0.825,6.613-0.065,13.423-0.033,20.146c0.002,0.513-0.223,1.027-0.343,1.541
		c-0.31-0.388-0.757-0.729-0.91-1.172c-2.479-7.182-5.334-14.267-7.281-21.593c-3.637-13.688-5.749-27.643-5.469-41.879
		c0.011-0.553-0.429-1.115-0.659-1.672c-0.356,0.499-1.032,1.005-1.022,1.497c0.137,6.846,0.034,13.722,0.672,20.527
		c0.625,6.679,1.756,13.344,3.184,19.902c0.949,4.362,2.81,8.526,4.262,12.779c0,0.001,0,0.003,0.001,0.005
		c0.003,0,0.008-0.001,0.011-0.002c-0.002,0.006-0.005,0.013-0.007,0.019c0.83,3.31,1.12,6.885,2.596,9.876
		c5.454,11.056,6.775,22.891,7.583,34.922c0.47,7.01,1.544,13.979,2.016,20.99c0.166,2.46-1.067,5.01-0.93,7.478
		c0.205,3.678-2.879,7.553,0.586,11.101c0.322,0.329-0.102,1.473-0.296,2.207c-1.355,5.127-2.727,10.25-4.137,15.363
		c-0.158,0.571-0.583,1.069-0.885,1.601c-0.16-0.53-0.296-1.069-0.482-1.59c-2.139-5.996-4.564-11.907-6.358-18.004
		c-2.109-7.169-4.225-14.417-5.326-21.781c-1.282-8.57-1.593-17.298-2.095-25.97c-0.605-10.448,1.269-20.5,5.417-30.126
		c0.855-1.984,1.543-4.042,2.31-6.065c-0.001-0.005-0.003-0.011-0.004-0.017c-1.239,0.284-3.358,0.277-3.566,0.903
		c-2.319,6.994-4.642,14.014-6.37,21.169c-2.324,9.622-2.987,19.407-1.052,29.235c0.068,0.343-0.097,0.732-0.153,1.1
		c-0.333-0.225-0.841-0.376-0.97-0.686c-0.744-1.787-1.496-3.581-2.064-5.429c-1.516-4.926-2.882-9.898-4.465-14.802
		c-0.217-0.671-1.336-1.051-2.037-1.565c-0.043,0.746-0.268,1.536-0.099,2.23c0.858,3.532,1.856,7.03,2.708,10.563
		c0.148,0.616-0.17,1.345-0.273,2.021c-0.507-0.389-1.266-0.671-1.483-1.183c-2.474-5.818-5.376-11.523-7.121-17.56
		c-1.498-5.185-1.838-10.742-2.352-16.167c-0.957-10.11-1.793-20.237-2.402-30.373c-0.179-2.983,1.215-6.116,0.789-9.019
		c-1.471-10.007-3.42-19.943-5.223-29.9c-0.089-0.492-0.504-0.925-0.768-1.386c-0.208,0.468-0.621,0.948-0.593,1.401
		c0.171,2.761,0.487,5.513,0.669,8.273c0.326,4.958,0.598,9.919,0.881,14.88c0.603,10.554,1.205,21.107,1.769,31.664
		c0.021,0.392-0.32,0.833-0.563,1.205c-0.647,0.985-2.017,2.04-1.898,2.901c1.228,8.877,2.268,17.817,4.237,26.542
		c1.417,6.28,3.868,12.385,6.396,18.34c2.59,6.104,5.768,11.964,8.821,17.863c1.805,3.486,4.22,6.692,5.723,10.29
		c1.813,4.341,2.936,8.968,4.382,13.464c1.886,5.864,4.422,11.604,5.525,17.61c1.171,6.382,0.905,13.02,1.424,19.533
		c0.876,10.991,1.364,22.047,2.973,32.935c1.524,10.322,4.127,20.498,6.534,30.672c2.182,9.224,4.573,18.408,7.232,27.504
		c0.769,2.631,3.401,4.731,4.115,7.363c2.728,10.062,6.687,19.61,12.17,28.386c5.847,9.356,12.547,18.174,18.619,27.396
		c4.431,6.728,8.284,13.836,12.709,20.567c2.627,3.996,5.714,7.721,8.862,11.334c5.765,6.619,10.708,13.702,13.263,22.189
		c2.553,8.479,4.949,17.006,7.348,25.531c0.334,1.188,0.152,2.519,0.445,3.726c1.624,6.674,3.914,13.249,4.835,20.014
		c1.026,7.533,0.675,15.245,1.233,22.855c0.256,3.491,1.533,6.902,1.839,10.395c0.328,3.733-0.421,7.592,0.129,11.271
		c2.627,17.563-1.102,35.373,3.031,53.028c2.235,9.548,1.181,19.931,1.093,29.933c-0.053,6.055-1.607,12.104-1.565,18.149
		c0.056,8.016,1.193,16.017,1.536,24.037c0.416,9.738,0.913,19.504,0.601,29.232c-0.381,11.892-1.667,23.751-2.369,35.636
		c-0.538,9.121-0.868,18.258-1.123,27.392c-0.303,10.83-0.461,21.665-0.614,32.499c-0.109,7.742,0.057,15.49-0.189,23.227
		c-0.456,14.365-1.338,28.72-1.64,43.086c-0.271,12.89,0.061,25.79,0.008,38.685c-0.046,11.1-0.254,22.198-0.422,33.297
		c-0.007,0.448-0.402,0.878-0.507,1.342c-0.332,1.46-1.165,3.084-0.809,4.369c1.079,3.896,0.988,7.468-1.135,10.997
		c-0.217,0.361,0.667,2.004,1.073,2.016c1.832,0.056,3.675-0.271,5.516-0.441c12.907-1.187,25.819-2.327,38.713-3.641
		c0.893-0.091,2.382-1.471,2.368-2.228c-0.183-9.639-0.487-19.278-0.997-28.905c-0.181-3.415-1.346-6.783-1.468-10.194
		c-0.48-13.41-0.781-26.827-1.038-40.244c-0.221-11.565-0.525-23.139-0.352-34.701c0.127-8.501,1.068-16.985,1.449-25.486
		c0.229-5.116,0.896-10.408-0.065-15.343c-2.113-10.853-2.558-21.643-1.09-32.536c0.437-3.238,1.866-6.398,1.948-9.618
		c0.167-6.602-0.568-13.229-0.375-19.829c0.185-6.311,1.458-12.594,1.578-18.901c0.275-14.452,0.014-28.914,0.208-43.369
		c0.16-11.895,0.722-23.784,0.989-35.679c0.21-9.356,0.418-18.72,0.301-28.076c-0.109-8.743-0.841-17.479-0.941-26.221
		c-0.088-7.733-0.56-15.619,0.709-23.174c1.889-11.247,5.033-22.296,7.914-33.357c0.971-3.725,3.01-7.161,4.126-10.86
		c1.383-4.585,2.033-9.396,3.5-13.948c2.522-7.827,4.973-15.735,8.329-23.216c2.475-5.514,2.09-12.868,9.023-15.92
		c0.205-0.091,0.206-0.615,0.329-0.928c3.295-8.417,6.163-17.034,9.996-25.198c5.33-11.353,11.064-22.547,17.256-33.452
		c3.325-5.857,7.938-10.988,12.021-16.409c2.368-3.144,4.79-6.25,7.27-9.306c3.451-4.251,7.21-8.272,10.419-12.694
		c4.544-6.263,8.501-12.954,13.084-19.186c5.885-8.002,12.2-15.687,18.205-23.603c2.05-2.701,3.726-5.684,5.569-8.541
		c-0.736,0.3-1.674,0.42-2.151,0.952c-3.598,4.003-7.098,8.094-10.637,12.149c-0.28,0.321-0.622,0.588-0.936,0.881
		c0.102-0.388,0.111-0.837,0.321-1.154c2.065-3.115,4.194-6.188,6.246-9.311c2.715-4.131,5.349-8.315,8.072-12.44
		c1.729-2.619,3.49-5.223,5.372-7.733c1.134-1.514,2.688-2.722,3.771-4.265c2.905-4.143,5.651-8.397,8.483-12.592
		c0.259-0.385,0.675-0.664,1.019-0.992c-0.086,0.473-0.236,0.944-0.244,1.418c-0.019,1.017,0.037,2.034,0.063,3.051
		c1.123-0.685,2.647-1.114,3.278-2.111c1.021-1.615,1.422-3.615,2.143-5.429c2.112-5.312,4.247-10.614,6.395-15.912
		c0.185-0.456,0.522-0.849,0.789-1.271c0.257,0.337,0.448,0.85,0.783,0.972c0.586,0.214,1.677,0.458,1.829,0.221
		c0.949-1.474,1.694-3.08,2.512-4.639c1.053-2.004,0.55-5.118,4.15-5.33c0.77-0.045,1.755-1.376,2.128-2.318
		c1.598-4.038,2.808-8.237,4.53-12.217c2.278-5.265,4.645-10.526,7.469-15.509c2.006-3.537-3.351-5.201-1.005-8.56
		c2.133-3.055,3.868-6.402,6.104-9.37c1.533-2.035,0.154,1.087,5.186-5.195c0.245-0.306,0.197-0.845,0.285-1.276
		c-0.379,0.136-0.812,0.196-1.125,0.423c-0.547,0.397-0.984,0.947-1.536,1.336c-0.445,0.314-0.992,0.487-1.494,0.722
		c-0.005-0.494-0.165-1.054,0.011-1.472c1.074-2.553-2.479,2.379-1.057,0.027c1.868-3.089,4.195-5.898,6.235-8.888
		c0.383-0.562,0.347-1.409,0.504-2.125c-0.508,0.439-1.11,0.807-1.508,1.33c-1.486,1.954-2.871,3.985-4.372,5.927
		c-0.432,0.558,1.179-1.242,0.604-0.794c-0.06-0.7,0.286-1.056,0.509-1.649c2.437-6.499,4.812-10.507,7.275-16.995
		c0.332-0.875,9.125-11.969,8.792-12.833 M354.436,202.025c3.066-6.198,6.169-12.378,9.269-18.56
		c1.696-3.383,3.402-6.763,5.118-10.137c0.135-0.264,0.383-0.47,0.578-0.703c0.043,0.153,0.087,0.306,0.181,0.63
		c-0.655,1.506-1.302,3.162-2.08,4.752c-2.22,4.537-4.487,9.051-6.747,13.568c-1.839,3.675-3.675,7.352-5.56,11.003
		c-0.273,0.529-0.813,0.92-1.229,1.375C354.116,203.308,354.149,202.604,354.436,202.025z M161.465,178.601
		c-0.239-0.96-0.395-1.322-0.393-1.682c0.001-0.193,0.274-0.385,0.424-0.578c0.085,0.38,0.194,0.756,0.244,1.141
		C161.763,177.647,161.663,177.828,161.465,178.601z M224.741,330.603c-0.001,0.299-0.13,0.598-0.2,0.897
		c-0.137-0.289-0.349-0.564-0.401-0.868c-0.553-3.175-1.229-6.34-1.541-9.541c-0.122-1.242,0.596-2.566,0.931-3.853
		c0.401,1.19,0.803,2.381,1.221,3.62C224.75,324.167,224.756,327.385,224.741,330.603z M215.035,188.614
		c0.238-1.024,0.463-1.991,0.688-2.958c0.22,0.942,0.528,1.874,0.646,2.829c0.604,4.863,1.169,9.731,1.716,14.602
		c0.05,0.45-0.12,0.925-0.188,1.388c-0.16-0.369-0.404-0.723-0.468-1.108C216.617,198.452,215.829,193.533,215.035,188.614z
		 M213.013,332.313c-1.072,5.138-2.19,10.267-3.312,15.394c-0.06,0.277-0.329,0.508-0.5,0.761c-0.104-0.225-0.267-0.441-0.301-0.676
		c-1.101-7.422-2.206-14.844-3.273-22.272c-0.578-4.021-1.529-8.051-1.538-12.079c-0.018-8.328,0.014-16.707,0.897-24.972
		c0.941-8.804,2.786-17.519,4.447-26.232c0.726-3.805,1.109-8.103,3.178-11.13c3.837-5.613,3.241-12.264,5.659-18.102
		c0.181-0.438,0.443-0.842,0.667-1.261c0.205,0.439,0.51,0.858,0.597,1.32c0.549,2.907,1.049,5.823,1.564,8.736
		c-0.139,0.021-0.277,0.042-0.416,0.063c0.667,10.463,1.422,20.922,1.978,31.392c0.498,9.382,1.086,18.78,0.988,28.165
		c-0.035,3.292-1.792,6.648-3.123,9.824c-1.762,4.207-4.127,8.169-5.751,12.421C213.739,326.374,213.614,329.427,213.013,332.313z
		 M248.504,434.802c-0.175-0.281-0.285-0.691-0.538-0.819c-0.828-0.42-1.704-0.75-2.57-1.091c-0.717-0.282-1.769-0.313-2.121-0.83
		c-3.036-4.452-6.755-8.663-8.736-13.565c-5.151-12.748-9.667-25.76-14.137-38.77c-1.924-5.599-3.109-11.451-4.63-17.188
		c0.365-0.091,0.731-0.183,1.097-0.273c-0.352-7.873-1.08-15.755-0.9-23.616c0.092-4.029,1.793-8.024,2.816-12.022
		c0.082-0.319,0.541-0.542,0.824-0.811c0.157,0.271,0.381,0.525,0.46,0.817c1.901,7.002,4.056,13.949,5.609,21.028
		c2.265,10.315,3.696,20.823,6.201,31.074c3.974,16.261,8.465,32.397,12.942,48.53c0.653,2.351,2.457,4.379,3.687,6.579
		C248.644,434.087,248.512,434.479,248.504,434.802z M318.976,246.241c0.04-0.207,0.213-0.388,0.501-0.876
		c-0.077,0.55-0.074,0.774-0.144,0.973c-0.102,0.294-0.255,0.57-0.387,0.854C318.952,246.874,318.917,246.548,318.976,246.241z
		 M317.689,271.44c0.061-0.349,0.381-0.652,0.58-0.978c0.128,0.352,0.421,0.735,0.359,1.049c-0.784,3.977-1.617,7.943-2.447,11.911
		c-0.051,0.242-0.179,0.468-0.271,0.702c-0.036-0.471-0.072-0.941-0.108-1.412C316.427,278.952,317.038,275.193,317.689,271.44z
		 M275.708,262.502c2.241-5.389,4.876-10.613,7.28-15.936c2.939-6.508,6.046-12.955,8.629-19.603
		c2.114-5.438,3.56-11.136,5.324-16.711c0.163-0.517,0.485-0.982,0.733-1.472c0.235,0.42,0.572,0.814,0.69,1.265
		c1.72,6.521,3.166,13.125,5.177,19.554c2.039,6.517,4.628,12.862,6.979,19.281c0.897,2.449,1.565,5.019,2.755,7.316
		c1.924,3.715,0.522,7.267-0.139,10.826c-2.177,11.718-4.465,23.417-6.853,35.093c-0.142,0.692,0.938,3.769-2.091,2.092
		c-0.024-0.013-1.085,1.25-1.109,1.936c-0.119,3.474-0.055,6.953-0.055,10.431c-0.109,0.003-0.218,0.006-0.326,0.01
		c0.225,3.634,0.709,7.277,0.601,10.901c-0.099,3.296-0.836,6.574-1.313,9.857c-0.029,0.199-0.253,0.37-0.387,0.554
		c-0.309-0.391-0.727-0.737-0.911-1.179c-3.176-7.637-6.263-15.312-9.499-22.923c-2.202-5.179-5.251-10.101-6.674-15.469
		c-0.859-3.241-0.022-7.405,1.334-10.613c1.144-2.705-0.577-4.597-0.259-6.822c0.501-3.503,1.217-6.976,1.786-10.47
		c0.077-0.471-0.169-0.994-0.266-1.493c-0.336,0.455-0.83,0.861-0.983,1.371c-1.591,5.261-3.1,10.547-4.704,15.804
		c-0.3,0.982-0.921,1.867-1.394,2.797c-0.561-0.874-1.326-1.678-1.647-2.632c-1.721-5.1-3.825-10.149-4.769-15.4
		C273.154,268.274,274.603,265.161,275.708,262.502z M292.408,387.526c-0.011-0.324-0.109-0.675-0.018-0.967
		c0.631-2.022,1.339-4.021,1.935-6.054c0.148-0.506-0.021-1.104-0.045-1.661c-0.536,0.306-1.323,0.484-1.557,0.944
		c-0.571,1.123-0.84,2.394-1.324,3.566c-0.216,0.522-0.657,0.951-0.996,1.423c-0.401-0.411-0.956-0.752-1.18-1.244
		c-1.879-4.122-3.829-8.222-5.438-12.449c-0.372-0.976,0.755-2.429,0.71-3.645c-0.067-1.836-0.396-3.705-0.918-5.469
		c-0.468-1.58-1.813-2.992-1.965-4.556c-0.555-5.725-0.774-11.482-1.117-17.228c-0.015-0.254,0.014-0.512-0.017-0.764
		c-0.161-1.311-0.335-2.621-0.505-3.931c0.503,1.175,0.953,2.377,1.518,3.521c5.019,10.164,10.044,20.324,15.113,30.462
		c0.47,0.939,1.25,1.724,1.992,2.724c-1.907,5.022-3.767,9.932-5.648,14.834C292.87,387.237,292.593,387.364,292.408,387.526z
		 M295.995,424.867c0.676,3.815,0.698,7.747,1.016,11.626c-0.096,0.007-0.192,0.014-0.288,0.021c0,1.859,0.01,3.719-0.01,5.579
		c-0.003,0.303-0.134,0.605-0.206,0.909c-0.13-0.294-0.288-0.578-0.385-0.882c-2.041-6.361-4.034-12.739-6.134-19.082
		c-0.689-2.081-1.387-4.238-2.543-6.069c-3.46-5.482,0.4-9.821,1.991-14.521c0.074-0.218,0.65-0.496,0.677-0.466
		c0.54,0.606,1.331,1.188,1.49,1.904C293.149,410.863,294.749,417.834,295.995,424.867z M267.344,182.531
		c0.3,0.757,0.699,1.492,0.882,2.277c0.75,3.216,1.219,6.515,2.196,9.657c1.354,4.355-0.49,8.128-1.668,12.049
		c-0.12,0.399-0.551,0.706-0.837,1.056c-0.094-0.395-0.239-0.785-0.273-1.185c-0.134-1.604-0.234-3.21-0.346-4.816
		c0.036-0.001,0.072-0.003,0.107-0.004c-0.268-5.486-0.572-10.97-0.765-16.458C266.611,184.257,267.097,183.39,267.344,182.531z
		 M267.834,211.245c-0.243,0.291-0.514,0.616-0.785,0.941c-0.122-0.335-0.386-0.698-0.33-1c0.077-0.42,0.396-0.796,0.61-1.191
		C267.472,210.349,267.615,210.703,267.834,211.245z M284.224,393.218c-0.364,0.588-0.892,1.133-1.06,1.773
		c-0.388,1.474-0.577,3-0.899,4.493c-0.134,0.622-0.398,1.215-0.604,1.822c-0.276-0.519-0.49-1.084-0.837-1.549
		c-4.384-5.868-6.128-12.65-6.895-19.776c-0.009-0.08-0.082-0.151-0.102-0.233c-0.274-1.141-0.545-2.284-0.816-3.426
		c-0.202,1.396-0.751,2.847-0.546,4.181c0.795,5.174,1.853,10.307,2.77,15.462c0.754,4.237,0.449,9.02,2.378,12.614
		c3.896,7.26,1.576,14.362,1.167,21.567c-0.031,0.546-0.389,1.074-0.595,1.61c-0.174-0.547-0.484-1.09-0.499-1.641
		c-0.104-3.806-0.117-7.614-0.241-11.418c-0.019-0.563-0.472-1.11-0.723-1.665c-0.283,0.572-0.798,1.139-0.811,1.717
		c-0.077,3.478-0.038,6.957-0.038,10.437c-0.252,0.014-0.504,0.028-0.757,0.042c0.854,10.718,1.71,21.437,2.561,32.155
		c0.032,0.407,0.02,0.818,0.028,1.227c-0.406-0.352-0.936-0.628-1.199-1.065c-6.077-10.112-10.853-20.618-12.118-32.624
		c-0.721-6.836-3.006-13.493-4.173-20.302c-1.458-8.504-2.709-17.06-3.592-25.64c-0.324-3.146,1.464-6.577,0.899-9.619
		c-1.788-9.619,3.305-17.131,6.625-25.284c2.158-5.298,3.668-10.862,5.396-16.33c0.171-0.541-0.165-1.242-0.265-1.868
		c-0.437,0.532-1.011,1-1.286,1.605c-1.714,3.777-2.647,8.183-5.204,11.238c-3.537,4.227-4.104,9.302-5.992,13.992
		c-0.119,0.295-0.295,0.568-0.445,0.851c-0.087-0.272-0.25-0.543-0.252-0.815c-0.085-12.515-0.671-25.056-0.042-37.535
		c0.391-7.755,2.457-15.455,4.146-23.096c0.438-1.979,2.275-3.654,3.543-5.416c0.039-0.054,1.204,0.381,1.334,0.762
		c2.583,7.595,5.462,15.122,7.443,22.875c0.873,3.417-0.156,7.306-0.223,10.983c-0.021,1.197,0.27,2.4,0.417,3.6
		c0.588-0.542,1.17-1.09,1.77-1.62c0.109-0.097,0.284-0.119,0.429-0.176c0.088,0.394,0.27,0.792,0.25,1.181
		c-0.189,3.614-0.526,7.225-0.56,10.84c-0.011,1.139-0.903,3.89,2.246,2.404c0.147,0.339,0.455,0.703,0.406,1.011
		c-0.078,0.501-0.333,1.003-0.613,1.44c-0.449,0.701-1.514,1.47-1.395,2.003c1.751,7.841,3.547,15.676,5.552,23.457
		c1.985,7.703,4.286,15.325,6.25,23.033c0.239,0.938-0.847,2.164-1.156,3.301c-0.389,1.433-0.621,2.909-0.9,4.37
		c-0.408,2.134-0.797,4.272-1.194,6.408c0.087-2.063,0.131-4.131,0.274-6.191c0.124-1.777,0.41-3.544,0.521-5.322
		C284.635,394.457,284.358,393.833,284.224,393.218z M297.184,460.4c-3.432,3.836-1.916,8.73-2.731,13.106
		c-0.882,4.731-1.183,9.571-1.76,14.361c-0.052,0.431-0.274,0.84-0.417,1.26c-0.198-0.338-0.478-0.652-0.582-1.017
		c-2.519-8.84-5.189-17.644-7.406-26.561c-0.57-2.294,0.516-4.952,0.452-7.432c-0.095-3.694-0.711-7.376-0.789-11.07
		c-0.12-5.657,0.02-11.32,0.084-16.98c0.005-0.443,0.287-0.884,0.44-1.326c0.251,0.308,0.531,0.597,0.75,0.926
		c5.929,8.903,7.985,19.106,10.124,29.283c-0.342,0.188-0.685,0.375-1.027,0.563c0.897,1.399,1.802,2.794,2.684,4.204
		C297.128,459.914,297.273,460.301,297.184,460.4z M302.414,445.513c-0.227-0.317-0.601-0.609-0.658-0.955
		c-0.384-2.315-0.701-4.643-1.04-6.965c-0.243-0.012-0.485-0.024-0.728-0.036c0-8.109,0.005-16.218-0.016-24.327
		c-0.001-0.398-0.245-1.148-0.35-1.143c-4.067,0.176-2.439-3.443-3.389-5.25c-0.835-1.59-0.888-3.571-1.456-5.324
		c-3.052-9.409,2.223-16.885,5.765-24.744c0.112-0.25,1.74-0.282,2.006,0.073c4.388,5.873,8.872,11.696,12.811,17.864
		c0.816,1.278-0.025,4.13-0.88,5.875c-5.155,10.526-7.428,21.82-9.363,33.235c-0.607,3.581-1.459,7.121-2.223,10.675
		C302.815,444.85,302.577,445.174,302.414,445.513z M308.809,505.514c-0.328,0.777-0.92,1.443-1.394,2.16
		c-0.393-0.824-1.008-1.614-1.14-2.479c-0.872-5.68-1.64-11.376-2.419-16.911c0.652-8.765,0.416-17.469,2.27-25.702
		c0.994-4.414,3.654-9.024,2.363-13.241c-2.293-7.482,1.886-13.897,1.899-20.88c0.002-0.93,0.715-1.838,0.935-2.793
		c0.479-2.081,0.692-4.233,1.299-6.271c1.823-6.116,3.774-12.193,5.754-18.26c0.039-0.12,1.407-0.103,1.524,0.147
		c0.75,1.597,1.454,3.241,1.934,4.936c3.553,12.539,7.036,25.097,10.582,37.638c0.435,1.541,1.266,2.979,1.62,4.531
		c0.284,1.246,0.596,2.83,0.082,3.855c-3.168,6.312-6.562,12.51-9.901,18.736c-0.266,0.495-0.683,0.909-1.03,1.36
		c0.067-0.532,0.1-1.071,0.209-1.594c0.179-0.864,0.407-1.719,0.615-2.577c-0.588,0.693-1.413,1.292-1.728,2.093
		c-4.101,10.448-8.135,20.921-12.167,31.396C309.629,502.924,309.334,504.266,308.809,505.514z M331.876,514.955
		c-1.018,7.544-2.242,15.064-3.553,22.564c-0.713,4.081-1.778,8.103-2.748,12.136c-0.119,0.496-0.628,0.897-0.957,1.343
		c-0.273-0.699-0.742-1.386-0.788-2.1c-0.322-5.045-0.58-10.094-0.813-15.144c-0.247-5.326-1.553-10.897-0.451-15.935
		c2.897-13.235,6.835-26.244,10.427-39.325c0.236-0.861,1.045-1.564,1.587-2.341c0.15,0.878,0.324,1.753,0.444,2.636
		c0.103,0.755,0.143,1.519,0.211,2.278c0.287,0.039,0.574,0.078,0.861,0.118C334.7,492.444,333.394,503.714,331.876,514.955z
		 M335.468,365.275c-0.583,1.333,0.731,4.213-2.724,4.056c-0.368-0.017-0.934,3.941-1.368,6.063
		c-0.099,0.486,0.07,1.035-0.064,1.503c-0.224,0.78-0.593,1.519-0.901,2.275c-0.576-0.634-1.303-1.184-1.704-1.914
		c-3.911-7.117-8.286-14.042-11.463-21.478c-2.245-5.251-2.927-11.188-4.149-16.852c-0.637-2.95-0.933-5.973-1.472-9.556
		c1.453-10.107,2.826-20.718,4.553-31.271c0.973-5.95,2.513-11.809,3.842-17.699c0.135-0.601,0.572-1.133,0.869-1.697
		c0.389,0.513,0.912,0.971,1.147,1.546c2.617,6.404,4.946,12.938,7.831,19.217c4.623,10.066,9.616,19.961,14.417,29.946
		c0.344,0.716,0.72,1.657,0.537,2.35c-2.251,8.512-4.597,17-6.936,25.489C337.138,359.95,336.579,362.735,335.468,365.275z
		 M353.82,421.342c-0.89,1.416-2.31,2.514-3.583,3.651c-0.135,0.121-1.241-0.388-1.329-0.745c-0.854-3.455-4.245-6.405-2.164-10.467
		c0.092-0.18-0.008-0.515-0.113-0.733c-4.746-9.851-2.038-19.813-0.346-29.719c1.041-6.093,2.478-12.118,3.676-18.186
		c0.139-0.701-0.115-1.479-0.187-2.221c-0.334,0.629-0.8,1.224-0.981,1.895c-1.064,3.935-1.55,8.115-3.189,11.786
		c-3.347,7.497-2.958,15.43-3.697,23.252c-0.059,0.621-0.37,1.218-0.563,1.826c-0.422-0.494-0.905-0.948-1.256-1.487
		c-3.458-5.321-1.788-11.15-1.587-16.815c0.2-5.633,0.056-11.348,1-16.867c1.036-6.047,3.087-11.928,4.813-17.847
		c0.758-2.599,1.782-5.122,2.741-7.659c0.197-0.521,0.643-0.948,0.974-1.418c0.363,0.427,0.887,0.796,1.064,1.29
		c2.064,5.736,4.003,11.518,6.133,17.229c1.163,3.121,2.668,6.113,3.934,9.199c0.377,0.921,0.464,1.961,0.684,2.946
		c-0.05,0.01-0.1,0.019-0.15,0.028c1.039,7.584,2.099,15.166,3.104,22.754c0.413,3.113,1.332,6.336,0.876,9.335
		c-0.433,2.844-2.254,5.518-3.661,8.162C358.062,414.196,356.029,417.828,353.82,421.342z M364.069,454.116
		c-1.776,10.73-3.654,21.443-5.529,32.156c-0.101,0.577-0.525,1.098-0.799,1.644c-0.074-0.568-0.211-1.135-0.213-1.703
		c-0.017-4.917-0.01-9.833-0.01-14.749c0.241,0,0.483,0,0.725-0.001c0-8.802,0.085-17.607-0.081-26.406
		c-0.029-1.521,1.193-4.125-2.014-4.471c-0.053-0.006-0.162-1.283,0.07-1.834c1.894-4.495,3.81-8.983,5.837-13.419
		c0.74-1.619,1.802-3.092,2.717-4.631c-0.026,1.898-0.097,3.797-0.071,5.695c0.084,6.292,0.311,12.584,0.259,18.875
		C364.936,448.223,364.553,451.196,364.069,454.116z M472.323,308.346c0.931-1.487,1.894-2.955,2.847-4.428
		c0.084,0.074,0.252,0.194,0.24,0.214c-0.898,1.59-1.81,3.172-2.725,4.752c-0.036,0.062-0.119,0.097-0.417,0.331
		C472.288,308.795,472.217,308.515,472.323,308.346z M470.335,311.405c0.172,0.15,0.516,0.385,0.489,0.438
		c-0.536,1.088-1.113,2.155-1.809,3.463c-0.27-0.365-0.489-0.563-0.455-0.63C469.133,313.576,469.737,312.492,470.335,311.405z
		 M461.236,290.698c1.233-3.594,2.368-7.222,3.545-10.835c-0.015-0.046-0.031-0.094-0.043-0.14c0.093-0.187,0.187-0.374,0.279-0.561
		c0.734-2.17,1.461-4.344,2.227-6.503c0.125-0.354,0.475-0.628,0.72-0.94c0.063,0.373,0.297,0.826,0.165,1.106
		c-1.003,2.128-2.063,4.229-3.111,6.336c-0.073,0.215-0.146,0.431-0.219,0.647c-0.006,0.018-0.012,0.036-0.018,0.054
		c0.22,0.709,0.671,1.49,0.48,2.054c-2.971,8.791-6.035,17.55-9.088,26.313c-0.45,1.294-0.953,2.569-1.433,3.853
		c0.161-1.4,0.087-2.877,0.521-4.186C457.178,302.139,459.268,296.438,461.236,290.698z M454.923,170.583
		c0.836-4.056,1.661-8.115,2.539-12.162c0.117-0.539,0.51-1.019,0.774-1.526c0.166,0.5,0.307,1.011,0.503,1.499
		c0.332,0.825,0.7,1.636,1.142,2.658c-0.527,0.874-1.237,1.836-1.723,2.902c-1.007,2.21-1.89,4.477-2.839,6.713
		c-0.091,0.213-0.294,0.378-0.444,0.565C454.89,171.016,454.879,170.793,454.923,170.583z M453.315,239.502
		c0.183,0.261,0.405,0.503,0.54,0.787c0.672,1.414,1.321,2.838,1.579,3.397c0.34,5.01,0.618,8.962,0.854,12.917
		c0.02,0.317-0.251,0.652-0.387,0.978c-0.144-0.277-0.379-0.543-0.416-0.834c-0.202-1.589-0.295-3.193-0.536-4.775
		c-0.583-3.817-1.235-7.623-1.83-11.438C453.069,240.207,453.245,239.846,453.315,239.502z M453.027,317.887
		c0.362-1.005,0.767-1.996,1.156-2.991c0.085,0.27,0.301,0.579,0.231,0.801c-0.291,0.942-0.667,1.857-1.151,3.156
		C453.109,318.257,452.973,318.037,453.027,317.887z M450.63,217.118c0.173,0.33,0.459,0.648,0.497,0.993
		c0.102,0.919,0.023,1.861,0.156,2.773c0.114,0.793,0.42,1.56,0.641,2.337c-0.458-0.884-1.049-1.727-1.339-2.663
		c-0.326-1.056-0.383-2.195-0.557-3.298C450.229,217.213,450.43,217.166,450.63,217.118z M449.894,348.294
		c2.419-4.931,4.823-9.871,7.327-14.759c1.19-2.324,2.537-4.574,3.92-6.79c0.352-0.563,1.113-0.868,1.688-1.292
		c-0.125,0.631-0.101,1.345-0.397,1.882c-3.3,5.977-6.653,11.923-9.984,17.883c-0.781,1.397-1.533,2.812-2.769,5.082
		C449.804,349.032,449.738,348.609,449.894,348.294z M387.376,271.397c0.234,0.304,0.469,0.608,0.719,0.934
		c-0.158,0.271-0.264,0.451-0.369,0.631c-0.203-0.326-0.453-0.636-0.586-0.989C387.086,271.832,387.289,271.593,387.376,271.397z
		 M389.815,285.097c-2.175,1.833-4.432,3.735-6.688,5.637c-0.081-0.487-0.37-1.059-0.211-1.447c1.128-2.734,2.334-5.437,3.56-8.129
		c0.11-0.242,0.532-0.343,0.81-0.509C388.032,281.962,388.78,283.277,389.815,285.097z M386.347,267.822
		c0.167,0.376,0.335,0.753,0.633,1.42c-0.118,0.048-0.463,0.25-0.509,0.197c-0.243-0.287-0.494-0.619-0.574-0.974
		C385.857,268.294,386.185,268.04,386.347,267.822z M383.157,275.312c0.101-0.336,0.718-0.519,1.095-0.772
		c0.444,0.691,1.424,1.589,1.25,2.042c-1.576,4.08-3.35,8.083-5.091,12.099c-0.069,0.16-0.396,0.209-0.602,0.31
		c-0.129-0.457-0.259-0.914-0.275-0.974C380.805,283.51,381.943,279.399,383.157,275.312z M372.159,357.229
		c0.183-0.036,0.366-0.071,0.549-0.106c0-6.23-1.02-12.669,0.207-18.648c2.755-13.426,3.267-27.723,12.241-39.192
		c2.157-2.757,5.002-4.987,7.635-7.343c0.241-0.216,1.641,0.243,1.821,0.674c1.793,4.276,3.375,8.64,5.154,12.922
		c1.197,2.881,2.447,5.765,3.977,8.477c1.886,3.344,3.306,6.604,1.687,10.496c-2.497,6.003-4.885,12.053-7.373,18.062
		c-0.272,0.658-0.897,1.17-1.359,1.75c-0.229-0.662-0.518-1.31-0.679-1.988c-1.827-7.66-3.529-15.353-5.53-22.967
		c-0.426-1.621-1.918-2.962-2.919-4.432c0.34,1.565,0.713,3.125,1.015,4.697c0.966,5.024,1.882,10.057,2.86,15.078
		c0.726,3.72,2.431,7.523,2.052,11.116c-0.478,4.532-2.236,9.065-4.149,13.277c-3.261,7.18-7.049,14.123-10.685,21.129
		c-0.448,0.865-1.316,1.514-1.989,2.262c-0.413-0.877-1.061-1.718-1.201-2.637C374.314,372.321,373.251,364.773,372.159,357.229z
		 M395.575,414.407c-0.27,2.173-0.375,4.382-0.839,6.513c-1.942,8.92-3.756,17.864-9.176,25.591
		c-2.108,3.006-3.558,6.473-5.398,9.677c-0.092,0.161-1.543-0.219-1.538-0.275c0.219-2.523,0.722-5.034,0.78-7.556
		c0.071-3.085-0.115-6.188-0.375-9.268c-0.999-11.84-2.158-23.668-3.003-35.52c-0.103-1.44,1.372-2.977,2.06-4.494
		c1.702-3.752,3.333-7.538,5.128-11.246c0.148-0.307-0.047-3.472,1.761-0.781c0.698-0.714,1.402-1.422,2.091-2.145
		c0.51-0.534,1-1.087,1.498-1.632c0.297,0.665,0.706,1.303,0.872,1.999c2.29,9.618,4.548,19.244,6.813,28.868
		C396.023,414.229,395.8,414.318,395.575,414.407z M406.646,408.638c-1.264,5.007-4.409,9.545-6.764,14.263
		c-0.202,0.405-0.945,0.541-1.438,0.803c-0.058-0.568-0.155-1.135-0.168-1.703c-0.157-7.035,0.197-14.131-0.646-21.082
		c-0.467-3.848-3.173-7.375-4.438-11.189c-1.551-4.677-4.664-9.184-2.507-14.499c0.996-2.454,2.241-4.807,3.244-7.258
		c0.444-1.085,0.427-2.357,0.86-3.448c3.11-7.813,6.228-15.626,9.467-23.387c1.063-2.547,2.486-4.945,3.774-7.396
		c0.185-0.351,0.536-0.613,0.811-0.916c0.149,0.368,0.375,0.723,0.438,1.105c1.233,7.579,2.447,15.161,3.666,22.742
		C412.706,374.311,410.934,391.657,406.646,408.638z M413.762,300.943c-0.282-0.953-0.564-1.905-0.572-1.933
		c0.117-1.596,0.324-2.237,0.162-2.765c-0.206-0.672-0.712-1.252-1.088-1.872c-0.466,0.516-1.189,0.961-1.354,1.56
		c-1.1,3.987-2.069,8.009-3.113,12.012c-0.131,0.501-0.454,0.952-0.688,1.426c-0.257-0.426-0.642-0.822-0.751-1.283
		c-1.854-7.782-3.848-15.54-5.335-23.393c-0.259-1.365,1.61-3.171,2.585-4.718c0.63-1.001,1.477-1.866,2.106-2.867
		c0.213-0.337,0.058-0.906,0.07-1.37c-0.445,0.145-1.016,0.162-1.312,0.456c-0.899,0.895-1.652,1.936-2.55,2.833
		c-0.316,0.315-0.887,0.376-1.341,0.554c0.121-0.474,0.1-1.069,0.385-1.401c3.581-4.179,7.202-8.322,10.819-12.468
		c3.688-4.229,7.114-8.731,11.137-12.615c7.319-7.064,9.733-16.569,13.203-25.507c1.083-2.79,0.386-6.237,0.744-9.356
		c0.146-1.275,0.931-2.478,1.426-3.714c0.398,0.999,0.965,1.966,1.168,3.003c0.79,4.054,1.625,8.109,2.142,12.202
		c0.642,5.076,1.498,10.213,1.262,15.278c-0.144,3.066-1.803,6.268-3.435,9.021c-5.945,10.033-12.306,19.83-15.786,31.11
		c-0.167,0.54-0.69,0.969-1.049,1.45c0.104-0.566,0.239-1.128,0.308-1.698c0.603-5.078,1.082-10.173,1.822-15.231
		c0.628-4.288,1.567-8.529,2.328-12.799c0.077-0.433-0.124-0.915-0.196-1.374c-0.316,0.317-0.822,0.583-0.922,0.958
		c-3.546,13.307-7.057,26.623-10.558,39.942c-0.15,0.571-0.048,1.222-0.258,1.76C414.746,299.109,414.224,300.014,413.762,300.943z
		 M417.578,389.749c0.029-0.324,0.05-0.648,0.087-0.971c0.612-5.362,1.651-10.718,1.728-16.087
		c0.086-6.13-0.688-12.272-1.085-18.409c-0.339-5.223-0.564-10.457-1.049-15.666c-0.343-3.681-0.481-7.526-1.697-10.947
		c-1.936-5.444,0.108-9.985,1.958-14.739c3.096-7.959,5.893-16.045,9.271-23.881c4.109-9.527,8.576-18.907,13.149-28.222
		c1.119-2.28,3.256-4.059,4.922-6.071c0.108-0.13,0.231-0.264,0.287-0.418c0.417-1.166,0.818-2.338,1.226-3.507
		c0.537,1.448,1.154,2.874,1.584,4.354c0.278,0.961,0.284,2.002,0.438,3.208c0,8.521,0.619,17.286-0.188,25.918
		c-0.699,7.491-2.988,14.836-4.617,22.236c-2.209,10.032-4.452,20.056-6.692,30.082c-1.038,4.646-1.797,9.385-3.254,13.897
		c-1.217,3.768-3.442,7.196-4.906,10.899c-2.487,6.288-4.709,12.681-7.08,19.016c-1.066,2.848-2.216,5.666-3.36,8.484
		C418.169,389.244,417.824,389.476,417.578,389.749z M421.951,413.565c-0.079,0.084-0.248,0.085-0.375,0.124
		c0.044-0.151,0.069-0.311,0.134-0.454c0.585-1.303,1.14-2.624,1.799-3.889c0.133-0.255,0.672-0.409,1.017-0.399
		c0.196,0.005,0.379,0.439,0.789,0.962C424.155,411.174,423.06,412.375,421.951,413.565z M506.538,266.517
		c-2.85,9.833-5.352,19.775-8.479,29.517c-2.269,7.066-4.888,14.095-8.168,20.737c-2.284,4.624-5.95,8.566-9.015,12.802
		c-0.169,0.233-0.486,0.36-0.733,0.537c0.075-0.477,0.156-0.953,0.227-1.43c0.092-0.621,0.175-1.243,0.261-1.865
		c-0.531,0.434-1.219,0.768-1.572,1.316c-7.148,11.095-14.36,22.152-21.347,33.349c-6.266,10.041-12.063,20.38-18.502,30.306
		c-2.694,4.152-6.514,7.574-9.822,11.328c-0.056,0.063-0.13,0.111-0.183,0.177c-0.98,1.21-1.96,2.422-2.939,3.634
		c0.466-1.593,0.807-3.237,1.422-4.771c1.971-4.92,3.152-10.487,6.284-14.532c4.688-6.057,4.92-13.387,7.73-19.9
		c0.407-0.942,0.399-2.771,2.18-1.055c0.153,0.148,1.162-0.188,1.338-0.525c4.667-8.977,9.046-18.112,13.969-26.944
		c4.036-7.244,8.716-14.129,13.094-21.183c1.644-2.648,3.241-5.325,4.951-8.138c-0.016-0.048-0.087-0.272-0.158-0.496
		c-0.363,0.144-0.851,0.185-1.069,0.448c-1.025,1.233-1.968,2.535-2.964,3.793c-0.182,0.229-0.472,0.374-0.711,0.557
		c0.099-0.289,0.146-0.608,0.304-0.861c6.249-10.097,12.254-20.356,18.835-30.232c6.929-10.397,14.405-20.429,21.659-30.608
		c0.246-0.346,0.68-0.559,1.025-0.833c-0.036,0.417-0.008,0.851-0.119,1.246c-0.661,2.366-1.345,4.726-2.05,7.079
		c-0.089,0.296-0.347,0.542-0.525,0.81c-0.014-0.312,0.05-0.652-0.057-0.928c-0.187-0.482-0.396-1.208-0.746-1.309
		c-0.402-0.116-1.272,0.214-1.413,0.563C508.258,261.542,507.269,263.995,506.538,266.517z"/>
	<path fill-rule="evenodd" clip-rule="evenodd" d="M195.243,175.654c-0.003,0.001-0.008,0.001-0.011,0.002
		c0.001,0.006,0.003,0.012,0.004,0.017C195.238,175.667,195.241,175.661,195.243,175.654z"/>
	<path fill-rule="evenodd" clip-rule="evenodd" d="M211.017,163.836c0.103-0.837,0.246-2.268,0.467-3.686
		c0.121-0.779,0.374-1.539,0.567-2.307c0.175,0.815,0.514,1.635,0.493,2.445c-0.049,1.927-0.24,3.852-0.434,5.772
		c-0.063,0.618-0.315,1.216-0.481,1.824c-0.205-0.642-0.466-1.272-0.594-1.929C210.94,165.467,211.017,164.943,211.017,163.836z"/>
	<path fill-rule="evenodd" clip-rule="evenodd" d="M468.913,362.623c0.008-0.167-0.031-0.356,0.032-0.499
		c0.672-1.528,1.358-3.05,2.07-4.561c0.01-0.021,0.396,0.136,0.607,0.21c-0.76,1.305-1.521,2.609-2.276,3.917
		c-0.161,0.279-0.298,0.573-0.441,0.874C468.91,362.578,468.913,362.623,468.913,362.623z"/>
	<path fill-rule="evenodd" clip-rule="evenodd" d="M464.78,245.375c-0.206-0.927-0.375-1.303-0.341-1.659
		c0.025-0.275,0.307-0.525,0.475-0.787c0.126,0.395,0.312,0.782,0.354,1.186C465.294,244.351,465.091,244.609,464.78,245.375z"/>
	<path fill-rule="evenodd" clip-rule="evenodd" fill="none" d="M339.198,265.372c0.663-7.872,0.625-15.888,2.209-23.57
		c1.296-6.283,4.457-12.196,6.96-18.203c0.484-1.163,1.998-1.867,2.614-3.011c2.179-4.043,4.138-8.203,6.248-12.284
		c2.461-4.759,4.75-9.629,7.54-14.19c7.844-12.824,15.881-25.529,23.902-38.243c1.765-2.797,3.725-5.478,5.739-8.101
		c0.274-0.357,1.396-0.103,2.117-0.048c0.159,0.012,0.247,0.481,0.443,0.566c3.276,1.415,3.799,2.164,3.761,6.007
		c-0.11,11.131-0.108,22.266-0.44,33.391c-0.246,8.226-0.089,16.609-1.684,24.608c-1.607,8.065-5.053,15.78-7.894,23.575
		c-1.682,4.615-3.745,9.091-5.653,13.622c-0.153,0.363-0.422,0.955-0.654,0.964c-2.768,0.109-3.207,1.538-2.336,3.84
		c0.064,0.169-0.237,0.477-0.369,0.719c-0.207-0.349-0.494-0.673-0.608-1.051c-1.567-5.173-3.208-10.327-4.637-15.54
		c-2.211-8.068-4.271-16.177-6.401-24.267c-0.173-0.655-0.274-1.369-0.616-1.929c-0.36-0.592-0.969-1.033-1.47-1.54
		c-0.152,0.76-0.582,1.586-0.417,2.27c2.338,9.723,4.677,19.448,7.185,29.128c1.562,6.027,3.434,11.974,5.094,17.977
		c0.214,0.775,0.157,1.716-0.055,2.505c-3.058,11.343-6.58,22.581-9.124,34.036c-1.992,8.97-2.916,18.189-4.063,27.33
		c-0.695,5.544-1.063,11.142-1.284,16.728c-0.139,3.533,0.276,7.087,0.413,10.633c0.015,0.382-0.167,0.771-0.258,1.156
		c-0.225-0.381-0.525-0.737-0.663-1.147c-2.77-8.289-5.226-16.702-8.424-24.821c-1.251-3.175-1.069-5.556,0.36-8.334
		c1.536-2.985,2.899-6.063,4.224-9.15c0.247-0.576-0.044-1.383-0.087-2.084c-0.46,0.453-1.046,0.833-1.359,1.372
		c-1.447,2.489-2.782,5.043-4.241,7.525c-0.424,0.722-1.124,1.282-1.698,1.917c0.058-0.817-0.033-1.678,0.198-2.443
		c0.931-3.075,1.967-6.119,2.952-9.177c2.688-8.347,5.434-16.676,8.005-25.06c0.534-1.743,1.144-4.023,0.47-5.479
		c-2.966-6.41,0.252-12.6,0.196-18.875c-0.1-11.241,0.216-22.485,0.116-33.726c-0.036-4.015-0.733-8.028-1.235-12.029
		c-0.07-0.565-0.745-1.054-1.141-1.579c-0.314,0.796-0.908,1.597-0.895,2.387c0.052,2.931,0.334,5.856,0.424,8.788
		c0.008,0.246-0.782,0.5-1.181,0.779c-0.719,0.504-2.046,1.067-2.018,1.539c0.094,1.558,0.251,3.429,1.157,4.563
		c2.928,3.662,2.935,7.866,2.65,12.073c-0.696,10.294-1.596,20.575-2.444,30.859c-0.215,2.608-0.698,5.205-0.747,7.813
		c-0.019,1.003,0.887,2.002,1.261,3.042c0.197,0.548,0.365,1.25,0.195,1.767c-3.138,9.499-6.322,18.982-9.527,28.459
		c-0.149,0.443-0.577,0.792-0.875,1.185c-0.142-0.475-0.294-0.947-0.423-1.425c-3.411-12.705-6.888-25.392-10.167-38.13
		c-0.625-2.428-0.464-5.059-0.666-7.596C339.651,265.431,339.425,265.401,339.198,265.372z"/>
	<path fill-rule="evenodd" clip-rule="evenodd" fill="none" d="M275.116,429.227c0.854,10.718,1.71,21.437,2.561,32.155
		c0.032,0.407,0.02,0.818,0.028,1.227c-0.406-0.352-0.936-0.628-1.199-1.065c-6.077-10.112-10.853-20.618-12.118-32.624
		c-0.721-6.836-3.006-13.493-4.173-20.302c-1.458-8.504-2.709-17.06-3.592-25.64c-0.324-3.146,1.464-6.577,0.899-9.619
		c-1.788-9.619,3.305-17.131,6.625-25.284c2.158-5.298,3.668-10.862,5.396-16.33c0.171-0.541-0.165-1.242-0.265-1.868
		c-0.437,0.532-1.011,1-1.286,1.605c-1.714,3.777-2.647,8.183-5.204,11.238c-3.537,4.227-4.104,9.302-5.992,13.992
		c-0.119,0.295-0.295,0.568-0.445,0.851c-0.087-0.272-0.25-0.543-0.252-0.815c-0.085-12.515-0.671-25.056-0.042-37.535
		c0.391-7.755,2.457-15.455,4.146-23.096c0.438-1.979,2.275-3.654,3.543-5.416c0.039-0.054,1.204,0.381,1.334,0.762
		c2.583,7.595,5.462,15.122,7.443,22.875c0.873,3.417-0.156,7.306-0.223,10.983c-0.021,1.197,0.27,2.4,0.417,3.6
		c0.588-0.542,1.17-1.09,1.77-1.62c0.109-0.097,0.284-0.119,0.429-0.176c0.088,0.394,0.27,0.792,0.25,1.181
		c-0.189,3.614-0.526,7.225-0.56,10.84c-0.011,1.139-0.903,3.89,2.246,2.404c0.147,0.339,0.455,0.703,0.406,1.011
		c-0.078,0.501-0.333,1.003-0.613,1.44c-0.449,0.701-1.514,1.47-1.395,2.003c1.751,7.841,3.547,15.676,5.552,23.457
		c1.985,7.703,4.286,15.325,6.25,23.033c0.239,0.938-0.847,2.164-1.156,3.301c-0.389,1.433-0.621,2.909-0.9,4.37
		c-0.408,2.134-0.797,4.272-1.194,6.408c0.087-2.063,0.131-4.131,0.274-6.191c0.124-1.777,0.41-3.544,0.521-5.322
		c0.038-0.604-0.24-1.228-0.374-1.843c-0.364,0.588-0.892,1.133-1.06,1.773c-0.388,1.474-0.577,3-0.899,4.493
		c-0.134,0.622-0.398,1.215-0.604,1.822c-0.276-0.519-0.49-1.084-0.837-1.549c-4.384-5.868-6.128-12.65-6.895-19.776
		c-0.009-0.08-0.082-0.151-0.102-0.233c-0.274-1.141-0.545-2.284-0.816-3.426c-0.202,1.396-0.751,2.847-0.546,4.181
		c0.795,5.174,1.853,10.307,2.77,15.462c0.754,4.237,0.449,9.02,2.378,12.614c3.896,7.26,1.576,14.362,1.167,21.567
		c-0.031,0.546-0.389,1.074-0.595,1.61c-0.174-0.547-0.484-1.09-0.499-1.641c-0.104-3.806-0.117-7.614-0.241-11.418
		c-0.019-0.563-0.472-1.11-0.723-1.665c-0.283,0.572-0.798,1.139-0.811,1.717c-0.077,3.478-0.038,6.957-0.038,10.437
		C275.62,429.199,275.368,429.213,275.116,429.227z"/>
	<path fill-rule="evenodd" clip-rule="evenodd" fill="none" d="M302.704,316.584c0.225,3.634,0.709,7.277,0.601,10.901
		c-0.099,3.296-0.836,6.574-1.313,9.857c-0.029,0.199-0.253,0.37-0.387,0.554c-0.309-0.391-0.727-0.737-0.911-1.179
		c-3.176-7.637-6.263-15.312-9.499-22.923c-2.202-5.179-5.251-10.101-6.674-15.469c-0.859-3.241-0.022-7.405,1.334-10.613
		c1.144-2.705-0.577-4.597-0.259-6.822c0.501-3.503,1.217-6.976,1.786-10.47c0.077-0.471-0.169-0.994-0.266-1.493
		c-0.336,0.455-0.83,0.861-0.983,1.371c-1.591,5.261-3.1,10.547-4.704,15.804c-0.3,0.982-0.921,1.867-1.394,2.797
		c-0.561-0.874-1.326-1.678-1.647-2.632c-1.721-5.1-3.825-10.149-4.769-15.4c-0.465-2.592,0.983-5.705,2.089-8.364
		c2.241-5.389,4.876-10.613,7.28-15.936c2.939-6.508,6.046-12.955,8.629-19.603c2.114-5.438,3.56-11.136,5.324-16.711
		c0.163-0.517,0.485-0.982,0.733-1.472c0.235,0.42,0.572,0.814,0.69,1.265c1.72,6.521,3.166,13.125,5.177,19.554
		c2.039,6.517,4.628,12.862,6.979,19.281c0.897,2.449,1.565,5.019,2.755,7.316c1.924,3.715,0.522,7.267-0.139,10.826
		c-2.177,11.718-4.465,23.417-6.853,35.093c-0.142,0.692,0.938,3.769-2.091,2.092c-0.024-0.013-1.085,1.25-1.109,1.936
		c-0.119,3.474-0.055,6.953-0.055,10.431C302.921,316.577,302.812,316.581,302.704,316.584z"/>
	<path fill-rule="evenodd" clip-rule="evenodd" fill="none" d="M448.396,258.392c0,8.521,0.619,17.286-0.188,25.918
		c-0.699,7.491-2.988,14.836-4.617,22.236c-2.209,10.032-4.452,20.056-6.692,30.082c-1.038,4.646-1.797,9.385-3.254,13.897
		c-1.217,3.768-3.442,7.196-4.906,10.899c-2.487,6.288-4.709,12.681-7.08,19.016c-1.066,2.848-2.216,5.666-3.36,8.484
		c-0.13,0.319-0.475,0.551-0.721,0.824c0.029-0.324,0.05-0.648,0.087-0.971c0.612-5.362,1.651-10.718,1.728-16.087
		c0.086-6.13-0.688-12.272-1.085-18.409c-0.339-5.223-0.564-10.457-1.049-15.666c-0.343-3.681-0.481-7.526-1.697-10.947
		c-1.936-5.444,0.108-9.985,1.958-14.739c3.096-7.959,5.893-16.045,9.271-23.881c4.109-9.527,8.576-18.907,13.149-28.222
		c1.119-2.28,3.256-4.059,4.922-6.071c0.108-0.13,0.231-0.264,0.287-0.418c0.417-1.166,0.818-2.338,1.226-3.507
		c0.537,1.448,1.154,2.874,1.584,4.354C448.237,256.145,448.243,257.186,448.396,258.392z"/>
	<path fill-rule="evenodd" clip-rule="evenodd" fill="none" d="M311.622,329.373c1.453-10.107,2.826-20.718,4.553-31.271
		c0.973-5.95,2.513-11.809,3.842-17.699c0.135-0.601,0.572-1.133,0.869-1.697c0.389,0.513,0.912,0.971,1.147,1.546
		c2.617,6.404,4.946,12.938,7.831,19.217c4.623,10.066,9.616,19.961,14.417,29.946c0.344,0.716,0.72,1.657,0.537,2.35
		c-2.251,8.512-4.597,17-6.936,25.489c-0.743,2.696-1.302,5.482-2.413,8.021c-0.583,1.333,0.731,4.213-2.724,4.056
		c-0.368-0.017-0.934,3.941-1.368,6.063c-0.099,0.486,0.07,1.035-0.064,1.503c-0.224,0.78-0.593,1.519-0.901,2.275
		c-0.576-0.634-1.303-1.184-1.704-1.914c-3.911-7.117-8.286-14.042-11.463-21.478c-2.245-5.251-2.927-11.188-4.149-16.852
		C312.457,335.979,312.161,332.957,311.622,329.373z"/>
	<path fill-rule="evenodd" clip-rule="evenodd" fill="none" d="M372.708,357.123c0-6.23-1.02-12.669,0.207-18.648
		c2.755-13.426,3.267-27.723,12.241-39.192c2.157-2.757,5.002-4.987,7.635-7.343c0.241-0.216,1.641,0.243,1.821,0.674
		c1.793,4.276,3.375,8.64,5.154,12.922c1.197,2.881,2.447,5.765,3.977,8.477c1.886,3.344,3.306,6.604,1.687,10.496
		c-2.497,6.003-4.885,12.053-7.373,18.062c-0.272,0.658-0.897,1.17-1.359,1.75c-0.229-0.662-0.518-1.31-0.679-1.988
		c-1.827-7.66-3.529-15.353-5.53-22.967c-0.426-1.621-1.918-2.962-2.919-4.432c0.34,1.565,0.713,3.125,1.015,4.697
		c0.966,5.024,1.882,10.057,2.86,15.078c0.726,3.72,2.431,7.523,2.052,11.116c-0.478,4.532-2.236,9.065-4.149,13.277
		c-3.261,7.18-7.049,14.123-10.685,21.129c-0.448,0.865-1.316,1.514-1.989,2.262c-0.413-0.877-1.061-1.718-1.201-2.637
		c-1.157-7.534-2.221-15.082-3.313-22.626C372.342,357.193,372.525,357.158,372.708,357.123z"/>
	<path fill-rule="evenodd" clip-rule="evenodd" fill="none" d="M477.233,309.876c-0.016-0.048-0.087-0.272-0.158-0.496
		c-0.363,0.144-0.851,0.185-1.069,0.448c-1.025,1.233-1.968,2.535-2.964,3.793c-0.182,0.229-0.472,0.374-0.711,0.557
		c0.099-0.289,0.146-0.608,0.304-0.861c6.249-10.097,12.254-20.356,18.835-30.232c6.929-10.397,14.405-20.429,21.659-30.608
		c0.246-0.346,0.68-0.559,1.025-0.833c-0.036,0.417-0.008,0.851-0.119,1.246c-0.661,2.366-1.345,4.726-2.05,7.079
		c-0.089,0.296-0.347,0.542-0.525,0.81c-0.014-0.312,0.05-0.652-0.057-0.928c-0.187-0.482-0.396-1.208-0.746-1.309
		c-0.402-0.116-1.272,0.214-1.413,0.563c-0.986,2.437-1.976,4.89-2.706,7.412c-2.85,9.833-5.352,19.775-8.479,29.517
		c-2.269,7.066-4.888,14.095-8.168,20.737c-2.284,4.624-5.95,8.566-9.015,12.802c-0.169,0.233-0.486,0.36-0.733,0.537
		c0.075-0.477,0.156-0.953,0.227-1.43c0.092-0.621,0.175-1.243,0.261-1.865c-0.531,0.434-1.219,0.768-1.572,1.316
		c-7.148,11.095-14.36,22.152-21.347,33.349c-6.266,10.041-12.063,20.38-18.502,30.306c-2.694,4.152-6.514,7.574-9.822,11.328
		c-0.056,0.063-0.13,0.111-0.183,0.177c-0.98,1.21-1.96,2.422-2.939,3.634c0.466-1.593,0.807-3.237,1.422-4.771
		c1.971-4.92,3.152-10.487,6.284-14.532c4.688-6.057,4.92-13.387,7.73-19.9c0.407-0.942,0.399-2.771,2.18-1.055
		c0.153,0.148,1.162-0.188,1.338-0.525c4.667-8.977,9.046-18.112,13.969-26.944c4.036-7.244,8.716-14.129,13.094-21.183
		C473.926,315.366,475.523,312.689,477.233,309.876z"/>
	<path fill-rule="evenodd" clip-rule="evenodd" fill="none" d="M303.855,488.284c0.652-8.765,0.416-17.469,2.27-25.702
		c0.994-4.414,3.654-9.024,2.363-13.241c-2.293-7.482,1.886-13.897,1.899-20.88c0.002-0.93,0.715-1.838,0.935-2.793
		c0.479-2.081,0.692-4.233,1.299-6.271c1.823-6.116,3.774-12.193,5.754-18.26c0.039-0.12,1.407-0.103,1.524,0.147
		c0.75,1.597,1.454,3.241,1.934,4.936c3.553,12.539,7.036,25.097,10.582,37.638c0.435,1.541,1.266,2.979,1.62,4.531
		c0.284,1.246,0.596,2.83,0.082,3.855c-3.168,6.312-6.562,12.51-9.901,18.736c-0.266,0.495-0.683,0.909-1.03,1.36
		c0.067-0.532,0.1-1.071,0.209-1.594c0.179-0.864,0.407-1.719,0.615-2.577c-0.588,0.693-1.413,1.292-1.728,2.093
		c-4.101,10.448-8.135,20.921-12.167,31.396c-0.487,1.267-0.782,2.608-1.308,3.856c-0.328,0.777-0.92,1.443-1.394,2.16
		c-0.393-0.824-1.008-1.614-1.14-2.479C305.402,499.516,304.635,493.819,303.855,488.284z"/>
	<path fill-rule="evenodd" clip-rule="evenodd" fill="none" d="M220.683,241.861c0.667,10.463,1.422,20.922,1.978,31.392
		c0.498,9.382,1.086,18.78,0.988,28.165c-0.035,3.292-1.792,6.648-3.123,9.824c-1.762,4.207-4.127,8.169-5.751,12.421
		c-1.036,2.711-1.16,5.764-1.762,8.65c-1.072,5.138-2.19,10.267-3.312,15.394c-0.06,0.277-0.329,0.508-0.5,0.761
		c-0.104-0.225-0.267-0.441-0.301-0.676c-1.101-7.422-2.206-14.844-3.273-22.272c-0.578-4.021-1.529-8.051-1.538-12.079
		c-0.018-8.328,0.014-16.707,0.897-24.972c0.941-8.804,2.786-17.519,4.447-26.232c0.726-3.805,1.109-8.103,3.178-11.13
		c3.837-5.613,3.241-12.264,5.659-18.102c0.181-0.438,0.443-0.842,0.667-1.261c0.205,0.439,0.51,0.858,0.597,1.32
		c0.549,2.907,1.049,5.823,1.564,8.736C220.96,241.819,220.822,241.84,220.683,241.861z"/>
	<path fill-rule="evenodd" clip-rule="evenodd" fill="none" d="M195.231,175.651c0.834,3.315,1.122,6.9,2.601,9.898
		c5.454,11.056,6.775,22.891,7.583,34.922c0.47,7.01,1.544,13.979,2.016,20.99c0.166,2.46-1.067,5.01-0.93,7.478
		c0.205,3.678-2.879,7.553,0.586,11.101c0.322,0.329-0.102,1.473-0.296,2.207c-1.355,5.127-2.727,10.25-4.137,15.363
		c-0.158,0.571-0.583,1.069-0.885,1.601c-0.16-0.53-0.296-1.069-0.482-1.59c-2.139-5.996-4.564-11.907-6.358-18.004
		c-2.109-7.169-4.225-14.417-5.326-21.781c-1.282-8.57-1.593-17.298-2.095-25.97c-0.605-10.448,1.269-20.5,5.417-30.126
		c0.858-1.991,1.547-4.055,2.316-6.084C195.245,175.654,195.231,175.651,195.231,175.651z"/>
	<path fill-rule="evenodd" clip-rule="evenodd" fill="none" d="M359.692,370.28c1.039,7.584,2.099,15.166,3.104,22.754
		c0.413,3.113,1.332,6.336,0.876,9.335c-0.433,2.844-2.254,5.518-3.661,8.162c-1.95,3.666-3.982,7.297-6.191,10.811
		c-0.89,1.416-2.31,2.514-3.583,3.651c-0.135,0.121-1.241-0.388-1.329-0.745c-0.854-3.455-4.245-6.405-2.164-10.467
		c0.092-0.18-0.008-0.515-0.113-0.733c-4.746-9.851-2.038-19.813-0.346-29.719c1.041-6.093,2.478-12.118,3.676-18.186
		c0.139-0.701-0.115-1.479-0.187-2.221c-0.334,0.629-0.8,1.224-0.981,1.895c-1.064,3.935-1.55,8.115-3.189,11.786
		c-3.347,7.497-2.958,15.43-3.697,23.252c-0.059,0.621-0.37,1.218-0.563,1.826c-0.422-0.494-0.905-0.948-1.256-1.487
		c-3.458-5.321-1.788-11.15-1.587-16.815c0.2-5.633,0.056-11.348,1-16.867c1.036-6.047,3.087-11.928,4.813-17.847
		c0.758-2.599,1.782-5.122,2.741-7.659c0.197-0.521,0.643-0.948,0.974-1.418c0.363,0.427,0.887,0.796,1.064,1.29
		c2.064,5.736,4.003,11.518,6.133,17.229c1.163,3.121,2.668,6.113,3.934,9.199c0.377,0.921,0.464,1.961,0.684,2.946
		C359.793,370.262,359.743,370.271,359.692,370.28z"/>
	<path fill-rule="evenodd" clip-rule="evenodd" fill="none" d="M413.189,299.01c0.117-1.596,0.324-2.237,0.162-2.765
		c-0.206-0.672-0.712-1.252-1.088-1.872c-0.466,0.516-1.189,0.961-1.354,1.56c-1.1,3.987-2.069,8.009-3.113,12.012
		c-0.131,0.501-0.454,0.952-0.688,1.426c-0.257-0.426-0.642-0.822-0.751-1.283c-1.854-7.782-3.848-15.54-5.335-23.393
		c-0.259-1.365,1.61-3.171,2.585-4.718c0.63-1.001,1.477-1.866,2.106-2.867c0.213-0.337,0.058-0.906,0.07-1.37
		c-0.445,0.145-1.016,0.162-1.312,0.456c-0.899,0.895-1.652,1.936-2.55,2.833c-0.316,0.315-0.887,0.376-1.341,0.554
		c0.121-0.474,0.1-1.069,0.385-1.401c3.581-4.179,7.202-8.322,10.819-12.468c3.688-4.229,7.114-8.731,11.137-12.615
		c7.319-7.064,9.733-16.569,13.203-25.507c1.083-2.79,0.386-6.237,0.744-9.356c0.146-1.275,0.931-2.478,1.426-3.714
		c0.398,0.999,0.965,1.966,1.168,3.003c0.79,4.054,1.625,8.109,2.142,12.202c0.642,5.076,1.498,10.213,1.262,15.278
		c-0.144,3.066-1.803,6.268-3.435,9.021c-5.945,10.033-12.306,19.83-15.786,31.11c-0.167,0.54-0.69,0.969-1.049,1.45
		c0.104-0.566,0.239-1.128,0.308-1.698c0.603-5.078,1.082-10.173,1.822-15.231c0.628-4.288,1.567-8.529,2.328-12.799
		c0.077-0.433-0.124-0.915-0.196-1.374c-0.316,0.317-0.822,0.583-0.922,0.958c-3.546,13.307-7.057,26.623-10.558,39.942
		c-0.15,0.571-0.048,1.222-0.258,1.76c-0.376,0.963-0.898,1.868-1.36,2.797C413.479,299.991,413.197,299.038,413.189,299.01z"/>
	<path fill-rule="evenodd" clip-rule="evenodd" fill="none" d="M412.946,356.672c-0.24,17.639-2.013,34.985-6.3,51.965
		c-1.264,5.007-4.409,9.545-6.764,14.263c-0.202,0.405-0.945,0.541-1.438,0.803c-0.058-0.568-0.155-1.135-0.168-1.703
		c-0.157-7.035,0.197-14.131-0.646-21.082c-0.467-3.848-3.173-7.375-4.438-11.189c-1.551-4.677-4.664-9.184-2.507-14.499
		c0.996-2.454,2.241-4.807,3.244-7.258c0.444-1.085,0.427-2.357,0.86-3.448c3.11-7.813,6.228-15.626,9.467-23.387
		c1.063-2.547,2.486-4.945,3.774-7.396c0.185-0.351,0.536-0.613,0.811-0.916c0.149,0.368,0.375,0.723,0.438,1.105
		C410.514,341.509,411.728,349.091,412.946,356.672z"/>
	<path fill-rule="evenodd" clip-rule="evenodd" fill="none" d="M216.868,362.266c-0.352-7.873-1.08-15.755-0.9-23.616
		c0.092-4.029,1.793-8.024,2.816-12.022c0.082-0.319,0.541-0.542,0.824-0.811c0.157,0.271,0.381,0.525,0.46,0.817
		c1.901,7.002,4.056,13.949,5.609,21.028c2.265,10.315,3.696,20.823,6.201,31.074c3.974,16.261,8.465,32.397,12.942,48.53
		c0.653,2.351,2.457,4.379,3.687,6.579c0.136,0.243,0.004,0.635-0.003,0.958c-0.175-0.281-0.285-0.691-0.538-0.819
		c-0.828-0.42-1.704-0.75-2.57-1.091c-0.717-0.282-1.769-0.313-2.121-0.83c-3.036-4.452-6.755-8.663-8.736-13.565
		c-5.151-12.748-9.667-25.76-14.137-38.77c-1.924-5.599-3.109-11.451-4.63-17.188C216.137,362.448,216.502,362.356,216.868,362.266z
		"/>
	<path fill-rule="evenodd" clip-rule="evenodd" fill="none" d="M395.575,414.407c-0.27,2.173-0.375,4.382-0.839,6.513
		c-1.942,8.92-3.756,17.864-9.176,25.591c-2.108,3.006-3.558,6.473-5.398,9.677c-0.092,0.161-1.543-0.219-1.538-0.275
		c0.219-2.523,0.722-5.034,0.78-7.556c0.071-3.085-0.115-6.188-0.375-9.268c-0.999-11.84-2.158-23.668-3.003-35.52
		c-0.103-1.44,1.372-2.977,2.06-4.494c1.702-3.752,3.333-7.538,5.128-11.246c0.148-0.307-0.047-3.472,1.761-0.781
		c0.698-0.714,1.402-1.422,2.091-2.145c0.51-0.534,1-1.087,1.498-1.632c0.297,0.665,0.706,1.303,0.872,1.999
		c2.29,9.618,4.548,19.244,6.813,28.868C396.023,414.229,395.8,414.318,395.575,414.407z"/>
	<path fill-rule="evenodd" clip-rule="evenodd" fill="none" d="M299.988,437.558c0-8.109,0.005-16.218-0.016-24.327
		c-0.001-0.398-0.245-1.148-0.35-1.143c-4.067,0.176-2.439-3.443-3.389-5.25c-0.835-1.59-0.888-3.571-1.456-5.324
		c-3.052-9.409,2.223-16.885,5.765-24.744c0.112-0.25,1.74-0.282,2.006,0.073c4.388,5.873,8.872,11.696,12.811,17.864
		c0.816,1.278-0.025,4.13-0.88,5.875c-5.155,10.526-7.428,21.82-9.363,33.235c-0.607,3.581-1.459,7.121-2.223,10.675
		c-0.077,0.358-0.315,0.682-0.479,1.021c-0.227-0.317-0.601-0.609-0.658-0.955c-0.384-2.315-0.701-4.643-1.04-6.965
		C300.473,437.582,300.231,437.569,299.988,437.558z"/>
	<path fill-rule="evenodd" clip-rule="evenodd" fill="none" d="M336.097,481.186c-1.396,11.258-2.703,22.528-4.22,33.769
		c-1.018,7.544-2.242,15.064-3.553,22.564c-0.713,4.081-1.778,8.103-2.748,12.136c-0.119,0.496-0.628,0.897-0.957,1.343
		c-0.273-0.699-0.742-1.386-0.788-2.1c-0.322-5.045-0.58-10.094-0.813-15.144c-0.247-5.326-1.553-10.897-0.451-15.935
		c2.897-13.235,6.835-26.244,10.427-39.325c0.236-0.861,1.045-1.564,1.587-2.341c0.15,0.878,0.324,1.753,0.444,2.636
		c0.103,0.755,0.143,1.519,0.211,2.278C335.523,481.107,335.81,481.146,336.097,481.186z"/>
	<path fill-rule="evenodd" clip-rule="evenodd" fill="none" d="M294.321,455.513c0.897,1.399,1.802,2.794,2.684,4.204
		c0.124,0.198,0.268,0.585,0.179,0.684c-3.432,3.836-1.916,8.73-2.731,13.106c-0.882,4.731-1.183,9.571-1.76,14.361
		c-0.052,0.431-0.274,0.84-0.417,1.26c-0.198-0.338-0.478-0.652-0.582-1.017c-2.519-8.84-5.189-17.644-7.406-26.561
		c-0.57-2.294,0.516-4.952,0.452-7.432c-0.095-3.694-0.711-7.376-0.789-11.07c-0.12-5.657,0.02-11.32,0.084-16.98
		c0.005-0.443,0.287-0.884,0.44-1.326c0.251,0.308,0.531,0.597,0.75,0.926c5.929,8.903,7.985,19.106,10.124,29.283
		C295.006,455.137,294.664,455.325,294.321,455.513z"/>
	<path fill-rule="evenodd" clip-rule="evenodd" fill="none" d="M298.596,372.2c-1.907,5.022-3.767,9.932-5.648,14.834
		c-0.078,0.203-0.355,0.33-0.54,0.493c-0.011-0.324-0.109-0.675-0.018-0.967c0.631-2.022,1.339-4.021,1.935-6.054
		c0.148-0.506-0.021-1.104-0.045-1.661c-0.536,0.306-1.323,0.484-1.557,0.944c-0.571,1.123-0.84,2.394-1.324,3.566
		c-0.216,0.522-0.657,0.951-0.996,1.423c-0.401-0.411-0.956-0.752-1.18-1.244c-1.879-4.122-3.829-8.222-5.438-12.449
		c-0.372-0.976,0.755-2.429,0.71-3.645c-0.067-1.836-0.396-3.705-0.918-5.469c-0.468-1.58-1.813-2.992-1.965-4.556
		c-0.555-5.725-0.774-11.482-1.117-17.228c-0.015-0.254,0.014-0.512-0.017-0.764c-0.161-1.311-0.335-2.621-0.505-3.931
		c0.503,1.175,0.953,2.377,1.518,3.521c5.019,10.164,10.044,20.324,15.113,30.462C297.073,370.416,297.854,371.2,298.596,372.2z"/>
	<path fill-rule="evenodd" clip-rule="evenodd" fill="none" d="M358.243,471.463c0-8.802,0.085-17.607-0.081-26.406
		c-0.029-1.521,1.193-4.125-2.014-4.471c-0.053-0.006-0.162-1.283,0.07-1.834c1.894-4.495,3.81-8.983,5.837-13.419
		c0.74-1.619,1.802-3.092,2.717-4.631c-0.026,1.898-0.097,3.797-0.071,5.695c0.084,6.292,0.311,12.584,0.259,18.875
		c-0.024,2.952-0.407,5.925-0.891,8.845c-1.776,10.73-3.654,21.443-5.529,32.156c-0.101,0.577-0.525,1.098-0.799,1.644
		c-0.074-0.568-0.211-1.135-0.213-1.703c-0.017-4.917-0.01-9.833-0.01-14.749C357.76,471.464,358.002,471.464,358.243,471.463z"/>
	<path fill-rule="evenodd" clip-rule="evenodd" fill="none" d="M296.723,436.515c0,1.859,0.01,3.719-0.01,5.579
		c-0.003,0.303-0.134,0.605-0.206,0.909c-0.13-0.294-0.288-0.578-0.385-0.882c-2.041-6.361-4.034-12.739-6.134-19.082
		c-0.689-2.081-1.387-4.238-2.543-6.069c-3.46-5.482,0.4-9.821,1.991-14.521c0.074-0.218,0.65-0.496,0.677-0.466
		c0.54,0.606,1.331,1.188,1.49,1.904c1.546,6.976,3.146,13.947,4.392,20.98c0.676,3.815,0.698,7.747,1.016,11.626
		C296.914,436.5,296.818,436.508,296.723,436.515z"/>
	<path fill-rule="evenodd" clip-rule="evenodd" fill="none" d="M267.405,201.565c-0.268-5.486-0.572-10.97-0.765-16.458
		c-0.03-0.849,0.456-1.717,0.703-2.576c0.3,0.757,0.699,1.492,0.882,2.277c0.75,3.216,1.219,6.515,2.196,9.657
		c1.354,4.355-0.49,8.128-1.668,12.049c-0.12,0.399-0.551,0.706-0.837,1.056c-0.094-0.395-0.239-0.785-0.273-1.185
		c-0.134-1.604-0.234-3.21-0.346-4.816C267.334,201.568,267.37,201.566,267.405,201.565z"/>
	<path fill-rule="evenodd" clip-rule="evenodd" fill="none" d="M464.747,279.734c0.188,0.733,0.718,1.582,0.515,2.183
		c-2.971,8.791-6.035,17.55-9.088,26.313c-0.45,1.294-0.953,2.569-1.433,3.853c0.161-1.4,0.087-2.877,0.521-4.186
		c1.915-5.759,4.005-11.459,5.974-17.2c1.239-3.612,2.379-7.258,3.563-10.889L464.747,279.734z"/>
	<path fill-rule="evenodd" clip-rule="evenodd" fill="none" d="M369.581,173.255c-0.655,1.506-1.302,3.162-2.08,4.752
		c-2.22,4.537-4.487,9.051-6.747,13.568c-1.839,3.675-3.675,7.352-5.56,11.003c-0.273,0.529-0.813,0.92-1.229,1.375
		c0.15-0.646,0.184-1.35,0.47-1.929c3.066-6.198,6.169-12.378,9.269-18.56c1.696-3.383,3.402-6.763,5.118-10.137
		c0.135-0.264,0.383-0.47,0.578-0.703C369.443,172.778,369.487,172.931,369.581,173.255z"/>
	<path fill-rule="evenodd" clip-rule="evenodd" fill="none" d="M449.678,350.299c0.126-1.268,0.061-1.69,0.216-2.005
		c2.419-4.931,4.823-9.871,7.327-14.759c1.19-2.324,2.537-4.574,3.92-6.79c0.352-0.563,1.113-0.868,1.688-1.292
		c-0.125,0.631-0.101,1.345-0.397,1.882c-3.3,5.977-6.653,11.923-9.984,17.883C451.665,346.615,450.913,348.029,449.678,350.299z"/>
	<path fill-rule="evenodd" clip-rule="evenodd" fill="none" d="M379.534,288.015c1.271-4.504,2.409-8.615,3.623-12.703
		c0.101-0.336,0.718-0.519,1.095-0.772c0.444,0.691,1.424,1.589,1.25,2.042c-1.576,4.08-3.35,8.083-5.091,12.099
		c-0.069,0.16-0.396,0.209-0.602,0.31C379.681,288.532,379.551,288.075,379.534,288.015z"/>
	<path fill-rule="evenodd" clip-rule="evenodd" fill="none" d="M389.815,285.097c-2.175,1.833-4.432,3.735-6.688,5.637
		c-0.081-0.487-0.37-1.059-0.211-1.447c1.128-2.734,2.334-5.437,3.56-8.129c0.11-0.242,0.532-0.343,0.81-0.509
		C388.032,281.962,388.78,283.277,389.815,285.097z"/>
	<path fill-rule="evenodd" clip-rule="evenodd" fill="none" d="M459.881,161.051c-0.527,0.874-1.237,1.836-1.723,2.902
		c-1.007,2.21-1.89,4.477-2.839,6.713c-0.091,0.213-0.294,0.378-0.444,0.565c0.015-0.216,0.004-0.438,0.048-0.649
		c0.836-4.056,1.661-8.115,2.539-12.162c0.117-0.539,0.51-1.019,0.774-1.526c0.166,0.5,0.307,1.011,0.503,1.499
		C459.071,159.219,459.439,160.029,459.881,161.051z"/>
	<path fill-rule="evenodd" clip-rule="evenodd" fill="none" d="M455.435,243.686c0.34,5.01,0.618,8.962,0.854,12.917
		c0.02,0.317-0.251,0.652-0.387,0.978c-0.144-0.277-0.379-0.543-0.416-0.834c-0.202-1.589-0.295-3.193-0.536-4.775
		c-0.583-3.817-1.235-7.623-1.83-11.438c-0.051-0.325,0.125-0.686,0.195-1.03c0.183,0.261,0.405,0.503,0.54,0.787
		C454.527,241.702,455.177,243.127,455.435,243.686z"/>
	<path fill-rule="evenodd" clip-rule="evenodd" fill="none" d="M224.75,320.858c0,3.309,0.005,6.526-0.009,9.744
		c-0.001,0.299-0.13,0.598-0.2,0.897c-0.137-0.289-0.349-0.564-0.401-0.868c-0.553-3.175-1.229-6.34-1.541-9.541
		c-0.122-1.242,0.596-2.566,0.931-3.853C223.931,318.429,224.333,319.62,224.75,320.858z"/>
	<path fill-rule="evenodd" clip-rule="evenodd" fill="none" d="M215.035,188.614c0.238-1.024,0.463-1.991,0.688-2.958
		c0.22,0.942,0.528,1.874,0.646,2.829c0.604,4.863,1.169,9.731,1.716,14.602c0.05,0.45-0.12,0.925-0.188,1.388
		c-0.16-0.369-0.404-0.723-0.468-1.108C216.617,198.452,215.829,193.533,215.035,188.614z"/>
	<path fill-rule="evenodd" clip-rule="evenodd" fill="none" d="M315.803,282.71c0.624-3.758,1.235-7.518,1.886-11.27
		c0.061-0.349,0.381-0.652,0.58-0.978c0.128,0.352,0.421,0.735,0.359,1.049c-0.784,3.977-1.617,7.943-2.447,11.911
		c-0.051,0.242-0.179,0.468-0.271,0.702C315.874,283.653,315.837,283.183,315.803,282.71z"/>
	<path fill-rule="evenodd" clip-rule="evenodd" fill="none" d="M464.799,279.809c0.81-2.385,1.604-4.776,2.445-7.15
		c0.125-0.354,0.475-0.628,0.72-0.94c0.063,0.373,0.297,0.826,0.165,1.106c-1.092,2.317-2.252,4.603-3.386,6.903
		C464.747,279.734,464.799,279.809,464.799,279.809z"/>
	<path fill-rule="evenodd" clip-rule="evenodd" fill="none" d="M425.314,409.91c-1.159,1.264-2.255,2.465-3.363,3.656
		c-0.079,0.084-0.248,0.085-0.375,0.124c0.044-0.151,0.069-0.311,0.134-0.454c0.585-1.303,1.14-2.624,1.799-3.889
		c0.133-0.255,0.672-0.409,1.017-0.399C424.722,408.953,424.904,409.387,425.314,409.91z"/>
	<path fill-rule="evenodd" clip-rule="evenodd" fill="none" d="M450.63,217.118c0.173,0.33,0.459,0.648,0.497,0.993
		c0.102,0.919,0.023,1.861,0.156,2.773c0.114,0.793,0.42,1.56,0.641,2.337c-0.458-0.884-1.049-1.727-1.339-2.663
		c-0.326-1.056-0.383-2.195-0.557-3.298C450.229,217.213,450.43,217.166,450.63,217.118z"/>
	<path fill-rule="evenodd" clip-rule="evenodd" fill="none" d="M472.269,309.216c0.02-0.42-0.052-0.701,0.055-0.87
		c0.931-1.487,1.894-2.955,2.847-4.428c0.084,0.074,0.252,0.194,0.24,0.214c-0.898,1.59-1.81,3.172-2.725,4.752
		C472.649,308.947,472.566,308.982,472.269,309.216z"/>
	<path fill-rule="evenodd" clip-rule="evenodd" fill="none" d="M469.016,315.306c-0.27-0.365-0.489-0.563-0.455-0.63
		c0.572-1.1,1.177-2.184,1.774-3.271c0.172,0.15,0.516,0.385,0.489,0.438C470.288,312.931,469.711,313.998,469.016,315.306z"/>
	<path fill-rule="evenodd" clip-rule="evenodd" fill="none" d="M453.264,318.853c-0.154-0.596-0.291-0.815-0.236-0.966
		c0.362-1.005,0.767-1.996,1.156-2.991c0.085,0.27,0.301,0.579,0.231,0.801C454.124,316.638,453.748,317.554,453.264,318.853z"/>
	<path fill-rule="evenodd" clip-rule="evenodd" fill="none" d="M267.834,211.245c-0.243,0.291-0.514,0.616-0.785,0.941
		c-0.122-0.335-0.386-0.698-0.33-1c0.077-0.42,0.396-0.796,0.61-1.191C267.472,210.349,267.615,210.703,267.834,211.245z"/>
	<path fill-rule="evenodd" clip-rule="evenodd" fill="none" d="M161.465,178.601c-0.239-0.96-0.395-1.322-0.393-1.682
		c0.001-0.193,0.274-0.385,0.424-0.578c0.085,0.38,0.194,0.756,0.244,1.141C161.763,177.647,161.663,177.828,161.465,178.601z"/>
	<path fill-rule="evenodd" clip-rule="evenodd" fill="none" d="M388.095,272.332c-0.158,0.271-0.264,0.451-0.369,0.631
		c-0.203-0.326-0.453-0.636-0.586-0.989c-0.054-0.143,0.149-0.381,0.236-0.577C387.61,271.702,387.845,272.006,388.095,272.332z"/>
	<path fill-rule="evenodd" clip-rule="evenodd" fill="none" d="M386.979,269.243c-0.118,0.048-0.463,0.25-0.509,0.197
		c-0.243-0.287-0.494-0.619-0.574-0.974c-0.039-0.172,0.288-0.427,0.45-0.644C386.514,268.199,386.682,268.576,386.979,269.243z"/>
	<path fill-rule="evenodd" clip-rule="evenodd" fill="none" d="M319.477,245.365c-0.077,0.55-0.074,0.774-0.144,0.973
		c-0.102,0.294-0.255,0.57-0.387,0.854c0.005-0.318-0.03-0.643,0.029-0.95C319.016,246.035,319.188,245.854,319.477,245.365z"/>
</g>
</svg>
