<?xml version="1.0" encoding="utf-8"?>
<!-- Generator: Adobe Illustrator 16.0.0, SVG Export Plug-In . SVG Version: 6.00 Build 0)  -->
<!DOCTYPE svg PUBLIC "-//W3C//DTD SVG 1.1//EN" "http://www.w3.org/Graphics/SVG/1.1/DTD/svg11.dtd">
<svg version="1.1" id="Layer_1" xmlns="http://www.w3.org/2000/svg" xmlns:xlink="http://www.w3.org/1999/xlink" x="0px" y="0px"
	 width="700px" height="1000px" viewBox="0 0 700 1000" enable-background="new 0 0 700 1000" xml:space="preserve">
<g>
	<path fill-rule="evenodd" clip-rule="evenodd" fill="none" d="M231.631,770.548c0-80.234,0-160.47,0.03-240.704
		c0-0.228,0.447-0.655,0.686-0.655c53.94-0.029,107.881-0.029,161.821,0.001c0.228,0.001,0.655,0.447,0.655,0.687
		c0.028,160.469,0.028,320.938-0.001,481.408c0,0.228-0.447,0.654-0.686,0.655c-53.94,0.028-107.881,0.028-161.822-0.002
		c-0.228,0-0.655-0.447-0.655-0.686C231.631,931.018,231.631,850.782,231.631,770.548z M383.416,566.445
		c-0.363,0.102-0.728,0.202-1.092,0.303c0,0.676,0.104,1.375-0.035,2.021c-0.098,0.45-0.529,0.829-0.812,1.239
		c-0.313-0.354-0.757-0.659-0.919-1.073c-0.959-2.45-1.813-4.94-2.776-7.388c-1.434-3.643-2.921-7.264-4.398-10.889
		c-1.101-2.697-2.072-5.462-3.381-8.056c-1.03-2.042-2.472-3.879-3.766-5.782c-0.39-0.572-0.9-1.063-1.355-1.59
		c-0.16,0.914-0.712,1.992-0.41,2.713c1.123,2.689,2.733,5.182,3.78,7.894c2.094,5.429,3.806,11.006,5.925,16.423
		c1.606,4.104,3.755,7.997,5.349,12.105c0.729,1.879,0.946,4.048,0.966,6.089c0.04,4.165,0.176,8.39-0.418,12.49
		c-1.511,10.438-3.134,20.877-5.26,31.203c-0.991,4.813-3.21,9.381-4.976,14.02c-0.327,0.861-1.157,1.526-1.734,2.298
		c-0.143,0.19-0.235,0.434-0.298,0.667c-0.274,1.023-0.304,2.19-0.832,3.053c-1.489,2.43-3.238,4.699-4.781,7.098
		c-2.701,4.201-5.297,8.47-7.994,12.674c-1.319,2.058-2.766,4.033-4.165,6.039c-0.081,0.116-0.25,0.17-0.379,0.252
		c-0.012-0.298-0.105-0.621-0.023-0.891c1.533-5.04,3.223-10.037,4.595-15.12c1.198-4.437,2.403-8.924,2.963-13.467
		c0.853-6.927,1.087-13.927,1.704-20.885c0.52-5.857,1.211-11.7,1.822-17.549c0.24-2.301,0.212-4.665,0.763-6.888
		c0.891-3.596,2.147-7.104,3.277-10.639c0.335-1.048,0.789-2.057,1.113-3.106c0.03-0.1-0.632-0.585-0.726-0.522
		c-1.067,0.715-2.357,1.313-3.052,2.315c-0.895,1.291-0.952,3.256-1.989,4.336c-2.527,2.633-3.17,5.506-2.287,8.913
		c0.126,0.486-0.027,1.049-0.084,1.573c-0.008,0.067-0.312,0.17-0.316,0.16c-3.049-5.133-5.837-10.442-9.191-15.366
		c-3.127-4.59-6.774-8.84-10.355-13.102c-1.926-2.293-4.056-4.475-6.397-6.32c-0.662-0.521-2.396,0.316-3.639,0.531
		c0.274,0.774,0.382,1.678,0.86,2.294c0.771,0.992,1.868,1.726,2.681,2.691c2.446,2.901,5.016,5.727,7.183,8.83
		c4.069,5.831,8.25,11.637,11.671,17.846c1.896,3.44,2.79,7.616,3.331,11.57c0.637,4.649,0.535,9.419,0.502,14.135
		c-0.026,3.892-0.293,7.793-0.683,11.667c-0.421,4.176-0.78,8.404-1.768,12.463c-1.073,4.411-2.772,8.679-4.333,12.961
		c-0.768,2.108-1.877,4.09-2.759,6.159c-0.709,1.665-1.166,3.452-2,5.045c-0.79,1.508-2.315,2.704-2.835,4.265
		c-1.307,3.919-1.998,8.049-3.38,11.937c-1.031,2.898-2.735,5.563-4.201,8.298c-0.202,0.377-0.759,0.563-1.151,0.839
		c-0.088-0.192-0.26-0.388-0.253-0.576c0.154-4.249,0.495-8.5,0.455-12.746c-0.051-5.469-0.306-10.94-0.657-16.398
		c-0.279-4.332-1.038-8.638-1.185-12.969c-0.08-2.343,0.887-4.702,1.01-7.073c0.226-4.374-0.091-8.788,0.326-13.138
		c0.364-3.802,1.213-7.597,2.233-11.288c1.267-4.583,3.01-9.034,4.295-13.613c0.125-0.444-1.495-1.423-2.367-2.071
		c-0.226-0.168-0.686-0.022-1.038-0.017c-0.009,0-0.022,0.039-0.025,0.062c-0.24,1.809-0.438,3.624-0.731,5.424
		c-0.31,1.902-0.439,3.901-1.16,5.646c-0.537,1.301-2.43,2.116-2.78,3.404c-1.104,4.052-1.716,8.234-2.643,12.34
		c-0.167,0.738-0.918,1.345-1.399,2.012c-0.146-0.345-0.292-0.689-0.436-1.035c-0.907-2.188-1.811-4.377-2.719-6.564
		c-0.908-2.187-2.158-4.301-2.629-6.577c-0.409-1.978-1.107-3.864,1.662-5.886c2.642-1.929,3.989-5.9,5.372-9.198
		c1.125-2.685,1.486-5.694,2.11-8.576c0.064-0.296-0.322-0.81-0.635-1.019c-0.172-0.115-0.835,0.112-0.924,0.329
		c-1.127,2.763-2.077,5.604-3.308,8.316c-0.863,1.902-1.959,3.735-3.214,5.402c-0.496,0.659-1.704,1.042-2.584,1.037
		c-0.399-0.002-0.917-1.214-1.159-1.951c-0.427-1.302-0.729-2.65-1.002-3.996c-0.561-2.762-1.049-5.539-1.61-8.302
		c-0.158-0.776-0.467-1.521-0.707-2.281c-0.215,0.08-0.595,0.127-0.619,0.246c-0.333,1.64-1.052,3.353-0.829,4.927
		c0.659,4.646,1.79,9.225,2.5,13.865c0.133,0.869-0.598,2.505-1.308,2.769c-5.056,1.872-10.792,2.208-14.543,6.885
		c-0.904,1.126-2.061,2.047-2.989,3.156c-0.794,0.95-1.428,2.034-2.132,3.059c-0.039-0.662-0.164-1.331-0.101-1.983
		c0.338-3.504,0.784-7,1.056-10.509c0.08-1.027-0.225-2.104-0.468-3.13c-0.141-0.592-0.747-1.135-0.732-1.688
		c0.032-1.274,0.568-2.577,0.398-3.797c-0.097-0.691-1.187-1.244-1.838-1.85c-0.008-0.008-0.187,0.102-0.196,0.169
		c-0.28,1.994-0.525,3.992-0.825,5.983c-0.327,2.168-0.664,4.337-1.066,6.492c-0.385,2.066-0.764,4.144-1.328,6.166
		c-0.424,1.523-1.136,2.967-1.719,4.445c-0.813-1.131-1.753-2.192-2.419-3.404c-3.069-5.586-5.994-11.253-9.123-16.805
		c-1.008-1.788-2.177-3.835-3.834-4.808c-1.635-0.96-3.441-4.068-2.286-5.744c1.825-2.647,3.748-5.257,5.23-8.092
		c0.537-1.026-0.276-2.677-0.122-4.002c0.521-4.469,1.249-8.915,1.783-13.383c0.131-1.096-0.147-2.248-0.29-3.368
		c-0.111-0.869-0.251-1.745-0.499-2.582c-0.063-0.212-0.588-0.288-0.9-0.427c-0.416,1.157-1.059,2.285-1.208,3.476
		c-0.542,4.348-0.61,8.779-1.49,13.049c-0.438,2.122-2.115,4.063-3.488,5.893c-1.14,1.52-2.663,2.751-3.998,4.128
		c-0.248,0.255-0.409,0.594-0.609,0.894c-0.305-0.291-0.778-0.53-0.884-0.881c-0.388-1.275-0.733-2.576-0.945-3.892
		c-0.289-1.798-0.328-3.642-0.694-5.42c-0.205-0.995-0.855-1.897-1.304-2.841c-0.604,0.523-1.599,0.962-1.738,1.589
		c-0.362,1.627-0.608,3.367-0.422,5.007c0.293,2.591,0.355,5.534,1.668,7.591c1.338,2.096,1.275,3.603-0.561,5.366
		c-2.056,1.976-3.224,4.884-4.738,7.409c-0.445,0.742-0.752,1.566-1.122,2.353c-0.656-0.605-1.664-1.096-1.907-1.837
		c-1.152-3.516-2.165-7.083-3.084-10.668c-0.47-1.832-0.738-3.731-0.922-5.617c-0.188-1.933,0.009-3.912-0.273-5.825
		c-0.33-2.235-1.332-4.404-1.44-6.631c-0.169-3.441,0.381-6.916,0.247-10.362c-0.185-4.735-0.701-9.46-1.136-14.185
		c-0.067-0.726-0.461-1.421-0.704-2.131c-0.189,0.576-0.416,1.143-0.549,1.73c-0.056,0.248,0.163,0.551,0.125,0.81
		c-0.286,1.949-0.699,3.884-0.889,5.841c-0.243,2.507-0.307,5.029-0.461,7.545c-0.21,3.41-0.511,6.817-0.633,10.231
		c-0.207,5.738-0.773,11.517-0.331,17.211c0.569,7.317,1.698,14.624,3.12,21.83c1.276,6.463,3.157,12.817,4.995,19.154
		c1.332,4.59,2.69,9.229,4.66,13.563c1.996,4.392,4.752,8.439,7.185,12.632c1.648,2.84,3.563,5.558,4.912,8.532
		c1.863,4.112,3.533,8.346,4.866,12.657c1.382,4.468,2.167,9.117,3.406,13.635c0.655,2.387,1.806,4.634,2.588,6.992
		c1.525,4.6,2.966,9.229,4.409,13.855c1.114,3.57,2.233,7.141,3.247,10.74c0.781,2.774,1.486,5.577,2.072,8.398
		c0.696,3.354,1.178,6.751,1.85,10.11c0.463,2.316,1.2,4.58,1.626,6.901c1.413,7.706,2.904,15.402,4.036,23.15
		c0.655,4.485,0.458,9.09,1.046,13.589c0.548,4.199,1.854,8.3,2.39,12.5c0.328,2.574-0.322,5.257-0.251,7.883
		c0.083,3.065,0.65,6.122,0.651,9.182c0,1.463-1.146,2.913-1.206,4.392c-0.128,3.145,0.132,6.305,0.2,9.46
		c0.073,3.411,0.167,6.824,0.15,10.235c-0.032,6.186-0.158,12.369-0.21,18.554c-0.048,5.691-0.159,11.386-0.032,17.074
		c0.081,3.668,0.852,7.337,0.738,10.987c-0.1,3.196-1.26,6.351-1.484,9.556c-0.246,3.528-0.109,7.105,0.148,10.641
		c0.198,2.714,1.176,5.392,1.213,8.093c0.065,4.776-0.313,9.559-0.521,14.338c-0.139,3.195-0.277,6.393-0.468,9.586
		c-0.246,4.111-0.563,8.218-0.812,12.329c-0.294,4.842-0.548,9.686-0.822,14.528c-0.307,5.441-0.549,10.889-0.949,16.323
		c-0.268,3.634-0.646,7.27-1.194,10.871c-0.468,3.076-0.042,5.476,3.49,6.085c0.567,0.098,1.256-0.515,1.89-0.796
		c0.357-0.158,0.722-0.456,1.076-0.444c4.568,0.142,9.14,0.537,13.7,0.425c2.838-0.07,5.644-1.008,8.489-1.345
		c2.421-0.287,4.907-0.091,7.305-0.479c1.028-0.166,2.355-1.091,2.719-2.001c0.339-0.848-0.539-2.119-0.677-3.229
		c-0.609-4.878-1.274-9.755-1.672-14.652c-0.43-5.285-0.737-10.591-0.828-15.892c-0.131-7.697,0.071-15.399-0.042-23.097
		c-0.096-6.582-0.505-13.16-0.647-19.743c-0.18-8.317-0.343-16.637-0.29-24.954c0.027-4.21,0.857-8.423,0.76-12.621
		c-0.119-5.128-0.986-10.234-1.241-15.363c-0.229-4.59-0.065-9.2-0.072-13.801c0-0.184,0.032-0.367,0.048-0.55
		c0.079,0.173,0.168,0.344,0.234,0.521c0.113,0.307,0.212,0.619,0.316,0.929c0.088-0.355,0.264-0.713,0.25-1.064
		c-0.177-4.751-0.411-9.5-0.565-14.251c-0.093-2.879-0.284-5.778-0.053-8.638c0.337-4.189,1.042-8.349,1.524-12.527
		c0.12-1.035-0.034-2.1-0.036-3.151c-0.001-1.35,0.023-2.699,0.037-4.049c0.216,0.014,0.433,0.027,0.648,0.041
		c0.213-4.63,0.393-9.263,0.683-13.888c0.035-0.569,0.659-1.101,1.004-1.652c0.082-0.13,0.207-0.277,0.202-0.411
		c-0.102-2.443-0.229-4.886-0.333-7.33c-0.089-2.118-0.215-4.236-0.214-6.355c0.002-2.013,0.063-4.033,0.264-6.034
		c0.111-1.109,0.514-2.201,0.878-3.27c0.15-0.44,0.795-0.806,0.784-1.192c-0.063-2.115-0.258-4.227-0.411-6.339
		c-0.007-0.104-0.044-0.204-0.067-0.307c-0.054,0.095-0.117,0.186-0.161,0.284c-0.178,0.404-0.339,0.816-0.539,1.209
		c-0.024,0.047-0.362-0.005-0.363-0.015c-0.075-4.006-0.17-8.013-0.152-12.019c0.003-0.605,0.719-1.188,0.793-1.817
		c0.689-5.857,1.227-11.733,2.005-17.577c0.216-1.621,1.053-3.17,1.681-4.722c0.294-0.729,0.908-1.342,1.136-2.081
		c0.711-2.311,1.261-4.671,1.958-6.986c1.388-4.606,2.726-9.231,4.304-13.772c0.714-2.053,1.724-4.092,3.006-5.839
		c2.409-3.282,5.148-6.32,7.681-9.515c1.48-1.868,3.1-3.704,4.171-5.803c1.719-3.367,2.939-6.984,4.553-10.409
		c1.205-2.56,2.883-4.902,4.023-7.486c2.318-5.251,4.385-10.612,6.612-15.904c2.216-5.268,5.041-10.35,6.615-15.797
		c1.853-6.41,2.529-13.152,3.946-19.7c0.855-3.953,2.36-7.768,3.185-11.726c0.747-3.592,1.131-7.282,1.369-10.948
		c0.175-2.705-0.399-5.462-0.18-8.158c0.336-4.132,1.583-8.241,1.493-12.34c-0.095-4.347-1.164-8.697-2.068-12.991
		c-0.592-2.813-1.829-5.487-2.451-8.296c-0.815-3.687-1.158-7.479-1.991-11.161c-0.637-2.813-1.618-5.562-2.647-8.263
		c-0.44-1.155-1.391-2.116-2.109-3.165c-0.301,1.594-0.729,3.179-0.854,4.786c-0.072,0.932,0.435,1.895,0.515,2.856
		c0.078,0.938-0.298,1.961-0.06,2.832C378.913,550.606,381.178,558.522,383.416,566.445z"/>
	<path fill-rule="evenodd" clip-rule="evenodd" d="M330.688,769.604 M330.625,772.75c0.011,0.387-0.1,1.747-0.25,2.188
		c-0.364,1.068-0.182,2.248-0.293,3.357c-0.2,2.001-0.262,4.021-0.264,6.034c-0.001,2.119,0.125,4.237,0.214,6.355
		c0.103,2.444,0.231,4.887,0.333,7.33c0.005,0.134-0.12,0.281-0.202,0.411c-0.346,0.552-0.969,1.083-1.004,1.652
		c-0.29,4.625-0.47,9.258-0.683,13.888c-0.216-0.014-0.432-0.027-0.648-0.041c-0.014,1.35-0.039,2.699-0.037,4.049
		c0.001,1.052,0.155,2.116,0.036,3.151c-0.481,4.179-1.187,8.338-1.524,12.527c-0.23,2.859-0.04,5.759,0.053,8.638
		c0.154,4.751,0.389,9.5,0.565,14.251c0.013,0.352-0.163,0.709-0.25,1.064c-0.104-0.31-0.203-0.622-0.316-0.929
		c-0.066-0.178-0.155-0.349-0.234-0.521c-0.017,0.183-0.049,0.366-0.048,0.55c0.006,4.601-0.157,9.211,0.072,13.801
		c0.255,5.129,1.122,10.235,1.241,15.363c0.098,4.198-0.733,8.411-0.76,12.621c-0.053,8.317,0.11,16.637,0.29,24.954
		c0.143,6.583,0.552,13.161,0.647,19.743c0.112,7.697-0.09,15.399,0.042,23.097c0.091,5.301,0.397,10.606,0.828,15.892
		c0.398,4.897,1.063,9.774,1.672,14.652c0.138,1.11,1.016,2.382,0.677,3.229c-0.364,0.91-1.69,1.835-2.719,2.001
		c-2.397,0.388-4.883,0.191-7.305,0.479c-2.845,0.337-5.651,1.274-8.489,1.345c-4.56,0.112-9.132-0.283-13.7-0.425
		c-0.354-0.012-0.718,0.286-1.076,0.444c-0.634,0.281-1.322,0.894-1.89,0.796c-3.533-0.609-3.958-3.009-3.49-6.085
		c0.548-3.602,0.926-7.237,1.194-10.871c0.4-5.435,0.642-10.882,0.949-16.323c0.273-4.843,0.527-9.687,0.822-14.528
		c0.25-4.111,0.566-8.218,0.812-12.329c0.19-3.193,0.329-6.391,0.468-9.586c0.208-4.779,0.586-9.562,0.521-14.338
		c-0.037-2.701-1.016-5.379-1.213-8.093c-0.257-3.535-0.394-7.112-0.148-10.641c0.224-3.205,1.384-6.359,1.484-9.556
		c0.114-3.65-0.657-7.319-0.738-10.987c-0.127-5.688-0.016-11.383,0.032-17.074c0.052-6.185,0.178-12.368,0.21-18.554
		c0.017-3.411-0.077-6.824-0.15-10.235c-0.068-3.155-0.328-6.315-0.2-9.46c0.061-1.479,1.207-2.929,1.206-4.392
		c0-3.06-0.568-6.116-0.651-9.182c-0.071-2.626,0.58-5.309,0.251-7.883c-0.535-4.2-1.841-8.301-2.39-12.5
		c-0.588-4.499-0.391-9.104-1.046-13.589c-1.131-7.748-2.623-15.444-4.036-23.15c-0.426-2.321-1.163-4.585-1.626-6.901
		c-0.672-3.359-1.154-6.757-1.85-10.11c-0.586-2.821-1.291-5.624-2.072-8.398c-1.014-3.6-2.133-7.17-3.247-10.74
		c-1.443-4.627-2.884-9.256-4.409-13.855c-0.782-2.358-1.933-4.605-2.588-6.992c-1.24-4.518-2.024-9.167-3.406-13.635
		c-1.333-4.312-3.003-8.545-4.866-12.657c-1.348-2.975-3.263-5.692-4.912-8.532c-2.433-4.192-5.189-8.24-7.185-12.632
		c-1.97-4.334-3.329-8.973-4.66-13.563c-1.838-6.337-3.719-12.691-4.995-19.154c-1.422-7.206-2.551-14.513-3.12-21.83
		c-0.442-5.694,0.124-11.473,0.331-17.211c0.123-3.414,0.423-6.821,0.633-10.231c0.155-2.516,0.218-5.038,0.461-7.545
		c0.19-1.957,0.604-3.892,0.889-5.841c0.038-0.259-0.181-0.562-0.125-0.81c0.133-0.588,0.36-1.154,0.549-1.73
		c0.243,0.71,0.637,1.405,0.704,2.131c0.435,4.725,0.951,9.449,1.136,14.185c0.134,3.446-0.416,6.921-0.247,10.362
		c0.109,2.227,1.11,4.396,1.44,6.631c0.283,1.913,0.085,3.893,0.273,5.825c0.184,1.886,0.452,3.785,0.922,5.617
		c0.92,3.585,1.932,7.152,3.084,10.668c0.243,0.741,1.251,1.231,1.907,1.837c0.37-0.786,0.677-1.61,1.122-2.353
		c1.514-2.525,2.683-5.434,4.738-7.409c1.835-1.764,1.898-3.271,0.561-5.366c-1.313-2.057-1.375-5-1.668-7.591
		c-0.186-1.64,0.061-3.38,0.422-5.007c0.139-0.627,1.133-1.065,1.738-1.589c0.449,0.943,1.1,1.846,1.304,2.841
		c0.366,1.778,0.405,3.622,0.694,5.42c0.211,1.315,0.557,2.616,0.945,3.892c0.106,0.351,0.579,0.59,0.884,0.881
		c0.201-0.3,0.362-0.639,0.609-0.894c1.335-1.377,2.858-2.608,3.998-4.128c1.373-1.83,3.051-3.771,3.488-5.893
		c0.88-4.27,0.948-8.701,1.49-13.049c0.148-1.19,0.792-2.318,1.208-3.476c0.313,0.139,0.837,0.215,0.9,0.427
		c0.248,0.837,0.388,1.713,0.499,2.582c0.143,1.12,0.42,2.272,0.29,3.368c-0.534,4.468-1.262,8.914-1.783,13.383
		c-0.154,1.325,0.659,2.976,0.122,4.002c-1.482,2.835-3.406,5.444-5.23,8.092c-1.155,1.676,0.651,4.784,2.286,5.744
		c1.657,0.973,2.826,3.02,3.834,4.808c3.129,5.552,6.054,11.219,9.123,16.805c0.666,1.212,1.605,2.273,2.419,3.404
		c0.583-1.479,1.295-2.922,1.719-4.445c0.563-2.022,0.942-4.1,1.328-6.166c0.402-2.155,0.74-4.324,1.066-6.492
		c0.299-1.991,0.544-3.989,0.825-5.983c0.009-0.067,0.188-0.177,0.196-0.169c0.651,0.605,1.742,1.158,1.838,1.85
		c0.17,1.22-0.366,2.522-0.398,3.797c-0.014,0.554,0.592,1.097,0.732,1.688c0.244,1.026,0.548,2.103,0.468,3.13
		c-0.272,3.509-0.718,7.005-1.056,10.509c-0.063,0.652,0.062,1.321,0.101,1.983c0.705-1.024,1.338-2.108,2.132-3.059
		c0.928-1.109,2.085-2.03,2.989-3.156c3.752-4.677,9.487-5.013,14.543-6.885c0.71-0.264,1.441-1.899,1.308-2.769
		c-0.711-4.641-1.841-9.219-2.5-13.865c-0.223-1.574,0.497-3.287,0.829-4.927c0.024-0.119,0.404-0.166,0.619-0.246
		c0.24,0.76,0.549,1.505,0.707,2.281c0.562,2.763,1.049,5.54,1.61,8.302c0.273,1.346,0.576,2.694,1.002,3.996
		c0.242,0.737,0.76,1.949,1.159,1.951c0.88,0.005,2.088-0.378,2.584-1.037c1.254-1.667,2.351-3.5,3.214-5.402
		c1.231-2.713,2.181-5.554,3.308-8.316c0.089-0.217,0.752-0.444,0.924-0.329c0.313,0.209,0.699,0.723,0.635,1.019
		c-0.624,2.882-0.984,5.892-2.11,8.576c-1.383,3.298-2.73,7.27-5.372,9.198c-2.769,2.021-2.071,3.908-1.662,5.886
		c0.471,2.276,1.721,4.391,2.629,6.577c0.908,2.188,1.812,4.376,2.719,6.564c0.143,0.346,0.29,0.69,0.436,1.035
		c0.481-0.667,1.233-1.273,1.399-2.012c0.926-4.105,1.539-8.288,2.643-12.34c0.351-1.288,2.243-2.104,2.78-3.404
		c0.721-1.745,0.85-3.744,1.16-5.646c0.292-1.8,0.491-3.615,0.731-5.424c0.003-0.022,0.016-0.062,0.025-0.062
		c0.352-0.006,0.812-0.151,1.038,0.017c0.872,0.648,2.491,1.627,2.367,2.071c-1.285,4.579-3.028,9.03-4.295,13.613
		c-1.021,3.691-1.869,7.486-2.233,11.288c-0.417,4.35-0.1,8.764-0.326,13.138c-0.123,2.371-1.089,4.73-1.01,7.073
		c0.147,4.331,0.906,8.637,1.185,12.969c0.351,5.458,0.606,10.93,0.657,16.398c0.04,4.246-0.301,8.497-0.455,12.746
		c-0.007,0.188,0.165,0.384,0.253,0.576c0.393-0.275,0.949-0.462,1.151-0.839c1.466-2.735,3.17-5.399,4.201-8.298
		c1.383-3.888,2.073-8.018,3.38-11.937c0.52-1.561,2.045-2.757,2.835-4.265c0.835-1.593,1.291-3.38,2-5.045
		c0.882-2.069,1.991-4.051,2.759-6.159c1.56-4.282,3.259-8.55,4.333-12.961c0.987-4.059,1.347-8.287,1.768-12.463
		c0.39-3.874,0.656-7.775,0.683-11.667c0.033-4.716,0.135-9.485-0.502-14.135c-0.541-3.954-1.436-8.13-3.331-11.57
		c-3.42-6.209-7.602-12.015-11.671-17.846c-2.167-3.104-4.737-5.929-7.183-8.83c-0.813-0.966-1.911-1.699-2.681-2.691
		c-0.478-0.616-0.586-1.52-0.86-2.294c1.243-0.215,2.977-1.053,3.639-0.531c2.342,1.846,4.471,4.027,6.397,6.32
		c3.581,4.262,7.228,8.512,10.355,13.102c3.354,4.924,6.143,10.233,9.191,15.366c0.005,0.01,0.309-0.093,0.316-0.16
		c0.057-0.524,0.21-1.087,0.084-1.573c-0.883-3.407-0.24-6.28,2.287-8.913c1.037-1.08,1.095-3.045,1.989-4.336
		c0.694-1.002,1.984-1.601,3.052-2.315c0.094-0.063,0.756,0.423,0.726,0.522c-0.324,1.05-0.778,2.059-1.113,3.106
		c-1.13,3.535-2.387,7.043-3.277,10.639c-0.551,2.223-0.522,4.587-0.763,6.888c-0.611,5.849-1.303,11.691-1.822,17.549
		c-0.617,6.958-0.852,13.958-1.704,20.885c-0.56,4.543-1.765,9.03-2.963,13.467c-1.372,5.083-3.062,10.08-4.595,15.12
		c-0.082,0.27,0.011,0.593,0.023,0.891c0.128-0.082,0.298-0.136,0.379-0.252c1.399-2.006,2.845-3.981,4.165-6.039
		c2.697-4.204,5.293-8.473,7.994-12.674c1.543-2.398,3.292-4.668,4.781-7.098c0.528-0.862,0.558-2.029,0.832-3.053
		c0.063-0.233,0.155-0.477,0.298-0.667c0.577-0.771,1.407-1.437,1.734-2.298c1.766-4.639,3.984-9.207,4.976-14.02
		c2.126-10.326,3.749-20.765,5.26-31.203c0.594-4.101,0.458-8.325,0.418-12.49c-0.02-2.041-0.237-4.21-0.966-6.089
		c-1.594-4.108-3.742-8.001-5.349-12.105c-2.119-5.417-3.831-10.994-5.925-16.423c-1.047-2.712-2.657-5.204-3.78-7.894
		c-0.302-0.721,0.25-1.799,0.41-2.713c0.455,0.527,0.966,1.018,1.355,1.59c1.294,1.903,2.735,3.74,3.766,5.782
		c1.309,2.594,2.28,5.358,3.381,8.056c1.478,3.625,2.965,7.246,4.398,10.889c0.963,2.447,1.817,4.938,2.776,7.388
		c0.162,0.414,0.605,0.719,0.919,1.073c0.282-0.41,0.714-0.789,0.812-1.239c0.14-0.646,0.035-1.345,0.035-2.021
		c0.364-0.101,0.729-0.201,1.092-0.303c-2.238-7.923-4.503-15.839-6.678-23.78c-0.238-0.871,0.138-1.894,0.06-2.832
		c-0.08-0.962-0.587-1.925-0.515-2.856c0.124-1.607,0.553-3.192,0.854-4.786c0.719,1.049,1.669,2.01,2.109,3.165
		c1.029,2.701,2.011,5.45,2.647,8.263c0.833,3.683,1.176,7.475,1.991,11.161c0.622,2.809,1.859,5.483,2.451,8.296
		c0.904,4.294,1.974,8.645,2.068,12.991c0.09,4.099-1.157,8.208-1.493,12.34c-0.22,2.696,0.354,5.453,0.18,8.158
		c-0.238,3.666-0.622,7.356-1.369,10.948c-0.824,3.958-2.329,7.772-3.185,11.726c-1.417,6.548-2.094,13.29-3.946,19.7
		c-1.574,5.447-4.399,10.529-6.615,15.797c-2.228,5.292-4.294,10.653-6.612,15.904c-1.141,2.584-2.818,4.927-4.023,7.486
		c-1.613,3.425-2.834,7.042-4.553,10.409c-1.071,2.099-2.69,3.935-4.171,5.803c-2.533,3.194-5.272,6.232-7.681,9.515
		c-1.282,1.747-2.292,3.786-3.006,5.839c-1.579,4.541-2.916,9.166-4.304,13.772c-0.698,2.315-1.247,4.676-1.958,6.986
		c-0.228,0.739-0.841,1.353-1.136,2.081c-0.628,1.552-1.464,3.101-1.681,4.722c-0.779,5.844-1.316,11.72-2.005,17.577
		c-0.074,0.63-0.791,1.212-0.793,1.817c-0.018,4.006,0.078,8.013,0.152,12.019 M316.794,623.868
		c-0.689-1.339-1.038-2.655-1.88-3.444c-0.644-0.603-2.232-1.059-2.848-0.681c-2.811,1.726-5.533,3.64-8.084,5.732
		c-2.843,2.333-5.643,4.771-8.12,7.477c-1.411,1.542-2.323,3.633-3.131,5.61c-1.046,2.558-2.22,5.199-2.508,7.894
		c-0.364,3.408,0.159,6.904,0.201,10.363c0.033,2.757-0.333,5.54-0.076,8.269c0.447,4.742,1.184,9.461,1.912,14.171
		c0.347,2.243,0.922,4.454,1.453,6.665c0.495,2.057,1.157,4.076,1.577,6.146c0.283,1.394,0.146,2.871,0.418,4.268
		c0.682,3.496,1.479,6.971,2.251,10.448c0.345,1.554,0.644,3.127,1.138,4.635c0.703,2.142,1.69,4.194,2.338,6.351
		c1.542,5.133,2.997,10.292,4.399,15.465c0.451,1.663,0.489,3.442,0.979,5.09c0.302,1.016,1.103,1.884,1.679,2.817
		c0.256-0.696,0.635-1.373,0.745-2.091c0.319-2.081,0.241-4.266,0.838-6.253c1.734-5.771,3.767-11.449,5.583-17.195
		c0.579-1.834,0.735-3.8,1.304-5.639c0.304-0.984,1.327-1.758,1.59-2.743c1.197-4.485,2.203-9.021,3.357-13.519
		c0.402-1.567,0.025-3.067-1.129-3.737c-0.188-0.108-0.236-0.518-0.284-0.798c-0.285-1.654-0.363-3.372-0.872-4.952
		c-0.555-1.721-1.581-3.284-2.253-4.975c-0.446-1.121-0.965-2.375-0.868-3.52c0.261-3.078-4.988-2.193-4.041-6.142
		c0.3-1.252-2.434-3.158-3.642-4.862c-2.178-3.073-4.326-6.176-6.286-9.388c-0.267-0.438,0.622-1.581,0.976-2.397
		c0.338,0.262,0.743,0.469,1.004,0.793c2.345,2.912,4.641,5.862,6.998,8.765c1.805,2.223,4.008,4.196,5.437,6.631
		c1.864,3.178,3.13,6.704,4.684,10.067c0.116,0.251,0.477,0.389,0.724,0.579c0.094-0.317,0.271-0.636,0.267-0.951
		c-0.016-1.303-0.269-2.628-0.1-3.901c0.312-2.347,1.245-4.666,1.229-6.992c-0.038-5.266-0.478-10.529-0.792-15.791
		c-0.106-1.787-0.226-3.583-0.508-5.348c-0.708-4.422-1.301-8.879-2.347-13.224C319.29,630.172,317.863,626.929,316.794,623.868z
		 M258.901,615.751c-0.79,0.464-1.104,0.556-1.111,0.666c-0.103,1.818-0.475,3.692-0.167,5.445c0.45,2.563,1.397,5.038,2.114,7.556
		c0.036,0.127-0.088,0.307-0.153,0.456c-0.408,0.938-1.418,2.152-1.133,2.765c1.803,3.874,3.845,7.641,5.904,11.39
		c1.393,2.536,3.004,4.953,4.403,7.486c1.295,2.345,2.361,4.816,3.669,7.152c1.316,2.35,2.81,4.599,4.219,6.896
		c0.896,1.46,1.804,2.913,2.659,4.396c0.693,1.201,1.342,2.43,1.956,3.673c0.302,0.611,0.475,1.286,0.725,1.926
		c0.013,0.034,0.191,0.005,0.292,0.006c-0.17-0.478-0.349-0.951-0.504-1.433c-0.056-0.173-0.08-0.366-0.073-0.548
		c0.09-2.425,0.226-4.848,0.278-7.272c0.103-4.817,0.175-9.635,0.212-14.452c0.003-0.438-0.3-0.899-0.528-1.313
		c-0.19-0.346-0.686-0.635-0.69-0.954c-0.048-3.652-0.442-7.365,0.064-10.947c0.963-6.819-2.117-12.592-4.555-18.379
		c-1.821-4.32-4.996-8.114-7.862-11.921c-0.88-1.169-3.874-2.396-3.97-2.259c-1.771,2.553-3.246,5.311-4.79,8.022
		C259.433,614.86,258.987,615.604,258.901,615.751z"/>
	<path fill-rule="evenodd" clip-rule="evenodd" fill="none" d="M316.794,623.868c1.069,3.061,2.496,6.304,3.313,9.693
		c1.045,4.345,1.639,8.802,2.347,13.224c0.283,1.765,0.402,3.561,0.508,5.348c0.313,5.262,0.754,10.525,0.792,15.791
		c0.017,2.326-0.917,4.646-1.229,6.992c-0.169,1.273,0.083,2.599,0.1,3.901c0.004,0.315-0.173,0.634-0.267,0.951
		c-0.247-0.19-0.608-0.328-0.724-0.579c-1.554-3.363-2.819-6.89-4.684-10.067c-1.429-2.435-3.632-4.408-5.437-6.631
		c-2.357-2.902-4.653-5.853-6.998-8.765c-0.261-0.324-0.666-0.531-1.004-0.793c-0.354,0.816-1.243,1.959-0.976,2.397
		c1.959,3.212,4.107,6.314,6.286,9.388c1.208,1.704,3.942,3.61,3.642,4.862c-0.947,3.948,4.302,3.063,4.041,6.142
		c-0.097,1.145,0.422,2.398,0.868,3.52c0.672,1.69,1.699,3.254,2.253,4.975c0.509,1.58,0.587,3.298,0.872,4.952
		c0.048,0.28,0.096,0.689,0.284,0.798c1.154,0.67,1.531,2.17,1.129,3.737c-1.154,4.497-2.16,9.033-3.357,13.519
		c-0.263,0.985-1.286,1.759-1.59,2.743c-0.568,1.839-0.725,3.805-1.304,5.639c-1.816,5.746-3.85,11.425-5.583,17.195
		c-0.597,1.987-0.52,4.172-0.838,6.253c-0.11,0.718-0.489,1.395-0.745,2.091c-0.577-0.934-1.377-1.802-1.679-2.817
		c-0.49-1.647-0.527-3.427-0.979-5.09c-1.402-5.173-2.856-10.332-4.399-15.465c-0.648-2.156-1.635-4.209-2.338-6.351
		c-0.495-1.508-0.793-3.081-1.138-4.635c-0.772-3.478-1.569-6.952-2.251-10.448c-0.272-1.396-0.136-2.874-0.418-4.268
		c-0.42-2.07-1.083-4.09-1.577-6.146c-0.531-2.211-1.106-4.422-1.453-6.665c-0.728-4.71-1.464-9.429-1.912-14.171
		c-0.257-2.729,0.109-5.512,0.076-8.269c-0.042-3.459-0.565-6.955-0.201-10.363c0.288-2.694,1.462-5.336,2.508-7.894
		c0.808-1.978,1.72-4.068,3.131-5.61c2.477-2.705,5.277-5.144,8.12-7.477c2.551-2.093,5.273-4.007,8.084-5.732
		c0.616-0.378,2.204,0.078,2.848,0.681C315.756,621.213,316.104,622.529,316.794,623.868z"/>
	<path fill-rule="evenodd" clip-rule="evenodd" fill="none" d="M258.901,615.751c0.086-0.146,0.532-0.891,0.96-1.644
		c1.543-2.712,3.019-5.47,4.79-8.022c0.096-0.138,3.09,1.09,3.97,2.259c2.866,3.807,6.041,7.601,7.862,11.921
		c2.438,5.787,5.519,11.56,4.555,18.379c-0.506,3.582-0.112,7.295-0.064,10.947c0.004,0.319,0.5,0.608,0.69,0.954
		c0.228,0.414,0.531,0.875,0.528,1.313c-0.037,4.817-0.109,9.635-0.212,14.452c-0.052,2.425-0.188,4.848-0.278,7.272
		c-0.007,0.182,0.017,0.375,0.073,0.548c0.155,0.481,0.334,0.955,0.504,1.433c-0.102-0.001-0.279,0.028-0.292-0.006
		c-0.25-0.64-0.423-1.314-0.725-1.926c-0.614-1.243-1.263-2.472-1.956-3.673c-0.855-1.483-1.764-2.937-2.659-4.396
		c-1.409-2.297-2.903-4.546-4.219-6.896c-1.308-2.336-2.374-4.808-3.669-7.152c-1.399-2.533-3.01-4.95-4.403-7.486
		c-2.059-3.749-4.102-7.516-5.904-11.39c-0.285-0.612,0.725-1.827,1.133-2.765c0.065-0.149,0.189-0.329,0.153-0.456
		c-0.717-2.518-1.665-4.993-2.114-7.556c-0.308-1.753,0.064-3.627,0.167-5.445C257.797,616.307,258.111,616.215,258.901,615.751z"/>
</g>
</svg>
